<svg xmlns="http://www.w3.org/2000/svg" xmlns:xlink="http://www.w3.org/1999/xlink" width="500" zoomAndPan="magnify" viewBox="0 0 375 374.999991" height="500" preserveAspectRatio="xMidYMid meet" version="1.0"><defs><g/></defs><g fill="#db7f50" fill-opacity="1"><g transform="translate(22.65172, 209.314848)"><g><path d="M 29.679688 -14.054688 L 28.921875 -14.054688 C 28.6875 -5.773438 24.492188 -3.207031 21.925781 -3.207031 C 19.183594 -3.207031 18.308594 -4.78125 18.308594 -8.511719 L 18.308594 -37.609375 L 28.921875 -37.609375 L 28.921875 -38.367188 L 18.308594 -38.367188 C 18.308594 -43.792969 13.9375 -48.164062 8.511719 -48.164062 L 5.480469 -48.164062 L 5.480469 -38.367188 L 0.351562 -38.367188 L 0.351562 -37.609375 L 5.480469 -37.609375 L 5.480469 -12.363281 C 5.480469 -2.742188 11.894531 0 17.609375 0 C 23.265625 0 29.679688 -3.847656 29.679688 -14.054688 Z M 29.679688 -14.054688 "/></g></g></g><g fill="#db7f50" fill-opacity="1"><g transform="translate(49.425404, 209.314848)"><g><path d="M 40.058594 -14.113281 L 39.359375 -14.113281 C 38.542969 -5.597656 33.355469 -2.097656 27.464844 -2.097656 C 20 -2.097656 15.628906 -6.589844 15.628906 -19.476562 L 39.535156 -19.476562 C 39.886719 -33.472656 31.546875 -39.183594 21.867188 -39.183594 C 10.203125 -39.183594 2.039062 -31.371094 2.039062 -19.652344 C 2.039062 -7.871094 10.847656 0 23.675781 0 C 32.363281 0 39.183594 -4.316406 40.058594 -14.113281 Z M 21.808594 -38.425781 C 27.523438 -38.425781 27.113281 -26.472656 27.113281 -20.175781 L 15.628906 -20.175781 C 15.6875 -31.953125 17.433594 -38.425781 21.808594 -38.425781 Z M 21.808594 -38.425781 "/></g></g></g><g fill="#db7f50" fill-opacity="1"><g transform="translate(87.627167, 209.314848)"><g><path d="M 30.671875 -37.667969 L 30.671875 -38.425781 C 22.214844 -38.425781 18.308594 -33.355469 16.792969 -26.355469 C 16.792969 -32.597656 11.71875 -37.667969 5.480469 -37.667969 L 3.964844 -37.667969 L 3.964844 -11.3125 C 3.964844 -5.074219 9.039062 0 15.277344 0 L 16.792969 0 L 16.792969 -18.136719 C 16.792969 -28.6875 19.710938 -37.667969 30.671875 -37.667969 Z M 30.671875 -37.667969 "/></g></g></g><g fill="#db7f50" fill-opacity="1"><g transform="translate(114.867306, 209.314848)"><g><path d="M 30.671875 -37.667969 L 30.671875 -38.425781 C 22.214844 -38.425781 18.308594 -33.355469 16.792969 -26.355469 C 16.792969 -32.597656 11.71875 -37.667969 5.480469 -37.667969 L 3.964844 -37.667969 L 3.964844 -11.3125 C 3.964844 -5.074219 9.039062 0 15.277344 0 L 16.792969 0 L 16.792969 -18.136719 C 16.792969 -28.6875 19.710938 -37.667969 30.671875 -37.667969 Z M 30.671875 -37.667969 "/></g></g></g><g fill="#db7f50" fill-opacity="1"><g transform="translate(142.107438, 209.314848)"><g><path d="M 21.867188 -39.183594 C 13.527344 -39.183594 7.929688 -35.921875 5.597656 -29.972656 L 6.414062 -29.972656 C 8.457031 -34.871094 12.710938 -37.496094 17.667969 -37.496094 C 23.5 -37.496094 25.832031 -34.230469 25.832031 -27 L 25.832031 -21.925781 C 11.078125 -20.585938 1.984375 -16.035156 1.984375 -8.28125 C 1.984375 -4.140625 4.664062 0 11.136719 0 C 18.660156 0 24.492188 -3.90625 26.125 -13.644531 L 26.125 -12.535156 C 26.125 -5.597656 31.722656 0 38.601562 0 L 38.601562 -23.03125 C 38.660156 -34.230469 31.78125 -39.183594 21.867188 -39.183594 Z M 14.8125 -10.789062 C 14.8125 -16.675781 19.359375 -20.292969 25.832031 -21.34375 L 25.832031 -19.59375 C 25.832031 -8.6875 21.984375 -5.421875 19.066406 -5.421875 C 16.503906 -5.421875 14.8125 -7.230469 14.8125 -10.789062 Z M 14.8125 -10.789062 "/></g></g></g><g fill="#db7f50" fill-opacity="1"><g transform="translate(180.425807, 209.314848)"><g><path d="M 39.652344 -15.800781 L 38.953125 -15.800781 C 39.011719 -8.222656 35.160156 -3.089844 28.164062 -3.089844 C 20.585938 -3.089844 15.628906 -9.738281 15.628906 -19.769531 C 15.628906 -30.90625 19.652344 -37.144531 27.171875 -37.144531 C 31.894531 -37.144531 38.253906 -33.527344 39.011719 -23.617188 L 39.652344 -23.617188 C 38.894531 -34.753906 31.136719 -39.183594 22.566406 -39.183594 C 11.835938 -39.183594 2.039062 -32.304688 2.039062 -19.824219 C 2.039062 -6.9375 12.304688 0 23.382812 0 C 33.644531 0 39.652344 -6.296875 39.652344 -15.800781 Z M 39.652344 -15.800781 "/></g></g></g><g fill="#db7f50" fill-opacity="1"><g transform="translate(218.161115, 209.314848)"><g><path d="M 42.277344 -19.769531 C 42.277344 -31.429688 31.839844 -39.183594 22.160156 -39.183594 C 12.535156 -39.183594 2.039062 -31.429688 2.039062 -19.769531 C 2.039062 -7.929688 12.535156 0 22.160156 0 C 31.839844 0 42.277344 -7.929688 42.277344 -19.769531 Z M 15.628906 -19.769531 C 15.628906 -32.480469 17.492188 -38.425781 22.160156 -38.425781 C 26.824219 -38.425781 28.746094 -32.480469 28.746094 -19.769531 C 28.746094 -6.878906 26.824219 -0.757812 22.160156 -0.757812 C 17.492188 -0.757812 15.628906 -6.878906 15.628906 -19.769531 Z M 15.628906 -19.769531 "/></g></g></g><g fill="#db7f50" fill-opacity="1"><g transform="translate(258.57851, 209.314848)"><g><path d="M 29.679688 -14.054688 L 28.921875 -14.054688 C 28.6875 -5.773438 24.492188 -3.207031 21.925781 -3.207031 C 19.183594 -3.207031 18.308594 -4.78125 18.308594 -8.511719 L 18.308594 -37.609375 L 28.921875 -37.609375 L 28.921875 -38.367188 L 18.308594 -38.367188 C 18.308594 -43.792969 13.9375 -48.164062 8.511719 -48.164062 L 5.480469 -48.164062 L 5.480469 -38.367188 L 0.351562 -38.367188 L 0.351562 -37.609375 L 5.480469 -37.609375 L 5.480469 -12.363281 C 5.480469 -2.742188 11.894531 0 17.609375 0 C 23.265625 0 29.679688 -3.847656 29.679688 -14.054688 Z M 29.679688 -14.054688 "/></g></g></g><g fill="#db7f50" fill-opacity="1"><g transform="translate(285.352189, 209.314848)"><g><path d="M 29.679688 -14.054688 L 28.921875 -14.054688 C 28.6875 -5.773438 24.492188 -3.207031 21.925781 -3.207031 C 19.183594 -3.207031 18.308594 -4.78125 18.308594 -8.511719 L 18.308594 -37.609375 L 28.921875 -37.609375 L 28.921875 -38.367188 L 18.308594 -38.367188 C 18.308594 -43.792969 13.9375 -48.164062 8.511719 -48.164062 L 5.480469 -48.164062 L 5.480469 -38.367188 L 0.351562 -38.367188 L 0.351562 -37.609375 L 5.480469 -37.609375 L 5.480469 -12.363281 C 5.480469 -2.742188 11.894531 0 17.609375 0 C 23.265625 0 29.679688 -3.847656 29.679688 -14.054688 Z M 29.679688 -14.054688 "/></g></g></g><g fill="#db7f50" fill-opacity="1"><g transform="translate(312.125869, 209.314848)"><g><path d="M 21.867188 -39.183594 C 13.527344 -39.183594 7.929688 -35.921875 5.597656 -29.972656 L 6.414062 -29.972656 C 8.457031 -34.871094 12.710938 -37.496094 17.667969 -37.496094 C 23.5 -37.496094 25.832031 -34.230469 25.832031 -27 L 25.832031 -21.925781 C 11.078125 -20.585938 1.984375 -16.035156 1.984375 -8.28125 C 1.984375 -4.140625 4.664062 0 11.136719 0 C 18.660156 0 24.492188 -3.90625 26.125 -13.644531 L 26.125 -12.535156 C 26.125 -5.597656 31.722656 0 38.601562 0 L 38.601562 -23.03125 C 38.660156 -34.230469 31.78125 -39.183594 21.867188 -39.183594 Z M 14.8125 -10.789062 C 14.8125 -16.675781 19.359375 -20.292969 25.832031 -21.34375 L 25.832031 -19.59375 C 25.832031 -8.6875 21.984375 -5.421875 19.066406 -5.421875 C 16.503906 -5.421875 14.8125 -7.230469 14.8125 -10.789062 Z M 14.8125 -10.789062 "/></g></g></g><g fill="#db7f50" fill-opacity="1"><g transform="translate(147.190428, 229.560496)"><g><path d="M 5.875 0.15625 C 5.175781 0.15625 4.515625 0.0195312 3.890625 -0.25 C 3.273438 -0.53125 2.734375 -0.910156 2.265625 -1.390625 C 1.804688 -1.867188 1.441406 -2.425781 1.171875 -3.0625 C 0.898438 -3.695312 0.765625 -4.378906 0.765625 -5.109375 C 0.765625 -5.835938 0.898438 -6.519531 1.171875 -7.15625 C 1.441406 -7.800781 1.804688 -8.363281 2.265625 -8.84375 C 2.734375 -9.320312 3.273438 -9.695312 3.890625 -9.96875 C 4.515625 -10.238281 5.175781 -10.375 5.875 -10.375 C 6.582031 -10.375 7.242188 -10.238281 7.859375 -9.96875 C 8.484375 -9.695312 9.023438 -9.320312 9.484375 -8.84375 C 9.953125 -8.363281 10.316406 -7.804688 10.578125 -7.171875 C 10.847656 -6.535156 10.984375 -5.847656 10.984375 -5.109375 C 10.984375 -4.390625 10.847656 -3.710938 10.578125 -3.078125 C 10.316406 -2.441406 9.953125 -1.882812 9.484375 -1.40625 C 9.023438 -0.925781 8.484375 -0.546875 7.859375 -0.265625 C 7.242188 0.015625 6.582031 0.15625 5.875 0.15625 Z M 5.875 -0.90625 C 6.4375 -0.90625 6.960938 -1.007812 7.453125 -1.21875 C 7.941406 -1.4375 8.359375 -1.734375 8.703125 -2.109375 C 9.054688 -2.484375 9.332031 -2.925781 9.53125 -3.4375 C 9.738281 -3.957031 9.84375 -4.515625 9.84375 -5.109375 C 9.84375 -5.710938 9.738281 -6.269531 9.53125 -6.78125 C 9.332031 -7.300781 9.054688 -7.75 8.703125 -8.125 C 8.359375 -8.5 7.941406 -8.789062 7.453125 -9 C 6.960938 -9.21875 6.4375 -9.328125 5.875 -9.328125 C 5.300781 -9.328125 4.773438 -9.21875 4.296875 -9 C 3.816406 -8.789062 3.398438 -8.5 3.046875 -8.125 C 2.691406 -7.75 2.410156 -7.300781 2.203125 -6.78125 C 2.003906 -6.269531 1.90625 -5.710938 1.90625 -5.109375 C 1.90625 -4.515625 2.003906 -3.957031 2.203125 -3.4375 C 2.410156 -2.925781 2.691406 -2.484375 3.046875 -2.109375 C 3.398438 -1.734375 3.816406 -1.4375 4.296875 -1.21875 C 4.773438 -1.007812 5.300781 -0.90625 5.875 -0.90625 Z M 5.875 -0.90625 "/></g></g></g><g fill="#db7f50" fill-opacity="1"><g transform="translate(163.524319, 229.560496)"><g><path d="M 1.375 -10.234375 L 3.8125 -10.234375 C 4.320312 -10.234375 4.789062 -10.15625 5.21875 -10 C 5.65625 -9.851562 6.03125 -9.644531 6.34375 -9.375 C 6.65625 -9.101562 6.894531 -8.785156 7.0625 -8.421875 C 7.238281 -8.054688 7.328125 -7.65625 7.328125 -7.21875 C 7.328125 -6.863281 7.269531 -6.53125 7.15625 -6.21875 C 7.039062 -5.90625 6.878906 -5.625 6.671875 -5.375 C 6.472656 -5.125 6.234375 -4.910156 5.953125 -4.734375 C 5.671875 -4.554688 5.359375 -4.421875 5.015625 -4.328125 L 7.9375 0 L 6.65625 0 L 3.8125 -4.21875 L 2.4375 -4.21875 L 2.4375 0 L 1.375 0 Z M 3.8125 -5.203125 C 4.550781 -5.203125 5.144531 -5.382812 5.59375 -5.75 C 6.039062 -6.125 6.265625 -6.617188 6.265625 -7.234375 C 6.265625 -7.847656 6.039062 -8.332031 5.59375 -8.6875 C 5.144531 -9.050781 4.550781 -9.234375 3.8125 -9.234375 L 2.4375 -9.234375 L 2.4375 -5.203125 Z M 3.8125 -5.203125 "/></g></g></g><g fill="#db7f50" fill-opacity="1"><g transform="translate(176.652531, 229.560496)"><g><path d="M 1.375 -10.234375 L 2.4375 -10.234375 L 2.4375 0 L 1.375 0 Z M 1.375 -10.234375 "/></g></g></g><g fill="#db7f50" fill-opacity="1"><g transform="translate(185.048546, 229.560496)"><g><path d="M 5.828125 0.15625 C 5.128906 0.15625 4.472656 0.0195312 3.859375 -0.25 C 3.242188 -0.519531 2.707031 -0.890625 2.25 -1.359375 C 1.789062 -1.835938 1.425781 -2.390625 1.15625 -3.015625 C 0.894531 -3.648438 0.765625 -4.332031 0.765625 -5.0625 C 0.765625 -5.800781 0.898438 -6.492188 1.171875 -7.140625 C 1.441406 -7.785156 1.804688 -8.347656 2.265625 -8.828125 C 2.734375 -9.316406 3.273438 -9.695312 3.890625 -9.96875 C 4.515625 -10.238281 5.175781 -10.375 5.875 -10.375 C 6.632812 -10.375 7.34375 -10.210938 8 -9.890625 C 8.664062 -9.578125 9.238281 -9.144531 9.71875 -8.59375 L 8.921875 -7.90625 C 8.515625 -8.363281 8.050781 -8.710938 7.53125 -8.953125 C 7.007812 -9.203125 6.453125 -9.328125 5.859375 -9.328125 C 5.285156 -9.328125 4.757812 -9.21875 4.28125 -9 C 3.8125 -8.789062 3.394531 -8.5 3.03125 -8.125 C 2.675781 -7.75 2.398438 -7.300781 2.203125 -6.78125 C 2.003906 -6.269531 1.90625 -5.710938 1.90625 -5.109375 C 1.90625 -4.515625 2.003906 -3.957031 2.203125 -3.4375 C 2.398438 -2.925781 2.675781 -2.484375 3.03125 -2.109375 C 3.394531 -1.734375 3.816406 -1.4375 4.296875 -1.21875 C 4.785156 -1.007812 5.316406 -0.90625 5.890625 -0.90625 C 6.535156 -0.90625 7.117188 -1.03125 7.640625 -1.28125 C 8.160156 -1.53125 8.601562 -1.875 8.96875 -2.3125 L 8.96875 -4.5 L 5.875 -4.5 L 5.875 -5.5 L 10.03125 -5.5 L 10.03125 -2.109375 C 9.53125 -1.378906 8.914062 -0.816406 8.1875 -0.421875 C 7.457031 -0.0351562 6.671875 0.15625 5.828125 0.15625 Z M 5.828125 0.15625 "/></g></g></g><g fill="#db7f50" fill-opacity="1"><g transform="translate(200.649704, 229.560496)"><g><path d="M 1.375 -10.234375 L 6.640625 -10.234375 L 6.640625 -9.234375 L 2.4375 -9.234375 L 2.4375 -5.796875 L 5.640625 -5.796875 L 5.640625 -4.8125 L 2.4375 -4.8125 L 2.4375 -1 L 6.71875 -1 L 6.71875 0 L 1.375 0 Z M 1.375 -10.234375 "/></g></g></g><g fill="#db7f50" fill-opacity="1"><g transform="translate(212.862, 229.560496)"><g><path d="M 2.40625 -7.953125 L 2.40625 0 L 1.375 0 L 1.375 -10.53125 L 1.671875 -10.53125 L 8.578125 -2.28125 L 8.578125 -10.234375 L 9.625 -10.234375 L 9.625 0.3125 L 9.3125 0.3125 Z M 2.40625 -7.953125 "/></g></g></g><g fill="#db7f50" fill-opacity="1"><g transform="translate(228.43263, 229.560496)"><g/></g></g><g fill="#db7f50" fill-opacity="1"><g transform="translate(236.370676, 229.560496)"><g><path d="M 0.609375 -4.5 L 3.96875 -4.5 L 3.96875 -3.4375 L 0.609375 -3.4375 Z M 0.609375 -4.5 "/></g></g></g><g fill="#db7f50" fill-opacity="1"><g transform="translate(245.529932, 229.560496)"><g/></g></g><g fill="#db7f50" fill-opacity="1"><g transform="translate(253.467979, 229.560496)"><g><path d="M 5.828125 0.15625 C 5.109375 0.15625 4.441406 0.0195312 3.828125 -0.25 C 3.210938 -0.519531 2.675781 -0.882812 2.21875 -1.34375 C 1.769531 -1.8125 1.414062 -2.363281 1.15625 -3 C 0.894531 -3.632812 0.765625 -4.316406 0.765625 -5.046875 C 0.765625 -5.804688 0.898438 -6.507812 1.171875 -7.15625 C 1.441406 -7.800781 1.804688 -8.363281 2.265625 -8.84375 C 2.734375 -9.320312 3.273438 -9.695312 3.890625 -9.96875 C 4.515625 -10.238281 5.175781 -10.375 5.875 -10.375 C 6.632812 -10.375 7.34375 -10.210938 8 -9.890625 C 8.664062 -9.578125 9.238281 -9.144531 9.71875 -8.59375 L 8.921875 -7.90625 C 8.515625 -8.363281 8.050781 -8.710938 7.53125 -8.953125 C 7.019531 -9.203125 6.457031 -9.328125 5.84375 -9.328125 C 5.269531 -9.328125 4.742188 -9.222656 4.265625 -9.015625 C 3.796875 -8.804688 3.382812 -8.515625 3.03125 -8.140625 C 2.675781 -7.765625 2.398438 -7.320312 2.203125 -6.8125 C 2.003906 -6.300781 1.90625 -5.738281 1.90625 -5.125 C 1.90625 -4.519531 2.003906 -3.957031 2.203125 -3.4375 C 2.398438 -2.914062 2.675781 -2.46875 3.03125 -2.09375 C 3.394531 -1.726562 3.816406 -1.4375 4.296875 -1.21875 C 4.785156 -1.007812 5.320312 -0.90625 5.90625 -0.90625 C 6.550781 -0.90625 7.128906 -1.03125 7.640625 -1.28125 C 8.160156 -1.53125 8.601562 -1.875 8.96875 -2.3125 L 9.71875 -1.65625 C 9.238281 -1.09375 8.664062 -0.648438 8 -0.328125 C 7.34375 -0.00390625 6.617188 0.15625 5.828125 0.15625 Z M 5.828125 0.15625 "/></g></g></g><g fill="#db7f50" fill-opacity="1"><g transform="translate(268.458532, 229.560496)"><g><path d="M 1.375 -10.234375 L 3.8125 -10.234375 C 4.320312 -10.234375 4.789062 -10.15625 5.21875 -10 C 5.65625 -9.851562 6.03125 -9.644531 6.34375 -9.375 C 6.65625 -9.101562 6.894531 -8.785156 7.0625 -8.421875 C 7.238281 -8.054688 7.328125 -7.65625 7.328125 -7.21875 C 7.328125 -6.863281 7.269531 -6.53125 7.15625 -6.21875 C 7.039062 -5.90625 6.878906 -5.625 6.671875 -5.375 C 6.472656 -5.125 6.234375 -4.910156 5.953125 -4.734375 C 5.671875 -4.554688 5.359375 -4.421875 5.015625 -4.328125 L 7.9375 0 L 6.65625 0 L 3.8125 -4.21875 L 2.4375 -4.21875 L 2.4375 0 L 1.375 0 Z M 3.8125 -5.203125 C 4.550781 -5.203125 5.144531 -5.382812 5.59375 -5.75 C 6.039062 -6.125 6.265625 -6.617188 6.265625 -7.234375 C 6.265625 -7.847656 6.039062 -8.332031 5.59375 -8.6875 C 5.144531 -9.050781 4.550781 -9.234375 3.8125 -9.234375 L 2.4375 -9.234375 L 2.4375 -5.203125 Z M 3.8125 -5.203125 "/></g></g></g><g fill="#db7f50" fill-opacity="1"><g transform="translate(281.586742, 229.560496)"><g><path d="M 1.375 -10.234375 L 6.640625 -10.234375 L 6.640625 -9.234375 L 2.4375 -9.234375 L 2.4375 -5.796875 L 5.640625 -5.796875 L 5.640625 -4.8125 L 2.4375 -4.8125 L 2.4375 -1 L 6.71875 -1 L 6.71875 0 L 1.375 0 Z M 1.375 -10.234375 "/></g></g></g><g fill="#db7f50" fill-opacity="1"><g transform="translate(293.799045, 229.560496)"><g><path d="M 4.34375 -10.53125 L 4.65625 -10.53125 L 8.546875 0 L 7.375 0 L 6.40625 -2.6875 L 2.53125 -2.6875 L 1.578125 0 L 0.453125 0 Z M 6.0625 -3.671875 L 4.46875 -8.109375 L 2.890625 -3.671875 Z M 6.0625 -3.671875 "/></g></g></g><g fill="#db7f50" fill-opacity="1"><g transform="translate(307.385213, 229.560496)"><g><path d="M 3.8125 -9.234375 L 0.453125 -9.234375 L 0.453125 -10.234375 L 8.25 -10.234375 L 8.25 -9.234375 L 4.890625 -9.234375 L 4.890625 0 L 3.8125 0 Z M 3.8125 -9.234375 "/></g></g></g><g fill="#db7f50" fill-opacity="1"><g transform="translate(320.666085, 229.560496)"><g><path d="M 1.375 -10.234375 L 2.4375 -10.234375 L 2.4375 0 L 1.375 0 Z M 1.375 -10.234375 "/></g></g></g><g fill="#db7f50" fill-opacity="1"><g transform="translate(329.062103, 229.560496)"><g><path d="M 0.453125 -10.234375 L 1.59375 -10.234375 L 4.375 -2.234375 L 7.34375 -10.234375 L 8.390625 -10.234375 L 4.46875 0.3125 L 4.171875 0.3125 Z M 0.453125 -10.234375 "/></g></g></g><g fill="#db7f50" fill-opacity="1"><g transform="translate(342.495616, 229.560496)"><g><path d="M 1.375 -10.234375 L 6.640625 -10.234375 L 6.640625 -9.234375 L 2.4375 -9.234375 L 2.4375 -5.796875 L 5.640625 -5.796875 L 5.640625 -4.8125 L 2.4375 -4.8125 L 2.4375 -1 L 6.71875 -1 L 6.71875 0 L 1.375 0 Z M 1.375 -10.234375 "/></g></g></g></svg>