<svg xmlns="http://www.w3.org/2000/svg" xmlns:xlink="http://www.w3.org/1999/xlink" width="500" zoomAndPan="magnify" viewBox="0 0 375 374.999991" height="500" preserveAspectRatio="xMidYMid meet" version="1.0"><defs><g/><clipPath id="d19e62b773"><path d="M 197 279 L 199 279 L 199 286.507812 L 197 286.507812 Z M 197 279 " clip-rule="nonzero"/></clipPath><clipPath id="6ce1c55185"><path d="M 274.402344 161 L 281.269531 161 L 281.269531 164.3125 L 274.402344 164.3125 Z M 274.402344 161 " clip-rule="nonzero"/></clipPath><clipPath id="82beba9ec6"><path d="M 197 90.757812 L 199 90.757812 L 199 96 L 197 96 Z M 197 90.757812 " clip-rule="nonzero"/></clipPath><clipPath id="2878029399"><path d="M 107.269531 158 L 113 158 L 113 162 L 107.269531 162 Z M 107.269531 158 " clip-rule="nonzero"/></clipPath></defs><g clip-path="url(#d19e62b773)"><path fill="#293731" d="M 197.792969 286.507812 C 197.472656 286.507812 197.207031 286.25 197.207031 285.925781 L 197.207031 280.578125 C 197.207031 280.253906 197.472656 279.992188 197.792969 279.992188 C 198.117188 279.992188 198.378906 280.253906 198.378906 280.578125 L 198.378906 285.925781 C 198.378906 286.25 198.117188 286.507812 197.792969 286.507812 " fill-opacity="1" fill-rule="nonzero"/></g><path fill="#293731" d="M 197.792969 274.027344 C 197.472656 274.027344 197.207031 273.765625 197.207031 273.441406 L 197.207031 269.875 C 197.207031 269.554688 197.472656 269.292969 197.792969 269.292969 C 198.117188 269.292969 198.378906 269.554688 198.378906 269.875 L 198.378906 273.441406 C 198.378906 273.765625 198.117188 274.027344 197.792969 274.027344 " fill-opacity="1" fill-rule="nonzero"/><path fill="#293731" d="M 197.792969 262.886719 C 197.472656 262.886719 197.207031 262.625 197.207031 262.304688 L 197.207031 240.269531 C 197.207031 239.945312 197.472656 239.683594 197.792969 239.683594 C 198.117188 239.683594 198.378906 239.945312 198.378906 240.269531 L 198.378906 262.304688 C 198.378906 262.625 198.117188 262.886719 197.792969 262.886719 " fill-opacity="1" fill-rule="nonzero"/><path fill="#293731" d="M 216.226562 275.691406 C 215.957031 275.691406 215.710938 275.5 215.652344 275.226562 C 215.011719 272.136719 214.363281 269.054688 213.710938 265.96875 C 213.644531 265.652344 213.847656 265.34375 214.164062 265.277344 C 214.476562 265.210938 214.789062 265.410156 214.855469 265.726562 C 215.507812 268.8125 216.15625 271.902344 216.800781 274.988281 C 216.867188 275.304688 216.664062 275.613281 216.347656 275.679688 C 216.304688 275.6875 216.265625 275.691406 216.226562 275.691406 " fill-opacity="1" fill-rule="nonzero"/><path fill="#293731" d="M 212.875 259.777344 C 212.601562 259.777344 212.359375 259.589844 212.300781 259.316406 L 211.566406 255.847656 C 211.496094 255.53125 211.699219 255.222656 212.015625 255.15625 C 212.328125 255.085938 212.640625 255.289062 212.707031 255.601562 L 213.449219 259.074219 C 213.515625 259.390625 213.3125 259.699219 212.996094 259.765625 C 212.953125 259.773438 212.914062 259.777344 212.875 259.777344 " fill-opacity="1" fill-rule="nonzero"/><path fill="#293731" d="M 226.304688 252.632812 C 226.089844 252.632812 225.878906 252.507812 225.777344 252.300781 C 224.101562 248.792969 222.386719 245.109375 220.539062 241.046875 C 220.40625 240.753906 220.535156 240.40625 220.828125 240.273438 C 221.125 240.140625 221.472656 240.273438 221.605469 240.5625 C 223.453125 244.621094 225.164062 248.296875 226.835938 251.796875 C 226.972656 252.089844 226.851562 252.4375 226.558594 252.574219 C 226.476562 252.613281 226.390625 252.632812 226.304688 252.632812 " fill-opacity="1" fill-rule="nonzero"/><path fill="#293731" d="M 248.382812 258.644531 C 248.203125 258.644531 248.027344 258.5625 247.910156 258.40625 L 245.625 255.296875 C 245.429688 255.039062 245.488281 254.671875 245.75 254.484375 C 246.007812 254.292969 246.375 254.347656 246.566406 254.605469 L 248.855469 257.71875 C 249.046875 257.976562 248.992188 258.34375 248.730469 258.53125 C 248.625 258.609375 248.503906 258.644531 248.382812 258.644531 " fill-opacity="1" fill-rule="nonzero"/><path fill="#293731" d="M 241.351562 249.074219 C 241.171875 249.074219 240.992188 248.992188 240.878906 248.832031 C 236.171875 242.410156 232 236.671875 228.125 231.296875 C 227.9375 231.035156 227.996094 230.667969 228.257812 230.480469 C 228.519531 230.292969 228.886719 230.351562 229.074219 230.613281 C 232.949219 235.988281 237.121094 241.722656 241.824219 248.144531 C 242.015625 248.40625 241.957031 248.769531 241.695312 248.960938 C 241.59375 249.035156 241.472656 249.074219 241.351562 249.074219 " fill-opacity="1" fill-rule="nonzero"/><path fill="#293731" d="M 260.363281 245.390625 C 260.21875 245.390625 260.078125 245.339844 259.964844 245.234375 C 256.628906 242.136719 253.355469 239.273438 249.886719 236.242188 L 249.632812 236.019531 C 249.386719 235.808594 249.363281 235.4375 249.578125 235.195312 C 249.789062 234.953125 250.160156 234.929688 250.402344 235.140625 L 250.65625 235.363281 C 254.132812 238.402344 257.414062 241.269531 260.761719 244.382812 C 261 244.601562 261.011719 244.972656 260.792969 245.207031 C 260.675781 245.328125 260.519531 245.390625 260.363281 245.390625 " fill-opacity="1" fill-rule="nonzero"/><path fill="#293731" d="M 269.957031 230.761719 C 269.863281 230.761719 269.769531 230.738281 269.679688 230.691406 C 269.257812 230.460938 268.839844 230.230469 268.421875 229.996094 C 268.140625 229.839844 268.039062 229.484375 268.199219 229.203125 C 268.355469 228.921875 268.710938 228.820312 268.992188 228.980469 C 269.40625 229.210938 269.824219 229.4375 270.242188 229.664062 C 270.523438 229.820312 270.628906 230.175781 270.472656 230.457031 C 270.367188 230.652344 270.164062 230.761719 269.957031 230.761719 " fill-opacity="1" fill-rule="nonzero"/><path fill="#293731" d="M 261.761719 226.089844 C 261.664062 226.089844 261.5625 226.066406 261.472656 226.011719 C 259.832031 225.074219 258.488281 224.328125 257.238281 223.664062 C 256.953125 223.511719 256.84375 223.15625 256.996094 222.871094 C 257.148438 222.585938 257.503906 222.480469 257.789062 222.632812 C 259.050781 223.304688 260.40625 224.054688 262.054688 225 C 262.332031 225.160156 262.429688 225.515625 262.269531 225.796875 C 262.160156 225.984375 261.964844 226.089844 261.761719 226.089844 " fill-opacity="1" fill-rule="nonzero"/><path fill="#293731" d="M 278.574219 215.386719 C 278.519531 215.386719 278.464844 215.378906 278.40625 215.363281 C 274.890625 214.3125 271.34375 213.164062 267.914062 212.054688 C 264.664062 211 261.304688 209.914062 257.980469 208.910156 C 257.671875 208.816406 257.496094 208.492188 257.589844 208.183594 C 257.683594 207.875 258.011719 207.699219 258.320312 207.792969 C 261.652344 208.796875 265.019531 209.886719 268.273438 210.941406 C 271.699219 212.050781 275.238281 213.199219 278.742188 214.246094 C 279.054688 214.339844 279.226562 214.664062 279.136719 214.972656 C 279.058594 215.226562 278.828125 215.386719 278.574219 215.386719 " fill-opacity="1" fill-rule="nonzero"/><g clip-path="url(#6ce1c55185)"><path fill="#293731" d="M 275.046875 164.167969 C 274.800781 164.167969 274.570312 164.011719 274.488281 163.765625 C 274.390625 163.457031 274.558594 163.128906 274.867188 163.03125 C 276.746094 162.425781 278.628906 161.824219 280.507812 161.222656 C 280.816406 161.125 281.144531 161.292969 281.242188 161.601562 C 281.34375 161.910156 281.171875 162.238281 280.867188 162.335938 C 278.984375 162.9375 277.105469 163.539062 275.226562 164.140625 C 275.167969 164.160156 275.105469 164.167969 275.046875 164.167969 " fill-opacity="1" fill-rule="nonzero"/></g><path fill="#293731" d="M 262.925781 168.066406 C 262.679688 168.066406 262.449219 167.90625 262.371094 167.660156 C 262.269531 167.355469 262.4375 167.027344 262.746094 166.925781 C 265.660156 165.988281 268.570312 165.050781 271.484375 164.117188 C 271.792969 164.015625 272.121094 164.1875 272.222656 164.492188 C 272.320312 164.800781 272.152344 165.128906 271.84375 165.226562 C 268.929688 166.160156 266.019531 167.097656 263.105469 168.035156 C 263.046875 168.054688 262.984375 168.066406 262.925781 168.066406 " fill-opacity="1" fill-rule="nonzero"/><path fill="#293731" d="M 270.136719 147.515625 C 269.933594 147.515625 269.734375 147.410156 269.625 147.21875 C 269.46875 146.9375 269.566406 146.582031 269.851562 146.425781 C 270.496094 146.0625 271.140625 145.710938 271.792969 145.363281 C 272.078125 145.210938 272.429688 145.316406 272.585938 145.601562 C 272.738281 145.886719 272.628906 146.238281 272.34375 146.390625 C 271.699219 146.734375 271.0625 147.085938 270.421875 147.441406 C 270.332031 147.492188 270.234375 147.515625 270.136719 147.515625 " fill-opacity="1" fill-rule="nonzero"/><path fill="#293731" d="M 261.355469 152.664062 C 261.15625 152.664062 260.960938 152.5625 260.851562 152.378906 C 260.6875 152.097656 260.777344 151.742188 261.058594 151.578125 C 261.726562 151.183594 262.398438 150.785156 263.070312 150.382812 C 263.34375 150.21875 263.707031 150.304688 263.871094 150.582031 C 264.039062 150.859375 263.949219 151.21875 263.671875 151.382812 C 263 151.785156 262.324219 152.183594 261.652344 152.582031 C 261.558594 152.636719 261.457031 152.664062 261.355469 152.664062 " fill-opacity="1" fill-rule="nonzero"/><path fill="#293731" d="M 247.488281 144.914062 C 247.328125 144.914062 247.167969 144.847656 247.054688 144.722656 C 246.835938 144.484375 246.855469 144.113281 247.09375 143.898438 C 252.1875 139.296875 256.726562 135.121094 260.976562 131.125 C 261.210938 130.90625 261.582031 130.917969 261.804688 131.152344 C 262.027344 131.386719 262.015625 131.753906 261.777344 131.976562 C 257.523438 135.972656 252.976562 140.15625 247.878906 144.761719 C 247.765625 144.863281 247.628906 144.914062 247.488281 144.914062 " fill-opacity="1" fill-rule="nonzero"/><path fill="#293731" d="M 243.09375 126.988281 C 242.972656 126.988281 242.851562 126.949219 242.75 126.875 C 242.488281 126.683594 242.429688 126.316406 242.621094 126.058594 C 244.382812 123.65625 246.148438 121.257812 247.910156 118.863281 C 248.101562 118.601562 248.46875 118.546875 248.730469 118.734375 C 248.992188 118.925781 249.046875 119.292969 248.855469 119.550781 C 247.089844 121.949219 245.328125 124.347656 243.566406 126.746094 C 243.449219 126.902344 243.273438 126.988281 243.09375 126.988281 " fill-opacity="1" fill-rule="nonzero"/><path fill="#293731" d="M 220.769531 137.523438 C 220.6875 137.523438 220.605469 137.503906 220.527344 137.46875 C 220.230469 137.335938 220.101562 136.988281 220.238281 136.695312 C 221.929688 133.011719 223.59375 129.242188 225.199219 125.59375 C 227.460938 120.453125 229.804688 115.140625 232.273438 109.984375 C 232.414062 109.695312 232.761719 109.570312 233.054688 109.707031 C 233.34375 109.847656 233.46875 110.195312 233.328125 110.488281 C 230.867188 115.625 228.53125 120.933594 226.269531 126.0625 C 224.664062 129.714844 223 133.492188 221.300781 137.179688 C 221.203125 137.394531 220.992188 137.523438 220.769531 137.523438 " fill-opacity="1" fill-rule="nonzero"/><g clip-path="url(#82beba9ec6)"><path fill="#293731" d="M 197.792969 95.785156 C 197.472656 95.785156 197.207031 95.527344 197.207031 95.203125 L 197.207031 91.34375 C 197.207031 91.019531 197.472656 90.757812 197.792969 90.757812 C 198.117188 90.757812 198.378906 91.019531 198.378906 91.34375 L 198.378906 95.203125 C 198.378906 95.527344 198.117188 95.785156 197.792969 95.785156 " fill-opacity="1" fill-rule="nonzero"/></g><path fill="#293731" d="M 197.792969 115.429688 C 197.472656 115.429688 197.207031 115.171875 197.207031 114.847656 L 197.207031 102.617188 C 197.207031 102.292969 197.472656 102.03125 197.792969 102.03125 C 198.117188 102.03125 198.378906 102.292969 198.378906 102.617188 L 198.378906 114.847656 C 198.378906 115.171875 198.117188 115.429688 197.792969 115.429688 " fill-opacity="1" fill-rule="nonzero"/><path fill="#293731" d="M 183.800781 123.316406 C 183.53125 123.316406 183.289062 123.128906 183.230469 122.855469 L 182.6875 120.363281 C 181.691406 115.757812 180.691406 111.148438 179.695312 106.539062 C 179.625 106.222656 179.824219 105.910156 180.140625 105.84375 C 180.457031 105.777344 180.769531 105.976562 180.835938 106.292969 C 181.835938 110.902344 182.835938 115.507812 183.835938 120.117188 L 184.375 122.609375 C 184.441406 122.925781 184.242188 123.234375 183.925781 123.304688 C 183.882812 123.3125 183.84375 123.316406 183.800781 123.316406 " fill-opacity="1" fill-rule="nonzero"/><path fill="#293731" d="M 165.996094 117.855469 C 165.773438 117.855469 165.558594 117.730469 165.460938 117.515625 C 164.722656 115.902344 163.980469 114.289062 163.234375 112.675781 C 163.097656 112.386719 163.226562 112.039062 163.519531 111.902344 C 163.8125 111.769531 164.160156 111.894531 164.296875 112.1875 C 165.042969 113.800781 165.785156 115.414062 166.527344 117.03125 C 166.660156 117.324219 166.53125 117.671875 166.238281 117.804688 C 166.160156 117.839844 166.078125 117.855469 165.996094 117.855469 " fill-opacity="1" fill-rule="nonzero"/><path fill="#293731" d="M 177.21875 143.535156 C 176.992188 143.535156 176.777344 143.40625 176.679688 143.1875 C 173.632812 136.269531 170.921875 129.980469 168.390625 123.960938 C 168.265625 123.664062 168.40625 123.320312 168.707031 123.195312 C 169.003906 123.074219 169.347656 123.210938 169.472656 123.511719 C 172 129.519531 174.710938 135.804688 177.753906 142.714844 C 177.882812 143.011719 177.746094 143.355469 177.453125 143.484375 C 177.375 143.519531 177.296875 143.535156 177.21875 143.535156 " fill-opacity="1" fill-rule="nonzero"/><path fill="#293731" d="M 150.28125 123.582031 C 150.109375 123.582031 149.941406 123.503906 149.824219 123.363281 C 149.128906 122.503906 148.429688 121.6875 147.746094 120.9375 C 147.527344 120.699219 147.542969 120.332031 147.785156 120.113281 C 148.023438 119.898438 148.390625 119.914062 148.609375 120.152344 C 149.3125 120.921875 150.027344 121.753906 150.734375 122.628906 C 150.9375 122.882812 150.898438 123.246094 150.648438 123.449219 C 150.539062 123.539062 150.410156 123.582031 150.28125 123.582031 " fill-opacity="1" fill-rule="nonzero"/><path fill="#293731" d="M 160.617188 138.097656 C 160.4375 138.097656 160.261719 138.015625 160.144531 137.859375 C 158.9375 136.21875 157.765625 134.519531 156.683594 132.929688 C 156.503906 132.660156 156.570312 132.296875 156.839844 132.117188 C 157.105469 131.9375 157.46875 132.007812 157.652344 132.273438 C 158.730469 133.855469 159.894531 135.546875 161.089844 137.171875 C 161.28125 137.429688 161.222656 137.796875 160.964844 137.988281 C 160.859375 138.0625 160.738281 138.097656 160.617188 138.097656 " fill-opacity="1" fill-rule="nonzero"/><g clip-path="url(#2878029399)"><path fill="#293731" d="M 111.425781 161.238281 C 111.371094 161.238281 111.316406 161.230469 111.265625 161.214844 C 110.269531 160.9375 109.304688 160.550781 108.375 160.179688 C 108.15625 160.09375 107.9375 160.007812 107.722656 159.921875 C 107.417969 159.804688 107.269531 159.464844 107.390625 159.164062 C 107.507812 158.863281 107.847656 158.714844 108.148438 158.835938 C 108.371094 158.921875 108.589844 159.007812 108.8125 159.097656 C 109.710938 159.457031 110.644531 159.828125 111.582031 160.09375 C 111.890625 160.179688 112.074219 160.5 111.988281 160.8125 C 111.914062 161.070312 111.679688 161.238281 111.425781 161.238281 " fill-opacity="1" fill-rule="nonzero"/></g><path fill="#293731" d="M 114.082031 216.339844 C 113.835938 216.339844 113.601562 216.175781 113.523438 215.929688 C 113.429688 215.621094 113.601562 215.292969 113.90625 215.195312 C 115.421875 214.722656 116.933594 214.25 118.445312 213.773438 C 118.753906 213.679688 119.082031 213.847656 119.179688 214.152344 C 119.277344 214.460938 119.105469 214.789062 118.800781 214.886719 C 117.285156 215.363281 115.773438 215.839844 114.257812 216.3125 C 114.199219 216.328125 114.140625 216.339844 114.082031 216.339844 " fill-opacity="1" fill-rule="nonzero"/><path fill="#293731" d="M 125.707031 212.671875 C 125.460938 212.671875 125.230469 212.511719 125.152344 212.265625 C 125.050781 211.957031 125.222656 211.628906 125.53125 211.53125 C 128.457031 210.597656 131.386719 209.660156 134.308594 208.714844 C 134.617188 208.617188 134.945312 208.785156 135.046875 209.089844 C 135.144531 209.398438 134.976562 209.730469 134.667969 209.828125 C 131.742188 210.769531 128.816406 211.707031 125.886719 212.640625 C 125.828125 212.660156 125.765625 212.671875 125.707031 212.671875 " fill-opacity="1" fill-rule="nonzero"/><path fill="#293731" d="M 124.886719 230.753906 C 124.699219 230.753906 124.511719 230.660156 124.398438 230.492188 C 124.222656 230.222656 124.296875 229.859375 124.566406 229.683594 C 125.128906 229.3125 125.734375 229.074219 126.320312 228.84375 C 126.695312 228.695312 127.050781 228.554688 127.386719 228.386719 C 127.675781 228.242188 128.027344 228.355469 128.171875 228.644531 C 128.316406 228.933594 128.203125 229.28125 127.910156 229.429688 C 127.527344 229.621094 127.132812 229.777344 126.753906 229.925781 C 126.195312 230.148438 125.671875 230.355469 125.207031 230.660156 C 125.109375 230.722656 125 230.753906 124.886719 230.753906 " fill-opacity="1" fill-rule="nonzero"/><path fill="#293731" d="M 134.75 245.816406 C 134.589844 245.816406 134.429688 245.75 134.3125 245.625 C 134.097656 245.382812 134.117188 245.011719 134.359375 244.796875 C 137.828125 241.707031 141.359375 238.53125 145.164062 235.089844 C 145.402344 234.875 145.773438 234.890625 145.992188 235.128906 C 146.207031 235.371094 146.191406 235.738281 145.953125 235.957031 C 142.144531 239.394531 138.609375 242.574219 135.140625 245.667969 C 135.027344 245.765625 134.886719 245.816406 134.75 245.816406 " fill-opacity="1" fill-rule="nonzero"/><path fill="#293731" d="M 150.390625 231.726562 C 150.230469 231.726562 150.074219 231.660156 149.957031 231.535156 C 149.738281 231.296875 149.757812 230.925781 149.996094 230.710938 L 152.40625 228.515625 C 152.644531 228.296875 153.015625 228.3125 153.234375 228.554688 C 153.453125 228.789062 153.4375 229.160156 153.195312 229.375 L 150.785156 231.574219 C 150.671875 231.675781 150.53125 231.726562 150.390625 231.726562 " fill-opacity="1" fill-rule="nonzero"/><path fill="#293731" d="M 155.0625 247.917969 C 154.945312 247.917969 154.824219 247.882812 154.722656 247.808594 C 154.457031 247.621094 154.398438 247.257812 154.585938 246.996094 C 155.964844 245.078125 157.335938 243.160156 158.707031 241.238281 C 158.894531 240.976562 159.257812 240.914062 159.523438 241.101562 C 159.785156 241.289062 159.847656 241.652344 159.660156 241.914062 C 158.289062 243.835938 156.917969 245.757812 155.539062 247.675781 C 155.425781 247.832031 155.246094 247.917969 155.0625 247.917969 " fill-opacity="1" fill-rule="nonzero"/><path fill="#293731" d="M 181.558594 265.390625 C 181.519531 265.390625 181.480469 265.386719 181.4375 265.378906 C 181.121094 265.3125 180.917969 265 180.984375 264.6875 C 181.582031 261.882812 182.175781 259.082031 182.765625 256.28125 C 182.832031 255.964844 183.144531 255.765625 183.460938 255.832031 C 183.777344 255.898438 183.980469 256.207031 183.910156 256.523438 C 183.320312 259.324219 182.726562 262.125 182.132812 264.929688 C 182.074219 265.203125 181.832031 265.390625 181.558594 265.390625 " fill-opacity="1" fill-rule="nonzero"/><path fill="#293731" d="M 184.929688 249.441406 C 184.886719 249.441406 184.84375 249.4375 184.796875 249.425781 C 184.480469 249.351562 184.289062 249.039062 184.359375 248.722656 C 185.035156 245.851562 185.730469 242.824219 186.425781 239.71875 C 186.496094 239.402344 186.808594 239.207031 187.125 239.277344 C 187.441406 239.347656 187.640625 239.65625 187.566406 239.972656 C 186.871094 243.082031 186.175781 246.117188 185.5 248.992188 C 185.4375 249.257812 185.195312 249.441406 184.929688 249.441406 " fill-opacity="1" fill-rule="nonzero"/><path fill="#293731" d="M 210.589844 249.066406 C 210.324219 249.066406 210.082031 248.882812 210.019531 248.613281 C 208.769531 243.210938 207.492188 237.46875 206.109375 231.054688 C 206.042969 230.742188 206.246094 230.429688 206.5625 230.363281 C 206.875 230.296875 207.1875 230.496094 207.257812 230.808594 C 208.632812 237.21875 209.910156 242.957031 211.160156 248.347656 C 211.234375 248.664062 211.035156 248.976562 210.722656 249.050781 C 210.675781 249.058594 210.632812 249.066406 210.589844 249.066406 " fill-opacity="1" fill-rule="nonzero"/><path fill="#293731" d="M 218.175781 234.953125 C 217.949219 234.953125 217.734375 234.824219 217.640625 234.605469 C 216.789062 232.703125 215.945312 230.800781 215.105469 228.890625 C 214.976562 228.59375 215.109375 228.253906 215.40625 228.121094 C 215.703125 227.992188 216.046875 228.128906 216.175781 228.421875 C 217.015625 230.328125 217.859375 232.230469 218.710938 234.132812 C 218.839844 234.425781 218.707031 234.773438 218.410156 234.902344 C 218.335938 234.9375 218.253906 234.953125 218.175781 234.953125 " fill-opacity="1" fill-rule="nonzero"/><path fill="#293731" d="M 240.582031 227.363281 C 240.445312 227.363281 240.308594 227.316406 240.199219 227.222656 C 237.878906 225.21875 235.367188 223.011719 232.527344 220.484375 C 232.285156 220.269531 232.261719 219.898438 232.480469 219.660156 C 232.695312 219.417969 233.066406 219.398438 233.304688 219.613281 C 236.144531 222.140625 238.648438 224.339844 240.964844 226.339844 C 241.210938 226.550781 241.234375 226.917969 241.023438 227.164062 C 240.90625 227.296875 240.746094 227.363281 240.582031 227.363281 " fill-opacity="1" fill-rule="nonzero"/><path fill="#293731" d="M 248.808594 218.402344 C 248.71875 218.402344 248.625 218.382812 248.539062 218.335938 C 246.496094 217.273438 243.804688 215.855469 241.09375 214.3125 C 240.816406 214.152344 240.71875 213.796875 240.878906 213.515625 C 241.039062 213.234375 241.394531 213.140625 241.675781 213.300781 C 244.367188 214.832031 247.046875 216.242188 249.078125 217.300781 C 249.367188 217.449219 249.476562 217.800781 249.328125 218.089844 C 249.222656 218.289062 249.019531 218.402344 248.808594 218.402344 " fill-opacity="1" fill-rule="nonzero"/><path fill="#293731" d="M 250.277344 172.105469 C 250.027344 172.105469 249.796875 171.949219 249.71875 171.699219 C 249.621094 171.394531 249.789062 171.066406 250.101562 170.96875 C 251.878906 170.402344 253.65625 169.84375 255.425781 169.285156 C 255.730469 169.1875 256.0625 169.359375 256.160156 169.664062 C 256.257812 169.972656 256.085938 170.300781 255.777344 170.398438 C 254.007812 170.953125 252.234375 171.515625 250.453125 172.078125 C 250.394531 172.097656 250.335938 172.105469 250.277344 172.105469 " fill-opacity="1" fill-rule="nonzero"/><path fill="#293731" d="M 241.4375 164.082031 C 241.234375 164.082031 241.039062 163.980469 240.933594 163.796875 C 240.769531 163.515625 240.859375 163.160156 241.140625 162.996094 C 241.636719 162.703125 242.132812 162.414062 242.632812 162.121094 L 242.742188 162.058594 C 245.507812 160.453125 248.335938 158.851562 251.066406 157.308594 C 252.542969 156.472656 254.019531 155.640625 255.488281 154.800781 C 255.769531 154.640625 256.128906 154.734375 256.289062 155.015625 C 256.449219 155.296875 256.351562 155.652344 256.070312 155.8125 C 254.597656 156.652344 253.121094 157.488281 251.644531 158.324219 C 248.914062 159.867188 246.089844 161.464844 243.332031 163.070312 L 243.222656 163.132812 C 242.726562 163.421875 242.226562 163.710938 241.734375 164 C 241.640625 164.054688 241.539062 164.082031 241.4375 164.082031 " fill-opacity="1" fill-rule="nonzero"/><path fill="#293731" d="M 233.058594 157.882812 C 232.902344 157.882812 232.742188 157.816406 232.625 157.6875 C 232.40625 157.445312 232.429688 157.078125 232.671875 156.863281 C 235.730469 154.140625 238.765625 151.410156 241.691406 148.753906 C 241.929688 148.535156 242.296875 148.554688 242.519531 148.792969 C 242.734375 149.03125 242.71875 149.398438 242.480469 149.617188 C 239.550781 152.277344 236.515625 155.007812 233.449219 157.734375 C 233.339844 157.835938 233.199219 157.882812 233.058594 157.882812 " fill-opacity="1" fill-rule="nonzero"/><path fill="#293731" d="M 224.3125 152.835938 C 224.195312 152.835938 224.074219 152.800781 223.972656 152.726562 C 223.707031 152.535156 223.652344 152.171875 223.839844 151.910156 L 229.121094 144.59375 C 231.996094 140.609375 235.015625 136.453125 238.089844 132.246094 C 238.28125 131.988281 238.648438 131.929688 238.910156 132.117188 C 239.167969 132.308594 239.226562 132.675781 239.039062 132.933594 C 235.964844 137.140625 232.945312 141.292969 230.070312 145.277344 L 224.789062 152.59375 C 224.675781 152.75 224.496094 152.835938 224.3125 152.835938 " fill-opacity="1" fill-rule="nonzero"/><path fill="#293731" d="M 206.738281 146.917969 C 206.695312 146.917969 206.652344 146.910156 206.609375 146.902344 C 206.296875 146.832031 206.09375 146.519531 206.164062 146.207031 L 206.386719 145.203125 C 208.589844 135.292969 210.863281 125.046875 212.917969 114.972656 C 212.980469 114.65625 213.292969 114.453125 213.605469 114.519531 C 213.921875 114.582031 214.128906 114.890625 214.0625 115.207031 C 212.007812 125.289062 209.730469 135.539062 207.53125 145.457031 L 207.308594 146.457031 C 207.25 146.730469 207.007812 146.917969 206.738281 146.917969 " fill-opacity="1" fill-rule="nonzero"/><path fill="#293731" d="M 197.792969 146.152344 C 197.46875 146.152344 197.207031 145.890625 197.207031 145.570312 L 197.207031 122.003906 C 197.207031 121.679688 197.46875 121.417969 197.792969 121.417969 C 198.117188 121.417969 198.378906 121.679688 198.378906 122.003906 L 198.378906 145.570312 C 198.378906 145.890625 198.117188 146.152344 197.792969 146.152344 " fill-opacity="1" fill-rule="nonzero"/><path fill="#293731" d="M 188.886719 146.925781 C 188.617188 146.925781 188.375 146.734375 188.316406 146.460938 C 187.628906 143.191406 186.890625 139.75 186.128906 136.238281 C 186.058594 135.921875 186.261719 135.609375 186.574219 135.542969 C 186.890625 135.472656 187.203125 135.671875 187.273438 135.988281 C 188.035156 139.503906 188.773438 142.949219 189.460938 146.21875 C 189.527344 146.535156 189.324219 146.84375 189.007812 146.910156 C 188.96875 146.917969 188.929688 146.925781 188.886719 146.925781 " fill-opacity="1" fill-rule="nonzero"/><path fill="#293731" d="M 171.261719 152.847656 C 171.085938 152.847656 170.914062 152.769531 170.796875 152.617188 C 169.5 150.917969 168.105469 149.109375 166.414062 146.925781 C 166.214844 146.671875 166.261719 146.304688 166.515625 146.109375 C 166.773438 145.910156 167.140625 145.957031 167.339844 146.210938 C 169.035156 148.398438 170.429688 150.207031 171.730469 151.910156 C 171.921875 152.164062 171.875 152.53125 171.617188 152.726562 C 171.511719 152.808594 171.386719 152.847656 171.261719 152.847656 " fill-opacity="1" fill-rule="nonzero"/><path fill="#293731" d="M 162.742188 157.75 C 162.601562 157.75 162.464844 157.699219 162.351562 157.601562 L 157.933594 153.636719 C 156.421875 152.277344 154.910156 150.921875 153.398438 149.566406 L 137.671875 135.445312 C 137.433594 135.230469 137.410156 134.863281 137.628906 134.621094 C 137.84375 134.382812 138.214844 134.363281 138.453125 134.578125 L 154.179688 148.695312 C 155.691406 150.050781 157.203125 151.410156 158.71875 152.769531 L 163.132812 156.730469 C 163.375 156.949219 163.394531 157.316406 163.175781 157.558594 C 163.0625 157.683594 162.902344 157.75 162.742188 157.75 " fill-opacity="1" fill-rule="nonzero"/><path fill="#293731" d="M 154.050781 164.183594 C 153.953125 164.183594 153.851562 164.160156 153.761719 164.109375 C 151.707031 162.945312 150.035156 161.984375 148.496094 161.082031 C 145.691406 159.441406 142.882812 157.707031 140.167969 156.03125 C 138.539062 155.023438 136.910156 154.019531 135.273438 153.027344 C 134.996094 152.859375 134.910156 152.5 135.078125 152.226562 C 135.242188 151.949219 135.605469 151.863281 135.882812 152.027344 C 137.519531 153.023438 139.152344 154.03125 140.78125 155.039062 C 143.492188 156.710938 146.296875 158.441406 149.089844 160.078125 C 150.621094 160.976562 152.289062 161.933594 154.339844 163.089844 C 154.621094 163.25 154.71875 163.609375 154.558594 163.886719 C 154.453125 164.078125 154.253906 164.183594 154.050781 164.183594 " fill-opacity="1" fill-rule="nonzero"/><path fill="#293731" d="M 145.203125 172.226562 C 145.140625 172.226562 145.082031 172.21875 145.019531 172.199219 C 136.976562 169.59375 128.304688 166.78125 119.414062 163.859375 C 119.105469 163.757812 118.941406 163.425781 119.042969 163.121094 C 119.144531 162.816406 119.476562 162.648438 119.78125 162.75 C 128.667969 165.671875 137.339844 168.484375 145.382812 171.089844 C 145.691406 171.1875 145.859375 171.515625 145.757812 171.824219 C 145.679688 172.070312 145.449219 172.226562 145.203125 172.226562 " fill-opacity="1" fill-rule="nonzero"/><path fill="#293731" d="M 141.28125 207.660156 C 141.035156 207.660156 140.808594 207.503906 140.726562 207.257812 C 140.625 206.953125 140.792969 206.621094 141.101562 206.523438 L 142.582031 206.039062 C 143.4375 205.761719 144.289062 205.484375 145.144531 205.203125 C 145.449219 205.101562 145.78125 205.269531 145.882812 205.574219 C 145.984375 205.882812 145.816406 206.210938 145.511719 206.3125 C 144.65625 206.59375 143.800781 206.871094 142.945312 207.152344 L 141.464844 207.632812 C 141.40625 207.652344 141.34375 207.660156 141.28125 207.660156 " fill-opacity="1" fill-rule="nonzero"/><path fill="#293731" d="M 135.082031 225.363281 C 134.875 225.363281 134.679688 225.257812 134.570312 225.066406 C 134.414062 224.785156 134.511719 224.429688 134.796875 224.269531 L 136.515625 223.3125 C 140.542969 221.066406 144.707031 218.742188 148.769531 216.375 C 150.503906 215.367188 152.234375 214.355469 153.96875 213.347656 C 154.25 213.183594 154.605469 213.28125 154.769531 213.558594 C 154.933594 213.835938 154.839844 214.195312 154.558594 214.359375 C 152.828125 215.363281 151.09375 216.371094 149.363281 217.382812 C 145.292969 219.757812 141.121094 222.082031 137.085938 224.332031 L 135.367188 225.289062 C 135.277344 225.339844 135.179688 225.363281 135.082031 225.363281 " fill-opacity="1" fill-rule="nonzero"/><path fill="#293731" d="M 158.644531 224.195312 C 158.484375 224.195312 158.328125 224.132812 158.210938 224.007812 C 157.996094 223.765625 158.011719 223.398438 158.25 223.183594 C 159.070312 222.433594 159.902344 221.652344 160.703125 220.898438 C 161.179688 220.445312 161.660156 219.996094 162.140625 219.546875 C 162.375 219.328125 162.746094 219.339844 162.964844 219.578125 C 163.1875 219.808594 163.175781 220.179688 162.9375 220.398438 C 162.457031 220.847656 161.984375 221.296875 161.507812 221.746094 C 160.699219 222.503906 159.867188 223.289062 159.039062 224.042969 C 158.925781 224.144531 158.785156 224.195312 158.644531 224.195312 " fill-opacity="1" fill-rule="nonzero"/><path fill="#293731" d="M 163.597656 235.980469 C 163.476562 235.980469 163.355469 235.945312 163.25 235.867188 C 162.988281 235.675781 162.933594 235.308594 163.125 235.050781 C 165.429688 231.925781 167.882812 228.632812 170.84375 224.6875 C 171.039062 224.429688 171.40625 224.378906 171.664062 224.570312 C 171.921875 224.761719 171.976562 225.128906 171.78125 225.386719 C 168.824219 229.328125 166.371094 232.621094 164.070312 235.742188 C 163.953125 235.898438 163.777344 235.980469 163.597656 235.980469 " fill-opacity="1" fill-rule="nonzero"/><path fill="#293731" d="M 165.730469 261.050781 C 165.652344 261.050781 165.570312 261.035156 165.492188 261 C 165.199219 260.867188 165.066406 260.523438 165.195312 260.230469 C 167.421875 255.265625 169.792969 249.9375 172.054688 244.609375 C 174.578125 238.671875 177.207031 232.796875 179.21875 228.34375 C 179.351562 228.050781 179.695312 227.917969 179.992188 228.050781 C 180.285156 228.183594 180.417969 228.527344 180.285156 228.820312 C 178.277344 233.269531 175.652344 239.136719 173.132812 245.066406 C 170.867188 250.402344 168.492188 255.734375 166.265625 260.703125 C 166.167969 260.921875 165.953125 261.050781 165.730469 261.050781 " fill-opacity="1" fill-rule="nonzero"/><path fill="#293731" d="M 188.472656 233.742188 C 188.429688 233.742188 188.386719 233.738281 188.347656 233.730469 C 188.03125 233.660156 187.832031 233.347656 187.902344 233.03125 L 188.386719 230.824219 C 188.457031 230.507812 188.769531 230.308594 189.085938 230.378906 C 189.402344 230.449219 189.601562 230.761719 189.53125 231.074219 L 189.042969 233.285156 C 188.984375 233.558594 188.742188 233.742188 188.472656 233.742188 " fill-opacity="1" fill-rule="nonzero"/><path fill="#293731" d="M 197.792969 165.847656 C 196.183594 165.847656 194.589844 166.011719 193.054688 166.332031 C 191.464844 166.667969 189.910156 167.171875 188.433594 167.832031 C 187.066406 168.445312 185.753906 169.195312 184.53125 170.0625 C 183.167969 171.03125 181.914062 172.152344 180.800781 173.382812 C 179.753906 174.542969 178.832031 175.796875 178.0625 177.113281 C 177.234375 178.523438 176.558594 180.027344 176.050781 181.585938 C 175.308594 183.855469 174.933594 186.226562 174.933594 188.632812 C 174.933594 191.054688 175.3125 193.433594 176.054688 195.707031 C 176.554688 197.234375 177.210938 198.699219 178.003906 200.0625 C 178.8125 201.449219 179.777344 202.761719 180.875 203.96875 C 181.984375 205.183594 183.230469 206.28125 184.570312 207.234375 C 185.777344 208.085938 187.070312 208.824219 188.410156 209.425781 C 189.945312 210.117188 191.566406 210.632812 193.226562 210.96875 C 196.234375 211.582031 199.46875 211.574219 202.464844 210.945312 C 204.082031 210.613281 205.671875 210.101562 207.195312 209.417969 C 208.726562 208.726562 210.179688 207.871094 211.511719 206.871094 C 212.742188 205.949219 213.878906 204.90625 214.886719 203.769531 C 215.898438 202.636719 216.800781 201.394531 217.570312 200.074219 C 218.367188 198.699219 219.019531 197.253906 219.503906 195.78125 C 220.265625 193.480469 220.648438 191.074219 220.648438 188.632812 C 220.648438 186.171875 220.257812 183.746094 219.488281 181.433594 C 219.015625 180.027344 218.414062 178.675781 217.691406 177.410156 C 216.882812 175.984375 215.921875 174.648438 214.824219 173.429688 C 213.761719 172.242188 212.566406 171.164062 211.28125 170.226562 C 209.972656 169.277344 208.582031 168.472656 207.148438 167.835938 C 205.609375 167.144531 204 166.628906 202.355469 166.300781 C 200.871094 165.996094 199.335938 165.847656 197.792969 165.847656 Z M 197.792969 212.589844 C 196.167969 212.589844 194.554688 212.429688 192.996094 212.113281 C 191.25 211.761719 189.546875 211.214844 187.929688 210.488281 C 186.519531 209.859375 185.164062 209.085938 183.894531 208.1875 C 182.480469 207.183594 181.171875 206.03125 180.007812 204.753906 C 178.855469 203.484375 177.839844 202.105469 176.992188 200.648438 C 176.160156 199.214844 175.46875 197.675781 174.941406 196.070312 C 174.160156 193.675781 173.765625 191.175781 173.765625 188.632812 C 173.765625 186.105469 174.160156 183.613281 174.9375 181.222656 C 175.46875 179.585938 176.179688 178.003906 177.054688 176.523438 C 177.863281 175.140625 178.832031 173.820312 179.929688 172.601562 C 181.097656 171.304688 182.417969 170.132812 183.851562 169.109375 C 185.140625 168.199219 186.519531 167.414062 187.953125 166.769531 C 189.507812 166.074219 191.140625 165.542969 192.8125 165.191406 C 195.976562 164.523438 199.402344 164.507812 202.589844 165.15625 C 204.316406 165.503906 206.011719 166.042969 207.625 166.769531 C 209.132812 167.4375 210.597656 168.285156 211.96875 169.285156 C 213.324219 170.269531 214.578125 171.402344 215.699219 172.652344 C 216.847656 173.929688 217.863281 175.335938 218.710938 176.835938 C 219.46875 178.164062 220.105469 179.585938 220.597656 181.0625 C 221.410156 183.5 221.820312 186.046875 221.820312 188.632812 C 221.820312 191.199219 221.414062 193.726562 220.613281 196.144531 C 220.105469 197.695312 219.421875 199.214844 218.582031 200.660156 C 217.773438 202.050781 216.824219 203.355469 215.761719 204.546875 C 214.699219 205.738281 213.507812 206.835938 212.214844 207.804688 C 210.8125 208.851562 209.289062 209.753906 207.679688 210.480469 C 206.074219 211.203125 204.398438 211.742188 202.703125 212.089844 C 201.109375 212.421875 199.457031 212.589844 197.792969 212.589844 " fill-opacity="1" fill-rule="nonzero"/><path fill="#293731" d="M 197.792969 212.589844 C 197.46875 212.589844 197.207031 212.328125 197.207031 212.007812 L 197.207031 200.03125 C 197.207031 199.710938 197.46875 199.449219 197.792969 199.449219 C 198.117188 199.449219 198.378906 199.710938 198.378906 200.03125 L 198.378906 212.007812 C 198.378906 212.328125 198.117188 212.589844 197.792969 212.589844 " fill-opacity="1" fill-rule="nonzero"/><path fill="#293731" d="M 209.515625 209.460938 C 209.3125 209.460938 209.113281 209.355469 209.007812 209.167969 L 203 198.796875 C 202.835938 198.515625 202.933594 198.160156 203.210938 198 C 203.492188 197.835938 203.851562 197.933594 204.011719 198.210938 L 210.019531 208.582031 C 210.183594 208.863281 210.085938 209.21875 209.804688 209.378906 C 209.714844 209.433594 209.613281 209.460938 209.515625 209.460938 " fill-opacity="1" fill-rule="nonzero"/><path fill="#293731" d="M 218.097656 200.90625 C 217.996094 200.90625 217.894531 200.878906 217.804688 200.828125 L 207.398438 194.835938 C 207.117188 194.675781 207.019531 194.320312 207.183594 194.039062 C 207.34375 193.761719 207.703125 193.664062 207.984375 193.824219 L 218.390625 199.816406 C 218.667969 199.976562 218.765625 200.332031 218.601562 200.613281 C 218.496094 200.800781 218.296875 200.90625 218.097656 200.90625 " fill-opacity="1" fill-rule="nonzero"/><path fill="#293731" d="M 221.234375 189.21875 L 209.222656 189.21875 C 208.902344 189.21875 208.640625 188.957031 208.640625 188.632812 C 208.640625 188.3125 208.902344 188.050781 209.222656 188.050781 L 221.234375 188.050781 C 221.558594 188.050781 221.820312 188.3125 221.820312 188.632812 C 221.820312 188.957031 221.558594 189.21875 221.234375 189.21875 " fill-opacity="1" fill-rule="nonzero"/><path fill="#293731" d="M 207.691406 183.519531 C 207.488281 183.519531 207.292969 183.414062 207.183594 183.230469 C 207.019531 182.949219 207.117188 182.59375 207.398438 182.433594 L 217.804688 176.441406 C 218.082031 176.28125 218.441406 176.378906 218.601562 176.65625 C 218.765625 176.933594 218.667969 177.292969 218.390625 177.453125 L 207.984375 183.441406 C 207.890625 183.496094 207.792969 183.519531 207.691406 183.519531 " fill-opacity="1" fill-rule="nonzero"/><path fill="#293731" d="M 203.503906 179.347656 C 203.40625 179.347656 203.304688 179.324219 203.210938 179.269531 C 202.933594 179.109375 202.835938 178.753906 203 178.472656 L 209.007812 168.101562 C 209.167969 167.824219 209.527344 167.726562 209.804688 167.890625 C 210.085938 168.050781 210.183594 168.40625 210.019531 168.683594 L 204.011719 179.058594 C 203.90625 179.246094 203.707031 179.347656 203.503906 179.347656 " fill-opacity="1" fill-rule="nonzero"/><path fill="#293731" d="M 197.792969 177.820312 C 197.46875 177.820312 197.207031 177.558594 197.207031 177.238281 L 197.207031 165.261719 C 197.207031 164.9375 197.46875 164.679688 197.792969 164.679688 C 198.117188 164.679688 198.378906 164.9375 198.378906 165.261719 L 198.378906 177.238281 C 198.378906 177.558594 198.117188 177.820312 197.792969 177.820312 " fill-opacity="1" fill-rule="nonzero"/><path fill="#293731" d="M 192.078125 179.347656 C 191.875 179.347656 191.679688 179.246094 191.570312 179.058594 L 185.566406 168.683594 C 185.402344 168.40625 185.5 168.050781 185.777344 167.890625 C 186.058594 167.726562 186.417969 167.824219 186.578125 168.101562 L 192.585938 178.472656 C 192.746094 178.753906 192.652344 179.109375 192.371094 179.269531 C 192.277344 179.324219 192.175781 179.347656 192.078125 179.347656 " fill-opacity="1" fill-rule="nonzero"/><path fill="#293731" d="M 187.894531 183.519531 C 187.792969 183.519531 187.691406 183.496094 187.601562 183.441406 L 177.199219 177.453125 C 176.921875 177.292969 176.824219 176.933594 176.984375 176.65625 C 177.148438 176.378906 177.503906 176.28125 177.785156 176.441406 L 188.1875 182.433594 C 188.464844 182.59375 188.5625 182.949219 188.402344 183.230469 C 188.292969 183.414062 188.09375 183.519531 187.894531 183.519531 " fill-opacity="1" fill-rule="nonzero"/><path fill="#293731" d="M 186.359375 189.21875 L 174.347656 189.21875 C 174.027344 189.21875 173.765625 188.957031 173.765625 188.632812 C 173.765625 188.3125 174.027344 188.050781 174.347656 188.050781 L 186.359375 188.050781 C 186.683594 188.050781 186.945312 188.3125 186.945312 188.632812 C 186.945312 188.957031 186.683594 189.21875 186.359375 189.21875 " fill-opacity="1" fill-rule="nonzero"/><path fill="#293731" d="M 177.492188 200.90625 C 177.289062 200.90625 177.09375 200.800781 176.984375 200.613281 C 176.824219 200.332031 176.917969 199.976562 177.199219 199.816406 L 187.601562 193.824219 C 187.878906 193.664062 188.238281 193.761719 188.402344 194.039062 C 188.5625 194.320312 188.464844 194.675781 188.1875 194.835938 L 177.785156 200.828125 C 177.691406 200.878906 177.59375 200.90625 177.492188 200.90625 " fill-opacity="1" fill-rule="nonzero"/><path fill="#293731" d="M 186.070312 209.460938 C 185.972656 209.460938 185.871094 209.433594 185.777344 209.378906 C 185.5 209.21875 185.402344 208.863281 185.566406 208.582031 L 191.570312 198.210938 C 191.730469 197.933594 192.089844 197.835938 192.371094 198 C 192.652344 198.160156 192.746094 198.515625 192.585938 198.796875 L 186.578125 209.167969 C 186.46875 209.355469 186.273438 209.460938 186.070312 209.460938 " fill-opacity="1" fill-rule="nonzero"/><path fill="#231f20" d="M 188.386719 183.242188 Z M 188.425781 194.089844 C 188.785156 194.707031 189.210938 195.289062 189.691406 195.820312 C 190.265625 196.46875 190.910156 197.039062 191.609375 197.515625 C 191.863281 197.695312 192.113281 197.855469 192.363281 197.996094 C 192.6875 198.183594 193.011719 198.351562 193.339844 198.496094 C 194.070312 198.828125 194.84375 199.078125 195.648438 199.234375 C 197.101562 199.527344 198.632812 199.515625 200.019531 199.21875 C 200.8125 199.058594 201.582031 198.804688 202.316406 198.464844 C 202.628906 198.320312 202.929688 198.167969 203.207031 198 C 203.605469 197.777344 203.984375 197.527344 204.335938 197.253906 C 204.929688 196.8125 205.46875 196.308594 205.953125 195.753906 C 206.351562 195.304688 206.71875 194.8125 207.039062 194.292969 C 207.089844 194.210938 207.132812 194.136719 207.171875 194.0625 C 207.546875 193.421875 207.847656 192.761719 208.074219 192.074219 C 208.449219 190.972656 208.640625 189.816406 208.640625 188.632812 C 208.640625 187.523438 208.472656 186.429688 208.140625 185.390625 C 207.921875 184.695312 207.632812 184.023438 207.273438 183.386719 C 207.242188 183.324219 207.222656 183.289062 207.199219 183.25 C 206.808594 182.574219 206.359375 181.957031 205.84375 181.390625 C 205.351562 180.84375 204.800781 180.347656 204.207031 179.914062 C 203.859375 179.660156 203.539062 179.453125 203.21875 179.273438 C 202.925781 179.101562 202.632812 178.949219 202.328125 178.8125 C 201.546875 178.449219 200.730469 178.1875 199.894531 178.027344 C 198.457031 177.738281 196.910156 177.753906 195.519531 178.0625 C 194.75 178.222656 193.992188 178.472656 193.257812 178.808594 C 192.96875 178.941406 192.671875 179.09375 192.375 179.269531 C 192.082031 179.433594 191.808594 179.609375 191.554688 179.792969 C 190.894531 180.253906 190.285156 180.789062 189.734375 181.398438 C 189.238281 181.941406 188.800781 182.539062 188.4375 183.167969 C 188.429688 183.175781 188.425781 183.183594 188.421875 183.191406 C 188.414062 183.207031 188.40625 183.21875 188.398438 183.230469 C 188.023438 183.871094 187.714844 184.558594 187.484375 185.277344 C 187.125 186.359375 186.945312 187.488281 186.945312 188.632812 C 186.945312 189.78125 187.125 190.90625 187.476562 191.972656 C 187.707031 192.695312 188.015625 193.386719 188.398438 194.035156 C 188.410156 194.050781 188.417969 194.070312 188.425781 194.089844 Z M 197.792969 200.617188 C 196.996094 200.617188 196.199219 200.539062 195.421875 200.378906 C 194.53125 200.203125 193.664062 199.929688 192.855469 199.558594 C 192.496094 199.402344 192.132812 199.214844 191.78125 199.007812 C 191.503906 198.851562 191.214844 198.671875 190.9375 198.472656 C 190.167969 197.949219 189.453125 197.316406 188.816406 196.597656 C 188.277344 196 187.796875 195.339844 187.394531 194.640625 C 187.382812 194.625 187.375 194.605469 187.367188 194.589844 C 186.949219 193.875 186.609375 193.113281 186.363281 192.332031 C 185.972656 191.152344 185.773438 189.90625 185.773438 188.632812 C 185.773438 187.367188 185.976562 186.113281 186.371094 184.914062 C 186.621094 184.132812 186.960938 183.378906 187.367188 182.675781 C 187.386719 182.632812 187.410156 182.59375 187.4375 182.554688 C 187.84375 181.863281 188.324219 181.210938 188.867188 180.617188 C 189.472656 179.941406 190.148438 179.34375 190.875 178.839844 C 191.15625 178.636719 191.46875 178.4375 191.789062 178.257812 C 192.113281 178.066406 192.445312 177.894531 192.773438 177.746094 C 193.582031 177.375 194.425781 177.097656 195.273438 176.921875 C 196.808594 176.582031 198.539062 176.5625 200.121094 176.882812 C 201.042969 177.058594 201.953125 177.351562 202.816406 177.75 C 203.15625 177.902344 203.488281 178.074219 203.808594 178.265625 C 204.148438 178.457031 204.511719 178.691406 204.898438 178.972656 C 205.558594 179.453125 206.167969 180.003906 206.714844 180.609375 C 207.285156 181.234375 207.785156 181.921875 208.199219 182.648438 C 208.230469 182.695312 208.269531 182.769531 208.308594 182.839844 C 208.691406 183.523438 209.015625 184.269531 209.257812 185.039062 C 209.625 186.191406 209.808594 187.402344 209.808594 188.632812 C 209.808594 189.945312 209.597656 191.226562 209.1875 192.445312 C 208.933594 193.207031 208.597656 193.941406 208.195312 194.628906 C 208.15625 194.707031 208.097656 194.808594 208.03125 194.910156 C 207.679688 195.480469 207.277344 196.027344 206.832031 196.523438 C 206.300781 197.136719 205.695312 197.699219 205.042969 198.183594 C 204.65625 198.484375 204.234375 198.765625 203.796875 199.011719 C 203.488281 199.191406 203.152344 199.367188 202.804688 199.523438 C 201.992188 199.902344 201.132812 200.183594 200.257812 200.359375 C 199.472656 200.53125 198.636719 200.617188 197.792969 200.617188 " fill-opacity="1" fill-rule="nonzero"/><path fill="#293731" d="M 243.441406 203.472656 L 243.445312 203.472656 Z M 197.792969 152.5625 C 195.332031 152.5625 192.808594 152.773438 190.300781 153.1875 C 187.753906 153.613281 185.164062 154.261719 182.605469 155.117188 C 181.550781 155.464844 180.460938 155.859375 179.359375 156.300781 C 178.050781 156.824219 176.738281 157.398438 175.46875 158 C 172.960938 159.191406 170.449219 160.574219 168.007812 162.109375 C 165.484375 163.6875 163.019531 165.425781 160.464844 167.429688 L 159.847656 167.917969 C 157.289062 169.957031 154.820312 172.101562 152.511719 174.292969 C 148.171875 178.398438 144.117188 182.898438 140.457031 187.667969 C 139.75 188.585938 139.75 188.675781 140.460938 189.609375 C 144.132812 194.398438 148.222656 198.933594 152.621094 203.082031 C 154.457031 204.820312 156.417969 206.550781 158.441406 208.222656 C 159.09375 208.761719 159.789062 209.320312 160.566406 209.933594 C 162.996094 211.828125 165.453125 213.558594 167.867188 215.078125 C 170.410156 216.675781 172.972656 218.089844 175.484375 219.28125 C 175.886719 219.472656 176.285156 219.660156 176.6875 219.84375 C 178.660156 220.734375 180.644531 221.511719 182.589844 222.15625 C 185.207031 223.019531 187.839844 223.671875 190.421875 224.09375 C 192.648438 224.460938 194.910156 224.664062 197.144531 224.703125 C 197.359375 224.707031 197.574219 224.707031 197.792969 224.707031 C 200.191406 224.695312 202.769531 224.480469 205.246094 224.078125 C 206.511719 223.875 207.765625 223.621094 208.980469 223.320312 C 210.265625 223 211.574219 222.625 212.867188 222.203125 C 215.386719 221.378906 217.914062 220.359375 220.378906 219.167969 C 222.785156 218.011719 225.230469 216.648438 227.648438 215.121094 C 228.34375 214.679688 228.917969 214.304688 229.453125 213.945312 C 231.40625 212.636719 233.328125 211.246094 235.167969 209.816406 C 237.847656 207.738281 240.496094 205.460938 243.039062 203.050781 C 247.148438 199.148438 251.109375 194.773438 254.8125 190.042969 C 255.910156 188.640625 255.910156 188.640625 254.8125 187.226562 C 251.207031 182.585938 247.214844 178.191406 242.945312 174.160156 C 241.71875 173 240.429688 171.835938 239.113281 170.695312 C 237.773438 169.539062 236.4375 168.441406 235.148438 167.429688 C 232.695312 165.507812 230.210938 163.753906 227.765625 162.214844 C 225.273438 160.644531 222.742188 159.246094 220.246094 158.050781 C 219.359375 157.625 218.445312 157.214844 217.457031 156.792969 C 215.949219 156.152344 214.445312 155.585938 212.984375 155.105469 C 210.40625 154.25 207.804688 153.601562 205.253906 153.179688 C 203.292969 152.855469 201.296875 152.660156 199.320312 152.589844 C 198.835938 152.570312 198.335938 152.5625 197.792969 152.5625 Z M 197.796875 225.875 C 197.566406 225.875 197.34375 225.875 197.121094 225.871094 C 194.835938 225.832031 192.515625 225.621094 190.230469 225.246094 C 187.589844 224.816406 184.898438 224.148438 182.222656 223.265625 C 180.238281 222.609375 178.214844 221.816406 176.207031 220.90625 C 175.792969 220.722656 175.382812 220.53125 174.976562 220.332031 C 172.429688 219.125 169.824219 217.691406 167.242188 216.066406 C 164.792969 214.527344 162.304688 212.773438 159.84375 210.855469 C 159.054688 210.234375 158.351562 209.667969 157.691406 209.121094 C 155.648438 207.433594 153.671875 205.6875 151.816406 203.933594 C 147.371094 199.738281 143.238281 195.15625 139.53125 190.316406 C 138.503906 188.976562 138.503906 188.285156 139.527344 186.960938 C 143.222656 182.140625 147.320312 177.59375 151.703125 173.445312 C 154.035156 171.230469 156.53125 169.0625 159.117188 167.003906 L 159.742188 166.511719 C 162.328125 164.484375 164.828125 162.71875 167.382812 161.121094 C 169.863281 159.558594 172.414062 158.15625 174.964844 156.945312 C 176.257812 156.332031 177.589844 155.75 178.925781 155.214844 C 180.050781 154.769531 181.164062 154.363281 182.234375 154.007812 C 184.851562 153.136719 187.5 152.472656 190.109375 152.039062 C 192.679688 151.609375 195.265625 151.394531 197.792969 151.394531 C 198.351562 151.394531 198.867188 151.402344 199.363281 151.425781 C 201.386719 151.492188 203.433594 151.699219 205.445312 152.03125 C 208.058594 152.460938 210.71875 153.121094 213.351562 153.996094 C 214.84375 154.484375 216.378906 155.066406 217.917969 155.71875 C 218.921875 156.148438 219.851562 156.566406 220.753906 157 C 223.289062 158.210938 225.859375 159.632812 228.390625 161.226562 C 230.871094 162.789062 233.386719 164.566406 235.875 166.511719 C 237.179688 167.53125 238.527344 168.644531 239.878906 169.8125 C 241.210938 170.964844 242.511719 172.140625 243.75 173.3125 C 248.066406 177.382812 252.097656 181.824219 255.738281 186.511719 C 257.191406 188.382812 257.191406 188.898438 255.734375 190.761719 C 251.996094 195.535156 247.996094 199.957031 243.847656 203.894531 C 243.847656 203.898438 243.847656 203.898438 243.847656 203.898438 C 241.273438 206.335938 238.59375 208.636719 235.886719 210.738281 C 234.027344 212.183594 232.082031 213.589844 230.109375 214.914062 C 229.5625 215.28125 228.980469 215.660156 228.277344 216.105469 C 225.820312 217.660156 223.335938 219.042969 220.886719 220.21875 C 218.375 221.429688 215.800781 222.472656 213.230469 223.3125 C 211.914062 223.742188 210.578125 224.125 209.265625 224.453125 C 208.019531 224.761719 206.726562 225.023438 205.433594 225.230469 C 202.898438 225.640625 200.257812 225.863281 197.796875 225.875 " fill-opacity="1" fill-rule="nonzero"/><g fill="#000000" fill-opacity="1"><g transform="translate(64.339575, 252.616464)"><g><path d="M 20.398438 5.160156 L 13.535156 -6.738281 L 9.332031 -5.136719 L 9.375 -5.058594 C 12.542969 -5.441406 14.019531 -5.25 15.660156 -2.410156 L 15.90625 -1.980469 L 4.363281 4.675781 C 3.503906 5.171875 2.921875 4.636719 2.171875 3.550781 L 2.078125 3.605469 L 5.246094 9.09375 L 5.339844 9.042969 C 4.777344 7.847656 4.605469 7.074219 5.464844 6.582031 L 17.003906 -0.078125 L 17.792969 1.285156 C 18.902344 3.210938 18.5 4.886719 15.820312 6.109375 L 15.863281 6.183594 Z M 20.398438 5.160156 "/></g></g></g><g fill="#000000" fill-opacity="1"><g transform="translate(78.880439, 275.606994)"><g><path d="M 21.917969 2.382812 L 21.996094 2.3125 L 18.40625 -1.820312 L 18.324219 -1.75 C 18.824219 -1.011719 19.140625 -0.289062 18.554688 0.222656 L 13.847656 4.308594 L 8.492188 -1.863281 L 13.195312 -5.949219 C 13.78125 -6.457031 14.457031 -6.042969 15.117188 -5.445312 L 15.199219 -5.515625 L 11.605469 -9.652344 L 11.527344 -9.582031 C 12.023438 -8.84375 12.339844 -8.117188 11.753906 -7.609375 L 2.214844 0.675781 C 1.628906 1.183594 0.953125 0.769531 0.292969 0.171875 L 0.210938 0.246094 L 3.804688 4.378906 L 3.882812 4.308594 C 3.386719 3.570312 3.070312 2.84375 3.65625 2.335938 L 8.214844 -1.621094 L 13.570312 4.546875 L 9.015625 8.503906 C 8.429688 9.015625 7.753906 8.601562 7.09375 8.003906 L 7.011719 8.074219 L 10.601562 12.210938 L 10.683594 12.136719 C 10.1875 11.398438 9.871094 10.675781 10.457031 10.167969 L 19.996094 1.882812 C 20.582031 1.375 21.253906 1.789062 21.917969 2.382812 Z M 21.917969 2.382812 "/></g></g></g><g fill="#000000" fill-opacity="1"><g transform="translate(98.697778, 296.468841)"><g><path d="M 13.03125 4.925781 C 10.160156 5.847656 8.539062 6.300781 6.660156 4.816406 L 3.480469 2.308594 L 7.835938 -3.210938 L 10.203125 -1.339844 C 11.996094 0.0742188 12.144531 0.933594 11.5625 2.507812 L 14.472656 -1.183594 C 13.078125 -0.25 12.210938 -0.195312 10.417969 -1.613281 L 8.046875 -3.480469 L 12.402344 -9 L 15.246094 -6.753906 C 17.125 -5.273438 17.152344 -3.878906 17.015625 -1.375 L 17.109375 -1.355469 L 18.675781 -4.488281 L 9.601562 -11.648438 L 9.535156 -11.5625 C 10.164062 -10.929688 10.609375 -10.277344 10.128906 -9.667969 L 2.570312 -0.0859375 C 2.085938 0.523438 1.214844 0.410156 0.320312 0.117188 L 0.253906 0.199219 L 8.988281 7.09375 L 9.269531 7.917969 L 9.664062 7.625 L 13.070312 5.015625 Z M 13.03125 4.925781 "/></g></g></g><g fill="#000000" fill-opacity="1"><g transform="translate(119.530864, 311.392347)"><g/></g></g><g fill="#000000" fill-opacity="1"><g transform="translate(133.92377, 319.193968)"><g><path d="M 16.898438 -9.632812 L 16.867188 -9.550781 C 17.898438 -8.875 18.5625 -8.199219 17.148438 -6.761719 L 8.582031 1.964844 L 8.464844 -10.128906 C 8.445312 -12.171875 9.441406 -12.292969 10.894531 -11.867188 L 10.925781 -11.949219 L 5.863281 -13.914062 C 6.0625 -13.535156 6.230469 -12.777344 6.246094 -11.984375 L 6.433594 2.726562 L 6.210938 3.125 L 8.605469 2.554688 L 17.582031 -6.566406 C 18.996094 -8.007812 19.625 -8.203125 20.5625 -8.117188 L 20.59375 -8.195312 Z M 16.898438 -9.632812 "/></g></g></g><g fill="#000000" fill-opacity="1"><g transform="translate(161.177104, 328.274707)"><g><path d="M 0.316406 0.0664062 L 5.671875 1.203125 L 5.695312 1.097656 C 4.851562 0.808594 4.164062 0.421875 4.324219 -0.335938 L 6.949219 -12.695312 C 7.113281 -13.457031 7.898438 -13.53125 8.785156 -13.453125 L 8.808594 -13.558594 L 3.453125 -14.695312 L 3.429688 -14.589844 C 4.273438 -14.300781 4.960938 -13.914062 4.800781 -13.152344 L 2.175781 -0.792969 C 2.011719 -0.0351562 1.226562 0.0390625 0.339844 -0.0390625 Z M 0.316406 0.0664062 "/></g></g></g><g fill="#000000" fill-opacity="1"><g transform="translate(179.024437, 331.421723)"><g><path d="M 7.90625 -8.136719 C 5.679688 -8.789062 3.636719 -9.648438 3.785156 -12.101562 C 3.875 -13.566406 4.683594 -14.769531 6.726562 -14.644531 C 9.136719 -14.496094 11.25 -12.640625 10.726562 -9.753906 L 12.828125 -12.671875 C 11.753906 -13.839844 10.171875 -14.800781 7.71875 -14.949219 C 4.339844 -15.15625 2.128906 -13.652344 1.976562 -11.15625 C 1.871094 -9.410156 2.757812 -7.328125 6.765625 -6.109375 C 9.292969 -5.351562 10.890625 -4.667969 10.757812 -2.496094 C 10.671875 -1.097656 9.90625 0.519531 7.429688 0.367188 C 4.867188 0.210938 2.519531 -1.660156 3.019531 -4.546875 L 0.964844 -1.667969 C 2.058594 -0.480469 3.941406 0.542969 6.460938 0.699219 C 10.246094 0.929688 12.375 -1.015625 12.523438 -3.445312 C 12.613281 -4.953125 11.980469 -6.9375 7.90625 -8.136719 Z M 7.90625 -8.136719 "/></g></g></g><g fill="#000000" fill-opacity="1"><g transform="translate(204.146432, 331.807791)"><g><path d="M 0.320312 -0.0273438 L 5.777344 -0.503906 L 5.769531 -0.613281 C 4.878906 -0.640625 4.105469 -0.8125 4.039062 -1.585938 L 2.9375 -14.171875 C 2.871094 -14.945312 3.601562 -15.246094 4.472656 -15.433594 L 4.464844 -15.539062 L -0.992188 -15.0625 L -0.980469 -14.957031 C -0.0898438 -14.925781 0.679688 -14.753906 0.75 -13.980469 L 1.847656 -1.394531 C 1.914062 -0.621094 1.183594 -0.320312 0.3125 -0.136719 Z M 0.320312 -0.0273438 "/></g></g></g><g fill="#000000" fill-opacity="1"><g transform="translate(222.303656, 329.709124)"><g><path d="M 4.949219 -17.183594 C 0.585938 -16.054688 -2.167969 -12.246094 -0.953125 -7.546875 C 0.261719 -2.851562 4.519531 -0.859375 8.882812 -1.988281 C 13.226562 -3.113281 15.980469 -6.921875 14.761719 -11.621094 C 13.546875 -16.316406 9.289062 -18.308594 4.949219 -17.183594 Z M 9.621094 -2.582031 C 5.863281 -1.609375 2.070312 -5.167969 0.976562 -9.382812 C 0.0625 -12.910156 1.308594 -15.839844 4.1875 -16.585938 C 7.945312 -17.558594 11.742188 -14 12.828125 -9.804688 C 13.746094 -6.257812 12.5 -3.328125 9.621094 -2.582031 Z M 9.621094 -2.582031 "/></g></g></g><g fill="#000000" fill-opacity="1"><g transform="translate(251.519275, 320.728642)"><g><path d="M 3.960938 -18.738281 L 4.007812 -18.640625 C 4.851562 -18.933594 5.824219 -18.664062 7.109375 -16.03125 L 10.550781 -9 L -1.957031 -14.546875 C -2.589844 -14.8125 -2.933594 -15.078125 -3.183594 -15.242188 L -6.4375 -13.652344 C -5.667969 -13.644531 -4.964844 -13.4375 -3.925781 -12.984375 L 0.46875 -3.996094 C 1.757812 -1.363281 1.183594 -0.820312 0.4375 -0.332031 L 0.484375 -0.238281 L 3.816406 -1.867188 L 3.769531 -1.964844 C 2.925781 -1.671875 1.953125 -1.941406 0.667969 -4.574219 L -3.3125 -12.707031 L 12.796875 -5.585938 L 12.816406 -5.644531 C 12.4375 -6.324219 11.886719 -7.300781 10.898438 -9.316406 L 7.328125 -16.617188 C 6.039062 -19.25 6.613281 -19.796875 7.359375 -20.28125 L 7.3125 -20.378906 Z M 3.960938 -18.738281 "/></g></g></g><g fill="#000000" fill-opacity="1"><g transform="translate(276.346015, 307.301476)"><g><path d="M 10.074219 -11.132812 L -0.523438 -17.492188 C -1.5625 -18.109375 -1.683594 -18.234375 -1.789062 -18.371094 L -2.582031 -16.105469 L -2.710938 -15.707031 L -2.390625 -15.359375 L 0.519531 -3.683594 C 1.011719 -1.726562 0.851562 -1.085938 0.289062 -0.332031 L 0.34375 -0.261719 L 3.492188 -2.671875 L 3.441406 -2.742188 C 2.324219 -2.214844 1.402344 -1.996094 0.910156 -3.953125 L 0.632812 -5.097656 L 7.324219 -10.222656 L 8.324219 -9.628906 C 10.074219 -8.582031 9.679688 -7.679688 8.558594 -6.660156 L 8.609375 -6.59375 L 13.421875 -10.273438 L 13.371094 -10.34375 C 12.519531 -9.855469 11.898438 -10.03125 10.074219 -11.132812 Z M 0.515625 -5.5 L -2.054688 -15.804688 L 6.96875 -10.441406 Z M 0.515625 -5.5 "/></g></g></g><g fill="#000000" fill-opacity="1"><g transform="translate(299.082328, 288.228448)"><g><path d="M 5.789062 -10.875 L 1.300781 -11.265625 C 2.570312 -13.683594 2.3125 -16.0625 0.628906 -17.546875 C -1.359375 -19.300781 -3.816406 -18.5 -6.109375 -15.898438 L -11.113281 -10.21875 L -11.03125 -10.148438 C -10.367188 -10.738281 -9.6875 -11.148438 -9.105469 -10.636719 L 0.375 -2.285156 C 0.957031 -1.773438 0.636719 -1.046875 0.132812 -0.3125 L 0.214844 -0.242188 L 3.832031 -4.351562 L 3.753906 -4.421875 C 3.085938 -3.832031 2.410156 -3.421875 1.828125 -3.933594 L -1.894531 -7.210938 L -0.0820312 -9.265625 L 0.046875 -9.414062 L 7.191406 -8.71875 L 7.46875 -8.476562 L 10.046875 -11.40625 L 9.996094 -11.449219 C 8.835938 -10.976562 7.9375 -10.675781 5.789062 -10.875 Z M -2.539062 -7.78125 L -8.285156 -12.839844 L -6.589844 -14.765625 C -3.910156 -17.808594 -1.816406 -16.824219 -0.195312 -15.402344 C 2.050781 -13.421875 1.820312 -12.015625 0.0546875 -10.007812 C -0.714844 -9.136719 -1.542969 -8.425781 -2.539062 -7.78125 Z M -2.539062 -7.78125 "/></g></g></g><g fill="#000000" fill-opacity="1"><g transform="translate(316.290965, 267.013093)"><g><path d="M -7.210938 -17.558594 L -7.136719 -17.515625 C -6.242188 -18.617188 -5.542969 -19.128906 -4.710938 -17.519531 L -1.464844 -11.199219 L -8.742188 -11.058594 L -11.023438 -11.046875 L -12.863281 -7.902344 L -12.789062 -7.859375 C -12.316406 -8.40625 -11.488281 -8.84375 -10.015625 -8.882812 L -1.71875 -9.101562 L 2.46875 -6.648438 C 3.136719 -6.257812 2.960938 -5.488281 2.5 -4.484375 L 2.589844 -4.429688 L 5.574219 -9.527344 L 5.480469 -9.582031 C 4.832031 -8.6875 4.246094 -8.15625 3.578125 -8.546875 L -0.980469 -11.214844 L -4.421875 -17.972656 C -5.234375 -19.574219 -5.105469 -20.472656 -4.730469 -21.628906 L -4.804688 -21.671875 Z M -7.210938 -17.558594 "/></g></g></g><g fill="#000000" fill-opacity="1"><g transform="translate(81.645716, 107.161052)"><g><path d="M 1.90625 -27.363281 C 1.132812 -26.910156 0.394531 -26.402344 -0.351562 -25.964844 C -1.042969 -25.5625 -1.6875 -25.144531 -2.425781 -24.824219 C -2.746094 -24.671875 -3.015625 -24.441406 -3.277344 -24.25 C -3.136719 -23 -2.828125 -21.84375 -2.695312 -20.664062 C -2.539062 -19.382812 -2.15625 -18.164062 -2.097656 -16.863281 C -2.0625 -15.917969 -1.6875 -15.023438 -1.554688 -14.101562 C -1.484375 -13.476562 -1.273438 -12.859375 -1.21875 -12.261719 C -1.117188 -10.949219 -0.898438 -9.628906 -0.726562 -8.324219 C -0.640625 -7.667969 -0.46875 -7.0625 -0.425781 -6.421875 C -0.394531 -5.476562 -0.1875 -4.558594 0 -3.667969 C 0.199219 -2.824219 0.230469 -1.949219 0.355469 -1.097656 C 0.425781 -0.730469 0.578125 -0.597656 0.800781 -0.46875 C 1.640625 -0.996094 2.433594 -1.539062 3.417969 -2.078125 C 3.433594 -2.679688 3.183594 -3.421875 3.121094 -4.164062 C 3.050781 -4.976562 2.902344 -5.742188 2.773438 -6.59375 C 5.226562 -7.84375 7.40625 -9.566406 9.933594 -10.753906 C 11.105469 -9.769531 12.355469 -8.835938 13.496094 -7.835938 C 13.8125 -7.871094 13.933594 -8.167969 14.144531 -8.253906 C 15.429688 -8.96875 16.683594 -9.738281 17.902344 -10.566406 C 18.671875 -11.089844 19.535156 -11.449219 20.253906 -12.054688 C 20.472656 -12.257812 20.898438 -12.285156 20.882812 -12.757812 C 14.5625 -17.46875 8.664062 -22.722656 2.273438 -27.429688 C 2.203125 -27.425781 2.015625 -27.425781 1.90625 -27.363281 Z M 0.855469 -18.40625 C 3.035156 -16.644531 5.109375 -14.746094 7.308594 -12.957031 C 5.601562 -11.882812 3.984375 -10.785156 2.234375 -9.910156 C 1.847656 -12.722656 1.101562 -15.511719 0.855469 -18.40625 Z M 0.855469 -18.40625 "/></g></g></g><g fill="#000000" fill-opacity="1"><g transform="translate(118.894518, 87.339728)"><g><path d="M 15.855469 -28.828125 C 15.328125 -28.589844 14.773438 -28.441406 14.234375 -28.230469 C 13.902344 -28.121094 13.597656 -27.917969 13.261719 -27.707031 C 14.878906 -23.390625 16.121094 -18.988281 17.660156 -14.609375 C 12.851562 -17.675781 8.171875 -20.957031 3.527344 -24.144531 C 3.40625 -24.308594 3.214844 -24.378906 3.011719 -24.480469 C 0.195312 -23.625 -2.238281 -22.523438 -5.042969 -21.738281 C -5.042969 -21.4375 -4.964844 -21.292969 -4.902344 -21.113281 C -4.433594 -20.085938 -4.09375 -19.054688 -3.746094 -17.992188 C -3.445312 -17.078125 -3.207031 -16.148438 -2.847656 -15.253906 C -2.617188 -14.757812 -2.417969 -14.253906 -2.28125 -13.726562 C -2.0625 -12.753906 -1.722656 -11.820312 -1.394531 -10.917969 C -0.863281 -9.511719 -0.3125 -8.144531 0.152344 -6.714844 C 0.441406 -5.734375 0.75 -4.789062 1.007812 -3.796875 C 1.289062 -2.847656 1.566406 -1.996094 1.875 -1.054688 C 1.925781 -0.902344 1.984375 -0.71875 2.207031 -0.65625 C 3.171875 -1.308594 4.425781 -1.285156 5.320312 -1.945312 C 4.71875 -3.367188 4.402344 -4.84375 3.8125 -6.230469 C 3.253906 -7.628906 2.746094 -9.078125 2.214844 -10.488281 C 1.707031 -11.9375 1.300781 -13.382812 0.699219 -14.804688 C 5.570312 -11.65625 10.316406 -8.363281 14.921875 -4.894531 C 15.003906 -4.851562 18.742188 -6.179688 19.417969 -6.367188 C 20.523438 -6.695312 21.253906 -7.039062 22.347656 -7.394531 C 22.5 -7.445312 22.914062 -7.515625 23.027344 -7.585938 C 23.257812 -7.695312 23.300781 -7.875 23.230469 -8.089844 C 23.152344 -8.332031 23.070312 -8.574219 22.960938 -8.808594 C 22.421875 -10.046875 22.164062 -11.339844 21.683594 -12.597656 C 21.375 -13.335938 21.175781 -14.148438 20.898438 -14.898438 C 20.457031 -16.03125 20.046875 -17.175781 19.710938 -18.3125 C 19.363281 -19.578125 18.894531 -20.804688 18.515625 -22.058594 C 18.257812 -22.949219 17.9375 -23.824219 17.605469 -24.722656 C 17.425781 -25.171875 17.238281 -25.644531 17.117188 -26.113281 C 16.890625 -27.011719 16.632812 -27.90625 16.34375 -28.785156 C 16.171875 -28.898438 16.03125 -28.917969 15.855469 -28.828125 Z M 15.855469 -28.828125 "/></g></g></g><g fill="#000000" fill-opacity="1"><g transform="translate(160.626675, 75.506397)"><g><path d="M 4.742188 -22.984375 C 3.683594 -22.980469 2.648438 -22.71875 1.5625 -22.644531 C 0.988281 -22.621094 0.40625 -22.628906 -0.148438 -22.414062 C -0.226562 -22.214844 -0.152344 -21.769531 -0.136719 -21.613281 C -0.078125 -20.6875 0.0742188 -20.089844 0.164062 -19.167969 L 0.460938 -16.109375 C 0.523438 -15.472656 0.589844 -14.804688 0.617188 -14.167969 C 0.65625 -13.429688 0.726562 -12.730469 0.824219 -12.035156 C 0.90625 -11.175781 1.023438 -10.316406 1.042969 -9.453125 C 1.039062 -8.839844 1.160156 -8.242188 1.253906 -7.609375 L 1.523438 -5.835938 L 1.75 -3.480469 C 1.820312 -2.777344 1.914062 -2.113281 1.921875 -1.40625 C 1.925781 -1.023438 1.859375 -0.726562 2.164062 -0.210938 C 3.046875 -0.390625 3.976562 -0.417969 4.894531 -0.570312 C 5.96875 -0.738281 7.066406 -0.6875 8.175781 -0.855469 C 10.042969 -1.136719 11.964844 -1.191406 13.847656 -1.34375 C 15.09375 -1.433594 16.285156 -1.707031 17.53125 -1.796875 C 18.199219 -1.863281 18.847656 -2.148438 19.539062 -2.28125 C 20.328125 -2.453125 21.03125 -2.8125 21.726562 -3.265625 C 22.359375 -3.679688 22.882812 -4.246094 23.410156 -4.808594 C 24.160156 -5.652344 24.679688 -6.605469 25 -7.628906 C 25.414062 -8.957031 25.671875 -10.300781 25.597656 -11.707031 C 25.582031 -12.894531 25.609375 -13.925781 25.496094 -15.070312 C 25.417969 -15.898438 25.027344 -16.953125 24.984375 -17.398438 C 24.96875 -17.523438 24.894531 -17.644531 24.851562 -17.769531 C 24.421875 -18.53125 24.085938 -19.367188 23.566406 -20.054688 C 23.199219 -20.535156 22.835938 -20.980469 22.410156 -21.390625 C 21.980469 -21.832031 21.382812 -22.027344 20.902344 -22.367188 C 20.378906 -22.765625 19.804688 -23.066406 19.207031 -23.265625 C 18.347656 -23.503906 17.484375 -23.804688 16.554688 -23.777344 C 15.914062 -23.78125 15.09375 -23.957031 14.457031 -23.863281 C 13.699219 -23.726562 11.96875 -23.6875 11.238281 -23.582031 C 10.386719 -23.4375 5.542969 -23 4.742188 -22.984375 Z M 11.195312 -20.398438 C 12.632812 -20.472656 13.632812 -19.765625 14.390625 -18.585938 C 14.804688 -17.984375 15.050781 -17.429688 15.308594 -16.75 C 15.601562 -16.039062 15.847656 -15.160156 15.914062 -14.492188 C 16.023438 -13.699219 16.039062 -12.867188 16.183594 -12.046875 C 16.300781 -11.511719 16.472656 -9.054688 15.875 -7.292969 C 15.648438 -6.628906 15.253906 -6.074219 14.722656 -5.574219 C 14.101562 -5 13.417969 -4.773438 12.660156 -4.632812 C 12 -4.507812 11.167969 -4.457031 10.5 -4.390625 C 10.234375 -4.816406 10.347656 -5.308594 10.269531 -5.785156 C 10.128906 -6.863281 9.925781 -7.96875 9.820312 -9.050781 C 9.726562 -10.039062 9.46875 -13.707031 9.363281 -14.113281 C 9.257812 -14.554688 9.214844 -16.285156 9.046875 -17.363281 C 8.929688 -18.25 9.039062 -19.128906 8.820312 -20.039062 C 9.070312 -20.128906 9.316406 -20.214844 9.570312 -20.242188 C 10.117188 -20.261719 10.65625 -20.34375 11.195312 -20.398438 Z M 11.195312 -20.398438 "/></g></g></g><g fill="#000000" fill-opacity="1"><g transform="translate(205.598928, 73.058552)"><g><path d="M 19.699219 -20.136719 C 17.292969 -20.472656 14.839844 -20.460938 12.441406 -20.863281 C 11.304688 -21.039062 10.152344 -21.121094 9.011719 -21.265625 C 7.835938 -21.414062 6.675781 -21.65625 5.492188 -21.742188 C 5.238281 -21.773438 5.011719 -21.769531 4.789062 -21.507812 C 4.566406 -19.765625 4.304688 -17.960938 4.109375 -16.148438 L 2.726562 -5.230469 C 2.46875 -3.460938 2.113281 -1.667969 1.945312 0.183594 L 10.636719 1.28125 C 10.960938 -1.289062 11.023438 -3.792969 11.5 -6.28125 C 13.402344 -3.492188 15.070312 -0.636719 17.140625 2.105469 C 17.300781 2.125 17.558594 2.125 17.839844 2.195312 C 19.066406 2.445312 20.320312 2.476562 21.535156 2.792969 C 23.011719 3.109375 24.472656 3.292969 25.96875 3.417969 C 26.222656 3.449219 26.394531 3.375 26.59375 3.078125 C 25.648438 1.636719 24.566406 0.242188 23.558594 -1.207031 C 22.546875 -2.65625 21.542969 -4.136719 20.511719 -5.65625 C 20.902344 -5.703125 21.234375 -5.757812 21.597656 -5.839844 C 23.445312 -6.1875 24.898438 -7.195312 25.84375 -8.816406 C 26.777344 -10.34375 26.996094 -12.054688 26.863281 -13.8125 C 26.667969 -16.09375 25.320312 -17.683594 23.46875 -18.820312 C 22.804688 -19.195312 22.1875 -19.660156 21.402344 -19.824219 C 20.839844 -19.960938 20.273438 -20.0625 19.699219 -20.136719 Z M 14.136719 -17.199219 C 15.027344 -17.085938 15.890625 -17.039062 16.742188 -16.640625 C 17.292969 -16.410156 17.730469 -16.035156 17.984375 -15.484375 C 18.261719 -14.871094 18.53125 -14.222656 18.371094 -13.46875 C 18.316406 -13.027344 18.355469 -12.570312 18.300781 -12.125 C 18.097656 -10.539062 17.207031 -9.878906 15.78125 -9.542969 C 15.410156 -9.429688 14.992188 -9.417969 14.582031 -9.5 C 13.761719 -9.636719 12.957031 -9.644531 12.050781 -9.886719 C 12.269531 -12.375 12.484375 -14.828125 12.953125 -17.25 C 13.394531 -17.421875 13.792969 -17.273438 14.136719 -17.199219 Z M 14.136719 -17.199219 "/></g></g></g><g fill="#000000" fill-opacity="1"><g transform="translate(249.440227, 80.620278)"><g><path d="M 24.863281 -23.875 L 24.144531 -23.753906 C 23.496094 -23.644531 22.882812 -23.453125 22.285156 -23.1875 C 21.316406 -22.851562 20.285156 -22.804688 19.328125 -22.398438 C 18.644531 -22.09375 17.882812 -21.953125 17.152344 -21.804688 C 17 -21.757812 16.847656 -21.707031 16.785156 -21.628906 C 16.910156 -20.636719 17.316406 -19.949219 17.460938 -19.019531 C 17.539062 -18.855469 17.558594 -18.714844 17.667969 -18.640625 C 18.074219 -18.734375 18.695312 -18.855469 19.089844 -18.921875 C 19.980469 -19.046875 20.882812 -19.105469 21.773438 -19.230469 C 22.921875 -19.40625 24.074219 -19.507812 25.242188 -19.640625 C 25.382812 -19.660156 25.523438 -19.675781 25.648438 -19.835938 C 25.449219 -21.195312 25.09375 -22.507812 24.863281 -23.875 Z M 26.824219 -14.304688 L 26.582031 -14.390625 C 25.617188 -14.730469 24.671875 -15.128906 23.707031 -15.367188 C 22.707031 -15.617188 21.785156 -16.074219 20.828125 -16.34375 C 19.832031 -16.59375 18.878906 -17.0625 17.890625 -17.34375 C 17.214844 -17.546875 16.53125 -17.820312 15.859375 -18.023438 C 13.925781 -18.601562 12.078125 -19.417969 10.144531 -19.996094 C 9.871094 -20.089844 9.742188 -20.203125 9.441406 -20.210938 C 9.347656 -20.140625 9.1875 -20.164062 9.105469 -20.125 C 8.996094 -19.722656 8.332031 -17.445312 7.277344 -14.628906 C 6.917969 -13.808594 6.621094 -12.960938 6.296875 -12.128906 C 6 -11.28125 5.722656 -10.398438 5.425781 -9.550781 C 5.136719 -8.738281 4.921875 -7.933594 4.695312 -7.097656 C 4.578125 -6.5625 4.367188 -6.058594 4.1875 -5.546875 C 3.964844 -4.914062 3.761719 -4.238281 3.488281 -3.65625 C 3.203125 -3.042969 3.003906 -2.46875 2.851562 -1.84375 C 2.617188 -0.980469 2.339844 -0.09375 1.980469 0.730469 C 1.9375 0.851562 2.796875 1.015625 3.066406 1.113281 C 3.851562 1.386719 4.585938 1.710938 5.316406 2.039062 C 5.972656 2.300781 8.527344 3.03125 8.890625 3.15625 C 10.582031 3.75 12.261719 4.375 13.941406 4.898438 C 15.25 5.324219 16.578125 5.6875 17.84375 6.234375 C 18.847656 6.65625 19.90625 6.824219 20.921875 7.214844 C 21.335938 7.394531 21.632812 7.226562 21.75 6.792969 L 22.542969 4.53125 C 22.027344 3.976562 21.316406 4.066406 20.714844 3.855469 C 19.71875 3.503906 18.703125 3.113281 17.664062 2.882812 C 17.171875 2.746094 16.691406 2.472656 16.207031 2.40625 C 15.378906 2.25 14.636719 1.957031 13.828125 1.742188 C 13.214844 1.558594 12.5625 1.296875 11.9375 1.042969 C 11.679688 0.917969 11.335938 0.929688 11.15625 0.664062 C 11.796875 -1.449219 12.347656 -3.59375 13.242188 -5.652344 L 15.472656 -4.867188 C 15.894531 -4.71875 16.320312 -4.570312 16.75 -4.453125 C 17.847656 -4.101562 18.925781 -3.792969 20.011719 -3.410156 C 20.585938 -3.207031 21.167969 -3.035156 21.742188 -2.835938 C 22.042969 -2.730469 22.308594 -2.90625 22.417969 -3.207031 C 22.621094 -3.882812 22.824219 -4.558594 23.097656 -5.242188 C 23.273438 -5.652344 23.117188 -5.980469 22.707031 -6.15625 C 22.203125 -6.367188 21.679688 -6.519531 21.15625 -6.667969 C 20.089844 -7.007812 19.003906 -7.289062 17.945312 -7.660156 C 17.472656 -7.859375 17.003906 -8.058594 16.488281 -8.140625 C 15.761719 -8.292969 15.171875 -8.738281 14.445312 -8.890625 C 14.882812 -10.804688 15.792969 -12.722656 16.367188 -14.554688 C 19.882812 -13.660156 23.25 -12.238281 26.679688 -11.101562 C 26.765625 -11.242188 26.878906 -11.371094 26.898438 -11.53125 C 27.03125 -12.097656 27.160156 -12.660156 27.453125 -13.203125 C 27.714844 -13.753906 27.449219 -14.152344 26.824219 -14.304688 Z M 26.824219 -14.304688 "/></g></g></g><g fill="#000000" fill-opacity="1"><g transform="translate(287.235268, 95.770563)"><g><path d="M 19.695312 -14.8125 C 18.460938 -15.433594 17.179688 -15.714844 15.855469 -15.871094 C 15.230469 -15.945312 14.617188 -15.976562 14.003906 -15.820312 C 12.378906 -15.410156 11.082031 -14.542969 10.132812 -13.136719 C 9.132812 -11.648438 8.722656 -9.957031 9.289062 -8.277344 C 9.71875 -6.941406 9.855469 -5.484375 10.785156 -4.296875 C 11.113281 -3.84375 11.300781 -3.285156 11.566406 -2.789062 C 12.050781 -1.980469 12.503906 -1.113281 12.925781 -0.265625 C 13.324219 0.566406 13.707031 1.425781 14.027344 2.324219 C 14.261719 3.058594 13.515625 4.179688 12.632812 3.914062 C 11.28125 3.558594 10.15625 2.886719 9.285156 1.847656 C 8.714844 1.429688 8.277344 0.539062 7.84375 -0.167969 C 7.3125 -0.964844 6.921875 -2.058594 6.792969 -3.027344 C 6.753906 -3.273438 6.613281 -3.542969 6.542969 -3.734375 C 6.148438 -4.007812 5.851562 -3.886719 5.570312 -3.792969 C 5.101562 -3.625 4.65625 -3.441406 4.242188 -3.246094 C 3.945312 -3.121094 3.105469 -2.839844 3.074219 -2.597656 C 3.003906 -2.042969 3.414062 -1.167969 3.589844 -0.652344 C 4.160156 1.136719 5.167969 2.632812 6.480469 3.933594 C 8.058594 5.46875 9.925781 6.582031 11.941406 7.449219 C 13.679688 8.222656 15.484375 8.628906 17.382812 8.378906 C 18.0625 8.300781 18.746094 8.152344 19.277344 7.761719 C 20.070312 7.117188 20.808594 6.4375 21.367188 5.503906 C 22.257812 3.878906 22.46875 2.214844 21.953125 0.457031 C 21.652344 -0.726562 21.011719 -1.777344 20.582031 -2.929688 C 20.214844 -3.816406 19.730469 -4.625 19.324219 -5.503906 C 18.875 -6.4375 18.382812 -7.363281 17.953125 -8.328125 C 17.792969 -8.683594 17.710938 -9.105469 17.726562 -9.507812 C 17.738281 -10.46875 18.378906 -10.980469 19.265625 -10.785156 C 19.5625 -10.71875 19.816406 -10.644531 20.0625 -10.496094 C 20.867188 -10.09375 21.53125 -9.585938 22.097656 -8.914062 C 22.824219 -8.070312 23.253906 -7.105469 23.101562 -5.96875 C 23.085938 -5.757812 23.023438 -5.53125 23.191406 -5.246094 C 24.113281 -4.734375 24.988281 -3.953125 26.046875 -3.542969 C 26.347656 -3.921875 26.457031 -4.230469 26.527344 -4.597656 C 26.574219 -5.054688 26.507812 -5.503906 26.511719 -5.949219 C 26.484375 -7.902344 25.953125 -9.632812 24.640625 -11.121094 C 23.265625 -12.683594 21.589844 -13.871094 19.695312 -14.8125 Z M 19.695312 -14.8125 "/></g></g></g><g fill="#000000" fill-opacity="1"><g transform="translate(21.380132, 190.035514)"><g/></g></g><g fill="#000000" fill-opacity="1"><g transform="translate(24.536651, 190.035514)"><g/></g></g><g fill="#000000" fill-opacity="1"><g transform="translate(27.693171, 190.035514)"><g/></g></g><g fill="#000000" fill-opacity="1"><g transform="translate(30.84969, 190.035514)"><g/></g></g><g fill="#000000" fill-opacity="1"><g transform="translate(34.006209, 190.035514)"><g/></g></g><g fill="#000000" fill-opacity="1"><g transform="translate(37.162728, 190.035514)"><g/></g></g><g fill="#000000" fill-opacity="1"><g transform="translate(40.319247, 190.035514)"><g/></g></g><g fill="#000000" fill-opacity="1"><g transform="translate(43.476331, 190.035514)"><g><path d="M 4.78125 -2.390625 C 4.78125 -1.640625 4.578125 -1.039062 4.171875 -0.59375 C 3.773438 -0.144531 3.238281 0.078125 2.5625 0.078125 C 1.882812 0.078125 1.347656 -0.144531 0.953125 -0.59375 C 0.554688 -1.039062 0.359375 -1.640625 0.359375 -2.390625 C 0.359375 -3.140625 0.554688 -3.734375 0.953125 -4.171875 C 1.347656 -4.617188 1.882812 -4.84375 2.5625 -4.84375 C 3.238281 -4.84375 3.773438 -4.617188 4.171875 -4.171875 C 4.578125 -3.734375 4.78125 -3.140625 4.78125 -2.390625 Z M 3.8125 -3.703125 C 3.6875 -3.921875 3.515625 -4.09375 3.296875 -4.21875 C 3.085938 -4.34375 2.84375 -4.40625 2.5625 -4.40625 C 2.070312 -4.40625 1.675781 -4.234375 1.375 -3.890625 C 1.082031 -3.554688 0.9375 -3.128906 0.9375 -2.609375 C 0.9375 -2.035156 1.0625 -1.53125 1.3125 -1.09375 C 1.425781 -0.863281 1.585938 -0.679688 1.796875 -0.546875 C 2.015625 -0.421875 2.265625 -0.359375 2.546875 -0.359375 C 3.066406 -0.359375 3.46875 -0.53125 3.75 -0.875 C 4.03125 -1.226562 4.171875 -1.6875 4.171875 -2.25 C 4.171875 -2.800781 4.050781 -3.285156 3.8125 -3.703125 Z M 3.8125 -3.703125 "/></g></g></g><g fill="#000000" fill-opacity="1"><g transform="translate(49.975429, 190.035514)"><g><path d="M 0.53125 -0.984375 L 0.53125 -3.109375 C 0.53125 -3.785156 0.507812 -4.34375 0.46875 -4.78125 C 0.550781 -4.789062 0.648438 -4.796875 0.765625 -4.796875 C 1.003906 -4.796875 1.125 -4.703125 1.125 -4.515625 C 1.125 -4.492188 1.117188 -4.40625 1.109375 -4.25 C 1.078125 -3.789062 1.0625 -3.382812 1.0625 -3.03125 L 1.0625 -0.796875 C 1.0625 -0.535156 1.03125 -0.300781 0.96875 -0.09375 C 0.914062 0.113281 0.847656 0.273438 0.765625 0.390625 C 0.679688 0.503906 0.585938 0.597656 0.484375 0.671875 C 0.316406 0.796875 0.160156 0.859375 0.015625 0.859375 C -0.160156 0.859375 -0.257812 0.722656 -0.28125 0.453125 C 0 0.390625 0.210938 0.285156 0.359375 0.140625 C 0.453125 0.0351562 0.507812 -0.175781 0.53125 -0.5 C 0.53125 -0.601562 0.53125 -0.765625 0.53125 -0.984375 Z M 0.53125 -0.984375 "/></g></g></g><g fill="#000000" fill-opacity="1"><g transform="translate(52.945467, 190.035514)"><g><path d="M 4.78125 -2.390625 C 4.78125 -1.640625 4.578125 -1.039062 4.171875 -0.59375 C 3.773438 -0.144531 3.238281 0.078125 2.5625 0.078125 C 1.882812 0.078125 1.347656 -0.144531 0.953125 -0.59375 C 0.554688 -1.039062 0.359375 -1.640625 0.359375 -2.390625 C 0.359375 -3.140625 0.554688 -3.734375 0.953125 -4.171875 C 1.347656 -4.617188 1.882812 -4.84375 2.5625 -4.84375 C 3.238281 -4.84375 3.773438 -4.617188 4.171875 -4.171875 C 4.578125 -3.734375 4.78125 -3.140625 4.78125 -2.390625 Z M 3.8125 -3.703125 C 3.6875 -3.921875 3.515625 -4.09375 3.296875 -4.21875 C 3.085938 -4.34375 2.84375 -4.40625 2.5625 -4.40625 C 2.070312 -4.40625 1.675781 -4.234375 1.375 -3.890625 C 1.082031 -3.554688 0.9375 -3.128906 0.9375 -2.609375 C 0.9375 -2.035156 1.0625 -1.53125 1.3125 -1.09375 C 1.425781 -0.863281 1.585938 -0.679688 1.796875 -0.546875 C 2.015625 -0.421875 2.265625 -0.359375 2.546875 -0.359375 C 3.066406 -0.359375 3.46875 -0.53125 3.75 -0.875 C 4.03125 -1.226562 4.171875 -1.6875 4.171875 -2.25 C 4.171875 -2.800781 4.050781 -3.285156 3.8125 -3.703125 Z M 3.8125 -3.703125 "/></g></g></g><g fill="#000000" fill-opacity="1"><g transform="translate(59.444565, 190.035514)"><g><path d="M 2.890625 -3.84375 C 2.804688 -4 2.65625 -4.128906 2.4375 -4.234375 C 2.226562 -4.335938 2.007812 -4.390625 1.78125 -4.390625 C 1.539062 -4.390625 1.335938 -4.320312 1.171875 -4.1875 C 1.003906 -4.050781 0.921875 -3.867188 0.921875 -3.640625 C 0.921875 -3.410156 0.984375 -3.234375 1.109375 -3.109375 C 1.234375 -2.984375 1.382812 -2.894531 1.5625 -2.84375 C 1.75 -2.789062 1.953125 -2.726562 2.171875 -2.65625 C 2.390625 -2.582031 2.585938 -2.503906 2.765625 -2.421875 C 2.941406 -2.347656 3.09375 -2.21875 3.21875 -2.03125 C 3.34375 -1.851562 3.40625 -1.628906 3.40625 -1.359375 C 3.40625 -1.097656 3.359375 -0.867188 3.265625 -0.671875 C 3.171875 -0.484375 3.039062 -0.335938 2.875 -0.234375 C 2.5625 -0.0234375 2.203125 0.078125 1.796875 0.078125 C 1.390625 0.078125 1.039062 0.0078125 0.75 -0.125 C 0.46875 -0.257812 0.328125 -0.421875 0.328125 -0.609375 C 0.328125 -0.710938 0.382812 -0.804688 0.5 -0.890625 C 0.539062 -0.910156 0.601562 -0.941406 0.6875 -0.984375 C 0.78125 -0.804688 0.945312 -0.660156 1.1875 -0.546875 C 1.425781 -0.441406 1.671875 -0.390625 1.921875 -0.390625 C 2.179688 -0.390625 2.40625 -0.457031 2.59375 -0.59375 C 2.789062 -0.738281 2.890625 -0.941406 2.890625 -1.203125 C 2.890625 -1.441406 2.800781 -1.628906 2.625 -1.765625 C 2.457031 -1.898438 2.253906 -2 2.015625 -2.0625 C 1.773438 -2.132812 1.53125 -2.207031 1.28125 -2.28125 C 1.039062 -2.363281 0.832031 -2.503906 0.65625 -2.703125 C 0.488281 -2.898438 0.40625 -3.160156 0.40625 -3.484375 C 0.40625 -3.921875 0.550781 -4.253906 0.84375 -4.484375 C 1.132812 -4.722656 1.503906 -4.84375 1.953125 -4.84375 C 2.285156 -4.84375 2.59375 -4.785156 2.875 -4.671875 C 3.15625 -4.554688 3.296875 -4.398438 3.296875 -4.203125 C 3.296875 -4.003906 3.160156 -3.882812 2.890625 -3.84375 Z M 2.890625 -3.84375 "/></g></g></g><g fill="#000000" fill-opacity="1"><g transform="translate(64.549819, 190.035514)"><g/></g></g><g fill="#000000" fill-opacity="1"><g transform="translate(21.380132, 207.449759)"><g><path d="M 7.953125 -7.75 C 7.703125 -8.1875 7.351562 -8.535156 6.90625 -8.796875 C 6.457031 -9.066406 5.941406 -9.203125 5.359375 -9.203125 C 4.328125 -9.203125 3.503906 -8.847656 2.890625 -8.140625 C 2.273438 -7.441406 1.96875 -6.539062 1.96875 -5.4375 C 1.96875 -4.25 2.21875 -3.191406 2.71875 -2.265625 C 2.96875 -1.804688 3.316406 -1.441406 3.765625 -1.171875 C 4.210938 -0.898438 4.734375 -0.765625 5.328125 -0.765625 C 6.410156 -0.765625 7.242188 -1.128906 7.828125 -1.859375 C 8.421875 -2.585938 8.71875 -3.53125 8.71875 -4.6875 C 8.71875 -5.84375 8.460938 -6.863281 7.953125 -7.75 Z M 4.890625 0.125 C 3.617188 0.03125 2.609375 -0.472656 1.859375 -1.390625 C 1.109375 -2.304688 0.734375 -3.53125 0.734375 -5.0625 C 0.734375 -6.582031 1.148438 -7.804688 1.984375 -8.734375 C 2.816406 -9.660156 3.9375 -10.125 5.34375 -10.125 C 6.757812 -10.125 7.882812 -9.660156 8.71875 -8.734375 C 9.5625 -7.804688 9.984375 -6.582031 9.984375 -5.0625 C 9.984375 -3.539062 9.609375 -2.320312 8.859375 -1.40625 C 8.109375 -0.5 7.097656 0.0078125 5.828125 0.125 C 5.941406 0.5625 6.148438 0.890625 6.453125 1.109375 C 6.765625 1.335938 7.125 1.453125 7.53125 1.453125 C 7.9375 1.453125 8.242188 1.410156 8.453125 1.328125 C 8.660156 1.242188 8.90625 1.09375 9.1875 0.875 C 9.289062 0.9375 9.390625 1.039062 9.484375 1.1875 C 9.578125 1.34375 9.625 1.46875 9.625 1.5625 C 9.625 1.8125 9.421875 2.003906 9.015625 2.140625 C 8.609375 2.285156 8.148438 2.359375 7.640625 2.359375 C 6.910156 2.359375 6.300781 2.15625 5.8125 1.75 C 5.320312 1.351562 5.015625 0.8125 4.890625 0.125 Z M 4.890625 0.125 "/></g></g></g><g fill="#000000" fill-opacity="1"><g transform="translate(34.945662, 207.449759)"><g><path d="M 1.203125 -2.890625 L 1.34375 -7.53125 C 1.34375 -8.488281 1.253906 -9.28125 1.078125 -9.90625 C 1.273438 -9.976562 1.515625 -10.015625 1.796875 -10.015625 C 2.066406 -10.015625 2.265625 -9.957031 2.390625 -9.84375 C 2.523438 -9.726562 2.59375 -9.492188 2.59375 -9.140625 C 2.59375 -8.785156 2.554688 -7.867188 2.484375 -6.390625 C 2.410156 -4.921875 2.375 -3.8125 2.375 -3.0625 C 2.375 -2.300781 2.578125 -1.734375 2.984375 -1.359375 C 3.390625 -0.992188 3.847656 -0.8125 4.359375 -0.8125 C 4.867188 -0.8125 5.394531 -0.929688 5.9375 -1.171875 C 6.488281 -1.410156 6.929688 -1.691406 7.265625 -2.015625 L 7.28125 -3.953125 L 7.28125 -6.484375 C 7.28125 -7.898438 7.242188 -9.066406 7.171875 -9.984375 C 7.347656 -10.003906 7.554688 -10.015625 7.796875 -10.015625 C 8.285156 -10.015625 8.53125 -9.828125 8.53125 -9.453125 C 8.53125 -9.429688 8.519531 -9.242188 8.5 -8.890625 C 8.4375 -7.835938 8.40625 -6.476562 8.40625 -4.8125 C 8.40625 -3.144531 8.421875 -2.046875 8.453125 -1.515625 C 8.484375 -0.992188 8.566406 -0.515625 8.703125 -0.078125 C 8.515625 0.00390625 8.28125 0.046875 8 0.046875 C 7.707031 0.046875 7.507812 -0.015625 7.40625 -0.140625 C 7.300781 -0.265625 7.25 -0.5 7.25 -0.84375 L 7.25 -1 C 6.851562 -0.664062 6.375 -0.390625 5.8125 -0.171875 C 5.25 0.0351562 4.734375 0.140625 4.265625 0.140625 C 3.316406 0.140625 2.566406 -0.078125 2.015625 -0.515625 C 1.472656 -0.960938 1.203125 -1.753906 1.203125 -2.890625 Z M 1.203125 -2.890625 "/></g></g></g><g fill="#000000" fill-opacity="1"><g transform="translate(47.490387, 207.449759)"><g><path d="M 1.171875 -0.859375 L 1.203125 -3.375 L 1.203125 -6.375 C 1.203125 -7.8125 1.128906 -8.984375 0.984375 -9.890625 C 2.054688 -9.972656 3.238281 -10.015625 4.53125 -10.015625 C 5.800781 -10.015625 6.523438 -9.941406 6.703125 -9.796875 C 6.796875 -9.710938 6.84375 -9.566406 6.84375 -9.359375 C 6.84375 -9.148438 6.800781 -8.945312 6.71875 -8.75 C 6.15625 -8.957031 5.226562 -9.0625 3.9375 -9.0625 C 3.394531 -9.0625 2.835938 -9.046875 2.265625 -9.015625 C 2.304688 -8.578125 2.328125 -7.515625 2.328125 -5.828125 L 3.515625 -5.828125 C 4.359375 -5.828125 4.960938 -5.847656 5.328125 -5.890625 C 5.367188 -5.804688 5.390625 -5.660156 5.390625 -5.453125 C 5.390625 -5.242188 5.332031 -5.097656 5.21875 -5.015625 C 5.113281 -4.941406 4.9375 -4.898438 4.6875 -4.890625 C 4.445312 -4.878906 4.101562 -4.875 3.65625 -4.875 L 2.328125 -4.875 C 2.328125 -2.6875 2.363281 -1.375 2.4375 -0.9375 C 2.875 -0.914062 3.226562 -0.90625 3.5 -0.90625 C 5.1875 -0.90625 6.269531 -1.019531 6.75 -1.25 C 6.820312 -1.050781 6.859375 -0.84375 6.859375 -0.625 C 6.859375 -0.414062 6.8125 -0.273438 6.71875 -0.203125 C 6.539062 -0.046875 5.773438 0.03125 4.421875 0.03125 C 3.046875 0.03125 2.210938 0.0195312 1.921875 0 C 1.628906 -0.0078125 1.429688 -0.078125 1.328125 -0.203125 C 1.222656 -0.335938 1.171875 -0.554688 1.171875 -0.859375 Z M 1.171875 -0.859375 "/></g></g></g><g fill="#000000" fill-opacity="1"><g transform="translate(57.65567, 207.449759)"><g/></g></g><g fill="#000000" fill-opacity="1"><g transform="translate(64.244438, 207.449759)"><g><path d="M 6.96875 -10.03125 C 7.25 -10.09375 7.484375 -10.125 7.671875 -10.125 C 8.054688 -10.125 8.25 -9.878906 8.25 -9.390625 C 8.25 -8.285156 7.894531 -6.804688 7.1875 -4.953125 C 6.488281 -3.109375 5.773438 -1.71875 5.046875 -0.78125 C 4.796875 -0.445312 4.582031 -0.222656 4.40625 -0.109375 C 4.238281 -0.00390625 4.070312 0.046875 3.90625 0.046875 C 3.726562 0.046875 3.53125 0.0351562 3.3125 0.015625 C 2.988281 -1.597656 2.441406 -3.445312 1.671875 -5.53125 C 0.898438 -7.625 0.242188 -8.9375 -0.296875 -9.46875 C 0.117188 -9.832031 0.484375 -10.015625 0.796875 -10.015625 C 1.097656 -10.015625 1.335938 -9.800781 1.515625 -9.375 C 1.910156 -8.476562 2.375 -7.207031 2.90625 -5.5625 C 3.4375 -3.914062 3.851562 -2.488281 4.15625 -1.28125 C 4.75 -1.9375 5.375 -3.144531 6.03125 -4.90625 C 6.695312 -6.664062 7.03125 -8.125 7.03125 -9.28125 C 7.03125 -9.644531 7.007812 -9.894531 6.96875 -10.03125 Z M 6.96875 -10.03125 "/></g></g></g><g fill="#000000" fill-opacity="1"><g transform="translate(75.496624, 207.449759)"><g><path d="M 1.171875 -0.859375 L 1.203125 -3.375 L 1.203125 -6.375 C 1.203125 -7.8125 1.128906 -8.984375 0.984375 -9.890625 C 2.054688 -9.972656 3.238281 -10.015625 4.53125 -10.015625 C 5.800781 -10.015625 6.523438 -9.941406 6.703125 -9.796875 C 6.796875 -9.710938 6.84375 -9.566406 6.84375 -9.359375 C 6.84375 -9.148438 6.800781 -8.945312 6.71875 -8.75 C 6.15625 -8.957031 5.226562 -9.0625 3.9375 -9.0625 C 3.394531 -9.0625 2.835938 -9.046875 2.265625 -9.015625 C 2.304688 -8.578125 2.328125 -7.515625 2.328125 -5.828125 L 3.515625 -5.828125 C 4.359375 -5.828125 4.960938 -5.847656 5.328125 -5.890625 C 5.367188 -5.804688 5.390625 -5.660156 5.390625 -5.453125 C 5.390625 -5.242188 5.332031 -5.097656 5.21875 -5.015625 C 5.113281 -4.941406 4.9375 -4.898438 4.6875 -4.890625 C 4.445312 -4.878906 4.101562 -4.875 3.65625 -4.875 L 2.328125 -4.875 C 2.328125 -2.6875 2.363281 -1.375 2.4375 -0.9375 C 2.875 -0.914062 3.226562 -0.90625 3.5 -0.90625 C 5.1875 -0.90625 6.269531 -1.019531 6.75 -1.25 C 6.820312 -1.050781 6.859375 -0.84375 6.859375 -0.625 C 6.859375 -0.414062 6.8125 -0.273438 6.71875 -0.203125 C 6.539062 -0.046875 5.773438 0.03125 4.421875 0.03125 C 3.046875 0.03125 2.210938 0.0195312 1.921875 0 C 1.628906 -0.0078125 1.429688 -0.078125 1.328125 -0.203125 C 1.222656 -0.335938 1.171875 -0.554688 1.171875 -0.859375 Z M 1.171875 -0.859375 "/></g></g></g><g fill="#000000" fill-opacity="1"><g transform="translate(85.661905, 207.449759)"><g><path d="M 7.296875 -1.796875 C 7.234375 -2.515625 7.203125 -3.773438 7.203125 -5.578125 L 7.203125 -6.484375 C 7.203125 -7.898438 7.171875 -9.066406 7.109375 -9.984375 C 7.273438 -10.003906 7.425781 -10.015625 7.5625 -10.015625 C 8.050781 -10.015625 8.296875 -9.828125 8.296875 -9.453125 C 8.296875 -9.390625 8.285156 -9.1875 8.265625 -8.84375 C 8.210938 -7.800781 8.1875 -6.878906 8.1875 -6.078125 L 8.1875 -3.5 C 8.1875 -2.082031 8.21875 -0.921875 8.28125 -0.015625 C 8.125 0.0234375 7.960938 0.046875 7.796875 0.046875 C 7.453125 0.046875 7.191406 -0.0859375 7.015625 -0.359375 C 6.597656 -0.992188 5.882812 -2.203125 4.875 -3.984375 C 3.863281 -5.773438 2.992188 -7.210938 2.265625 -8.296875 C 2.253906 -7.921875 2.25 -6.175781 2.25 -3.0625 C 2.25 -1.695312 2.347656 -0.703125 2.546875 -0.078125 C 2.359375 0.00390625 2.144531 0.046875 1.90625 0.046875 C 1.664062 0.046875 1.492188 -0.015625 1.390625 -0.140625 C 1.296875 -0.273438 1.25 -0.5 1.25 -0.8125 L 1.28125 -3.46875 L 1.28125 -6.484375 C 1.28125 -8.160156 1.179688 -9.304688 0.984375 -9.921875 C 1.179688 -9.992188 1.398438 -10.03125 1.640625 -10.03125 C 1.878906 -10.03125 2.054688 -10 2.171875 -9.9375 C 2.597656 -9.664062 3.363281 -8.613281 4.46875 -6.78125 C 5.570312 -4.957031 6.515625 -3.296875 7.296875 -1.796875 Z M 7.296875 -1.796875 "/></g></g></g><g fill="#000000" fill-opacity="1"><g transform="translate(301.27563, 195.667864)"><g><path d="M 0.703125 -0.46875 L 0.71875 -1.96875 L 0.71875 -4.109375 C 0.71875 -4.742188 0.664062 -5.242188 0.5625 -5.609375 C 0.738281 -5.660156 0.90625 -5.6875 1.0625 -5.6875 C 1.289062 -5.6875 1.488281 -5.546875 1.65625 -5.265625 C 1.875 -4.878906 2.097656 -4.40625 2.328125 -3.84375 C 2.554688 -3.289062 2.734375 -2.820312 2.859375 -2.4375 C 2.992188 -2.0625 3.175781 -1.507812 3.40625 -0.78125 C 3.582031 -1.488281 3.816406 -2.25 4.109375 -3.0625 C 4.410156 -3.882812 4.75 -4.617188 5.125 -5.265625 C 5.269531 -5.546875 5.472656 -5.6875 5.734375 -5.6875 C 5.929688 -5.6875 6.09375 -5.660156 6.21875 -5.609375 C 6.113281 -5.273438 6.0625 -4.644531 6.0625 -3.71875 L 6.0625 -1.734375 C 6.0625 -0.960938 6.113281 -0.398438 6.21875 -0.046875 C 6.125 0.00390625 5.992188 0.03125 5.828125 0.03125 C 5.660156 0.03125 5.546875 -0.00390625 5.484375 -0.078125 C 5.429688 -0.160156 5.40625 -0.253906 5.40625 -0.359375 C 5.40625 -0.460938 5.410156 -0.695312 5.421875 -1.0625 C 5.421875 -2.132812 5.421875 -3.363281 5.421875 -4.75 C 4.898438 -3.695312 4.332031 -2.117188 3.71875 -0.015625 C 3.644531 0.00390625 3.566406 0.015625 3.484375 0.015625 C 3.265625 0.015625 3.125 -0.0546875 3.0625 -0.203125 C 2.925781 -0.515625 2.664062 -1.195312 2.28125 -2.25 C 1.90625 -3.3125 1.570312 -4.140625 1.28125 -4.734375 L 1.28125 -1.734375 C 1.28125 -0.960938 1.332031 -0.398438 1.4375 -0.046875 C 1.332031 0.00390625 1.210938 0.03125 1.078125 0.03125 C 0.941406 0.03125 0.84375 -0.00390625 0.78125 -0.078125 C 0.726562 -0.160156 0.703125 -0.289062 0.703125 -0.46875 Z M 0.703125 -0.46875 "/></g></g></g><g fill="#000000" fill-opacity="1"><g transform="translate(309.675873, 195.667864)"><g><path d="M 4.640625 0 L 3.90625 -1.875 L 1.5 -1.875 L 0.78125 0 L 0 0 L 2.375 -6.109375 L 3.0625 -6.109375 L 5.4375 0 Z M 3.671875 -2.5625 L 3 -4.40625 C 2.976562 -4.445312 2.945312 -4.523438 2.90625 -4.640625 C 2.875 -4.765625 2.835938 -4.890625 2.796875 -5.015625 C 2.753906 -5.148438 2.722656 -5.25 2.703125 -5.3125 C 2.660156 -5.132812 2.613281 -4.960938 2.5625 -4.796875 C 2.519531 -4.628906 2.476562 -4.5 2.4375 -4.40625 L 1.75 -2.5625 Z M 3.90625 -8.03125 L 3.90625 -7.953125 C 3.832031 -7.847656 3.726562 -7.710938 3.59375 -7.546875 C 3.457031 -7.390625 3.304688 -7.226562 3.140625 -7.0625 C 2.972656 -6.90625 2.820312 -6.773438 2.6875 -6.671875 L 2.203125 -6.671875 L 2.203125 -6.78125 C 2.273438 -6.882812 2.363281 -7.007812 2.46875 -7.15625 C 2.570312 -7.3125 2.671875 -7.460938 2.765625 -7.609375 C 2.867188 -7.765625 2.953125 -7.90625 3.015625 -8.03125 Z M 3.90625 -8.03125 "/></g></g></g><g fill="#000000" fill-opacity="1"><g transform="translate(316.732332, 195.667864)"><g><path d="M 3.40625 -4.546875 C 3.3125 -4.722656 3.140625 -4.875 2.890625 -5 C 2.640625 -5.125 2.378906 -5.1875 2.109375 -5.1875 C 1.828125 -5.1875 1.585938 -5.109375 1.390625 -4.953125 C 1.191406 -4.796875 1.09375 -4.582031 1.09375 -4.3125 C 1.09375 -4.039062 1.164062 -3.828125 1.3125 -3.671875 C 1.457031 -3.523438 1.632812 -3.421875 1.84375 -3.359375 C 2.0625 -3.296875 2.300781 -3.222656 2.5625 -3.140625 C 2.820312 -3.054688 3.054688 -2.96875 3.265625 -2.875 C 3.484375 -2.78125 3.664062 -2.625 3.8125 -2.40625 C 3.957031 -2.1875 4.03125 -1.921875 4.03125 -1.609375 C 4.03125 -1.296875 3.972656 -1.023438 3.859375 -0.796875 C 3.742188 -0.578125 3.585938 -0.40625 3.390625 -0.28125 C 3.015625 -0.0390625 2.585938 0.078125 2.109375 0.078125 C 1.628906 0.078125 1.21875 0.00390625 0.875 -0.140625 C 0.539062 -0.296875 0.375 -0.488281 0.375 -0.71875 C 0.375 -0.84375 0.445312 -0.953125 0.59375 -1.046875 C 0.644531 -1.078125 0.71875 -1.117188 0.8125 -1.171875 C 0.925781 -0.960938 1.125 -0.789062 1.40625 -0.65625 C 1.6875 -0.519531 1.976562 -0.453125 2.28125 -0.453125 C 2.582031 -0.453125 2.84375 -0.535156 3.0625 -0.703125 C 3.289062 -0.878906 3.40625 -1.113281 3.40625 -1.40625 C 3.40625 -1.707031 3.304688 -1.9375 3.109375 -2.09375 C 2.910156 -2.25 2.664062 -2.363281 2.375 -2.4375 C 2.09375 -2.519531 1.804688 -2.609375 1.515625 -2.703125 C 1.234375 -2.804688 0.988281 -2.972656 0.78125 -3.203125 C 0.582031 -3.429688 0.484375 -3.734375 0.484375 -4.109375 C 0.484375 -4.628906 0.65625 -5.03125 1 -5.3125 C 1.34375 -5.59375 1.78125 -5.734375 2.3125 -5.734375 C 2.707031 -5.734375 3.070312 -5.664062 3.40625 -5.53125 C 3.738281 -5.394531 3.90625 -5.207031 3.90625 -4.96875 C 3.90625 -4.738281 3.738281 -4.597656 3.40625 -4.546875 Z M 3.40625 -4.546875 "/></g></g></g><g fill="#000000" fill-opacity="1"><g transform="translate(322.759367, 195.667864)"><g/></g></g><g fill="#000000" fill-opacity="1"><g transform="translate(326.488005, 195.667864)"><g><path d="M 3.3125 -2.28125 C 3.113281 -2.789062 2.816406 -3.644531 2.421875 -4.84375 C 2.367188 -4.71875 2.238281 -4.351562 2.03125 -3.75 C 1.820312 -3.15625 1.640625 -2.664062 1.484375 -2.28125 C 1.921875 -2.269531 2.289062 -2.265625 2.59375 -2.265625 C 2.894531 -2.265625 3.132812 -2.269531 3.3125 -2.28125 Z M 3.484375 -1.78125 C 2.847656 -1.769531 2.460938 -1.765625 2.328125 -1.765625 C 2.191406 -1.765625 1.835938 -1.769531 1.265625 -1.78125 C 0.890625 -0.820312 0.648438 -0.171875 0.546875 0.171875 C 0.367188 0.140625 0.238281 0.0976562 0.15625 0.046875 C 0.0820312 -0.00390625 0.046875 -0.0703125 0.046875 -0.15625 C 0.046875 -0.226562 0.164062 -0.546875 0.40625 -1.109375 C 1.226562 -3.035156 1.796875 -4.539062 2.109375 -5.625 C 2.210938 -5.632812 2.332031 -5.640625 2.46875 -5.640625 C 2.601562 -5.640625 2.695312 -5.613281 2.75 -5.5625 C 2.8125 -5.519531 2.875 -5.394531 2.9375 -5.1875 C 3.289062 -4.039062 3.648438 -3 4.015625 -2.0625 C 4.378906 -1.125 4.65625 -0.460938 4.84375 -0.078125 C 4.6875 0.0234375 4.550781 0.078125 4.4375 0.078125 C 4.25 0.078125 4.128906 0.00390625 4.078125 -0.140625 C 3.960938 -0.421875 3.765625 -0.96875 3.484375 -1.78125 Z M 3.484375 -1.78125 "/></g></g></g><g fill="#000000" fill-opacity="1"><g transform="translate(332.793506, 195.667864)"><g><path d="M 0.609375 -0.484375 L 0.625 -1.90625 L 0.625 -3.671875 C 0.625 -4.472656 0.601562 -5.128906 0.5625 -5.640625 C 0.65625 -5.660156 0.769531 -5.671875 0.90625 -5.671875 C 1.1875 -5.671875 1.328125 -5.5625 1.328125 -5.34375 C 1.328125 -5.3125 1.320312 -5.195312 1.3125 -5 C 1.28125 -4.414062 1.265625 -3.894531 1.265625 -3.4375 L 1.265625 -2.671875 C 1.265625 -1.492188 1.28125 -0.78125 1.3125 -0.53125 C 1.550781 -0.519531 1.742188 -0.515625 1.890625 -0.515625 C 2.765625 -0.515625 3.332031 -0.578125 3.59375 -0.703125 C 3.632812 -0.585938 3.65625 -0.472656 3.65625 -0.359375 C 3.65625 -0.234375 3.628906 -0.148438 3.578125 -0.109375 C 3.484375 -0.0234375 3.070312 0.015625 2.34375 0.015625 C 1.613281 0.015625 1.164062 0.0078125 1 0 C 0.84375 -0.0078125 0.738281 -0.0507812 0.6875 -0.125 C 0.632812 -0.195312 0.609375 -0.316406 0.609375 -0.484375 Z M 0.609375 -0.484375 "/></g></g></g><g fill="#000000" fill-opacity="1"><g transform="translate(338.064105, 195.667864)"><g><path d="M 0.609375 -0.484375 L 0.625 -1.90625 L 0.625 -3.671875 C 0.625 -4.472656 0.601562 -5.128906 0.5625 -5.640625 C 0.65625 -5.660156 0.769531 -5.671875 0.90625 -5.671875 C 1.1875 -5.671875 1.328125 -5.5625 1.328125 -5.34375 C 1.328125 -5.3125 1.320312 -5.195312 1.3125 -5 C 1.28125 -4.414062 1.265625 -3.894531 1.265625 -3.4375 L 1.265625 -2.671875 C 1.265625 -1.492188 1.28125 -0.78125 1.3125 -0.53125 C 1.550781 -0.519531 1.742188 -0.515625 1.890625 -0.515625 C 2.765625 -0.515625 3.332031 -0.578125 3.59375 -0.703125 C 3.632812 -0.585938 3.65625 -0.472656 3.65625 -0.359375 C 3.65625 -0.234375 3.628906 -0.148438 3.578125 -0.109375 C 3.484375 -0.0234375 3.070312 0.015625 2.34375 0.015625 C 1.613281 0.015625 1.164062 0.0078125 1 0 C 0.84375 -0.0078125 0.738281 -0.0507812 0.6875 -0.125 C 0.632812 -0.195312 0.609375 -0.316406 0.609375 -0.484375 Z M 0.609375 -0.484375 "/></g></g></g><g fill="#000000" fill-opacity="1"><g transform="translate(343.334704, 195.667864)"><g><path d="M 4.640625 0 L 3.90625 -1.875 L 1.5 -1.875 L 0.78125 0 L 0 0 L 2.375 -6.109375 L 3.0625 -6.109375 L 5.4375 0 Z M 3.671875 -2.5625 L 3 -4.40625 C 2.976562 -4.445312 2.945312 -4.523438 2.90625 -4.640625 C 2.875 -4.765625 2.835938 -4.890625 2.796875 -5.015625 C 2.753906 -5.148438 2.722656 -5.25 2.703125 -5.3125 C 2.660156 -5.132812 2.613281 -4.960938 2.5625 -4.796875 C 2.519531 -4.628906 2.476562 -4.5 2.4375 -4.40625 L 1.75 -2.5625 Z M 3.90625 -8.03125 L 3.90625 -7.953125 C 3.832031 -7.847656 3.726562 -7.710938 3.59375 -7.546875 C 3.457031 -7.390625 3.304688 -7.226562 3.140625 -7.0625 C 2.972656 -6.90625 2.820312 -6.773438 2.6875 -6.671875 L 2.203125 -6.671875 L 2.203125 -6.78125 C 2.273438 -6.882812 2.363281 -7.007812 2.46875 -7.15625 C 2.570312 -7.3125 2.671875 -7.460938 2.765625 -7.609375 C 2.867188 -7.765625 2.953125 -7.90625 3.015625 -8.03125 Z M 3.90625 -8.03125 "/></g></g></g></svg>