<svg xmlns="http://www.w3.org/2000/svg" xmlns:xlink="http://www.w3.org/1999/xlink" width="500" zoomAndPan="magnify" viewBox="0 0 375 374.999991" height="500" preserveAspectRatio="xMidYMid meet" version="1.0"><defs><g/><clipPath id="1a59c45d9b"><path d="M 192 243 L 194 243 L 194 248.871094 L 192 248.871094 Z M 192 243 " clip-rule="nonzero"/></clipPath><clipPath id="1a17feb3bc"><path d="M 251.738281 152.550781 L 256.980469 152.550781 L 256.980469 155.234375 L 251.738281 155.234375 Z M 251.738281 152.550781 " clip-rule="nonzero"/></clipPath><clipPath id="8fc11a7f83"><path d="M 192 98.871094 L 194 98.871094 L 194 103 L 192 103 Z M 192 98.871094 " clip-rule="nonzero"/></clipPath><clipPath id="eba7ed36a8"><path d="M 124.230469 151 L 128 151 L 128 153 L 124.230469 153 Z M 124.230469 151 " clip-rule="nonzero"/></clipPath></defs><g clip-path="url(#1a59c45d9b)"><path fill="#293731" d="M 193.292969 248.867188 C 193.046875 248.867188 192.847656 248.667969 192.847656 248.421875 L 192.847656 244.320312 C 192.847656 244.074219 193.046875 243.875 193.292969 243.875 C 193.539062 243.875 193.738281 244.074219 193.738281 244.320312 L 193.738281 248.421875 C 193.738281 248.667969 193.539062 248.867188 193.292969 248.867188 " fill-opacity="1" fill-rule="nonzero"/></g><path fill="#293731" d="M 193.292969 239.300781 C 193.046875 239.300781 192.847656 239.101562 192.847656 238.855469 L 192.847656 236.121094 C 192.847656 235.875 193.046875 235.675781 193.292969 235.675781 C 193.539062 235.675781 193.738281 235.875 193.738281 236.121094 L 193.738281 238.855469 C 193.738281 239.101562 193.539062 239.300781 193.292969 239.300781 " fill-opacity="1" fill-rule="nonzero"/><path fill="#293731" d="M 193.292969 230.765625 C 193.046875 230.765625 192.847656 230.566406 192.847656 230.320312 L 192.847656 213.4375 C 192.847656 213.1875 193.046875 212.988281 193.292969 212.988281 C 193.539062 212.988281 193.738281 213.1875 193.738281 213.4375 L 193.738281 230.320312 C 193.738281 230.566406 193.539062 230.765625 193.292969 230.765625 " fill-opacity="1" fill-rule="nonzero"/><path fill="#293731" d="M 207.355469 240.578125 C 207.148438 240.578125 206.960938 240.433594 206.917969 240.222656 C 206.425781 237.855469 205.933594 235.492188 205.4375 233.128906 C 205.386719 232.886719 205.539062 232.648438 205.78125 232.597656 C 206.023438 232.546875 206.261719 232.699219 206.308594 232.945312 C 206.808594 235.308594 207.300781 237.671875 207.792969 240.039062 C 207.84375 240.28125 207.6875 240.515625 207.449219 240.570312 C 207.417969 240.574219 207.386719 240.578125 207.355469 240.578125 " fill-opacity="1" fill-rule="nonzero"/><path fill="#293731" d="M 204.796875 228.386719 C 204.589844 228.386719 204.40625 228.242188 204.363281 228.03125 L 203.796875 225.371094 C 203.746094 225.128906 203.902344 224.894531 204.140625 224.84375 C 204.382812 224.789062 204.621094 224.945312 204.671875 225.183594 L 205.234375 227.84375 C 205.285156 228.085938 205.132812 228.324219 204.890625 228.375 C 204.859375 228.382812 204.828125 228.386719 204.796875 228.386719 " fill-opacity="1" fill-rule="nonzero"/><path fill="#293731" d="M 215.046875 222.910156 C 214.878906 222.910156 214.71875 222.816406 214.640625 222.65625 C 213.363281 219.964844 212.054688 217.144531 210.644531 214.03125 C 210.542969 213.808594 210.644531 213.542969 210.867188 213.4375 C 211.09375 213.339844 211.355469 213.4375 211.460938 213.660156 C 212.867188 216.769531 214.171875 219.585938 215.449219 222.269531 C 215.554688 222.492188 215.460938 222.757812 215.238281 222.863281 C 215.175781 222.894531 215.109375 222.910156 215.046875 222.910156 " fill-opacity="1" fill-rule="nonzero"/><path fill="#293731" d="M 231.890625 227.515625 C 231.753906 227.515625 231.617188 227.453125 231.53125 227.335938 L 229.785156 224.953125 C 229.636719 224.753906 229.679688 224.472656 229.878906 224.328125 C 230.078125 224.179688 230.359375 224.222656 230.503906 224.421875 L 232.25 226.804688 C 232.394531 227.003906 232.351562 227.285156 232.152344 227.429688 C 232.074219 227.488281 231.980469 227.515625 231.890625 227.515625 " fill-opacity="1" fill-rule="nonzero"/><path fill="#293731" d="M 226.523438 220.179688 C 226.386719 220.179688 226.25 220.117188 226.164062 220 C 222.574219 215.078125 219.390625 210.679688 216.433594 206.558594 C 216.289062 206.359375 216.335938 206.078125 216.535156 205.933594 C 216.734375 205.792969 217.015625 205.835938 217.15625 206.039062 C 220.113281 210.15625 223.296875 214.550781 226.882812 219.472656 C 227.03125 219.671875 226.984375 219.949219 226.785156 220.09375 C 226.707031 220.152344 226.617188 220.179688 226.523438 220.179688 " fill-opacity="1" fill-rule="nonzero"/><path fill="#293731" d="M 241.027344 217.359375 C 240.917969 217.359375 240.8125 217.320312 240.722656 217.242188 C 238.179688 214.867188 235.683594 212.671875 233.035156 210.351562 L 232.839844 210.179688 C 232.65625 210.015625 232.636719 209.734375 232.800781 209.546875 C 232.960938 209.363281 233.246094 209.34375 233.429688 209.507812 L 233.625 209.679688 C 236.273438 212.003906 238.78125 214.203125 241.335938 216.585938 C 241.515625 216.753906 241.523438 217.039062 241.355469 217.21875 C 241.269531 217.3125 241.148438 217.359375 241.027344 217.359375 " fill-opacity="1" fill-rule="nonzero"/><path fill="#293731" d="M 248.347656 206.152344 C 248.277344 206.152344 248.203125 206.132812 248.136719 206.097656 C 247.816406 205.921875 247.496094 205.742188 247.175781 205.566406 C 246.960938 205.445312 246.886719 205.171875 247.003906 204.957031 C 247.125 204.738281 247.398438 204.664062 247.613281 204.785156 C 247.929688 204.960938 248.246094 205.136719 248.566406 205.3125 C 248.78125 205.429688 248.859375 205.703125 248.742188 205.917969 C 248.660156 206.066406 248.507812 206.152344 248.347656 206.152344 " fill-opacity="1" fill-rule="nonzero"/><path fill="#293731" d="M 242.097656 202.570312 C 242.019531 202.570312 241.945312 202.550781 241.875 202.511719 C 240.625 201.792969 239.597656 201.222656 238.644531 200.710938 C 238.425781 200.59375 238.34375 200.324219 238.460938 200.105469 C 238.574219 199.886719 238.847656 199.804688 239.066406 199.921875 C 240.027344 200.4375 241.0625 201.011719 242.316406 201.734375 C 242.53125 201.859375 242.605469 202.132812 242.484375 202.347656 C 242.402344 202.488281 242.25 202.570312 242.097656 202.570312 " fill-opacity="1" fill-rule="nonzero"/><path fill="#293731" d="M 254.921875 194.371094 C 254.878906 194.371094 254.835938 194.363281 254.792969 194.351562 C 252.109375 193.546875 249.40625 192.667969 246.789062 191.816406 C 244.308594 191.007812 241.746094 190.175781 239.210938 189.40625 C 238.976562 189.335938 238.839844 189.085938 238.914062 188.847656 C 238.984375 188.613281 239.234375 188.480469 239.46875 188.550781 C 242.011719 189.320312 244.582031 190.15625 247.0625 190.964844 C 249.675781 191.8125 252.378906 192.691406 255.050781 193.496094 C 255.289062 193.566406 255.421875 193.816406 255.351562 194.054688 C 255.292969 194.246094 255.117188 194.371094 254.921875 194.371094 " fill-opacity="1" fill-rule="nonzero"/><g clip-path="url(#1a17feb3bc)"><path fill="#293731" d="M 252.230469 155.125 C 252.042969 155.125 251.867188 155.003906 251.804688 154.8125 C 251.730469 154.578125 251.859375 154.328125 252.09375 154.25 C 253.527344 153.789062 254.964844 153.328125 256.398438 152.867188 C 256.632812 152.792969 256.882812 152.921875 256.960938 153.15625 C 257.035156 153.390625 256.90625 153.644531 256.671875 153.71875 C 255.234375 154.179688 253.800781 154.640625 252.367188 155.101562 C 252.324219 155.117188 252.277344 155.125 252.230469 155.125 " fill-opacity="1" fill-rule="nonzero"/></g><path fill="#293731" d="M 242.984375 158.109375 C 242.796875 158.109375 242.621094 157.988281 242.558594 157.800781 C 242.484375 157.5625 242.613281 157.3125 242.847656 157.234375 C 245.070312 156.515625 247.289062 155.800781 249.511719 155.082031 C 249.75 155.007812 250 155.136719 250.074219 155.371094 C 250.152344 155.605469 250.023438 155.859375 249.785156 155.933594 C 247.566406 156.652344 245.34375 157.367188 243.121094 158.085938 C 243.078125 158.101562 243.03125 158.109375 242.984375 158.109375 " fill-opacity="1" fill-rule="nonzero"/><path fill="#293731" d="M 248.484375 142.363281 C 248.328125 142.363281 248.175781 142.28125 248.09375 142.132812 C 247.976562 141.917969 248.050781 141.644531 248.269531 141.527344 C 248.757812 141.25 249.25 140.980469 249.746094 140.714844 C 249.964844 140.597656 250.234375 140.679688 250.351562 140.894531 C 250.46875 141.113281 250.386719 141.386719 250.167969 141.503906 C 249.679688 141.765625 249.191406 142.035156 248.703125 142.308594 C 248.632812 142.34375 248.558594 142.363281 248.484375 142.363281 " fill-opacity="1" fill-rule="nonzero"/><path fill="#293731" d="M 241.785156 146.308594 C 241.632812 146.308594 241.484375 146.230469 241.398438 146.089844 C 241.273438 145.875 241.34375 145.601562 241.558594 145.476562 C 242.070312 145.171875 242.582031 144.867188 243.09375 144.5625 C 243.304688 144.433594 243.578125 144.5 243.707031 144.714844 C 243.832031 144.925781 243.765625 145.199219 243.550781 145.328125 C 243.039062 145.636719 242.527344 145.941406 242.011719 146.246094 C 241.941406 146.289062 241.863281 146.308594 241.785156 146.308594 " fill-opacity="1" fill-rule="nonzero"/><path fill="#293731" d="M 231.203125 140.367188 C 231.082031 140.367188 230.960938 140.320312 230.875 140.222656 C 230.707031 140.039062 230.722656 139.757812 230.90625 139.589844 C 234.789062 136.066406 238.253906 132.863281 241.496094 129.804688 C 241.675781 129.632812 241.957031 129.644531 242.128906 129.824219 C 242.296875 130.003906 242.289062 130.285156 242.109375 130.457031 C 238.863281 133.519531 235.394531 136.726562 231.503906 140.253906 C 231.417969 140.332031 231.3125 140.367188 231.203125 140.367188 " fill-opacity="1" fill-rule="nonzero"/><path fill="#293731" d="M 227.851562 126.632812 C 227.761719 126.632812 227.667969 126.605469 227.589844 126.546875 C 227.390625 126.398438 227.347656 126.121094 227.492188 125.921875 C 228.835938 124.082031 230.183594 122.242188 231.53125 120.40625 C 231.675781 120.207031 231.957031 120.164062 232.152344 120.308594 C 232.351562 120.457031 232.394531 120.738281 232.25 120.9375 C 230.902344 122.773438 229.558594 124.609375 228.214844 126.449219 C 228.125 126.570312 227.992188 126.632812 227.851562 126.632812 " fill-opacity="1" fill-rule="nonzero"/><path fill="#293731" d="M 210.820312 134.707031 C 210.757812 134.707031 210.695312 134.691406 210.636719 134.664062 C 210.410156 134.5625 210.3125 134.296875 210.417969 134.070312 C 211.707031 131.25 212.976562 128.359375 214.203125 125.566406 C 215.925781 121.625 217.714844 117.554688 219.597656 113.605469 C 219.703125 113.382812 219.96875 113.289062 220.191406 113.394531 C 220.417969 113.5 220.511719 113.765625 220.402344 113.988281 C 218.527344 117.929688 216.742188 121.992188 215.019531 125.925781 C 213.792969 128.722656 212.523438 131.617188 211.226562 134.445312 C 211.152344 134.609375 210.992188 134.707031 210.820312 134.707031 " fill-opacity="1" fill-rule="nonzero"/><g clip-path="url(#8fc11a7f83)"><path fill="#293731" d="M 193.292969 102.722656 C 193.046875 102.722656 192.847656 102.523438 192.847656 102.277344 L 192.847656 99.320312 C 192.847656 99.074219 193.046875 98.875 193.292969 98.875 C 193.539062 98.875 193.738281 99.074219 193.738281 99.320312 L 193.738281 102.277344 C 193.738281 102.523438 193.539062 102.722656 193.292969 102.722656 " fill-opacity="1" fill-rule="nonzero"/></g><path fill="#293731" d="M 193.292969 117.777344 C 193.046875 117.777344 192.847656 117.578125 192.847656 117.332031 L 192.847656 107.957031 C 192.847656 107.710938 193.046875 107.511719 193.292969 107.511719 C 193.539062 107.511719 193.738281 107.710938 193.738281 107.957031 L 193.738281 117.332031 C 193.738281 117.578125 193.539062 117.777344 193.292969 117.777344 " fill-opacity="1" fill-rule="nonzero"/><path fill="#293731" d="M 182.617188 123.820312 C 182.410156 123.820312 182.226562 123.675781 182.183594 123.46875 L 181.769531 121.558594 C 181.007812 118.027344 180.242188 114.496094 179.484375 110.964844 C 179.429688 110.722656 179.585938 110.484375 179.824219 110.433594 C 180.066406 110.382812 180.304688 110.535156 180.355469 110.773438 C 181.117188 114.304688 181.878906 117.839844 182.640625 121.367188 L 183.054688 123.277344 C 183.105469 123.519531 182.953125 123.757812 182.710938 123.808594 C 182.679688 123.816406 182.648438 123.820312 182.617188 123.820312 " fill-opacity="1" fill-rule="nonzero"/><path fill="#293731" d="M 169.03125 119.636719 C 168.863281 119.636719 168.699219 119.539062 168.625 119.375 C 168.0625 118.140625 167.496094 116.902344 166.925781 115.667969 C 166.824219 115.445312 166.921875 115.179688 167.144531 115.074219 C 167.367188 114.972656 167.632812 115.070312 167.738281 115.292969 C 168.308594 116.527344 168.875 117.765625 169.4375 119.003906 C 169.539062 119.230469 169.441406 119.496094 169.214844 119.597656 C 169.15625 119.625 169.09375 119.636719 169.03125 119.636719 " fill-opacity="1" fill-rule="nonzero"/><path fill="#293731" d="M 177.59375 139.3125 C 177.421875 139.3125 177.257812 139.214844 177.183594 139.046875 C 174.859375 133.746094 172.792969 128.925781 170.859375 124.316406 C 170.765625 124.085938 170.871094 123.824219 171.101562 123.730469 C 171.328125 123.632812 171.589844 123.742188 171.683594 123.96875 C 173.613281 128.574219 175.683594 133.390625 178.003906 138.683594 C 178.101562 138.914062 178 139.175781 177.773438 139.273438 C 177.714844 139.300781 177.65625 139.3125 177.59375 139.3125 " fill-opacity="1" fill-rule="nonzero"/><path fill="#293731" d="M 157.042969 124.023438 C 156.914062 124.023438 156.785156 123.964844 156.695312 123.855469 C 156.164062 123.199219 155.632812 122.574219 155.109375 121.996094 C 154.941406 121.816406 154.957031 121.53125 155.136719 121.367188 C 155.320312 121.199219 155.601562 121.210938 155.769531 121.394531 C 156.304688 121.984375 156.851562 122.625 157.390625 123.292969 C 157.546875 123.488281 157.515625 123.765625 157.324219 123.921875 C 157.242188 123.988281 157.140625 124.023438 157.042969 124.023438 " fill-opacity="1" fill-rule="nonzero"/><path fill="#293731" d="M 164.929688 135.148438 C 164.792969 135.148438 164.65625 135.085938 164.570312 134.964844 C 163.648438 133.707031 162.753906 132.40625 161.929688 131.1875 C 161.789062 130.980469 161.84375 130.703125 162.046875 130.5625 C 162.25 130.425781 162.527344 130.480469 162.667969 130.683594 C 163.492188 131.898438 164.375 133.191406 165.289062 134.4375 C 165.433594 134.636719 165.390625 134.914062 165.191406 135.0625 C 165.113281 135.121094 165.019531 135.148438 164.929688 135.148438 " fill-opacity="1" fill-rule="nonzero"/><g clip-path="url(#eba7ed36a8)"><path fill="#293731" d="M 127.398438 152.878906 C 127.359375 152.878906 127.316406 152.871094 127.277344 152.859375 C 126.515625 152.648438 125.78125 152.351562 125.074219 152.066406 C 124.90625 152 124.738281 151.933594 124.574219 151.871094 C 124.34375 151.777344 124.230469 151.519531 124.320312 151.289062 C 124.410156 151.058594 124.667969 150.945312 124.898438 151.035156 C 125.070312 151.101562 125.234375 151.171875 125.40625 151.238281 C 126.09375 151.515625 126.804688 151.796875 127.519531 152 C 127.753906 152.066406 127.894531 152.3125 127.828125 152.550781 C 127.773438 152.75 127.59375 152.878906 127.398438 152.878906 " fill-opacity="1" fill-rule="nonzero"/></g><path fill="#293731" d="M 129.425781 195.097656 C 129.238281 195.097656 129.0625 194.976562 129 194.785156 C 128.929688 194.550781 129.058594 194.296875 129.292969 194.222656 C 130.449219 193.863281 131.601562 193.5 132.753906 193.132812 C 132.988281 193.058594 133.242188 193.191406 133.316406 193.425781 C 133.390625 193.660156 133.261719 193.910156 133.023438 193.988281 C 131.871094 194.351562 130.714844 194.714844 129.5625 195.078125 C 129.515625 195.09375 129.472656 195.097656 129.425781 195.097656 " fill-opacity="1" fill-rule="nonzero"/><path fill="#293731" d="M 138.296875 192.289062 C 138.105469 192.289062 137.929688 192.167969 137.871094 191.976562 C 137.796875 191.742188 137.925781 191.488281 138.160156 191.414062 C 140.394531 190.699219 142.628906 189.980469 144.859375 189.257812 C 145.09375 189.183594 145.34375 189.3125 145.421875 189.546875 C 145.496094 189.78125 145.367188 190.035156 145.132812 190.109375 C 142.902344 190.832031 140.667969 191.550781 138.433594 192.265625 C 138.386719 192.28125 138.339844 192.289062 138.296875 192.289062 " fill-opacity="1" fill-rule="nonzero"/><path fill="#293731" d="M 137.671875 206.144531 C 137.523438 206.144531 137.382812 206.074219 137.296875 205.945312 C 137.160156 205.738281 137.21875 205.460938 137.425781 205.324219 C 137.855469 205.039062 138.316406 204.855469 138.765625 204.679688 C 139.050781 204.566406 139.320312 204.460938 139.574219 204.332031 C 139.796875 204.21875 140.066406 204.308594 140.175781 204.527344 C 140.285156 204.75 140.199219 205.015625 139.976562 205.128906 C 139.683594 205.277344 139.382812 205.394531 139.09375 205.511719 C 138.667969 205.679688 138.269531 205.839844 137.914062 206.070312 C 137.839844 206.121094 137.753906 206.144531 137.671875 206.144531 " fill-opacity="1" fill-rule="nonzero"/><path fill="#293731" d="M 145.195312 217.6875 C 145.070312 217.6875 144.949219 217.636719 144.859375 217.539062 C 144.695312 217.351562 144.710938 217.070312 144.898438 216.90625 C 147.542969 214.535156 150.238281 212.101562 153.140625 209.46875 C 153.324219 209.300781 153.605469 209.316406 153.769531 209.5 C 153.9375 209.679688 153.921875 209.964844 153.742188 210.132812 C 150.835938 212.765625 148.140625 215.203125 145.492188 217.574219 C 145.40625 217.648438 145.300781 217.6875 145.195312 217.6875 " fill-opacity="1" fill-rule="nonzero"/><path fill="#293731" d="M 157.125 206.890625 C 157.003906 206.890625 156.882812 206.839844 156.796875 206.742188 C 156.628906 206.5625 156.644531 206.277344 156.824219 206.109375 L 158.664062 204.429688 C 158.847656 204.261719 159.128906 204.277344 159.296875 204.457031 C 159.464844 204.640625 159.449219 204.921875 159.269531 205.089844 L 157.425781 206.773438 C 157.339844 206.851562 157.234375 206.890625 157.125 206.890625 " fill-opacity="1" fill-rule="nonzero"/><path fill="#293731" d="M 160.691406 219.296875 C 160.601562 219.296875 160.511719 219.269531 160.429688 219.214844 C 160.230469 219.070312 160.183594 218.789062 160.328125 218.589844 C 161.378906 217.121094 162.425781 215.648438 163.472656 214.179688 C 163.613281 213.976562 163.894531 213.929688 164.09375 214.074219 C 164.296875 214.214844 164.34375 214.496094 164.199219 214.695312 C 163.152344 216.167969 162.105469 217.640625 161.054688 219.109375 C 160.96875 219.230469 160.832031 219.296875 160.691406 219.296875 " fill-opacity="1" fill-rule="nonzero"/><path fill="#293731" d="M 180.90625 232.683594 C 180.875 232.683594 180.84375 232.683594 180.8125 232.675781 C 180.574219 232.625 180.417969 232.386719 180.46875 232.144531 C 180.921875 230 181.375 227.851562 181.828125 225.703125 C 181.878906 225.464844 182.117188 225.308594 182.355469 225.359375 C 182.597656 225.410156 182.753906 225.648438 182.703125 225.890625 C 182.25 228.035156 181.796875 230.183594 181.34375 232.332031 C 181.300781 232.542969 181.113281 232.683594 180.90625 232.683594 " fill-opacity="1" fill-rule="nonzero"/><path fill="#293731" d="M 183.480469 220.464844 C 183.445312 220.464844 183.410156 220.460938 183.375 220.453125 C 183.136719 220.394531 182.988281 220.15625 183.042969 219.914062 C 183.558594 217.714844 184.089844 215.394531 184.621094 213.015625 C 184.671875 212.773438 184.914062 212.621094 185.152344 212.675781 C 185.394531 212.730469 185.546875 212.96875 185.492188 213.210938 C 184.960938 215.589844 184.429688 217.914062 183.914062 220.117188 C 183.863281 220.324219 183.679688 220.464844 183.480469 220.464844 " fill-opacity="1" fill-rule="nonzero"/><path fill="#293731" d="M 203.054688 220.175781 C 202.851562 220.175781 202.667969 220.035156 202.621094 219.828125 C 201.664062 215.691406 200.691406 211.289062 199.636719 206.375 C 199.585938 206.132812 199.742188 205.898438 199.980469 205.84375 C 200.21875 205.792969 200.460938 205.945312 200.511719 206.1875 C 201.5625 211.097656 202.539062 215.492188 203.492188 219.625 C 203.546875 219.867188 203.394531 220.109375 203.15625 220.164062 C 203.121094 220.171875 203.089844 220.175781 203.054688 220.175781 " fill-opacity="1" fill-rule="nonzero"/><path fill="#293731" d="M 208.839844 209.363281 C 208.671875 209.363281 208.507812 209.261719 208.433594 209.097656 C 207.785156 207.636719 207.140625 206.179688 206.5 204.71875 C 206.402344 204.492188 206.503906 204.226562 206.730469 204.128906 C 206.957031 204.027344 207.21875 204.132812 207.316406 204.359375 C 207.957031 205.820312 208.601562 207.273438 209.25 208.734375 C 209.347656 208.957031 209.25 209.222656 209.023438 209.324219 C 208.964844 209.347656 208.902344 209.363281 208.839844 209.363281 " fill-opacity="1" fill-rule="nonzero"/><path fill="#293731" d="M 225.9375 203.546875 C 225.832031 203.546875 225.730469 203.511719 225.644531 203.4375 C 223.875 201.902344 221.960938 200.214844 219.792969 198.273438 C 219.605469 198.109375 219.589844 197.828125 219.753906 197.644531 C 219.917969 197.457031 220.203125 197.445312 220.386719 197.609375 C 222.550781 199.542969 224.464844 201.230469 226.230469 202.761719 C 226.414062 202.925781 226.4375 203.207031 226.273438 203.394531 C 226.1875 203.496094 226.0625 203.546875 225.9375 203.546875 " fill-opacity="1" fill-rule="nonzero"/><path fill="#293731" d="M 232.214844 196.679688 C 232.144531 196.679688 232.074219 196.664062 232.007812 196.628906 C 230.449219 195.816406 228.394531 194.726562 226.328125 193.546875 C 226.113281 193.421875 226.039062 193.152344 226.164062 192.9375 C 226.285156 192.722656 226.558594 192.648438 226.773438 192.769531 C 228.824219 193.941406 230.871094 195.027344 232.421875 195.835938 C 232.640625 195.949219 232.722656 196.21875 232.609375 196.441406 C 232.53125 196.59375 232.375 196.679688 232.214844 196.679688 " fill-opacity="1" fill-rule="nonzero"/><path fill="#293731" d="M 233.332031 161.207031 C 233.144531 161.207031 232.96875 161.085938 232.90625 160.894531 C 232.832031 160.660156 232.960938 160.40625 233.199219 160.332031 C 234.558594 159.898438 235.914062 159.472656 237.261719 159.042969 C 237.496094 158.96875 237.746094 159.101562 237.820312 159.335938 C 237.894531 159.570312 237.765625 159.824219 237.527344 159.898438 C 236.179688 160.324219 234.824219 160.753906 233.46875 161.1875 C 233.425781 161.199219 233.378906 161.207031 233.332031 161.207031 " fill-opacity="1" fill-rule="nonzero"/><path fill="#293731" d="M 226.589844 155.058594 C 226.4375 155.058594 226.285156 154.976562 226.203125 154.835938 C 226.078125 154.625 226.148438 154.351562 226.363281 154.222656 C 226.742188 154.003906 227.121094 153.78125 227.503906 153.554688 L 227.585938 153.507812 C 229.695312 152.277344 231.851562 151.050781 233.9375 149.867188 C 235.0625 149.226562 236.1875 148.585938 237.308594 147.945312 C 237.523438 147.824219 237.796875 147.894531 237.921875 148.109375 C 238.042969 148.324219 237.96875 148.597656 237.753906 148.71875 C 236.628906 149.363281 235.503906 150.003906 234.378906 150.644531 C 232.292969 151.828125 230.140625 153.050781 228.035156 154.28125 L 227.953125 154.328125 C 227.570312 154.550781 227.191406 154.773438 226.816406 154.996094 C 226.742188 155.039062 226.667969 155.058594 226.589844 155.058594 " fill-opacity="1" fill-rule="nonzero"/><path fill="#293731" d="M 220.199219 150.308594 C 220.078125 150.308594 219.953125 150.257812 219.867188 150.15625 C 219.699219 149.972656 219.71875 149.691406 219.902344 149.527344 C 222.234375 147.4375 224.550781 145.347656 226.78125 143.3125 C 226.964844 143.144531 227.246094 143.160156 227.414062 143.339844 C 227.578125 143.523438 227.566406 143.804688 227.386719 143.972656 C 225.152344 146.011719 222.832031 148.105469 220.496094 150.191406 C 220.410156 150.269531 220.304688 150.308594 220.199219 150.308594 " fill-opacity="1" fill-rule="nonzero"/><path fill="#293731" d="M 213.523438 146.441406 C 213.433594 146.441406 213.34375 146.410156 213.265625 146.355469 C 213.0625 146.210938 213.019531 145.929688 213.164062 145.730469 L 217.191406 140.125 C 219.386719 137.070312 221.691406 133.886719 224.035156 130.664062 C 224.179688 130.464844 224.460938 130.417969 224.660156 130.566406 C 224.859375 130.710938 224.902344 130.992188 224.757812 131.191406 C 222.414062 134.410156 220.113281 137.59375 217.917969 140.648438 L 213.886719 146.253906 C 213.800781 146.375 213.664062 146.441406 213.523438 146.441406 " fill-opacity="1" fill-rule="nonzero"/><path fill="#293731" d="M 200.117188 141.902344 C 200.085938 141.902344 200.050781 141.902344 200.019531 141.894531 C 199.777344 141.839844 199.625 141.601562 199.679688 141.359375 L 199.851562 140.589844 C 201.527344 132.996094 203.261719 125.144531 204.832031 117.429688 C 204.878906 117.183594 205.117188 117.03125 205.355469 117.078125 C 205.597656 117.128906 205.753906 117.363281 205.707031 117.605469 C 204.136719 125.332031 202.402344 133.1875 200.722656 140.785156 L 200.550781 141.554688 C 200.503906 141.761719 200.320312 141.902344 200.117188 141.902344 " fill-opacity="1" fill-rule="nonzero"/><path fill="#293731" d="M 193.292969 141.320312 C 193.042969 141.320312 192.84375 141.117188 192.84375 140.871094 L 192.84375 122.8125 C 192.84375 122.566406 193.042969 122.367188 193.292969 122.367188 C 193.539062 122.367188 193.738281 122.566406 193.738281 122.8125 L 193.738281 140.871094 C 193.738281 141.117188 193.539062 141.320312 193.292969 141.320312 " fill-opacity="1" fill-rule="nonzero"/><path fill="#293731" d="M 186.5 141.910156 C 186.292969 141.910156 186.105469 141.765625 186.0625 141.554688 C 185.535156 139.050781 184.976562 136.414062 184.390625 133.722656 C 184.339844 133.480469 184.492188 133.242188 184.734375 133.1875 C 184.976562 133.136719 185.214844 133.289062 185.265625 133.53125 C 185.847656 136.226562 186.410156 138.863281 186.9375 141.371094 C 186.988281 141.613281 186.832031 141.847656 186.589844 141.902344 C 186.558594 141.90625 186.527344 141.910156 186.5 141.910156 " fill-opacity="1" fill-rule="nonzero"/><path fill="#293731" d="M 173.050781 146.449219 C 172.917969 146.449219 172.785156 146.386719 172.695312 146.273438 C 171.707031 144.96875 170.644531 143.582031 169.351562 141.910156 C 169.199219 141.714844 169.234375 141.4375 169.429688 141.285156 C 169.625 141.132812 169.90625 141.167969 170.058594 141.363281 C 171.351562 143.039062 172.414062 144.425781 173.40625 145.730469 C 173.554688 145.925781 173.519531 146.207031 173.320312 146.355469 C 173.242188 146.417969 173.144531 146.449219 173.050781 146.449219 " fill-opacity="1" fill-rule="nonzero"/><path fill="#293731" d="M 166.550781 150.207031 C 166.445312 150.207031 166.335938 150.167969 166.25 150.089844 L 162.882812 147.050781 C 161.726562 146.011719 160.574219 144.972656 159.421875 143.933594 L 147.421875 133.113281 C 147.242188 132.949219 147.226562 132.667969 147.390625 132.484375 C 147.554688 132.296875 147.835938 132.285156 148.019531 132.449219 L 160.019531 143.269531 C 161.171875 144.308594 162.324219 145.347656 163.480469 146.386719 L 166.851562 149.425781 C 167.03125 149.589844 167.046875 149.875 166.882812 150.058594 C 166.796875 150.15625 166.671875 150.207031 166.550781 150.207031 " fill-opacity="1" fill-rule="nonzero"/><path fill="#293731" d="M 159.917969 155.136719 C 159.84375 155.136719 159.769531 155.117188 159.699219 155.078125 C 158.132812 154.1875 156.855469 153.449219 155.683594 152.757812 C 153.542969 151.5 151.398438 150.171875 149.328125 148.886719 C 148.085938 148.117188 146.839844 147.347656 145.59375 146.585938 C 145.382812 146.457031 145.316406 146.183594 145.441406 145.972656 C 145.570312 145.761719 145.847656 145.691406 146.058594 145.820312 C 147.308594 146.582031 148.550781 147.355469 149.796875 148.125 C 151.867188 149.410156 154.003906 150.734375 156.132812 151.988281 C 157.304688 152.675781 158.578125 153.410156 160.140625 154.296875 C 160.355469 154.421875 160.429688 154.695312 160.308594 154.910156 C 160.226562 155.054688 160.074219 155.136719 159.917969 155.136719 " fill-opacity="1" fill-rule="nonzero"/><path fill="#293731" d="M 153.167969 161.296875 C 153.121094 161.296875 153.078125 161.292969 153.03125 161.277344 C 146.894531 159.28125 140.277344 157.125 133.492188 154.886719 C 133.261719 154.808594 133.132812 154.554688 133.210938 154.320312 C 133.289062 154.085938 133.542969 153.957031 133.773438 154.035156 C 140.554688 156.277344 147.167969 158.429688 153.304688 160.425781 C 153.542969 160.5 153.667969 160.753906 153.59375 160.988281 C 153.53125 161.179688 153.355469 161.296875 153.167969 161.296875 " fill-opacity="1" fill-rule="nonzero"/><path fill="#293731" d="M 150.179688 188.449219 C 149.988281 188.449219 149.816406 188.328125 149.753906 188.140625 C 149.675781 187.90625 149.804688 187.652344 150.039062 187.578125 L 151.167969 187.207031 C 151.820312 186.996094 152.472656 186.78125 153.125 186.566406 C 153.359375 186.488281 153.609375 186.617188 153.6875 186.851562 C 153.765625 187.085938 153.636719 187.339844 153.402344 187.417969 C 152.75 187.632812 152.097656 187.84375 151.445312 188.058594 L 150.316406 188.429688 C 150.273438 188.441406 150.226562 188.449219 150.179688 188.449219 " fill-opacity="1" fill-rule="nonzero"/><path fill="#293731" d="M 145.449219 202.015625 C 145.289062 202.015625 145.140625 201.933594 145.058594 201.785156 C 144.9375 201.570312 145.015625 201.296875 145.230469 201.175781 L 146.539062 200.441406 C 149.613281 198.722656 152.792969 196.941406 155.890625 195.128906 C 157.210938 194.351562 158.535156 193.578125 159.859375 192.808594 C 160.070312 192.683594 160.34375 192.753906 160.46875 192.96875 C 160.59375 193.183594 160.519531 193.457031 160.308594 193.582031 C 158.988281 194.351562 157.664062 195.125 156.34375 195.898438 C 153.238281 197.71875 150.054688 199.5 146.976562 201.222656 L 145.664062 201.957031 C 145.59375 201.996094 145.519531 202.015625 145.449219 202.015625 " fill-opacity="1" fill-rule="nonzero"/><path fill="#293731" d="M 163.425781 201.121094 C 163.304688 201.121094 163.183594 201.070312 163.09375 200.972656 C 162.929688 200.792969 162.941406 200.507812 163.121094 200.34375 C 163.75 199.769531 164.382812 199.171875 164.996094 198.59375 C 165.359375 198.246094 165.722656 197.902344 166.089844 197.558594 C 166.273438 197.390625 166.554688 197.398438 166.722656 197.578125 C 166.890625 197.757812 166.882812 198.042969 166.699219 198.210938 C 166.335938 198.554688 165.972656 198.898438 165.605469 199.242188 C 164.992188 199.824219 164.359375 200.425781 163.726562 201.003906 C 163.640625 201.082031 163.53125 201.121094 163.425781 201.121094 " fill-opacity="1" fill-rule="nonzero"/><path fill="#293731" d="M 167.203125 210.148438 C 167.109375 210.148438 167.019531 210.121094 166.9375 210.0625 C 166.738281 209.917969 166.695312 209.636719 166.84375 209.4375 C 168.601562 207.042969 170.472656 204.519531 172.730469 201.496094 C 172.878906 201.296875 173.160156 201.257812 173.359375 201.40625 C 173.554688 201.554688 173.59375 201.832031 173.449219 202.03125 C 171.191406 205.054688 169.320312 207.574219 167.5625 209.96875 C 167.476562 210.085938 167.339844 210.148438 167.203125 210.148438 " fill-opacity="1" fill-rule="nonzero"/><path fill="#293731" d="M 168.832031 229.359375 C 168.769531 229.359375 168.707031 229.347656 168.648438 229.320312 C 168.425781 229.21875 168.324219 228.957031 168.421875 228.730469 C 170.121094 224.925781 171.929688 220.84375 173.65625 216.761719 C 175.578125 212.210938 177.585938 207.710938 179.121094 204.296875 C 179.222656 204.074219 179.484375 203.972656 179.710938 204.074219 C 179.9375 204.175781 180.035156 204.441406 179.9375 204.664062 C 178.402344 208.074219 176.398438 212.570312 174.476562 217.109375 C 172.75 221.199219 170.9375 225.285156 169.238281 229.09375 C 169.164062 229.261719 169 229.359375 168.832031 229.359375 " fill-opacity="1" fill-rule="nonzero"/><path fill="#293731" d="M 186.179688 208.433594 C 186.148438 208.433594 186.117188 208.429688 186.085938 208.425781 C 185.84375 208.371094 185.691406 208.132812 185.746094 207.890625 L 186.117188 206.199219 C 186.171875 205.957031 186.410156 205.804688 186.648438 205.855469 C 186.890625 205.910156 187.042969 206.148438 186.988281 206.390625 L 186.617188 208.085938 C 186.570312 208.292969 186.386719 208.433594 186.179688 208.433594 " fill-opacity="1" fill-rule="nonzero"/><path fill="#293731" d="M 193.292969 156.410156 C 192.0625 156.410156 190.847656 156.535156 189.675781 156.78125 C 188.464844 157.039062 187.277344 157.425781 186.152344 157.929688 C 185.109375 158.402344 184.109375 158.976562 183.175781 159.636719 C 182.136719 160.382812 181.175781 161.242188 180.328125 162.183594 C 179.53125 163.074219 178.828125 164.035156 178.238281 165.042969 C 177.605469 166.121094 177.089844 167.273438 176.703125 168.46875 C 176.140625 170.207031 175.851562 172.027344 175.851562 173.871094 C 175.851562 175.722656 176.140625 177.546875 176.707031 179.289062 C 177.089844 180.460938 177.589844 181.582031 178.195312 182.628906 C 178.8125 183.6875 179.546875 184.695312 180.382812 185.621094 C 181.230469 186.550781 182.179688 187.394531 183.207031 188.125 C 184.125 188.777344 185.109375 189.339844 186.132812 189.800781 C 187.304688 190.332031 188.542969 190.726562 189.808594 190.984375 C 192.101562 191.453125 194.570312 191.445312 196.855469 190.96875 C 198.089844 190.714844 199.304688 190.320312 200.464844 189.796875 C 201.632812 189.265625 202.742188 188.609375 203.757812 187.84375 C 204.695312 187.136719 205.5625 186.339844 206.332031 185.46875 C 207.105469 184.601562 207.792969 183.648438 208.378906 182.636719 C 208.988281 181.582031 209.484375 180.476562 209.855469 179.347656 C 210.4375 177.582031 210.730469 175.742188 210.730469 173.871094 C 210.730469 171.984375 210.429688 170.125 209.84375 168.351562 C 209.484375 167.273438 209.023438 166.238281 208.472656 165.269531 C 207.855469 164.179688 207.121094 163.152344 206.285156 162.222656 C 205.472656 161.308594 204.5625 160.484375 203.582031 159.765625 C 202.585938 159.039062 201.523438 158.421875 200.429688 157.933594 C 199.257812 157.402344 198.027344 157.007812 196.773438 156.757812 C 195.640625 156.523438 194.46875 156.410156 193.292969 156.410156 Z M 193.292969 192.226562 C 192.050781 192.226562 190.820312 192.105469 189.632812 191.859375 C 188.300781 191.59375 187 191.171875 185.765625 190.617188 C 184.691406 190.132812 183.65625 189.539062 182.6875 188.851562 C 181.609375 188.085938 180.613281 187.199219 179.722656 186.222656 C 178.84375 185.25 178.070312 184.191406 177.421875 183.078125 C 176.785156 181.980469 176.261719 180.796875 175.859375 179.566406 C 175.261719 177.734375 174.960938 175.816406 174.960938 173.871094 C 174.960938 171.933594 175.261719 170.023438 175.855469 168.191406 C 176.261719 166.9375 176.804688 165.726562 177.46875 164.589844 C 178.085938 163.53125 178.824219 162.519531 179.664062 161.582031 C 180.554688 160.59375 181.5625 159.695312 182.65625 158.910156 C 183.636719 158.210938 184.691406 157.609375 185.785156 157.117188 C 186.96875 156.582031 188.214844 156.175781 189.492188 155.90625 C 191.90625 155.394531 194.519531 155.382812 196.949219 155.882812 C 198.269531 156.144531 199.5625 156.558594 200.792969 157.117188 C 201.945312 157.628906 203.058594 158.277344 204.109375 159.042969 C 205.140625 159.796875 206.097656 160.667969 206.953125 161.625 C 207.832031 162.601562 208.605469 163.683594 209.25 164.832031 C 209.828125 165.847656 210.3125 166.9375 210.691406 168.070312 C 211.308594 169.9375 211.621094 171.886719 211.621094 173.871094 C 211.621094 175.835938 211.3125 177.773438 210.703125 179.625 C 210.316406 180.8125 209.792969 181.976562 209.152344 183.085938 C 208.535156 184.152344 207.8125 185.152344 207 186.0625 C 206.191406 186.976562 205.28125 187.816406 204.292969 188.558594 C 203.226562 189.363281 202.0625 190.054688 200.832031 190.609375 C 199.609375 191.164062 198.332031 191.578125 197.039062 191.84375 C 195.824219 192.097656 194.5625 192.226562 193.292969 192.226562 " fill-opacity="1" fill-rule="nonzero"/><path fill="#293731" d="M 193.292969 192.226562 C 193.042969 192.226562 192.84375 192.027344 192.84375 191.78125 L 192.84375 182.605469 C 192.84375 182.359375 193.042969 182.15625 193.292969 182.15625 C 193.539062 182.15625 193.738281 182.359375 193.738281 182.605469 L 193.738281 191.78125 C 193.738281 192.027344 193.539062 192.226562 193.292969 192.226562 " fill-opacity="1" fill-rule="nonzero"/><path fill="#293731" d="M 202.234375 189.828125 C 202.078125 189.828125 201.929688 189.746094 201.847656 189.605469 L 197.265625 181.65625 C 197.140625 181.441406 197.214844 181.167969 197.425781 181.046875 C 197.640625 180.921875 197.914062 180.996094 198.039062 181.210938 L 202.621094 189.15625 C 202.742188 189.371094 202.671875 189.644531 202.457031 189.765625 C 202.386719 189.808594 202.308594 189.828125 202.234375 189.828125 " fill-opacity="1" fill-rule="nonzero"/><path fill="#293731" d="M 208.78125 183.273438 C 208.707031 183.273438 208.628906 183.253906 208.558594 183.210938 L 200.621094 178.625 C 200.40625 178.5 200.332031 178.226562 200.457031 178.011719 C 200.578125 177.796875 200.851562 177.726562 201.066406 177.847656 L 209.003906 182.4375 C 209.21875 182.5625 209.292969 182.835938 209.167969 183.050781 C 209.085938 183.191406 208.933594 183.273438 208.78125 183.273438 " fill-opacity="1" fill-rule="nonzero"/><path fill="#293731" d="M 211.175781 174.316406 L 202.011719 174.316406 C 201.765625 174.316406 201.566406 174.117188 201.566406 173.871094 C 201.566406 173.625 201.765625 173.421875 202.011719 173.421875 L 211.175781 173.421875 C 211.421875 173.421875 211.621094 173.625 211.621094 173.871094 C 211.621094 174.117188 211.421875 174.316406 211.175781 174.316406 " fill-opacity="1" fill-rule="nonzero"/><path fill="#293731" d="M 200.84375 169.953125 C 200.691406 169.953125 200.539062 169.871094 200.457031 169.730469 C 200.332031 169.515625 200.40625 169.242188 200.621094 169.117188 L 208.558594 164.527344 C 208.773438 164.40625 209.046875 164.480469 209.167969 164.691406 C 209.292969 164.90625 209.21875 165.179688 209.003906 165.304688 L 201.066406 169.894531 C 200.996094 169.933594 200.917969 169.953125 200.84375 169.953125 " fill-opacity="1" fill-rule="nonzero"/><path fill="#293731" d="M 197.648438 166.753906 C 197.574219 166.753906 197.496094 166.734375 197.425781 166.695312 C 197.214844 166.570312 197.140625 166.296875 197.265625 166.085938 L 201.847656 158.136719 C 201.96875 157.925781 202.242188 157.851562 202.457031 157.972656 C 202.671875 158.097656 202.742188 158.371094 202.621094 158.585938 L 198.039062 166.53125 C 197.953125 166.675781 197.804688 166.753906 197.648438 166.753906 " fill-opacity="1" fill-rule="nonzero"/><path fill="#293731" d="M 193.292969 165.585938 C 193.042969 165.585938 192.84375 165.382812 192.84375 165.136719 L 192.84375 155.960938 C 192.84375 155.714844 193.042969 155.515625 193.292969 155.515625 C 193.539062 155.515625 193.738281 155.714844 193.738281 155.960938 L 193.738281 165.136719 C 193.738281 165.382812 193.539062 165.585938 193.292969 165.585938 " fill-opacity="1" fill-rule="nonzero"/><path fill="#293731" d="M 188.933594 166.753906 C 188.777344 166.753906 188.628906 166.675781 188.542969 166.53125 L 183.960938 158.585938 C 183.839844 158.371094 183.914062 158.097656 184.125 157.972656 C 184.339844 157.851562 184.613281 157.925781 184.734375 158.136719 L 189.316406 166.085938 C 189.441406 166.296875 189.371094 166.570312 189.15625 166.695312 C 189.085938 166.734375 189.007812 166.753906 188.933594 166.753906 " fill-opacity="1" fill-rule="nonzero"/><path fill="#293731" d="M 185.738281 169.953125 C 185.664062 169.953125 185.585938 169.933594 185.515625 169.894531 L 177.582031 165.304688 C 177.367188 165.179688 177.292969 164.90625 177.417969 164.691406 C 177.539062 164.480469 177.8125 164.40625 178.027344 164.527344 L 185.964844 169.117188 C 186.175781 169.242188 186.25 169.515625 186.125 169.730469 C 186.042969 169.871094 185.894531 169.953125 185.738281 169.953125 " fill-opacity="1" fill-rule="nonzero"/><path fill="#293731" d="M 184.570312 174.316406 L 175.40625 174.316406 C 175.160156 174.316406 174.960938 174.117188 174.960938 173.871094 C 174.960938 173.625 175.160156 173.421875 175.40625 173.421875 L 184.570312 173.421875 C 184.816406 173.421875 185.015625 173.625 185.015625 173.871094 C 185.015625 174.117188 184.816406 174.316406 184.570312 174.316406 " fill-opacity="1" fill-rule="nonzero"/><path fill="#293731" d="M 177.804688 183.273438 C 177.648438 183.273438 177.5 183.191406 177.417969 183.050781 C 177.292969 182.835938 177.367188 182.5625 177.582031 182.4375 L 185.515625 177.847656 C 185.730469 177.726562 186.003906 177.796875 186.125 178.011719 C 186.25 178.226562 186.175781 178.5 185.964844 178.625 L 178.027344 183.210938 C 177.957031 183.253906 177.878906 183.273438 177.804688 183.273438 " fill-opacity="1" fill-rule="nonzero"/><path fill="#293731" d="M 184.347656 189.828125 C 184.273438 189.828125 184.195312 189.808594 184.125 189.765625 C 183.914062 189.644531 183.839844 189.371094 183.960938 189.15625 L 188.542969 181.210938 C 188.667969 180.996094 188.941406 180.921875 189.15625 181.046875 C 189.371094 181.167969 189.441406 181.441406 189.316406 181.65625 L 184.734375 189.605469 C 184.652344 189.746094 184.503906 189.828125 184.347656 189.828125 " fill-opacity="1" fill-rule="nonzero"/><path fill="#231f20" d="M 186.113281 169.738281 Z M 186.144531 178.050781 C 186.421875 178.523438 186.746094 178.96875 187.113281 179.378906 C 187.550781 179.875 188.039062 180.3125 188.574219 180.675781 C 188.765625 180.8125 188.957031 180.933594 189.148438 181.042969 C 189.398438 181.1875 189.644531 181.316406 189.894531 181.425781 C 190.449219 181.683594 191.042969 181.871094 191.65625 181.992188 C 192.765625 182.21875 193.933594 182.207031 194.988281 181.980469 C 195.59375 181.855469 196.183594 181.664062 196.742188 181.402344 C 196.980469 181.292969 197.210938 181.175781 197.421875 181.046875 C 197.726562 180.875 198.015625 180.683594 198.28125 180.476562 C 198.734375 180.136719 199.148438 179.753906 199.515625 179.328125 C 199.824219 178.980469 200.101562 178.601562 200.347656 178.207031 C 200.382812 178.144531 200.417969 178.085938 200.449219 178.027344 C 200.734375 177.539062 200.960938 177.03125 201.136719 176.507812 C 201.421875 175.664062 201.566406 174.777344 201.566406 173.871094 C 201.566406 173.019531 201.4375 172.183594 201.183594 171.386719 C 201.019531 170.851562 200.796875 170.335938 200.527344 169.851562 C 200.5 169.800781 200.484375 169.773438 200.46875 169.746094 C 200.171875 169.226562 199.828125 168.753906 199.433594 168.320312 C 199.058594 167.902344 198.640625 167.519531 198.183594 167.1875 C 197.917969 166.992188 197.675781 166.832031 197.433594 166.699219 C 197.210938 166.566406 196.984375 166.449219 196.753906 166.34375 C 196.15625 166.066406 195.53125 165.863281 194.894531 165.742188 C 193.800781 165.519531 192.621094 165.53125 191.558594 165.769531 C 190.96875 165.890625 190.390625 166.082031 189.832031 166.34375 C 189.609375 166.441406 189.382812 166.558594 189.160156 166.695312 C 188.933594 166.820312 188.726562 166.953125 188.53125 167.09375 C 188.027344 167.449219 187.5625 167.859375 187.144531 168.324219 C 186.765625 168.742188 186.433594 169.199219 186.152344 169.683594 C 186.148438 169.6875 186.144531 169.695312 186.140625 169.699219 C 186.136719 169.710938 186.128906 169.722656 186.125 169.730469 C 185.839844 170.21875 185.605469 170.746094 185.425781 171.296875 C 185.152344 172.128906 185.015625 172.992188 185.015625 173.871094 C 185.015625 174.75 185.152344 175.609375 185.421875 176.429688 C 185.597656 176.980469 185.832031 177.511719 186.125 178.007812 C 186.132812 178.023438 186.140625 178.035156 186.144531 178.050781 Z M 193.292969 183.050781 C 192.683594 183.050781 192.074219 182.992188 191.480469 182.871094 C 190.800781 182.734375 190.144531 182.523438 189.527344 182.242188 C 189.25 182.121094 188.972656 181.976562 188.703125 181.820312 C 188.496094 181.699219 188.273438 181.5625 188.0625 181.410156 C 187.476562 181.007812 186.929688 180.523438 186.445312 179.972656 C 186.03125 179.511719 185.664062 179.007812 185.355469 178.472656 C 185.351562 178.460938 185.34375 178.445312 185.335938 178.433594 C 185.019531 177.882812 184.761719 177.304688 184.570312 176.703125 C 184.273438 175.800781 184.125 174.84375 184.125 173.871094 C 184.125 172.898438 184.277344 171.9375 184.578125 171.019531 C 184.769531 170.421875 185.027344 169.84375 185.339844 169.304688 C 185.351562 169.273438 185.371094 169.242188 185.390625 169.210938 C 185.703125 168.683594 186.066406 168.183594 186.480469 167.726562 C 186.945312 167.210938 187.460938 166.753906 188.015625 166.363281 C 188.230469 166.210938 188.464844 166.058594 188.710938 165.917969 C 188.957031 165.773438 189.214844 165.640625 189.464844 165.527344 C 190.078125 165.242188 190.722656 165.03125 191.367188 164.894531 C 192.542969 164.632812 193.863281 164.621094 195.066406 164.867188 C 195.769531 165 196.464844 165.222656 197.125 165.527344 C 197.382812 165.648438 197.636719 165.78125 197.878906 165.925781 C 198.140625 166.070312 198.417969 166.25 198.714844 166.464844 C 199.214844 166.835938 199.683594 167.257812 200.097656 167.722656 C 200.53125 168.203125 200.914062 168.726562 201.230469 169.285156 C 201.253906 169.320312 201.285156 169.375 201.3125 169.429688 C 201.605469 169.953125 201.855469 170.527344 202.039062 171.117188 C 202.316406 172 202.460938 172.925781 202.460938 173.871094 C 202.460938 174.875 202.300781 175.855469 201.984375 176.789062 C 201.792969 177.375 201.535156 177.9375 201.226562 178.460938 C 201.199219 178.523438 201.152344 178.601562 201.105469 178.679688 C 200.835938 179.117188 200.527344 179.535156 200.1875 179.917969 C 199.78125 180.386719 199.320312 180.816406 198.824219 181.1875 C 198.527344 181.417969 198.203125 181.632812 197.871094 181.820312 C 197.636719 181.960938 197.382812 182.09375 197.117188 182.214844 C 196.496094 182.503906 195.839844 182.71875 195.171875 182.855469 C 194.570312 182.984375 193.9375 183.050781 193.292969 183.050781 " fill-opacity="1" fill-rule="nonzero"/><path fill="#293731" d="M 228.121094 185.242188 Z M 193.292969 146.230469 C 191.414062 146.230469 189.488281 146.390625 187.574219 146.710938 C 185.632812 147.035156 183.65625 147.535156 181.703125 148.1875 C 180.902344 148.453125 180.070312 148.757812 179.226562 149.09375 C 178.230469 149.496094 177.230469 149.933594 176.261719 150.398438 C 174.347656 151.308594 172.429688 152.367188 170.570312 153.546875 C 168.644531 154.753906 166.761719 156.085938 164.8125 157.621094 L 164.339844 157.996094 C 162.390625 159.558594 160.503906 161.203125 158.746094 162.878906 C 155.433594 166.027344 152.339844 169.476562 149.546875 173.132812 C 149.007812 173.835938 149.007812 173.902344 149.550781 174.617188 C 152.351562 178.289062 155.472656 181.761719 158.828125 184.941406 C 160.230469 186.273438 161.722656 187.597656 163.269531 188.882812 C 163.765625 189.292969 164.296875 189.722656 164.890625 190.191406 C 166.742188 191.644531 168.617188 192.96875 170.460938 194.132812 C 172.402344 195.359375 174.355469 196.441406 176.273438 197.351562 C 176.578125 197.5 176.882812 197.644531 177.191406 197.785156 C 178.695312 198.46875 180.210938 199.0625 181.691406 199.558594 C 183.691406 200.21875 185.699219 200.71875 187.667969 201.042969 C 189.367188 201.324219 191.09375 201.480469 192.796875 201.507812 C 192.960938 201.511719 193.125 201.511719 193.292969 201.511719 C 195.121094 201.5 197.089844 201.335938 198.976562 201.03125 C 199.941406 200.875 200.902344 200.679688 201.828125 200.449219 C 202.808594 200.203125 203.804688 199.914062 204.792969 199.589844 C 206.714844 198.960938 208.640625 198.179688 210.523438 197.269531 C 212.359375 196.382812 214.226562 195.335938 216.070312 194.164062 C 216.601562 193.828125 217.039062 193.542969 217.449219 193.265625 C 218.933594 192.261719 220.402344 191.195312 221.804688 190.101562 C 223.851562 188.507812 225.871094 186.765625 227.8125 184.917969 C 230.945312 181.929688 233.96875 178.574219 236.792969 174.949219 C 237.628906 173.875 237.628906 173.875 236.792969 172.789062 C 234.042969 169.234375 230.996094 165.867188 227.742188 162.78125 C 226.804688 161.890625 225.820312 160.996094 224.816406 160.125 C 223.792969 159.238281 222.777344 158.398438 221.792969 157.621094 C 219.921875 156.148438 218.027344 154.804688 216.160156 153.625 C 214.257812 152.421875 212.328125 151.351562 210.421875 150.4375 C 209.746094 150.109375 209.050781 149.792969 208.292969 149.472656 C 207.144531 148.980469 205.996094 148.546875 204.882812 148.179688 C 202.914062 147.523438 200.929688 147.027344 198.984375 146.703125 C 197.488281 146.457031 195.964844 146.304688 194.457031 146.25 C 194.089844 146.238281 193.707031 146.230469 193.292969 146.230469 Z M 193.292969 202.40625 C 193.117188 202.40625 192.949219 202.40625 192.78125 202.402344 C 191.035156 202.375 189.265625 202.210938 187.523438 201.925781 C 185.507812 201.59375 183.453125 201.082031 181.410156 200.40625 C 179.898438 199.902344 178.355469 199.296875 176.824219 198.597656 C 176.507812 198.457031 176.195312 198.308594 175.882812 198.160156 C 173.941406 197.234375 171.953125 196.132812 169.984375 194.890625 C 168.113281 193.710938 166.21875 192.367188 164.339844 190.894531 C 163.738281 190.421875 163.203125 189.988281 162.699219 189.570312 C 161.140625 188.273438 159.628906 186.9375 158.214844 185.59375 C 154.824219 182.378906 151.667969 178.867188 148.839844 175.160156 C 148.058594 174.132812 148.058594 173.605469 148.839844 172.585938 C 151.660156 168.894531 154.785156 165.410156 158.128906 162.234375 C 159.910156 160.535156 161.8125 158.875 163.785156 157.296875 L 164.261719 156.917969 C 166.234375 155.363281 168.140625 154.011719 170.089844 152.789062 C 171.984375 151.59375 173.929688 150.515625 175.875 149.589844 C 176.863281 149.117188 177.878906 148.671875 178.898438 148.265625 C 179.753906 147.921875 180.605469 147.609375 181.421875 147.339844 C 183.417969 146.667969 185.441406 146.160156 187.429688 145.828125 C 189.390625 145.5 191.363281 145.335938 193.292969 145.335938 C 193.71875 145.335938 194.109375 145.34375 194.488281 145.359375 C 196.035156 145.410156 197.59375 145.566406 199.128906 145.824219 C 201.125 146.152344 203.152344 146.660156 205.160156 147.328125 C 206.300781 147.703125 207.472656 148.148438 208.644531 148.648438 C 209.414062 148.976562 210.121094 149.296875 210.808594 149.628906 C 212.742188 150.558594 214.703125 151.648438 216.636719 152.867188 C 218.527344 154.066406 220.449219 155.429688 222.34375 156.917969 C 223.339844 157.703125 224.367188 158.554688 225.402344 159.449219 C 226.414062 160.332031 227.410156 161.234375 228.355469 162.132812 C 231.644531 165.25 234.722656 168.652344 237.5 172.242188 C 238.609375 173.675781 238.609375 174.074219 237.496094 175.5 C 234.644531 179.160156 231.59375 182.546875 228.425781 185.566406 C 226.464844 187.433594 224.421875 189.195312 222.355469 190.804688 C 220.933594 191.914062 219.453125 192.992188 217.945312 194.007812 C 217.53125 194.289062 217.085938 194.578125 216.546875 194.917969 C 214.675781 196.113281 212.777344 197.171875 210.910156 198.074219 C 208.996094 199 207.03125 199.800781 205.070312 200.441406 C 204.0625 200.773438 203.046875 201.066406 202.042969 201.316406 C 201.09375 201.554688 200.109375 201.753906 199.121094 201.914062 C 197.1875 202.226562 195.171875 202.398438 193.292969 202.40625 " fill-opacity="1" fill-rule="nonzero"/><g fill="#000000" fill-opacity="1"><g transform="translate(91.359687, 222.795395)"><g><path d="M 15.617188 3.949219 L 10.363281 -5.160156 L 7.144531 -3.929688 L 7.179688 -3.875 C 9.601562 -4.167969 10.734375 -4.019531 11.988281 -1.847656 L 12.179688 -1.515625 L 3.339844 3.578125 C 2.683594 3.960938 2.238281 3.550781 1.664062 2.71875 L 1.59375 2.757812 L 4.015625 6.964844 L 4.089844 6.921875 C 3.65625 6.007812 3.523438 5.417969 4.183594 5.039062 L 13.019531 -0.0585938 L 13.621094 0.984375 C 14.472656 2.457031 14.164062 3.742188 12.113281 4.675781 L 12.144531 4.734375 Z M 15.617188 3.949219 "/></g></g></g><g fill="#000000" fill-opacity="1"><g transform="translate(102.492808, 240.397951)"><g><path d="M 16.78125 1.824219 L 16.84375 1.769531 L 14.09375 -1.394531 L 14.03125 -1.339844 C 14.414062 -0.773438 14.652344 -0.21875 14.207031 0.167969 L 10.601562 3.296875 L 6.5 -1.425781 L 10.101562 -4.554688 C 10.550781 -4.945312 11.066406 -4.625 11.574219 -4.167969 L 11.636719 -4.222656 L 8.886719 -7.390625 L 8.824219 -7.335938 C 9.207031 -6.769531 9.449219 -6.214844 9 -5.824219 L 1.695312 0.515625 C 1.246094 0.90625 0.730469 0.589844 0.226562 0.132812 L 0.164062 0.1875 L 2.910156 3.351562 L 2.972656 3.296875 C 2.59375 2.734375 2.351562 2.179688 2.800781 1.789062 L 6.289062 -1.242188 L 10.390625 3.480469 L 6.902344 6.511719 C 6.453125 6.902344 5.9375 6.585938 5.429688 6.128906 L 5.367188 6.183594 L 8.117188 9.347656 L 8.179688 9.292969 C 7.796875 8.730469 7.558594 8.171875 8.003906 7.785156 L 15.308594 1.441406 C 15.757812 1.050781 16.273438 1.367188 16.78125 1.824219 Z M 16.78125 1.824219 "/></g></g></g><g fill="#000000" fill-opacity="1"><g transform="translate(117.665848, 256.370718)"><g><path d="M 9.976562 3.773438 C 7.78125 4.476562 6.539062 4.824219 5.101562 3.6875 L 2.664062 1.765625 L 6 -2.457031 L 7.8125 -1.027344 C 9.1875 0.0585938 9.296875 0.714844 8.851562 1.917969 L 11.082031 -0.90625 C 10.015625 -0.191406 9.351562 -0.148438 7.976562 -1.234375 L 6.160156 -2.664062 L 9.496094 -6.890625 L 11.671875 -5.171875 C 13.109375 -4.035156 13.132812 -2.96875 13.027344 -1.054688 L 13.101562 -1.039062 L 14.296875 -3.4375 L 7.351562 -8.917969 L 7.300781 -8.851562 C 7.78125 -8.367188 8.121094 -7.867188 7.753906 -7.402344 L 1.964844 -0.0664062 C 1.597656 0.398438 0.929688 0.3125 0.246094 0.0898438 L 0.195312 0.152344 L 6.882812 5.429688 L 7.097656 6.0625 L 7.398438 5.839844 L 10.007812 3.839844 Z M 9.976562 3.773438 "/></g></g></g><g fill="#000000" fill-opacity="1"><g transform="translate(133.61656, 267.796802)"><g/></g></g><g fill="#000000" fill-opacity="1"><g transform="translate(144.63642, 273.77008)"><g><path d="M 12.9375 -7.375 L 12.914062 -7.3125 C 13.703125 -6.792969 14.210938 -6.277344 13.128906 -5.175781 L 6.570312 1.503906 L 6.480469 -7.753906 C 6.46875 -9.320312 7.230469 -9.414062 8.34375 -9.085938 L 8.367188 -9.148438 L 4.488281 -10.652344 C 4.640625 -10.363281 4.769531 -9.78125 4.78125 -9.175781 L 4.925781 2.089844 L 4.753906 2.394531 L 6.589844 1.953125 L 13.460938 -5.027344 C 14.542969 -6.132812 15.027344 -6.28125 15.746094 -6.214844 L 15.769531 -6.277344 Z M 12.9375 -7.375 "/></g></g></g><g fill="#000000" fill-opacity="1"><g transform="translate(165.502785, 280.722689)"><g><path d="M 0.242188 0.0507812 L 4.34375 0.921875 L 4.359375 0.839844 C 3.714844 0.621094 3.1875 0.324219 3.3125 -0.257812 L 5.320312 -9.722656 C 5.445312 -10.300781 6.046875 -10.359375 6.726562 -10.300781 L 6.742188 -10.378906 L 2.644531 -11.25 L 2.625 -11.171875 C 3.269531 -10.949219 3.796875 -10.652344 3.675781 -10.070312 L 1.664062 -0.609375 C 1.542969 -0.0273438 0.9375 0.03125 0.257812 -0.03125 Z M 0.242188 0.0507812 "/></g></g></g><g fill="#000000" fill-opacity="1"><g transform="translate(179.167482, 283.132182)"><g><path d="M 6.054688 -6.230469 C 4.347656 -6.730469 2.785156 -7.386719 2.898438 -9.265625 C 2.96875 -10.386719 3.585938 -11.308594 5.152344 -11.210938 C 6.996094 -11.097656 8.613281 -9.675781 8.214844 -7.46875 L 9.820312 -9.703125 C 9 -10.597656 7.789062 -11.332031 5.910156 -11.445312 C 3.324219 -11.605469 1.632812 -10.453125 1.515625 -8.539062 C 1.433594 -7.207031 2.113281 -5.609375 5.179688 -4.679688 C 7.113281 -4.097656 8.339844 -3.574219 8.238281 -1.910156 C 8.171875 -0.839844 7.582031 0.398438 5.6875 0.28125 C 3.726562 0.160156 1.929688 -1.269531 2.3125 -3.480469 L 0.738281 -1.277344 C 1.578125 -0.367188 3.019531 0.417969 4.945312 0.535156 C 7.84375 0.710938 9.472656 -0.777344 9.589844 -2.640625 C 9.660156 -3.792969 9.171875 -5.308594 6.054688 -6.230469 Z M 6.054688 -6.230469 "/></g></g></g><g fill="#000000" fill-opacity="1"><g transform="translate(198.40199, 283.427764)"><g><path d="M 0.246094 -0.0234375 L 4.421875 -0.386719 L 4.417969 -0.46875 C 3.734375 -0.492188 3.144531 -0.621094 3.09375 -1.214844 L 2.25 -10.851562 C 2.199219 -11.441406 2.757812 -11.675781 3.425781 -11.816406 L 3.417969 -11.898438 L -0.757812 -11.53125 L -0.75 -11.449219 C -0.0703125 -11.425781 0.519531 -11.296875 0.574219 -10.703125 L 1.414062 -1.066406 C 1.464844 -0.476562 0.90625 -0.246094 0.238281 -0.105469 Z M 0.246094 -0.0234375 "/></g></g></g><g fill="#000000" fill-opacity="1"><g transform="translate(212.303947, 281.820948)"><g><path d="M 3.789062 -13.15625 C 0.449219 -12.292969 -1.660156 -9.375 -0.730469 -5.78125 C 0.203125 -2.183594 3.460938 -0.65625 6.800781 -1.523438 C 10.125 -2.382812 12.234375 -5.300781 11.304688 -8.894531 C 10.371094 -12.492188 7.113281 -14.019531 3.789062 -13.15625 Z M 7.367188 -1.976562 C 4.488281 -1.230469 1.582031 -3.957031 0.746094 -7.183594 C 0.046875 -9.886719 1.003906 -12.128906 3.207031 -12.699219 C 6.082031 -13.445312 8.988281 -10.71875 9.820312 -7.507812 C 10.523438 -4.789062 9.570312 -2.546875 7.367188 -1.976562 Z M 7.367188 -1.976562 "/></g></g></g><g fill="#000000" fill-opacity="1"><g transform="translate(234.672733, 274.945083)"><g><path d="M 3.035156 -14.347656 L 3.070312 -14.273438 C 3.714844 -14.496094 4.457031 -14.289062 5.445312 -12.273438 L 8.078125 -6.890625 L -1.496094 -11.140625 C -1.984375 -11.34375 -2.246094 -11.542969 -2.4375 -11.671875 L -4.929688 -10.453125 C -4.339844 -10.449219 -3.800781 -10.289062 -3.007812 -9.941406 L 0.359375 -3.0625 C 1.34375 -1.042969 0.90625 -0.628906 0.335938 -0.253906 L 0.371094 -0.179688 L 2.921875 -1.429688 L 2.886719 -1.503906 C 2.242188 -1.28125 1.496094 -1.484375 0.511719 -3.503906 L -2.535156 -9.730469 L 9.796875 -4.277344 L 9.8125 -4.320312 C 9.519531 -4.839844 9.101562 -5.589844 8.34375 -7.132812 L 5.609375 -12.722656 C 4.625 -14.738281 5.0625 -15.15625 5.636719 -15.527344 L 5.597656 -15.601562 Z M 3.035156 -14.347656 "/></g></g></g><g fill="#000000" fill-opacity="1"><g transform="translate(253.681198, 264.664641)"><g><path d="M 7.714844 -8.523438 L -0.398438 -13.394531 C -1.195312 -13.863281 -1.289062 -13.960938 -1.371094 -14.066406 L -1.976562 -12.332031 L -2.078125 -12.027344 L -1.828125 -11.757812 L 0.398438 -2.820312 C 0.777344 -1.320312 0.652344 -0.832031 0.222656 -0.253906 L 0.261719 -0.199219 L 2.675781 -2.046875 L 2.632812 -2.097656 C 1.78125 -1.695312 1.074219 -1.53125 0.695312 -3.027344 L 0.484375 -3.902344 L 5.609375 -7.828125 L 6.371094 -7.371094 C 7.714844 -6.570312 7.410156 -5.878906 6.554688 -5.101562 L 6.59375 -5.046875 L 10.277344 -7.867188 L 10.234375 -7.917969 C 9.585938 -7.546875 9.109375 -7.679688 7.714844 -8.523438 Z M 0.394531 -4.210938 L -1.574219 -12.101562 L 5.335938 -7.992188 Z M 0.394531 -4.210938 "/></g></g></g><g fill="#000000" fill-opacity="1"><g transform="translate(271.089084, 250.06151)"><g><path d="M 4.429688 -8.328125 L 0.996094 -8.625 C 1.96875 -10.476562 1.769531 -12.300781 0.480469 -13.433594 C -1.042969 -14.777344 -2.921875 -14.164062 -4.679688 -12.171875 L -8.507812 -7.824219 L -8.445312 -7.769531 C -7.9375 -8.222656 -7.417969 -8.535156 -6.972656 -8.144531 L 0.285156 -1.75 C 0.734375 -1.355469 0.488281 -0.804688 0.101562 -0.242188 L 0.164062 -0.1875 L 2.933594 -3.332031 L 2.875 -3.386719 C 2.363281 -2.933594 1.84375 -2.621094 1.398438 -3.011719 L -1.449219 -5.523438 L -0.0625 -7.09375 L 0.0351562 -7.207031 L 5.507812 -6.675781 L 5.71875 -6.492188 L 7.691406 -8.734375 L 7.65625 -8.765625 C 6.765625 -8.40625 6.078125 -8.175781 4.429688 -8.328125 Z M -1.945312 -5.957031 L -6.34375 -9.832031 L -5.042969 -11.304688 C -2.992188 -13.636719 -1.390625 -12.882812 -0.152344 -11.792969 C 1.570312 -10.273438 1.394531 -9.199219 0.0390625 -7.664062 C -0.546875 -6.996094 -1.179688 -6.453125 -1.945312 -5.957031 Z M -1.945312 -5.957031 "/></g></g></g><g fill="#000000" fill-opacity="1"><g transform="translate(284.264821, 233.818087)"><g><path d="M -5.519531 -13.445312 L -5.464844 -13.410156 C -4.78125 -14.253906 -4.242188 -14.648438 -3.605469 -13.414062 L -1.121094 -8.574219 L -6.691406 -8.46875 L -8.4375 -8.457031 L -9.847656 -6.050781 L -9.792969 -6.015625 C -9.429688 -6.4375 -8.792969 -6.773438 -7.667969 -6.800781 L -1.316406 -6.96875 L 1.890625 -5.089844 C 2.402344 -4.792969 2.265625 -4.199219 1.914062 -3.433594 L 1.984375 -3.390625 L 4.269531 -7.292969 L 4.195312 -7.335938 C 3.699219 -6.652344 3.253906 -6.246094 2.738281 -6.542969 L -0.75 -8.585938 L -3.382812 -13.761719 C -4.007812 -14.988281 -3.910156 -15.675781 -3.621094 -16.558594 L -3.679688 -16.59375 Z M -5.519531 -13.445312 "/></g></g></g><g fill="#000000" fill-opacity="1"><g transform="translate(116.852883, 103.239572)"><g><path d="M 5.390625 -9.984375 C 4.867188 -10.484375 4.347656 -11.007812 3.828125 -11.5625 C 3.304688 -12.125 2.75 -12.722656 2.15625 -13.359375 C 1.5625 -14.003906 1.15625 -14.445312 0.9375 -14.6875 C 1.289062 -12.125 1.519531 -9.96875 1.625 -8.21875 C 2.570312 -8.632812 3.296875 -8.960938 3.796875 -9.203125 C 4.566406 -9.566406 5.097656 -9.828125 5.390625 -9.984375 Z M 4.109375 -7.359375 C 3.722656 -7.171875 2.925781 -6.800781 1.71875 -6.25 C 1.925781 -3.351562 2.109375 -1.4375 2.265625 -0.5 C 0.890625 -0.03125 0.09375 -0.0234375 -0.125 -0.484375 C -0.226562 -0.703125 -0.3125 -1.691406 -0.375 -3.453125 C -0.445312 -5.210938 -0.570312 -7.441406 -0.75 -10.140625 C -0.925781 -12.835938 -1.171875 -15.1875 -1.484375 -17.1875 C -1.210938 -17.363281 -0.84375 -17.566406 -0.375 -17.796875 C 0.0078125 -17.972656 0.34375 -18.035156 0.625 -17.984375 C 0.90625 -17.929688 1.238281 -17.707031 1.625 -17.3125 C 4.445312 -14.320312 6.4375 -12.28125 7.59375 -11.1875 C 10.050781 -8.84375 11.828125 -7.25 12.921875 -6.40625 C 12.484375 -5.851562 12.078125 -5.488281 11.703125 -5.3125 C 11.085938 -5.007812 10.5625 -5 10.125 -5.28125 C 9.75 -5.65625 9.1875 -6.210938 8.4375 -6.953125 C 7.695312 -7.691406 7.128906 -8.253906 6.734375 -8.640625 C 5.296875 -7.929688 4.421875 -7.503906 4.109375 -7.359375 Z M 4.109375 -7.359375 "/></g></g></g><g fill="#000000" fill-opacity="1"><g transform="translate(142.404598, 92.400019)"><g><path d="M 13.234375 -3.609375 C 12.929688 -3.441406 12.59375 -3.3125 12.21875 -3.21875 C 11.425781 -3 10.84375 -3.066406 10.46875 -3.421875 C 9.394531 -4.429688 7.738281 -6.054688 5.5 -8.296875 C 3.257812 -10.546875 1.585938 -12.191406 0.484375 -13.234375 L 2.28125 -7.09375 C 3.175781 -3.9375 3.863281 -2.007812 4.34375 -1.3125 C 4.03125 -1.082031 3.671875 -0.910156 3.265625 -0.796875 C 2.679688 -0.640625 2.253906 -0.632812 1.984375 -0.78125 C 1.722656 -0.9375 1.523438 -1.257812 1.390625 -1.75 C 1.328125 -1.988281 1.164062 -2.609375 0.90625 -3.609375 C 0.65625 -4.609375 0.457031 -5.382812 0.3125 -5.9375 L -0.96875 -10.6875 C -1.675781 -13.3125 -2.3125 -15.0625 -2.875 -15.9375 C -2.507812 -16.164062 -2.039062 -16.359375 -1.46875 -16.515625 C -0.75 -16.710938 -0.128906 -16.632812 0.390625 -16.28125 C 1.328125 -15.675781 2.84375 -14.375 4.9375 -12.375 C 7.03125 -10.382812 8.710938 -8.660156 9.984375 -7.203125 C 9.367188 -8.972656 8.789062 -10.863281 8.25 -12.875 C 7.613281 -15.21875 7.035156 -17.117188 6.515625 -18.578125 C 6.867188 -18.722656 7.1875 -18.832031 7.46875 -18.90625 C 8.519531 -19.195312 9.128906 -19.039062 9.296875 -18.4375 C 9.316406 -18.34375 9.382812 -18.019531 9.5 -17.46875 C 9.613281 -16.914062 9.757812 -16.226562 9.9375 -15.40625 C 10.113281 -14.582031 10.300781 -13.804688 10.5 -13.078125 L 11.59375 -9.03125 C 12.1875 -6.8125 12.734375 -5.003906 13.234375 -3.609375 Z M 13.234375 -3.609375 "/></g></g></g><g fill="#000000" fill-opacity="1"><g transform="translate(170.539702, 86.100731)"><g><path d="M 1.28125 -1.40625 C 1.375 -2.90625 1.28125 -5.648438 1 -9.640625 C 0.78125 -12.484375 0.507812 -14.6875 0.1875 -16.25 C 1.1875 -16.519531 2.488281 -16.71875 4.09375 -16.84375 C 5.40625 -16.945312 6.597656 -16.90625 7.671875 -16.71875 C 8.742188 -16.53125 9.738281 -16.160156 10.65625 -15.609375 C 11.570312 -15.066406 12.3125 -14.257812 12.875 -13.1875 C 13.445312 -12.125 13.789062 -10.816406 13.90625 -9.265625 C 14.101562 -6.828125 13.585938 -4.769531 12.359375 -3.09375 C 11.128906 -1.425781 9.257812 -0.492188 6.75 -0.296875 C 4.4375 -0.109375 2.613281 -0.476562 1.28125 -1.40625 Z M 3.0625 -14.765625 C 3.207031 -13.710938 3.332031 -12.472656 3.4375 -11.046875 C 3.707031 -7.671875 3.8125 -4.945312 3.75 -2.875 C 4.570312 -2.363281 5.5625 -2.148438 6.71875 -2.234375 C 7.625 -2.304688 8.394531 -2.550781 9.03125 -2.96875 C 9.675781 -3.394531 10.148438 -3.925781 10.453125 -4.5625 C 10.765625 -5.207031 10.972656 -5.863281 11.078125 -6.53125 C 11.191406 -7.207031 11.21875 -7.898438 11.15625 -8.609375 C 10.976562 -10.890625 10.3125 -12.5625 9.15625 -13.625 C 8 -14.6875 6.429688 -15.140625 4.453125 -14.984375 C 4.140625 -14.960938 3.675781 -14.890625 3.0625 -14.765625 Z M 3.0625 -14.765625 "/></g></g></g><g fill="#000000" fill-opacity="1"><g transform="translate(199.864863, 85.148058)"><g><path d="M 11.1875 -1.203125 C 11.519531 -0.703125 11.929688 -0.425781 12.421875 -0.375 C 12.609375 -0.363281 12.796875 -0.367188 12.984375 -0.390625 C 13.109375 -0.046875 13.160156 0.238281 13.140625 0.46875 C 13.097656 0.84375 12.863281 1.097656 12.4375 1.234375 C 12.007812 1.367188 11.515625 1.40625 10.953125 1.34375 C 10.015625 1.25 9.226562 0.707031 8.59375 -0.28125 C 8.15625 -0.96875 7.710938 -1.894531 7.265625 -3.0625 C 6.828125 -4.238281 6.492188 -5.253906 6.265625 -6.109375 C 5.910156 -6.296875 5.753906 -6.578125 5.796875 -6.953125 C 5.828125 -7.253906 5.925781 -7.5625 6.09375 -7.875 C 6.34375 -7.769531 6.640625 -7.703125 6.984375 -7.671875 C 7.867188 -7.578125 8.628906 -7.765625 9.265625 -8.234375 C 9.910156 -8.710938 10.285156 -9.472656 10.390625 -10.515625 C 10.515625 -11.671875 10.3125 -12.5 9.78125 -13 C 9.257812 -13.5 8.394531 -13.8125 7.1875 -13.9375 C 6.75 -13.976562 6.222656 -13.992188 5.609375 -13.984375 C 5.578125 -13.085938 5.441406 -11.476562 5.203125 -9.15625 L 4.71875 -4.40625 C 4.5 -2.25 4.492188 -0.660156 4.703125 0.359375 C 4.335938 0.453125 3.828125 0.46875 3.171875 0.40625 C 2.578125 0.34375 2.179688 0.195312 1.984375 -0.03125 C 1.785156 -0.269531 1.710938 -0.644531 1.765625 -1.15625 C 1.785156 -1.394531 1.851562 -2.023438 1.96875 -3.046875 C 2.09375 -4.078125 2.1875 -4.878906 2.25 -5.453125 L 2.734375 -10.34375 C 2.960938 -12.5625 3.054688 -14.4375 3.015625 -15.96875 C 4.273438 -16.03125 5.554688 -15.992188 6.859375 -15.859375 C 11.421875 -15.398438 13.53125 -13.523438 13.1875 -10.234375 C 13.0625 -8.984375 12.617188 -7.984375 11.859375 -7.234375 C 11.109375 -6.484375 10.160156 -6.015625 9.015625 -5.828125 C 9.859375 -3.453125 10.582031 -1.910156 11.1875 -1.203125 Z M 11.1875 -1.203125 "/></g></g></g><g fill="#000000" fill-opacity="1"><g transform="translate(226.532017, 89.033628)"><g><path d="M 11.8125 3.328125 L 2.125 0.59375 L 6.875 -16.234375 L 16.5625 -13.5 L 15.734375 -10.578125 L 9.609375 -12.296875 L 8.5625 -8.609375 L 14.265625 -7.015625 L 13.4375 -4.078125 L 7.734375 -5.671875 L 6.515625 -1.34375 L 12.640625 0.375 Z M 17.828125 -18.71875 L 17.765625 -18.5 C 17.484375 -18.34375 17.117188 -18.15625 16.671875 -17.9375 C 16.222656 -17.726562 15.738281 -17.503906 15.21875 -17.265625 C 14.707031 -17.035156 14.207031 -16.828125 13.71875 -16.640625 C 13.226562 -16.453125 12.804688 -16.300781 12.453125 -16.1875 L 10.125 -16.84375 L 10.203125 -17.140625 C 10.546875 -17.367188 10.9375 -17.632812 11.375 -17.9375 C 11.820312 -18.25 12.269531 -18.570312 12.71875 -18.90625 C 13.164062 -19.25 13.554688 -19.554688 13.890625 -19.828125 Z M 17.828125 -18.71875 "/></g></g></g><g fill="#000000" fill-opacity="1"><g transform="translate(252.606804, 97.650498)"><g><path d="M 14.390625 -6.890625 C 14.429688 -7.554688 14.238281 -8.21875 13.8125 -8.875 C 13.382812 -9.53125 12.851562 -10.015625 12.21875 -10.328125 C 11.457031 -10.691406 10.734375 -10.804688 10.046875 -10.671875 C 9.359375 -10.546875 8.84375 -10.125 8.5 -9.40625 C 8.28125 -8.957031 8.238281 -8.515625 8.375 -8.078125 C 8.519531 -7.648438 8.773438 -7.242188 9.140625 -6.859375 C 9.515625 -6.472656 9.9375 -6.078125 10.40625 -5.671875 C 10.875 -5.273438 11.328125 -4.847656 11.765625 -4.390625 C 12.210938 -3.941406 12.597656 -3.476562 12.921875 -3 C 13.242188 -2.519531 13.421875 -1.960938 13.453125 -1.328125 C 13.492188 -0.691406 13.351562 -0.03125 13.03125 0.65625 C 12.613281 1.53125 12.101562 2.210938 11.5 2.703125 C 10.894531 3.203125 10.242188 3.5 9.546875 3.59375 C 8.847656 3.695312 8.160156 3.6875 7.484375 3.5625 C 6.816406 3.4375 6.128906 3.207031 5.421875 2.875 C 4.203125 2.28125 3.222656 1.535156 2.484375 0.640625 C 1.742188 -0.242188 1.515625 -0.988281 1.796875 -1.59375 C 2.097656 -2.207031 2.769531 -2.503906 3.8125 -2.484375 C 3.832031 -1.785156 4.109375 -1.070312 4.640625 -0.34375 C 5.179688 0.382812 5.820312 0.925781 6.5625 1.28125 C 7.40625 1.6875 8.203125 1.828125 8.953125 1.703125 C 9.710938 1.585938 10.28125 1.132812 10.65625 0.34375 C 10.882812 -0.132812 10.890625 -0.625 10.671875 -1.125 C 10.460938 -1.625 10.113281 -2.085938 9.625 -2.515625 C 9.144531 -2.953125 8.628906 -3.453125 8.078125 -4.015625 C 7.535156 -4.578125 7.050781 -5.132812 6.625 -5.6875 C 6.207031 -6.238281 5.957031 -6.90625 5.875 -7.6875 C 5.789062 -8.476562 5.953125 -9.296875 6.359375 -10.140625 C 6.992188 -11.453125 7.972656 -12.226562 9.296875 -12.46875 C 10.628906 -12.71875 12.023438 -12.492188 13.484375 -11.796875 C 14.097656 -11.492188 14.675781 -11.113281 15.21875 -10.65625 C 15.769531 -10.207031 16.191406 -9.703125 16.484375 -9.140625 C 16.773438 -8.585938 16.8125 -8.082031 16.59375 -7.625 C 16.226562 -6.851562 15.492188 -6.609375 14.390625 -6.890625 Z M 14.390625 -6.890625 "/></g></g></g><g fill="#000000" fill-opacity="1"><g transform="translate(58.468042, 174.880652)"><g/></g></g><g fill="#000000" fill-opacity="1"><g transform="translate(60.884813, 174.880652)"><g/></g></g><g fill="#000000" fill-opacity="1"><g transform="translate(63.301583, 174.880652)"><g/></g></g><g fill="#000000" fill-opacity="1"><g transform="translate(65.718354, 174.880652)"><g/></g></g><g fill="#000000" fill-opacity="1"><g transform="translate(68.135124, 174.880652)"><g/></g></g><g fill="#000000" fill-opacity="1"><g transform="translate(70.551894, 174.880652)"><g/></g></g><g fill="#000000" fill-opacity="1"><g transform="translate(72.968664, 174.880652)"><g/></g></g><g fill="#000000" fill-opacity="1"><g transform="translate(75.385867, 174.880652)"><g><path d="M 3.65625 -1.828125 C 3.65625 -1.253906 3.5 -0.796875 3.1875 -0.453125 C 2.882812 -0.117188 2.472656 0.046875 1.953125 0.046875 C 1.441406 0.046875 1.03125 -0.117188 0.71875 -0.453125 C 0.414062 -0.796875 0.265625 -1.253906 0.265625 -1.828125 C 0.265625 -2.398438 0.414062 -2.859375 0.71875 -3.203125 C 1.03125 -3.546875 1.441406 -3.71875 1.953125 -3.71875 C 2.472656 -3.71875 2.882812 -3.546875 3.1875 -3.203125 C 3.5 -2.859375 3.65625 -2.398438 3.65625 -1.828125 Z M 2.921875 -2.84375 C 2.828125 -3 2.695312 -3.125 2.53125 -3.21875 C 2.363281 -3.320312 2.175781 -3.375 1.96875 -3.375 C 1.582031 -3.375 1.273438 -3.242188 1.046875 -2.984375 C 0.828125 -2.722656 0.71875 -2.394531 0.71875 -2 C 0.71875 -1.5625 0.8125 -1.171875 1 -0.828125 C 1.09375 -0.660156 1.21875 -0.523438 1.375 -0.421875 C 1.539062 -0.328125 1.734375 -0.28125 1.953125 -0.28125 C 2.347656 -0.28125 2.648438 -0.410156 2.859375 -0.671875 C 3.078125 -0.941406 3.1875 -1.289062 3.1875 -1.71875 C 3.1875 -2.144531 3.097656 -2.519531 2.921875 -2.84375 Z M 2.921875 -2.84375 "/></g></g></g><g fill="#000000" fill-opacity="1"><g transform="translate(80.361863, 174.880652)"><g><path d="M 0.40625 -0.75 L 0.40625 -2.375 C 0.40625 -2.894531 0.390625 -3.320312 0.359375 -3.65625 C 0.421875 -3.664062 0.5 -3.671875 0.59375 -3.671875 C 0.769531 -3.671875 0.859375 -3.601562 0.859375 -3.46875 C 0.859375 -3.445312 0.851562 -3.378906 0.84375 -3.265625 C 0.820312 -2.910156 0.8125 -2.597656 0.8125 -2.328125 L 0.8125 -0.609375 C 0.8125 -0.410156 0.789062 -0.226562 0.75 -0.0625 C 0.707031 0.09375 0.648438 0.210938 0.578125 0.296875 C 0.515625 0.390625 0.445312 0.460938 0.375 0.515625 C 0.238281 0.609375 0.117188 0.65625 0.015625 0.65625 C -0.117188 0.65625 -0.191406 0.550781 -0.203125 0.34375 C 0.00390625 0.300781 0.160156 0.222656 0.265625 0.109375 C 0.347656 0.0234375 0.394531 -0.132812 0.40625 -0.375 C 0.40625 -0.457031 0.40625 -0.582031 0.40625 -0.75 Z M 0.40625 -0.75 "/></g></g></g><g fill="#000000" fill-opacity="1"><g transform="translate(82.635855, 174.880652)"><g><path d="M 3.65625 -1.828125 C 3.65625 -1.253906 3.5 -0.796875 3.1875 -0.453125 C 2.882812 -0.117188 2.472656 0.046875 1.953125 0.046875 C 1.441406 0.046875 1.03125 -0.117188 0.71875 -0.453125 C 0.414062 -0.796875 0.265625 -1.253906 0.265625 -1.828125 C 0.265625 -2.398438 0.414062 -2.859375 0.71875 -3.203125 C 1.03125 -3.546875 1.441406 -3.71875 1.953125 -3.71875 C 2.472656 -3.71875 2.882812 -3.546875 3.1875 -3.203125 C 3.5 -2.859375 3.65625 -2.398438 3.65625 -1.828125 Z M 2.921875 -2.84375 C 2.828125 -3 2.695312 -3.125 2.53125 -3.21875 C 2.363281 -3.320312 2.175781 -3.375 1.96875 -3.375 C 1.582031 -3.375 1.273438 -3.242188 1.046875 -2.984375 C 0.828125 -2.722656 0.71875 -2.394531 0.71875 -2 C 0.71875 -1.5625 0.8125 -1.171875 1 -0.828125 C 1.09375 -0.660156 1.21875 -0.523438 1.375 -0.421875 C 1.539062 -0.328125 1.734375 -0.28125 1.953125 -0.28125 C 2.347656 -0.28125 2.648438 -0.410156 2.859375 -0.671875 C 3.078125 -0.941406 3.1875 -1.289062 3.1875 -1.71875 C 3.1875 -2.144531 3.097656 -2.519531 2.921875 -2.84375 Z M 2.921875 -2.84375 "/></g></g></g><g fill="#000000" fill-opacity="1"><g transform="translate(87.611851, 174.880652)"><g><path d="M 2.21875 -2.9375 C 2.144531 -3.0625 2.023438 -3.160156 1.859375 -3.234375 C 1.703125 -3.316406 1.535156 -3.359375 1.359375 -3.359375 C 1.179688 -3.359375 1.03125 -3.304688 0.90625 -3.203125 C 0.78125 -3.097656 0.71875 -2.960938 0.71875 -2.796875 C 0.71875 -2.617188 0.765625 -2.476562 0.859375 -2.375 C 0.953125 -2.28125 1.066406 -2.210938 1.203125 -2.171875 C 1.335938 -2.128906 1.488281 -2.082031 1.65625 -2.03125 C 1.820312 -1.976562 1.972656 -1.921875 2.109375 -1.859375 C 2.253906 -1.804688 2.375 -1.707031 2.46875 -1.5625 C 2.5625 -1.414062 2.609375 -1.242188 2.609375 -1.046875 C 2.609375 -0.835938 2.570312 -0.660156 2.5 -0.515625 C 2.425781 -0.367188 2.328125 -0.257812 2.203125 -0.1875 C 1.960938 -0.03125 1.6875 0.046875 1.375 0.046875 C 1.0625 0.046875 0.796875 0 0.578125 -0.09375 C 0.359375 -0.195312 0.25 -0.320312 0.25 -0.46875 C 0.25 -0.550781 0.296875 -0.617188 0.390625 -0.671875 C 0.421875 -0.691406 0.46875 -0.71875 0.53125 -0.75 C 0.601562 -0.613281 0.726562 -0.503906 0.90625 -0.421875 C 1.082031 -0.335938 1.269531 -0.296875 1.46875 -0.296875 C 1.664062 -0.296875 1.835938 -0.347656 1.984375 -0.453125 C 2.140625 -0.566406 2.21875 -0.722656 2.21875 -0.921875 C 2.21875 -1.109375 2.148438 -1.25 2.015625 -1.34375 C 1.890625 -1.445312 1.734375 -1.523438 1.546875 -1.578125 C 1.359375 -1.628906 1.171875 -1.6875 0.984375 -1.75 C 0.796875 -1.8125 0.632812 -1.914062 0.5 -2.0625 C 0.375 -2.21875 0.3125 -2.414062 0.3125 -2.65625 C 0.3125 -3 0.421875 -3.257812 0.640625 -3.4375 C 0.867188 -3.625 1.15625 -3.71875 1.5 -3.71875 C 1.75 -3.71875 1.984375 -3.671875 2.203125 -3.578125 C 2.421875 -3.492188 2.53125 -3.375 2.53125 -3.21875 C 2.53125 -3.070312 2.425781 -2.976562 2.21875 -2.9375 Z M 2.21875 -2.9375 "/></g></g></g><g fill="#000000" fill-opacity="1"><g transform="translate(91.520659, 174.880652)"><g/></g></g><g fill="#000000" fill-opacity="1"><g transform="translate(58.468042, 188.213766)"><g><path d="M 6.09375 -5.9375 C 5.894531 -6.269531 5.625 -6.535156 5.28125 -6.734375 C 4.9375 -6.941406 4.539062 -7.046875 4.09375 -7.046875 C 3.300781 -7.046875 2.671875 -6.773438 2.203125 -6.234375 C 1.734375 -5.691406 1.5 -5.003906 1.5 -4.171875 C 1.5 -3.253906 1.695312 -2.441406 2.09375 -1.734375 C 2.28125 -1.378906 2.539062 -1.097656 2.875 -0.890625 C 3.21875 -0.679688 3.617188 -0.578125 4.078125 -0.578125 C 4.898438 -0.578125 5.535156 -0.851562 5.984375 -1.40625 C 6.441406 -1.96875 6.671875 -2.695312 6.671875 -3.59375 C 6.671875 -4.476562 6.476562 -5.257812 6.09375 -5.9375 Z M 3.75 0.09375 C 2.769531 0.0195312 1.992188 -0.363281 1.421875 -1.0625 C 0.847656 -1.769531 0.5625 -2.707031 0.5625 -3.875 C 0.5625 -5.039062 0.878906 -5.976562 1.515625 -6.6875 C 2.148438 -7.394531 3.007812 -7.75 4.09375 -7.75 C 5.175781 -7.75 6.035156 -7.394531 6.671875 -6.6875 C 7.316406 -5.976562 7.640625 -5.039062 7.640625 -3.875 C 7.640625 -2.707031 7.351562 -1.773438 6.78125 -1.078125 C 6.207031 -0.378906 5.429688 0.0078125 4.453125 0.09375 C 4.546875 0.425781 4.707031 0.675781 4.9375 0.84375 C 5.175781 1.019531 5.453125 1.109375 5.765625 1.109375 C 6.078125 1.109375 6.3125 1.078125 6.46875 1.015625 C 6.632812 0.953125 6.820312 0.835938 7.03125 0.671875 C 7.113281 0.710938 7.191406 0.789062 7.265625 0.90625 C 7.335938 1.019531 7.375 1.117188 7.375 1.203125 C 7.375 1.390625 7.21875 1.535156 6.90625 1.640625 C 6.59375 1.753906 6.238281 1.8125 5.84375 1.8125 C 5.289062 1.8125 4.828125 1.65625 4.453125 1.34375 C 4.078125 1.039062 3.84375 0.625 3.75 0.09375 Z M 3.75 0.09375 "/></g></g></g><g fill="#000000" fill-opacity="1"><g transform="translate(68.854411, 188.213766)"><g><path d="M 0.921875 -2.203125 L 1.015625 -5.765625 C 1.015625 -6.492188 0.953125 -7.097656 0.828125 -7.578125 C 0.984375 -7.640625 1.164062 -7.671875 1.375 -7.671875 C 1.582031 -7.671875 1.734375 -7.625 1.828125 -7.53125 C 1.929688 -7.445312 1.984375 -7.269531 1.984375 -7 C 1.984375 -6.71875 1.957031 -6.015625 1.90625 -4.890625 C 1.851562 -3.765625 1.828125 -2.914062 1.828125 -2.34375 C 1.828125 -1.757812 1.976562 -1.328125 2.28125 -1.046875 C 2.59375 -0.765625 2.945312 -0.625 3.34375 -0.625 C 3.726562 -0.625 4.128906 -0.710938 4.546875 -0.890625 C 4.960938 -1.078125 5.300781 -1.296875 5.5625 -1.546875 L 5.578125 -3.015625 L 5.578125 -4.96875 C 5.578125 -6.039062 5.550781 -6.929688 5.5 -7.640625 C 5.625 -7.660156 5.78125 -7.671875 5.96875 -7.671875 C 6.34375 -7.671875 6.53125 -7.523438 6.53125 -7.234375 C 6.53125 -7.210938 6.519531 -7.066406 6.5 -6.796875 C 6.457031 -5.992188 6.4375 -4.957031 6.4375 -3.6875 C 6.4375 -2.40625 6.445312 -1.5625 6.46875 -1.15625 C 6.488281 -0.757812 6.550781 -0.394531 6.65625 -0.0625 C 6.519531 0 6.34375 0.03125 6.125 0.03125 C 5.90625 0.03125 5.753906 -0.015625 5.671875 -0.109375 C 5.585938 -0.203125 5.546875 -0.378906 5.546875 -0.640625 L 5.546875 -0.765625 C 5.242188 -0.503906 4.875 -0.289062 4.4375 -0.125 C 4.007812 0.03125 3.617188 0.109375 3.265625 0.109375 C 2.535156 0.109375 1.960938 -0.0546875 1.546875 -0.390625 C 1.128906 -0.734375 0.921875 -1.335938 0.921875 -2.203125 Z M 0.921875 -2.203125 "/></g></g></g><g fill="#000000" fill-opacity="1"><g transform="translate(78.459205, 188.213766)"><g><path d="M 0.90625 -0.65625 L 0.921875 -2.578125 L 0.921875 -4.875 C 0.921875 -5.976562 0.867188 -6.875 0.765625 -7.5625 C 1.578125 -7.632812 2.476562 -7.671875 3.46875 -7.671875 C 4.445312 -7.671875 5.003906 -7.613281 5.140625 -7.5 C 5.203125 -7.4375 5.234375 -7.320312 5.234375 -7.15625 C 5.234375 -7 5.203125 -6.84375 5.140625 -6.6875 C 4.710938 -6.851562 4.003906 -6.9375 3.015625 -6.9375 C 2.597656 -6.9375 2.171875 -6.925781 1.734375 -6.90625 C 1.765625 -6.5625 1.78125 -5.742188 1.78125 -4.453125 L 2.6875 -4.453125 C 3.332031 -4.453125 3.796875 -4.46875 4.078125 -4.5 C 4.109375 -4.4375 4.125 -4.328125 4.125 -4.171875 C 4.125 -4.015625 4.082031 -3.90625 4 -3.84375 C 3.914062 -3.78125 3.78125 -3.742188 3.59375 -3.734375 C 3.40625 -3.734375 3.140625 -3.734375 2.796875 -3.734375 L 1.78125 -3.734375 C 1.78125 -2.054688 1.804688 -1.050781 1.859375 -0.71875 C 2.203125 -0.695312 2.476562 -0.6875 2.6875 -0.6875 C 3.96875 -0.6875 4.789062 -0.773438 5.15625 -0.953125 C 5.21875 -0.796875 5.25 -0.640625 5.25 -0.484375 C 5.25 -0.316406 5.210938 -0.207031 5.140625 -0.15625 C 5.003906 -0.0390625 4.414062 0.015625 3.375 0.015625 C 2.332031 0.015625 1.695312 0.0078125 1.46875 0 C 1.238281 -0.0078125 1.085938 -0.0625 1.015625 -0.15625 C 0.941406 -0.257812 0.90625 -0.425781 0.90625 -0.65625 Z M 0.90625 -0.65625 "/></g></g></g><g fill="#000000" fill-opacity="1"><g transform="translate(86.242194, 188.213766)"><g/></g></g><g fill="#000000" fill-opacity="1"><g transform="translate(91.286846, 188.213766)"><g><path d="M 5.328125 -7.6875 C 5.546875 -7.726562 5.726562 -7.75 5.875 -7.75 C 6.164062 -7.75 6.3125 -7.5625 6.3125 -7.1875 C 6.3125 -6.34375 6.039062 -5.210938 5.5 -3.796875 C 4.96875 -2.378906 4.421875 -1.3125 3.859375 -0.59375 C 3.671875 -0.34375 3.507812 -0.175781 3.375 -0.09375 C 3.238281 -0.0078125 3.109375 0.03125 2.984375 0.03125 C 2.847656 0.03125 2.695312 0.0234375 2.53125 0.015625 C 2.289062 -1.222656 1.875 -2.640625 1.28125 -4.234375 C 0.6875 -5.835938 0.179688 -6.84375 -0.234375 -7.25 C 0.0859375 -7.53125 0.367188 -7.671875 0.609375 -7.671875 C 0.835938 -7.671875 1.019531 -7.503906 1.15625 -7.171875 C 1.457031 -6.492188 1.8125 -5.523438 2.21875 -4.265625 C 2.625 -3.003906 2.941406 -1.910156 3.171875 -0.984375 C 3.628906 -1.484375 4.109375 -2.40625 4.609375 -3.75 C 5.117188 -5.101562 5.375 -6.222656 5.375 -7.109375 C 5.375 -7.378906 5.359375 -7.570312 5.328125 -7.6875 Z M 5.328125 -7.6875 "/></g></g></g><g fill="#000000" fill-opacity="1"><g transform="translate(99.902016, 188.213766)"><g><path d="M 0.90625 -0.65625 L 0.921875 -2.578125 L 0.921875 -4.875 C 0.921875 -5.976562 0.867188 -6.875 0.765625 -7.5625 C 1.578125 -7.632812 2.476562 -7.671875 3.46875 -7.671875 C 4.445312 -7.671875 5.003906 -7.613281 5.140625 -7.5 C 5.203125 -7.4375 5.234375 -7.320312 5.234375 -7.15625 C 5.234375 -7 5.203125 -6.84375 5.140625 -6.6875 C 4.710938 -6.851562 4.003906 -6.9375 3.015625 -6.9375 C 2.597656 -6.9375 2.171875 -6.925781 1.734375 -6.90625 C 1.765625 -6.5625 1.78125 -5.742188 1.78125 -4.453125 L 2.6875 -4.453125 C 3.332031 -4.453125 3.796875 -4.46875 4.078125 -4.5 C 4.109375 -4.4375 4.125 -4.328125 4.125 -4.171875 C 4.125 -4.015625 4.082031 -3.90625 4 -3.84375 C 3.914062 -3.78125 3.78125 -3.742188 3.59375 -3.734375 C 3.40625 -3.734375 3.140625 -3.734375 2.796875 -3.734375 L 1.78125 -3.734375 C 1.78125 -2.054688 1.804688 -1.050781 1.859375 -0.71875 C 2.203125 -0.695312 2.476562 -0.6875 2.6875 -0.6875 C 3.96875 -0.6875 4.789062 -0.773438 5.15625 -0.953125 C 5.21875 -0.796875 5.25 -0.640625 5.25 -0.484375 C 5.25 -0.316406 5.210938 -0.207031 5.140625 -0.15625 C 5.003906 -0.0390625 4.414062 0.015625 3.375 0.015625 C 2.332031 0.015625 1.695312 0.0078125 1.46875 0 C 1.238281 -0.0078125 1.085938 -0.0625 1.015625 -0.15625 C 0.941406 -0.257812 0.90625 -0.425781 0.90625 -0.65625 Z M 0.90625 -0.65625 "/></g></g></g><g fill="#000000" fill-opacity="1"><g transform="translate(107.685003, 188.213766)"><g><path d="M 5.578125 -1.375 C 5.535156 -1.925781 5.515625 -2.890625 5.515625 -4.265625 L 5.515625 -4.96875 C 5.515625 -6.039062 5.488281 -6.929688 5.4375 -7.640625 C 5.5625 -7.660156 5.679688 -7.671875 5.796875 -7.671875 C 6.171875 -7.671875 6.359375 -7.523438 6.359375 -7.234375 C 6.359375 -7.179688 6.347656 -7.023438 6.328125 -6.765625 C 6.285156 -5.972656 6.265625 -5.269531 6.265625 -4.65625 L 6.265625 -2.6875 C 6.265625 -1.601562 6.289062 -0.710938 6.34375 -0.015625 C 6.21875 0.015625 6.09375 0.03125 5.96875 0.03125 C 5.707031 0.03125 5.503906 -0.0703125 5.359375 -0.28125 C 5.046875 -0.757812 4.5 -1.679688 3.71875 -3.046875 C 2.945312 -4.421875 2.285156 -5.523438 1.734375 -6.359375 C 1.722656 -6.066406 1.71875 -4.726562 1.71875 -2.34375 C 1.71875 -1.300781 1.796875 -0.539062 1.953125 -0.0625 C 1.804688 0 1.644531 0.03125 1.46875 0.03125 C 1.28125 0.03125 1.144531 -0.015625 1.0625 -0.109375 C 0.988281 -0.210938 0.953125 -0.382812 0.953125 -0.625 L 0.984375 -2.65625 L 0.984375 -4.96875 C 0.984375 -6.25 0.910156 -7.125 0.765625 -7.59375 C 0.910156 -7.65625 1.070312 -7.6875 1.25 -7.6875 C 1.4375 -7.6875 1.570312 -7.660156 1.65625 -7.609375 C 1.988281 -7.398438 2.578125 -6.59375 3.421875 -5.1875 C 4.265625 -3.789062 4.984375 -2.519531 5.578125 -1.375 Z M 5.578125 -1.375 "/></g></g></g><g fill="#000000" fill-opacity="1"><g transform="translate(272.768394, 179.193032)"><g><path d="M 0.546875 -0.359375 L 0.546875 -3.140625 C 0.546875 -3.628906 0.503906 -4.015625 0.421875 -4.296875 C 0.566406 -4.328125 0.695312 -4.34375 0.8125 -4.34375 C 0.988281 -4.34375 1.140625 -4.238281 1.265625 -4.03125 C 1.441406 -3.738281 1.613281 -3.378906 1.78125 -2.953125 C 1.957031 -2.523438 2.09375 -2.164062 2.1875 -1.875 C 2.289062 -1.582031 2.429688 -1.15625 2.609375 -0.59375 C 2.742188 -1.132812 2.925781 -1.71875 3.15625 -2.34375 C 3.382812 -2.96875 3.640625 -3.53125 3.921875 -4.03125 C 4.035156 -4.238281 4.191406 -4.34375 4.390625 -4.34375 C 4.535156 -4.34375 4.65625 -4.328125 4.75 -4.296875 C 4.675781 -4.035156 4.640625 -3.550781 4.640625 -2.84375 L 4.640625 -1.328125 C 4.640625 -0.734375 4.679688 -0.300781 4.765625 -0.03125 C 4.679688 0 4.578125 0.015625 4.453125 0.015625 C 4.328125 0.015625 4.242188 -0.0078125 4.203125 -0.0625 C 4.160156 -0.125 4.140625 -0.195312 4.140625 -0.28125 C 4.140625 -0.351562 4.140625 -0.53125 4.140625 -0.8125 C 4.148438 -1.632812 4.15625 -2.578125 4.15625 -3.640625 C 3.75 -2.835938 3.3125 -1.628906 2.84375 -0.015625 C 2.789062 0.00390625 2.734375 0.015625 2.671875 0.015625 C 2.492188 0.015625 2.382812 -0.0390625 2.34375 -0.15625 C 2.238281 -0.394531 2.039062 -0.914062 1.75 -1.71875 C 1.457031 -2.53125 1.203125 -3.164062 0.984375 -3.625 L 0.984375 -1.328125 C 0.984375 -0.734375 1.019531 -0.300781 1.09375 -0.03125 C 1.019531 0 0.929688 0.015625 0.828125 0.015625 C 0.722656 0.015625 0.648438 -0.0078125 0.609375 -0.0625 C 0.566406 -0.125 0.546875 -0.222656 0.546875 -0.359375 Z M 0.546875 -0.359375 "/></g></g></g><g fill="#000000" fill-opacity="1"><g transform="translate(279.19999, 179.193032)"><g><path d="M 3.546875 0 L 2.984375 -1.4375 L 1.140625 -1.4375 L 0.59375 0 L 0 0 L 1.8125 -4.671875 L 2.34375 -4.671875 L 4.15625 0 Z M 2.8125 -1.96875 L 2.296875 -3.375 C 2.285156 -3.40625 2.265625 -3.460938 2.234375 -3.546875 C 2.203125 -3.640625 2.171875 -3.734375 2.140625 -3.828125 C 2.109375 -3.929688 2.085938 -4.007812 2.078125 -4.0625 C 2.035156 -3.925781 1.992188 -3.796875 1.953125 -3.671875 C 1.921875 -3.546875 1.894531 -3.445312 1.875 -3.375 L 1.34375 -1.96875 Z M 2.984375 -6.140625 L 2.984375 -6.078125 C 2.929688 -6.003906 2.851562 -5.90625 2.75 -5.78125 C 2.644531 -5.65625 2.53125 -5.53125 2.40625 -5.40625 C 2.28125 -5.28125 2.164062 -5.179688 2.0625 -5.109375 L 1.6875 -5.109375 L 1.6875 -5.1875 C 1.75 -5.257812 1.816406 -5.351562 1.890625 -5.46875 C 1.972656 -5.582031 2.050781 -5.695312 2.125 -5.8125 C 2.195312 -5.9375 2.253906 -6.046875 2.296875 -6.140625 Z M 2.984375 -6.140625 "/></g></g></g><g fill="#000000" fill-opacity="1"><g transform="translate(284.602727, 179.193032)"><g><path d="M 2.609375 -3.46875 C 2.535156 -3.613281 2.398438 -3.734375 2.203125 -3.828125 C 2.015625 -3.921875 1.816406 -3.96875 1.609375 -3.96875 C 1.398438 -3.96875 1.21875 -3.90625 1.0625 -3.78125 C 0.914062 -3.664062 0.84375 -3.503906 0.84375 -3.296875 C 0.84375 -3.085938 0.894531 -2.925781 1 -2.8125 C 1.113281 -2.695312 1.253906 -2.613281 1.421875 -2.5625 C 1.585938 -2.519531 1.765625 -2.46875 1.953125 -2.40625 C 2.148438 -2.34375 2.332031 -2.273438 2.5 -2.203125 C 2.664062 -2.128906 2.800781 -2.007812 2.90625 -1.84375 C 3.019531 -1.675781 3.078125 -1.472656 3.078125 -1.234375 C 3.078125 -0.992188 3.035156 -0.785156 2.953125 -0.609375 C 2.867188 -0.441406 2.75 -0.3125 2.59375 -0.21875 C 2.3125 -0.03125 1.988281 0.0625 1.625 0.0625 C 1.25 0.0625 0.929688 0.00390625 0.671875 -0.109375 C 0.421875 -0.234375 0.296875 -0.378906 0.296875 -0.546875 C 0.296875 -0.648438 0.347656 -0.734375 0.453125 -0.796875 C 0.492188 -0.816406 0.550781 -0.847656 0.625 -0.890625 C 0.707031 -0.734375 0.851562 -0.601562 1.0625 -0.5 C 1.28125 -0.394531 1.507812 -0.34375 1.75 -0.34375 C 1.976562 -0.34375 2.175781 -0.40625 2.34375 -0.53125 C 2.519531 -0.664062 2.609375 -0.847656 2.609375 -1.078125 C 2.609375 -1.304688 2.53125 -1.476562 2.375 -1.59375 C 2.226562 -1.71875 2.039062 -1.804688 1.8125 -1.859375 C 1.59375 -1.921875 1.375 -1.988281 1.15625 -2.0625 C 0.9375 -2.144531 0.75 -2.269531 0.59375 -2.4375 C 0.445312 -2.613281 0.375 -2.847656 0.375 -3.140625 C 0.375 -3.546875 0.503906 -3.851562 0.765625 -4.0625 C 1.023438 -4.28125 1.359375 -4.390625 1.765625 -4.390625 C 2.066406 -4.390625 2.34375 -4.335938 2.59375 -4.234375 C 2.851562 -4.128906 2.984375 -3.984375 2.984375 -3.796875 C 2.984375 -3.617188 2.859375 -3.507812 2.609375 -3.46875 Z M 2.609375 -3.46875 "/></g></g></g><g fill="#000000" fill-opacity="1"><g transform="translate(289.217291, 179.193032)"><g/></g></g><g fill="#000000" fill-opacity="1"><g transform="translate(292.072101, 179.193032)"><g><path d="M 2.53125 -1.75 C 2.382812 -2.132812 2.160156 -2.785156 1.859375 -3.703125 C 1.816406 -3.609375 1.710938 -3.332031 1.546875 -2.875 C 1.390625 -2.414062 1.25 -2.039062 1.125 -1.75 C 1.46875 -1.738281 1.753906 -1.734375 1.984375 -1.734375 C 2.210938 -1.734375 2.394531 -1.738281 2.53125 -1.75 Z M 2.671875 -1.359375 C 2.179688 -1.347656 1.882812 -1.34375 1.78125 -1.34375 C 1.675781 -1.34375 1.40625 -1.347656 0.96875 -1.359375 C 0.675781 -0.628906 0.492188 -0.128906 0.421875 0.140625 C 0.273438 0.109375 0.171875 0.0703125 0.109375 0.03125 C 0.0546875 -0.0078125 0.03125 -0.0546875 0.03125 -0.109375 C 0.03125 -0.171875 0.125 -0.421875 0.3125 -0.859375 C 0.9375 -2.328125 1.367188 -3.472656 1.609375 -4.296875 C 1.691406 -4.316406 1.785156 -4.328125 1.890625 -4.328125 C 1.992188 -4.328125 2.066406 -4.304688 2.109375 -4.265625 C 2.148438 -4.222656 2.195312 -4.125 2.25 -3.96875 C 2.519531 -3.09375 2.789062 -2.296875 3.0625 -1.578125 C 3.34375 -0.859375 3.554688 -0.351562 3.703125 -0.0625 C 3.585938 0.0195312 3.484375 0.0625 3.390625 0.0625 C 3.253906 0.0625 3.160156 0.00390625 3.109375 -0.109375 C 3.023438 -0.316406 2.878906 -0.734375 2.671875 -1.359375 Z M 2.671875 -1.359375 "/></g></g></g><g fill="#000000" fill-opacity="1"><g transform="translate(296.899871, 179.193032)"><g><path d="M 0.46875 -0.375 L 0.484375 -1.453125 L 0.484375 -2.8125 C 0.484375 -3.414062 0.460938 -3.921875 0.421875 -4.328125 C 0.503906 -4.335938 0.597656 -4.34375 0.703125 -4.34375 C 0.910156 -4.34375 1.015625 -4.257812 1.015625 -4.09375 C 1.015625 -4.0625 1.007812 -3.972656 1 -3.828125 C 0.976562 -3.378906 0.96875 -2.976562 0.96875 -2.625 L 0.96875 -2.046875 C 0.96875 -1.140625 0.984375 -0.59375 1.015625 -0.40625 C 1.191406 -0.394531 1.332031 -0.390625 1.4375 -0.390625 C 2.113281 -0.390625 2.550781 -0.441406 2.75 -0.546875 C 2.78125 -0.453125 2.796875 -0.359375 2.796875 -0.265625 C 2.796875 -0.179688 2.773438 -0.117188 2.734375 -0.078125 C 2.660156 -0.015625 2.347656 0.015625 1.796875 0.015625 C 1.234375 0.015625 0.890625 0.0078125 0.765625 0 C 0.640625 0 0.554688 -0.0234375 0.515625 -0.078125 C 0.484375 -0.140625 0.46875 -0.238281 0.46875 -0.375 Z M 0.46875 -0.375 "/></g></g></g><g fill="#000000" fill-opacity="1"><g transform="translate(300.935274, 179.193032)"><g><path d="M 0.46875 -0.375 L 0.484375 -1.453125 L 0.484375 -2.8125 C 0.484375 -3.414062 0.460938 -3.921875 0.421875 -4.328125 C 0.503906 -4.335938 0.597656 -4.34375 0.703125 -4.34375 C 0.910156 -4.34375 1.015625 -4.257812 1.015625 -4.09375 C 1.015625 -4.0625 1.007812 -3.972656 1 -3.828125 C 0.976562 -3.378906 0.96875 -2.976562 0.96875 -2.625 L 0.96875 -2.046875 C 0.96875 -1.140625 0.984375 -0.59375 1.015625 -0.40625 C 1.191406 -0.394531 1.332031 -0.390625 1.4375 -0.390625 C 2.113281 -0.390625 2.550781 -0.441406 2.75 -0.546875 C 2.78125 -0.453125 2.796875 -0.359375 2.796875 -0.265625 C 2.796875 -0.179688 2.773438 -0.117188 2.734375 -0.078125 C 2.660156 -0.015625 2.347656 0.015625 1.796875 0.015625 C 1.234375 0.015625 0.890625 0.0078125 0.765625 0 C 0.640625 0 0.554688 -0.0234375 0.515625 -0.078125 C 0.484375 -0.140625 0.46875 -0.238281 0.46875 -0.375 Z M 0.46875 -0.375 "/></g></g></g><g fill="#000000" fill-opacity="1"><g transform="translate(304.970678, 179.193032)"><g><path d="M 3.546875 0 L 2.984375 -1.4375 L 1.140625 -1.4375 L 0.59375 0 L 0 0 L 1.8125 -4.671875 L 2.34375 -4.671875 L 4.15625 0 Z M 2.8125 -1.96875 L 2.296875 -3.375 C 2.285156 -3.40625 2.265625 -3.460938 2.234375 -3.546875 C 2.203125 -3.640625 2.171875 -3.734375 2.140625 -3.828125 C 2.109375 -3.929688 2.085938 -4.007812 2.078125 -4.0625 C 2.035156 -3.925781 1.992188 -3.796875 1.953125 -3.671875 C 1.921875 -3.546875 1.894531 -3.445312 1.875 -3.375 L 1.34375 -1.96875 Z M 2.984375 -6.140625 L 2.984375 -6.078125 C 2.929688 -6.003906 2.851562 -5.90625 2.75 -5.78125 C 2.644531 -5.65625 2.53125 -5.53125 2.40625 -5.40625 C 2.28125 -5.28125 2.164062 -5.179688 2.0625 -5.109375 L 1.6875 -5.109375 L 1.6875 -5.1875 C 1.75 -5.257812 1.816406 -5.351562 1.890625 -5.46875 C 1.972656 -5.582031 2.050781 -5.695312 2.125 -5.8125 C 2.195312 -5.9375 2.253906 -6.046875 2.296875 -6.140625 Z M 2.984375 -6.140625 "/></g></g></g></svg>