<svg xmlns="http://www.w3.org/2000/svg" xmlns:xlink="http://www.w3.org/1999/xlink" width="500" zoomAndPan="magnify" viewBox="0 0 375 374.999991" height="500" preserveAspectRatio="xMidYMid meet" version="1.0"><defs><g/><clipPath id="00f768077a"><path d="M 167.425781 116.441406 L 243.195312 116.441406 L 243.195312 238.34375 L 167.425781 238.34375 Z M 167.425781 116.441406 " clip-rule="nonzero"/></clipPath><clipPath id="06b17fc434"><path d="M 193.804688 116.460938 C 188.445312 116.460938 183.4375 117.539062 179.550781 118.71875 C 172.46875 120.871094 167.476562 123.835938 167.425781 123.867188 L 168.035156 124.882812 C 168.082031 124.851562 172.949219 121.964844 179.894531 119.851562 C 183.691406 118.695312 188.582031 117.644531 193.804688 117.644531 C 197.363281 117.644531 201.074219 118.136719 204.691406 119.414062 C 214.027344 122.71875 221.035156 130.59375 225.519531 142.824219 C 225.644531 143.257812 227.957031 151.613281 226.519531 161.53125 C 226.28125 162.257812 224.230469 169.007812 227.632812 175.796875 C 230.09375 180.703125 234.773438 184.351562 241.550781 186.644531 C 240.652344 188.90625 236.832031 197.328125 229.300781 198.375 L 227.703125 198.597656 L 234.34375 202.824219 C 234.175781 203.710938 233.414062 206.128906 230.148438 207.386719 L 229.296875 207.714844 L 229.941406 208.359375 C 229.953125 208.371094 231.074219 209.492188 232.164062 210.765625 C 234.214844 213.164062 234.179688 213.785156 234.175781 213.808594 C 234.027344 214.597656 232.03125 214.917969 230.460938 214.917969 C 230.277344 214.917969 230.105469 214.914062 229.9375 214.90625 L 229.136719 214.867188 L 231.589844 224.550781 L 231.59375 224.574219 C 231.601562 224.59375 232.160156 226.527344 230.933594 228.355469 C 229.726562 230.152344 227.238281 231.242188 223.535156 231.597656 L 222.933594 231.65625 C 221.066406 231.503906 215.699219 230.65625 210.652344 228.269531 C 210.421875 228.160156 204.871094 225.5625 197.136719 225.367188 C 196.832031 225.359375 196.527344 225.355469 196.222656 225.355469 C 192.007812 225.355469 187.96875 226.105469 184.207031 227.585938 C 179.171875 229.574219 174.632812 232.890625 170.710938 237.4375 L 171.609375 238.210938 C 175.394531 233.816406 179.773438 230.617188 184.617188 228.699219 C 188.246094 227.261719 192.144531 226.535156 196.21875 226.535156 C 196.5 226.535156 196.78125 226.539062 197.0625 226.546875 C 204.554688 226.730469 210.089844 229.3125 210.148438 229.339844 C 213.519531 230.933594 216.933594 231.820312 219.203125 232.277344 C 220.3125 232.503906 221.429688 232.683594 222.347656 232.78125 C 222.867188 232.839844 223.214844 232.863281 223.453125 232.863281 C 223.832031 232.863281 223.9375 232.804688 224.03125 232.734375 C 227.894531 232.304688 230.546875 231.054688 231.914062 229.015625 C 233.40625 226.796875 232.800781 224.476562 232.734375 224.25 L 230.671875 216.101562 C 232.179688 216.085938 235.003906 215.808594 235.335938 214.027344 C 235.433594 213.507812 235.269531 212.585938 233.101562 210.042969 C 232.464844 209.296875 231.824219 208.609375 231.378906 208.140625 C 235.304688 206.21875 235.5625 202.722656 235.570312 202.5625 L 235.589844 202.214844 L 230.929688 199.25 C 234.253906 198.359375 237.28125 196.042969 239.757812 192.480469 C 241.875 189.433594 242.835938 186.585938 242.875 186.464844 L 243.066406 185.894531 L 242.496094 185.714844 C 235.722656 183.535156 231.082031 180.023438 228.695312 175.277344 C 225.386719 168.695312 227.632812 161.925781 227.652344 161.859375 L 227.671875 161.804688 L 227.679688 161.75 C 229.203125 151.339844 226.75 142.828125 226.648438 142.46875 L 226.636719 142.433594 C 222.027344 129.847656 214.773438 121.726562 205.085938 118.296875 C 201.328125 116.96875 197.484375 116.460938 193.804688 116.460938 Z M 193.804688 116.460938 " clip-rule="nonzero"/></clipPath></defs><g fill="#000000" fill-opacity="1"><g transform="translate(130.493818, 263.344249)"><g><path d="M 13.460938 -6.75 L 8.707031 -10.519531 L 8.644531 -10.441406 C 9.210938 -9.867188 9.613281 -9.277344 9.179688 -8.726562 L 2.324219 -0.0742188 C 1.886719 0.476562 1.097656 0.371094 0.289062 0.105469 L 0.230469 0.183594 L 4.675781 3.707031 C 8.070312 6.394531 12.363281 6.535156 15.234375 2.914062 C 17.777344 -0.296875 17.160156 -3.820312 13.460938 -6.75 Z M 5.253906 3.765625 C 4.367188 3.0625 3.867188 2.34375 3.519531 1.617188 L 11.234375 -8.117188 L 12.65625 -6.992188 C 16.019531 -4.328125 15.488281 -0.863281 12.910156 2.390625 C 10.113281 5.921875 7.699219 5.703125 5.253906 3.765625 Z M 5.253906 3.765625 "/></g></g></g><g fill="#000000" fill-opacity="1"><g transform="translate(152.160166, 278.166647)"><g><path d="M 12.5625 0.96875 C 10.304688 2.496094 9.015625 3.300781 7.007812 2.492188 L 3.605469 1.117188 L 5.984375 -4.777344 L 8.515625 -3.753906 C 10.433594 -2.980469 10.78125 -2.273438 10.675781 -0.761719 L 12.265625 -4.703125 C 11.289062 -3.542969 10.550781 -3.273438 8.632812 -4.046875 L 6.101562 -5.066406 L 8.480469 -10.960938 L 11.519531 -9.738281 C 13.527344 -8.925781 13.902344 -7.722656 14.421875 -5.515625 L 14.507812 -5.523438 L 15.070312 -8.640625 L 5.378906 -12.550781 L 5.339844 -12.460938 C 6.046875 -12.070312 6.597656 -11.617188 6.335938 -10.964844 L 2.207031 -0.730469 C 1.945312 -0.078125 1.160156 0.046875 0.308594 0.0195312 L 0.269531 0.109375 L 9.601562 3.875 L 10.058594 4.519531 L 10.328125 4.164062 L 12.621094 1.03125 Z M 12.5625 0.96875 "/></g></g></g><g fill="#000000" fill-opacity="1"><g transform="translate(174.97433, 285.637901)"><g><path d="M 7.523438 -6.976562 C 5.542969 -7.671875 3.738281 -8.546875 3.988281 -10.753906 C 4.136719 -12.070312 4.925781 -13.121094 6.765625 -12.910156 C 8.933594 -12.664062 10.753906 -10.886719 10.148438 -8.308594 L 12.183594 -10.84375 C 11.269531 -11.949219 9.882812 -12.890625 7.675781 -13.140625 C 4.632812 -13.488281 2.566406 -12.230469 2.3125 -9.984375 C 2.132812 -8.414062 2.835938 -6.488281 6.398438 -5.199219 C 8.644531 -4.394531 10.058594 -3.707031 9.835938 -1.75 C 9.691406 -0.488281 8.921875 0.933594 6.695312 0.679688 C 4.386719 0.417969 2.355469 -1.382812 2.941406 -3.964844 L 0.949219 -1.460938 C 1.882812 -0.335938 3.535156 0.675781 5.800781 0.933594 C 9.210938 1.320312 11.226562 -0.335938 11.472656 -2.523438 C 11.628906 -3.878906 11.148438 -5.703125 7.523438 -6.976562 Z M 7.523438 -6.976562 "/></g></g></g><g fill="#000000" fill-opacity="1"><g transform="translate(198.16627, 286.605765)"><g><path d="M 0.289062 -0.0351562 L 5.210938 -0.601562 L 5.199219 -0.699219 C 4.394531 -0.703125 3.691406 -0.839844 3.609375 -1.535156 L 2.296875 -12.890625 C 2.214844 -13.585938 2.871094 -13.878906 3.652344 -14.066406 L 3.640625 -14.164062 L -1.277344 -13.59375 L -1.265625 -13.496094 C -0.460938 -13.492188 0.242188 -13.359375 0.320312 -12.660156 L 1.636719 -1.308594 C 1.714844 -0.609375 1.0625 -0.320312 0.28125 -0.128906 Z M 0.289062 -0.0351562 "/></g></g></g><g fill="#000000" fill-opacity="1"><g transform="translate(215.024233, 283.829092)"><g><path d="M 12.257812 -11.007812 L 12.222656 -11.097656 L 5.59375 -8.558594 L 5.316406 -8.199219 C 8.464844 -9.300781 9.136719 -9.457031 9.386719 -8.800781 L 10.558594 -5.742188 C 10.316406 -4.957031 9.714844 -4.351562 8.605469 -3.925781 C 5.199219 -2.621094 1.460938 -4.738281 0.0117188 -8.523438 C -1.296875 -11.929688 0.0429688 -14.488281 2.480469 -15.425781 C 5.304688 -16.507812 7.703125 -14.773438 7.648438 -11.976562 L 7.707031 -11.980469 L 8.785156 -16.089844 C 7.558594 -16.785156 5.558594 -17.042969 3.207031 -16.144531 C -0.542969 -14.703125 -3.238281 -10.894531 -1.625 -6.6875 C -0.125 -2.773438 4.121094 -1.289062 7.601562 -2.621094 C 9.164062 -3.222656 10.210938 -4.25 10.6875 -5.414062 L 10.945312 -4.195312 L 14.367188 -5.507812 L 14.332031 -5.601562 C 13.550781 -5.40625 12.835938 -5.359375 12.585938 -6.015625 L 11.246094 -9.511719 C 10.992188 -10.167969 11.546875 -10.628906 12.257812 -11.007812 Z M 12.257812 -11.007812 "/></g></g></g><g fill="#000000" fill-opacity="1"><g transform="translate(239.89754, 272.246205)"><g><path d="M -0.136719 -17.324219 L -0.0742188 -17.246094 C 0.609375 -17.667969 1.519531 -17.621094 3.171875 -15.542969 L 7.574219 -10 L -4.550781 -12.472656 C -5.164062 -12.585938 -5.519531 -12.75 -5.773438 -12.847656 L -8.335938 -10.8125 C -7.65625 -10.953125 -6.992188 -10.90625 -5.988281 -10.707031 L -0.363281 -3.621094 C 1.289062 -1.546875 0.886719 -0.953125 0.320312 -0.378906 L 0.382812 -0.304688 L 3.007812 -2.390625 L 2.949219 -2.464844 C 2.261719 -2.042969 1.351562 -2.09375 -0.300781 -4.171875 L -5.394531 -10.585938 L 10.21875 -7.417969 L 10.226562 -7.472656 C 9.757812 -8 9.082031 -8.757812 7.820312 -10.347656 L 3.25 -16.101562 C 1.597656 -18.179688 2 -18.773438 2.566406 -19.347656 L 2.503906 -19.421875 Z M -0.136719 -17.324219 "/></g></g></g><g fill="#000000" fill-opacity="1"><g transform="translate(120.244585, 101.565212)"><g><path d="M -0.875 -5.625 L -3 -10.234375 C -3.957031 -12.316406 -4.796875 -14.015625 -5.515625 -15.328125 C -5.203125 -15.535156 -4.8125 -15.75 -4.34375 -15.96875 C -3.382812 -16.40625 -2.773438 -16.335938 -2.515625 -15.765625 C -2.472656 -15.679688 -2.347656 -15.375 -2.140625 -14.84375 C -1.941406 -14.320312 -1.675781 -13.671875 -1.34375 -12.890625 C -1.019531 -12.117188 -0.703125 -11.390625 -0.390625 -10.703125 L 0.484375 -8.796875 C 1.835938 -5.859375 2.707031 -4.097656 3.09375 -3.515625 C 3.695312 -3.765625 4.175781 -3.96875 4.53125 -4.125 C 6.71875 -5.125 8.054688 -5.945312 8.546875 -6.59375 C 8.847656 -6.332031 9.085938 -6 9.265625 -5.59375 C 9.492188 -5.113281 9.453125 -4.710938 9.140625 -4.390625 C 8.828125 -4.078125 8.234375 -3.722656 7.359375 -3.328125 L 5.421875 -2.4375 C 4.097656 -1.832031 3.101562 -1.394531 2.4375 -1.125 C 2.019531 -0.957031 1.6875 -0.929688 1.4375 -1.046875 C 1.195312 -1.160156 0.972656 -1.445312 0.765625 -1.90625 C 0.660156 -2.144531 0.421875 -2.691406 0.046875 -3.546875 C -0.328125 -4.410156 -0.632812 -5.101562 -0.875 -5.625 Z M -0.875 -5.625 "/></g></g></g><g fill="#000000" fill-opacity="1"><g transform="translate(142.897471, 92.18018)"><g><path d="M 8.515625 -1.953125 C 6.242188 -1.359375 4.242188 -1.617188 2.515625 -2.734375 C 0.785156 -3.847656 -0.394531 -5.640625 -1.03125 -8.109375 C -1.664062 -10.578125 -1.492188 -12.71875 -0.515625 -14.53125 C 0.453125 -16.34375 2.070312 -17.546875 4.34375 -18.140625 C 6.65625 -18.734375 8.675781 -18.472656 10.40625 -17.359375 C 12.132812 -16.242188 13.316406 -14.453125 13.953125 -11.984375 C 14.585938 -9.515625 14.414062 -7.375 13.4375 -5.5625 C 12.457031 -3.75 10.816406 -2.546875 8.515625 -1.953125 Z M 11.375 -10.875 C 11.082031 -12.019531 10.664062 -13.03125 10.125 -13.90625 C 9.59375 -14.78125 8.863281 -15.460938 7.9375 -15.953125 C 7.007812 -16.453125 5.984375 -16.554688 4.859375 -16.265625 C 3.398438 -15.890625 2.367188 -15.070312 1.765625 -13.8125 C 1.160156 -12.550781 1.066406 -11.109375 1.484375 -9.484375 C 1.785156 -8.304688 2.210938 -7.253906 2.765625 -6.328125 C 3.316406 -5.398438 4.0625 -4.679688 5 -4.171875 C 5.9375 -3.660156 6.957031 -3.546875 8.0625 -3.828125 C 9.59375 -4.222656 10.640625 -5.066406 11.203125 -6.359375 C 11.765625 -7.648438 11.820312 -9.15625 11.375 -10.875 Z M 11.375 -10.875 "/></g></g></g><g fill="#000000" fill-opacity="1"><g transform="translate(173.409456, 85.756475)"><g><path d="M 0.546875 -16.171875 C 0.953125 -16.328125 1.425781 -16.421875 1.96875 -16.453125 C 2.59375 -16.492188 3.046875 -16.425781 3.328125 -16.25 C 3.617188 -16.082031 3.78125 -15.769531 3.8125 -15.3125 C 3.851562 -14.644531 3.882812 -13.144531 3.90625 -10.8125 C 3.925781 -8.488281 3.972656 -6.679688 4.046875 -5.390625 C 4.117188 -4.296875 4.453125 -3.5 5.046875 -3 C 5.648438 -2.5 6.332031 -2.269531 7.09375 -2.3125 C 7.789062 -2.351562 8.519531 -2.578125 9.28125 -2.984375 C 10.039062 -3.390625 10.640625 -3.859375 11.078125 -4.390625 L 11.03125 -5.15625 C 11.007812 -5.550781 10.96875 -6.257812 10.90625 -7.28125 C 10.851562 -8.300781 10.78125 -9.613281 10.6875 -11.21875 C 10.550781 -13.476562 10.382812 -15.351562 10.1875 -16.84375 C 10.6875 -16.9375 11.132812 -17 11.53125 -17.03125 C 12.582031 -17.09375 13.128906 -16.8125 13.171875 -16.1875 C 13.171875 -16.15625 13.164062 -15.847656 13.15625 -15.265625 C 13.15625 -14.691406 13.175781 -13.800781 13.21875 -12.59375 C 13.257812 -11.382812 13.328125 -9.976562 13.421875 -8.375 C 13.578125 -5.851562 13.703125 -4.164062 13.796875 -3.3125 C 13.898438 -2.457031 14.082031 -1.679688 14.34375 -0.984375 C 13.976562 -0.828125 13.476562 -0.726562 12.84375 -0.6875 C 12.25 -0.65625 11.832031 -0.734375 11.59375 -0.921875 C 11.351562 -1.109375 11.21875 -1.484375 11.1875 -2.046875 L 11.15625 -2.515625 C 10.5625 -1.847656 9.828125 -1.296875 8.953125 -0.859375 C 8.085938 -0.429688 7.285156 -0.195312 6.546875 -0.15625 C 5.054688 -0.0625 3.851562 -0.347656 2.9375 -1.015625 C 2.03125 -1.691406 1.519531 -2.945312 1.40625 -4.78125 C 1.351562 -5.738281 1.3125 -7.046875 1.28125 -8.703125 C 1.257812 -10.359375 1.222656 -11.578125 1.171875 -12.359375 C 1.085938 -13.898438 0.878906 -15.171875 0.546875 -16.171875 Z M 0.546875 -16.171875 "/></g></g></g><g fill="#000000" fill-opacity="1"><g transform="translate(202.956581, 85.471588)"><g><path d="M 2.09375 -5.46875 L 2.578125 -10.359375 C 2.796875 -12.609375 2.921875 -14.476562 2.953125 -15.96875 C 3.441406 -16.007812 3.875 -16.007812 4.25 -15.96875 C 5.332031 -15.863281 5.84375 -15.5 5.78125 -14.875 C 5.769531 -14.78125 5.722656 -14.457031 5.640625 -13.90625 C 5.554688 -13.351562 5.457031 -12.65625 5.34375 -11.8125 C 5.226562 -10.976562 5.132812 -10.1875 5.0625 -9.4375 L 4.578125 -4.53125 C 4.367188 -2.363281 4.367188 -0.757812 4.578125 0.28125 C 4.109375 0.394531 3.597656 0.425781 3.046875 0.375 C 2.441406 0.3125 2.039062 0.164062 1.84375 -0.0625 C 1.65625 -0.300781 1.582031 -0.675781 1.625 -1.1875 C 1.65625 -1.425781 1.726562 -2.054688 1.84375 -3.078125 C 1.957031 -4.109375 2.039062 -4.90625 2.09375 -5.46875 Z M 2.09375 -5.46875 "/></g></g></g><g fill="#000000" fill-opacity="1"><g transform="translate(222.602577, 88.176467)"><g><path d="M 12.734375 -9.625 C 12.640625 -10.28125 12.316406 -10.890625 11.765625 -11.453125 C 11.210938 -12.015625 10.59375 -12.382812 9.90625 -12.5625 C 9.09375 -12.769531 8.363281 -12.738281 7.71875 -12.46875 C 7.070312 -12.207031 6.648438 -11.691406 6.453125 -10.921875 C 6.328125 -10.441406 6.375 -10 6.59375 -9.59375 C 6.820312 -9.195312 7.15625 -8.847656 7.59375 -8.546875 C 8.03125 -8.242188 8.515625 -7.941406 9.046875 -7.640625 C 9.585938 -7.335938 10.117188 -7.007812 10.640625 -6.65625 C 11.160156 -6.300781 11.628906 -5.921875 12.046875 -5.515625 C 12.472656 -5.117188 12.769531 -4.609375 12.9375 -3.984375 C 13.101562 -3.367188 13.09375 -2.691406 12.90625 -1.953125 C 12.664062 -1.015625 12.300781 -0.242188 11.8125 0.359375 C 11.320312 0.972656 10.742188 1.394531 10.078125 1.625 C 9.421875 1.863281 8.742188 1.988281 8.046875 2 C 7.359375 2.007812 6.632812 1.921875 5.875 1.734375 C 4.5625 1.398438 3.453125 0.867188 2.546875 0.140625 C 1.648438 -0.585938 1.285156 -1.273438 1.453125 -1.921875 C 1.617188 -2.578125 2.210938 -3 3.234375 -3.1875 C 3.390625 -2.519531 3.800781 -1.878906 4.46875 -1.265625 C 5.144531 -0.660156 5.878906 -0.257812 6.671875 -0.0625 C 7.585938 0.164062 8.40625 0.148438 9.125 -0.109375 C 9.84375 -0.367188 10.304688 -0.925781 10.515625 -1.78125 C 10.648438 -2.289062 10.554688 -2.769531 10.234375 -3.21875 C 9.921875 -3.675781 9.484375 -4.066406 8.921875 -4.390625 C 8.367188 -4.710938 7.765625 -5.09375 7.109375 -5.53125 C 6.460938 -5.96875 5.878906 -6.414062 5.359375 -6.875 C 4.835938 -7.34375 4.457031 -7.953125 4.21875 -8.703125 C 3.976562 -9.460938 3.972656 -10.296875 4.203125 -11.203125 C 4.554688 -12.617188 5.359375 -13.578125 6.609375 -14.078125 C 7.867188 -14.585938 9.28125 -14.644531 10.84375 -14.25 C 11.507812 -14.082031 12.15625 -13.832031 12.78125 -13.5 C 13.40625 -13.164062 13.914062 -12.75 14.3125 -12.25 C 14.707031 -11.757812 14.847656 -11.273438 14.734375 -10.796875 C 14.523438 -9.960938 13.859375 -9.570312 12.734375 -9.625 Z M 12.734375 -9.625 "/></g></g></g><g fill="#000000" fill-opacity="1"><g transform="translate(248.189359, 95.799098)"><g><path d="M 11.09375 -2.390625 C 11.144531 -3.109375 11.207031 -3.84375 11.28125 -4.59375 C 11.363281 -5.351562 11.457031 -6.164062 11.5625 -7.03125 C 11.664062 -7.894531 11.738281 -8.488281 11.78125 -8.8125 C 10.0625 -6.882812 8.570312 -5.3125 7.3125 -4.09375 C 8.25 -3.65625 8.972656 -3.320312 9.484375 -3.09375 C 10.265625 -2.75 10.800781 -2.515625 11.09375 -2.390625 Z M 8.265625 -1.640625 C 7.867188 -1.816406 7.070312 -2.191406 5.875 -2.765625 C 3.789062 -0.710938 2.453125 0.671875 1.859375 1.390625 C 0.597656 0.648438 0.0703125 0.0507812 0.28125 -0.40625 C 0.375 -0.625 1.066406 -1.328125 2.359375 -2.515625 C 3.660156 -3.710938 5.28125 -5.253906 7.21875 -7.140625 C 9.15625 -9.035156 10.78125 -10.753906 12.09375 -12.296875 C 12.414062 -12.210938 12.8125 -12.0625 13.28125 -11.84375 C 13.675781 -11.675781 13.941406 -11.460938 14.078125 -11.203125 C 14.222656 -10.941406 14.269531 -10.539062 14.21875 -10 C 13.78125 -5.914062 13.519531 -3.082031 13.4375 -1.5 C 13.25 1.90625 13.191406 4.296875 13.265625 5.671875 C 12.566406 5.703125 12.023438 5.632812 11.640625 5.46875 C 11.015625 5.1875 10.664062 4.785156 10.59375 4.265625 C 10.632812 3.742188 10.695312 2.957031 10.78125 1.90625 C 10.863281 0.863281 10.921875 0.0625 10.953125 -0.5 C 9.472656 -1.125 8.578125 -1.503906 8.265625 -1.640625 Z M 8.265625 -1.640625 "/></g></g></g><g fill="#000000" fill-opacity="1"><g transform="translate(76.007769, 177.618387)"><g><path d="M 1.0625 -0.296875 L 1.078125 -1.28125 L 1.078125 -2.375 C 1.078125 -2.71875 1.070312 -3.035156 1.0625 -3.328125 C 0.539062 -3.328125 0.191406 -3.316406 0.015625 -3.296875 C 0.00390625 -3.328125 0 -3.378906 0 -3.453125 C 0 -3.523438 0.015625 -3.570312 0.046875 -3.59375 C 0.0859375 -3.625 0.148438 -3.640625 0.234375 -3.640625 C 0.328125 -3.640625 0.523438 -3.640625 0.828125 -3.640625 L 1.484375 -3.640625 C 2.066406 -3.640625 2.421875 -3.644531 2.546875 -3.65625 C 2.554688 -3.625 2.5625 -3.578125 2.5625 -3.515625 C 2.5625 -3.441406 2.539062 -3.390625 2.5 -3.359375 C 2.46875 -3.335938 2.398438 -3.328125 2.296875 -3.328125 C 2.203125 -3.328125 1.945312 -3.328125 1.53125 -3.328125 C 1.507812 -2.796875 1.5 -2.429688 1.5 -2.234375 L 1.5 -1.125 C 1.5 -0.625 1.53125 -0.257812 1.59375 -0.03125 C 1.53125 0 1.445312 0.015625 1.34375 0.015625 C 1.226562 0.015625 1.148438 -0.00390625 1.109375 -0.046875 C 1.078125 -0.0976562 1.0625 -0.179688 1.0625 -0.296875 Z M 1.0625 -0.296875 "/></g></g></g><g fill="#000000" fill-opacity="1"><g transform="translate(79.620641, 177.618387)"><g><path d="M 0.421875 -0.296875 L 0.4375 -1.28125 L 0.4375 -2.375 C 0.4375 -2.882812 0.410156 -3.304688 0.359375 -3.640625 C 0.628906 -3.691406 0.90625 -3.71875 1.1875 -3.71875 C 2.164062 -3.71875 2.65625 -3.347656 2.65625 -2.609375 C 2.65625 -2.304688 2.570312 -2.0625 2.40625 -1.875 C 2.25 -1.695312 2.035156 -1.582031 1.765625 -1.53125 C 1.765625 -1.519531 1.796875 -1.445312 1.859375 -1.3125 C 1.921875 -1.1875 1.960938 -1.101562 1.984375 -1.0625 C 2.003906 -1.019531 2.039062 -0.945312 2.09375 -0.84375 C 2.1875 -0.65625 2.269531 -0.53125 2.34375 -0.46875 C 2.4375 -0.351562 2.554688 -0.296875 2.703125 -0.296875 C 2.742188 -0.296875 2.789062 -0.304688 2.84375 -0.328125 C 2.875 -0.253906 2.890625 -0.195312 2.890625 -0.15625 C 2.890625 -0.0195312 2.753906 0.046875 2.484375 0.046875 C 2.328125 0.046875 2.1875 -0.0234375 2.0625 -0.171875 C 1.988281 -0.242188 1.925781 -0.3125 1.875 -0.375 C 1.832031 -0.4375 1.773438 -0.535156 1.703125 -0.671875 C 1.628906 -0.804688 1.578125 -0.898438 1.546875 -0.953125 C 1.515625 -1.015625 1.460938 -1.117188 1.390625 -1.265625 C 1.328125 -1.421875 1.289062 -1.507812 1.28125 -1.53125 C 1.175781 -1.550781 1.125 -1.59375 1.125 -1.65625 C 1.125 -1.6875 1.132812 -1.734375 1.15625 -1.796875 C 1.257812 -1.785156 1.34375 -1.78125 1.40625 -1.78125 C 1.65625 -1.78125 1.847656 -1.851562 1.984375 -2 C 2.128906 -2.144531 2.203125 -2.351562 2.203125 -2.625 C 2.203125 -2.894531 2.125 -3.085938 1.96875 -3.203125 C 1.8125 -3.316406 1.570312 -3.375 1.25 -3.375 C 1.132812 -3.375 0.992188 -3.367188 0.828125 -3.359375 C 0.835938 -3.140625 0.84375 -2.765625 0.84375 -2.234375 L 0.84375 -1.125 C 0.84375 -0.625 0.878906 -0.257812 0.953125 -0.03125 C 0.890625 0 0.800781 0.015625 0.6875 0.015625 C 0.582031 0.015625 0.507812 -0.00390625 0.46875 -0.046875 C 0.4375 -0.0976562 0.421875 -0.179688 0.421875 -0.296875 Z M 0.421875 -0.296875 "/></g></g></g><g fill="#000000" fill-opacity="1"><g transform="translate(83.591803, 177.618387)"><g><path d="M 2.140625 -1.484375 C 2.015625 -1.804688 1.828125 -2.359375 1.578125 -3.140625 C 1.535156 -3.054688 1.445312 -2.820312 1.3125 -2.4375 C 1.175781 -2.050781 1.054688 -1.734375 0.953125 -1.484375 C 1.242188 -1.472656 1.488281 -1.46875 1.6875 -1.46875 C 1.875 -1.46875 2.023438 -1.472656 2.140625 -1.484375 Z M 2.25 -1.15625 C 1.84375 -1.144531 1.59375 -1.140625 1.5 -1.140625 C 1.414062 -1.140625 1.191406 -1.144531 0.828125 -1.15625 C 0.578125 -0.53125 0.421875 -0.109375 0.359375 0.109375 C 0.234375 0.0859375 0.144531 0.0625 0.09375 0.03125 C 0.0507812 0 0.03125 -0.0390625 0.03125 -0.09375 C 0.03125 -0.144531 0.109375 -0.351562 0.265625 -0.71875 C 0.796875 -1.96875 1.160156 -2.941406 1.359375 -3.640625 C 1.429688 -3.648438 1.507812 -3.65625 1.59375 -3.65625 C 1.6875 -3.65625 1.75 -3.640625 1.78125 -3.609375 C 1.820312 -3.578125 1.863281 -3.492188 1.90625 -3.359375 C 2.132812 -2.617188 2.363281 -1.941406 2.59375 -1.328125 C 2.832031 -0.722656 3.015625 -0.296875 3.140625 -0.046875 C 3.035156 0.015625 2.945312 0.046875 2.875 0.046875 C 2.757812 0.046875 2.679688 0 2.640625 -0.09375 C 2.566406 -0.269531 2.4375 -0.625 2.25 -1.15625 Z M 2.25 -1.15625 "/></g></g></g><g fill="#000000" fill-opacity="1"><g transform="translate(87.678805, 177.618387)"><g><path d="M 2.671875 -0.65625 C 2.648438 -0.914062 2.640625 -1.378906 2.640625 -2.046875 L 2.640625 -2.375 C 2.640625 -2.894531 2.628906 -3.320312 2.609375 -3.65625 C 2.671875 -3.664062 2.726562 -3.671875 2.78125 -3.671875 C 2.957031 -3.671875 3.046875 -3.601562 3.046875 -3.46875 C 3.046875 -3.445312 3.039062 -3.375 3.03125 -3.25 C 3.007812 -2.863281 3 -2.523438 3 -2.234375 L 3 -1.28125 C 3 -0.757812 3.007812 -0.332031 3.03125 0 C 2.976562 0.0078125 2.921875 0.015625 2.859375 0.015625 C 2.734375 0.015625 2.632812 -0.03125 2.5625 -0.125 C 2.414062 -0.363281 2.15625 -0.8125 1.78125 -1.46875 C 1.414062 -2.125 1.097656 -2.648438 0.828125 -3.046875 C 0.828125 -2.898438 0.828125 -2.257812 0.828125 -1.125 C 0.828125 -0.625 0.863281 -0.257812 0.9375 -0.03125 C 0.863281 0 0.785156 0.015625 0.703125 0.015625 C 0.609375 0.015625 0.539062 -0.00390625 0.5 -0.046875 C 0.46875 -0.0976562 0.453125 -0.179688 0.453125 -0.296875 L 0.46875 -1.28125 L 0.46875 -2.375 C 0.46875 -2.988281 0.429688 -3.410156 0.359375 -3.640625 C 0.429688 -3.660156 0.507812 -3.671875 0.59375 -3.671875 C 0.6875 -3.671875 0.753906 -3.660156 0.796875 -3.640625 C 0.953125 -3.546875 1.234375 -3.160156 1.640625 -2.484375 C 2.046875 -1.816406 2.390625 -1.207031 2.671875 -0.65625 Z M 2.671875 -0.65625 "/></g></g></g><g fill="#000000" fill-opacity="1"><g transform="translate(92.196834, 177.618387)"><g><path d="M 2.21875 -2.9375 C 2.144531 -3.0625 2.023438 -3.160156 1.859375 -3.234375 C 1.703125 -3.316406 1.535156 -3.359375 1.359375 -3.359375 C 1.179688 -3.359375 1.03125 -3.304688 0.90625 -3.203125 C 0.78125 -3.097656 0.71875 -2.960938 0.71875 -2.796875 C 0.71875 -2.617188 0.765625 -2.476562 0.859375 -2.375 C 0.953125 -2.28125 1.066406 -2.210938 1.203125 -2.171875 C 1.335938 -2.128906 1.488281 -2.082031 1.65625 -2.03125 C 1.820312 -1.976562 1.972656 -1.921875 2.109375 -1.859375 C 2.253906 -1.804688 2.375 -1.707031 2.46875 -1.5625 C 2.5625 -1.414062 2.609375 -1.242188 2.609375 -1.046875 C 2.609375 -0.835938 2.570312 -0.660156 2.5 -0.515625 C 2.425781 -0.367188 2.328125 -0.257812 2.203125 -0.1875 C 1.960938 -0.03125 1.6875 0.046875 1.375 0.046875 C 1.0625 0.046875 0.796875 0 0.578125 -0.09375 C 0.359375 -0.195312 0.25 -0.320312 0.25 -0.46875 C 0.25 -0.550781 0.296875 -0.617188 0.390625 -0.671875 C 0.421875 -0.691406 0.46875 -0.71875 0.53125 -0.75 C 0.601562 -0.613281 0.726562 -0.503906 0.90625 -0.421875 C 1.082031 -0.335938 1.269531 -0.296875 1.46875 -0.296875 C 1.664062 -0.296875 1.835938 -0.347656 1.984375 -0.453125 C 2.140625 -0.566406 2.21875 -0.722656 2.21875 -0.921875 C 2.21875 -1.109375 2.148438 -1.25 2.015625 -1.34375 C 1.890625 -1.445312 1.734375 -1.523438 1.546875 -1.578125 C 1.359375 -1.628906 1.171875 -1.6875 0.984375 -1.75 C 0.796875 -1.8125 0.632812 -1.914062 0.5 -2.0625 C 0.375 -2.21875 0.3125 -2.414062 0.3125 -2.65625 C 0.3125 -3 0.421875 -3.257812 0.640625 -3.4375 C 0.867188 -3.625 1.15625 -3.71875 1.5 -3.71875 C 1.75 -3.71875 1.984375 -3.671875 2.203125 -3.578125 C 2.421875 -3.492188 2.53125 -3.375 2.53125 -3.21875 C 2.53125 -3.070312 2.425781 -2.976562 2.21875 -2.9375 Z M 2.21875 -2.9375 "/></g></g></g><g fill="#000000" fill-opacity="1"><g transform="translate(96.103342, 177.618387)"><g><path d="M 0.4375 -0.296875 L 0.4375 -2.34375 C 0.4375 -2.863281 0.410156 -3.289062 0.359375 -3.625 C 0.753906 -3.65625 1.1875 -3.671875 1.65625 -3.671875 C 2.125 -3.671875 2.390625 -3.644531 2.453125 -3.59375 C 2.492188 -3.5625 2.515625 -3.507812 2.515625 -3.4375 C 2.515625 -3.351562 2.5 -3.273438 2.46875 -3.203125 C 2.257812 -3.285156 1.914062 -3.328125 1.4375 -3.328125 C 1.238281 -3.328125 1.035156 -3.316406 0.828125 -3.296875 C 0.847656 -3.140625 0.859375 -2.921875 0.859375 -2.640625 L 0.859375 -2.078125 L 1.296875 -2.078125 C 1.597656 -2.078125 1.816406 -2.082031 1.953125 -2.09375 C 1.960938 -2.070312 1.96875 -2.015625 1.96875 -1.921875 C 1.96875 -1.835938 1.9375 -1.785156 1.875 -1.765625 C 1.820312 -1.742188 1.691406 -1.734375 1.484375 -1.734375 L 0.859375 -1.734375 L 0.859375 -1.125 C 0.859375 -0.625 0.890625 -0.257812 0.953125 -0.03125 C 0.890625 0 0.804688 0.015625 0.703125 0.015625 C 0.597656 0.015625 0.523438 -0.00390625 0.484375 -0.046875 C 0.453125 -0.0976562 0.4375 -0.179688 0.4375 -0.296875 Z M 0.4375 -0.296875 "/></g></g></g><g fill="#000000" fill-opacity="1"><g transform="translate(99.662335, 177.618387)"><g><path d="M 3.65625 -1.828125 C 3.65625 -1.253906 3.5 -0.796875 3.1875 -0.453125 C 2.882812 -0.117188 2.472656 0.046875 1.953125 0.046875 C 1.441406 0.046875 1.03125 -0.117188 0.71875 -0.453125 C 0.414062 -0.796875 0.265625 -1.253906 0.265625 -1.828125 C 0.265625 -2.398438 0.414062 -2.859375 0.71875 -3.203125 C 1.03125 -3.546875 1.441406 -3.71875 1.953125 -3.71875 C 2.472656 -3.71875 2.882812 -3.546875 3.1875 -3.203125 C 3.5 -2.859375 3.65625 -2.398438 3.65625 -1.828125 Z M 2.921875 -2.84375 C 2.828125 -3 2.695312 -3.125 2.53125 -3.21875 C 2.363281 -3.320312 2.175781 -3.375 1.96875 -3.375 C 1.582031 -3.375 1.273438 -3.242188 1.046875 -2.984375 C 0.828125 -2.722656 0.71875 -2.394531 0.71875 -2 C 0.71875 -1.5625 0.8125 -1.171875 1 -0.828125 C 1.09375 -0.660156 1.21875 -0.523438 1.375 -0.421875 C 1.539062 -0.328125 1.734375 -0.28125 1.953125 -0.28125 C 2.347656 -0.28125 2.648438 -0.410156 2.859375 -0.671875 C 3.078125 -0.941406 3.1875 -1.289062 3.1875 -1.71875 C 3.1875 -2.144531 3.097656 -2.519531 2.921875 -2.84375 Z M 2.921875 -2.84375 "/></g></g></g><g fill="#000000" fill-opacity="1"><g transform="translate(104.63833, 177.618387)"><g><path d="M 0.421875 -0.296875 L 0.4375 -1.28125 L 0.4375 -2.375 C 0.4375 -2.882812 0.410156 -3.304688 0.359375 -3.640625 C 0.628906 -3.691406 0.90625 -3.71875 1.1875 -3.71875 C 2.164062 -3.71875 2.65625 -3.347656 2.65625 -2.609375 C 2.65625 -2.304688 2.570312 -2.0625 2.40625 -1.875 C 2.25 -1.695312 2.035156 -1.582031 1.765625 -1.53125 C 1.765625 -1.519531 1.796875 -1.445312 1.859375 -1.3125 C 1.921875 -1.1875 1.960938 -1.101562 1.984375 -1.0625 C 2.003906 -1.019531 2.039062 -0.945312 2.09375 -0.84375 C 2.1875 -0.65625 2.269531 -0.53125 2.34375 -0.46875 C 2.4375 -0.351562 2.554688 -0.296875 2.703125 -0.296875 C 2.742188 -0.296875 2.789062 -0.304688 2.84375 -0.328125 C 2.875 -0.253906 2.890625 -0.195312 2.890625 -0.15625 C 2.890625 -0.0195312 2.753906 0.046875 2.484375 0.046875 C 2.328125 0.046875 2.1875 -0.0234375 2.0625 -0.171875 C 1.988281 -0.242188 1.925781 -0.3125 1.875 -0.375 C 1.832031 -0.4375 1.773438 -0.535156 1.703125 -0.671875 C 1.628906 -0.804688 1.578125 -0.898438 1.546875 -0.953125 C 1.515625 -1.015625 1.460938 -1.117188 1.390625 -1.265625 C 1.328125 -1.421875 1.289062 -1.507812 1.28125 -1.53125 C 1.175781 -1.550781 1.125 -1.59375 1.125 -1.65625 C 1.125 -1.6875 1.132812 -1.734375 1.15625 -1.796875 C 1.257812 -1.785156 1.34375 -1.78125 1.40625 -1.78125 C 1.65625 -1.78125 1.847656 -1.851562 1.984375 -2 C 2.128906 -2.144531 2.203125 -2.351562 2.203125 -2.625 C 2.203125 -2.894531 2.125 -3.085938 1.96875 -3.203125 C 1.8125 -3.316406 1.570312 -3.375 1.25 -3.375 C 1.132812 -3.375 0.992188 -3.367188 0.828125 -3.359375 C 0.835938 -3.140625 0.84375 -2.765625 0.84375 -2.234375 L 0.84375 -1.125 C 0.84375 -0.625 0.878906 -0.257812 0.953125 -0.03125 C 0.890625 0 0.800781 0.015625 0.6875 0.015625 C 0.582031 0.015625 0.507812 -0.00390625 0.46875 -0.046875 C 0.4375 -0.0976562 0.421875 -0.179688 0.421875 -0.296875 Z M 0.421875 -0.296875 "/></g></g></g><g fill="#000000" fill-opacity="1"><g transform="translate(108.609494, 177.618387)"><g><path d="M 0.453125 -0.296875 L 0.46875 -1.28125 L 0.46875 -2.65625 C 0.46875 -3.070312 0.429688 -3.398438 0.359375 -3.640625 C 0.484375 -3.660156 0.59375 -3.671875 0.6875 -3.671875 C 0.84375 -3.671875 0.972656 -3.585938 1.078125 -3.421875 C 1.222656 -3.160156 1.367188 -2.847656 1.515625 -2.484375 C 1.660156 -2.128906 1.773438 -1.828125 1.859375 -1.578125 C 1.941406 -1.335938 2.054688 -0.976562 2.203125 -0.5 C 2.316406 -0.957031 2.46875 -1.453125 2.65625 -1.984375 C 2.851562 -2.515625 3.070312 -2.992188 3.3125 -3.421875 C 3.414062 -3.585938 3.550781 -3.671875 3.71875 -3.671875 C 3.84375 -3.671875 3.945312 -3.660156 4.03125 -3.640625 C 3.957031 -3.410156 3.921875 -3 3.921875 -2.40625 L 3.921875 -1.125 C 3.921875 -0.625 3.957031 -0.257812 4.03125 -0.03125 C 3.96875 0 3.878906 0.015625 3.765625 0.015625 C 3.660156 0.015625 3.585938 -0.00390625 3.546875 -0.046875 C 3.515625 -0.0976562 3.5 -0.160156 3.5 -0.234375 C 3.5 -0.304688 3.503906 -0.457031 3.515625 -0.6875 C 3.515625 -1.375 3.515625 -2.171875 3.515625 -3.078125 C 3.171875 -2.398438 2.800781 -1.378906 2.40625 -0.015625 C 2.363281 0.00390625 2.3125 0.015625 2.25 0.015625 C 2.113281 0.015625 2.023438 -0.03125 1.984375 -0.125 C 1.890625 -0.332031 1.71875 -0.773438 1.46875 -1.453125 C 1.226562 -2.140625 1.015625 -2.675781 0.828125 -3.0625 L 0.828125 -1.125 C 0.828125 -0.625 0.863281 -0.257812 0.9375 -0.03125 C 0.863281 0 0.785156 0.015625 0.703125 0.015625 C 0.609375 0.015625 0.539062 -0.00390625 0.5 -0.046875 C 0.46875 -0.0976562 0.453125 -0.179688 0.453125 -0.296875 Z M 0.453125 -0.296875 "/></g></g></g><g fill="#000000" fill-opacity="1"><g transform="translate(114.054232, 177.618387)"><g><path d="M 2.140625 -1.484375 C 2.015625 -1.804688 1.828125 -2.359375 1.578125 -3.140625 C 1.535156 -3.054688 1.445312 -2.820312 1.3125 -2.4375 C 1.175781 -2.050781 1.054688 -1.734375 0.953125 -1.484375 C 1.242188 -1.472656 1.488281 -1.46875 1.6875 -1.46875 C 1.875 -1.46875 2.023438 -1.472656 2.140625 -1.484375 Z M 2.25 -1.15625 C 1.84375 -1.144531 1.59375 -1.140625 1.5 -1.140625 C 1.414062 -1.140625 1.191406 -1.144531 0.828125 -1.15625 C 0.578125 -0.53125 0.421875 -0.109375 0.359375 0.109375 C 0.234375 0.0859375 0.144531 0.0625 0.09375 0.03125 C 0.0507812 0 0.03125 -0.0390625 0.03125 -0.09375 C 0.03125 -0.144531 0.109375 -0.351562 0.265625 -0.71875 C 0.796875 -1.96875 1.160156 -2.941406 1.359375 -3.640625 C 1.429688 -3.648438 1.507812 -3.65625 1.59375 -3.65625 C 1.6875 -3.65625 1.75 -3.640625 1.78125 -3.609375 C 1.820312 -3.578125 1.863281 -3.492188 1.90625 -3.359375 C 2.132812 -2.617188 2.363281 -1.941406 2.59375 -1.328125 C 2.832031 -0.722656 3.015625 -0.296875 3.140625 -0.046875 C 3.035156 0.015625 2.945312 0.046875 2.875 0.046875 C 2.757812 0.046875 2.679688 0 2.640625 -0.09375 C 2.566406 -0.269531 2.4375 -0.625 2.25 -1.15625 Z M 2.25 -1.15625 "/></g></g></g><g fill="#000000" fill-opacity="1"><g transform="translate(118.14788, 177.618387)"><g/></g></g><g fill="#000000" fill-opacity="1"><g transform="translate(262.404978, 185.66012)"><g><path d="M 0.609375 -0.4375 L 0.609375 -3.265625 C 0.609375 -3.992188 0.570312 -4.59375 0.5 -5.0625 C 1.050781 -5.101562 1.65625 -5.125 2.3125 -5.125 C 2.96875 -5.125 3.34375 -5.085938 3.4375 -5.015625 C 3.476562 -4.972656 3.5 -4.898438 3.5 -4.796875 C 3.5 -4.679688 3.476562 -4.570312 3.4375 -4.46875 C 3.144531 -4.582031 2.671875 -4.640625 2.015625 -4.640625 C 1.742188 -4.640625 1.457031 -4.628906 1.15625 -4.609375 C 1.175781 -4.390625 1.1875 -3.847656 1.1875 -2.984375 L 1.796875 -2.984375 C 2.234375 -2.984375 2.546875 -2.992188 2.734375 -3.015625 C 2.742188 -2.972656 2.75 -2.898438 2.75 -2.796875 C 2.75 -2.691406 2.722656 -2.617188 2.671875 -2.578125 C 2.617188 -2.535156 2.53125 -2.507812 2.40625 -2.5 C 2.28125 -2.5 2.101562 -2.5 1.875 -2.5 L 1.1875 -2.5 C 1.1875 -1.375 1.207031 -0.703125 1.25 -0.484375 C 1.476562 -0.472656 1.660156 -0.46875 1.796875 -0.46875 C 2.660156 -0.46875 3.210938 -0.523438 3.453125 -0.640625 C 3.492188 -0.535156 3.515625 -0.429688 3.515625 -0.328125 C 3.515625 -0.210938 3.488281 -0.132812 3.4375 -0.09375 C 3.351562 -0.0195312 2.960938 0.015625 2.265625 0.015625 C 1.566406 0.015625 1.140625 0.0078125 0.984375 0 C 0.828125 0 0.722656 -0.03125 0.671875 -0.09375 C 0.628906 -0.164062 0.609375 -0.28125 0.609375 -0.4375 Z M 0.609375 -0.4375 "/></g></g></g><g fill="#000000" fill-opacity="1"><g transform="translate(267.614167, 185.66012)"><g><path d="M 3.734375 -0.921875 C 3.703125 -1.285156 3.6875 -1.929688 3.6875 -2.859375 L 3.6875 -3.328125 C 3.6875 -4.046875 3.671875 -4.640625 3.640625 -5.109375 C 3.722656 -5.117188 3.800781 -5.125 3.875 -5.125 C 4.125 -5.125 4.25 -5.03125 4.25 -4.84375 C 4.25 -4.8125 4.242188 -4.707031 4.234375 -4.53125 C 4.203125 -4 4.1875 -3.523438 4.1875 -3.109375 L 4.1875 -1.796875 C 4.1875 -1.066406 4.207031 -0.46875 4.25 0 C 4.164062 0.0078125 4.078125 0.015625 3.984375 0.015625 C 3.816406 0.015625 3.6875 -0.0507812 3.59375 -0.1875 C 3.375 -0.507812 3.003906 -1.128906 2.484375 -2.046875 C 1.972656 -2.960938 1.53125 -3.695312 1.15625 -4.25 C 1.15625 -4.050781 1.15625 -3.15625 1.15625 -1.5625 C 1.15625 -0.863281 1.203125 -0.351562 1.296875 -0.03125 C 1.203125 0 1.097656 0.015625 0.984375 0.015625 C 0.859375 0.015625 0.769531 -0.015625 0.71875 -0.078125 C 0.664062 -0.140625 0.640625 -0.253906 0.640625 -0.421875 L 0.65625 -1.78125 L 0.65625 -3.328125 C 0.65625 -4.179688 0.601562 -4.765625 0.5 -5.078125 C 0.601562 -5.117188 0.71875 -5.140625 0.84375 -5.140625 C 0.957031 -5.140625 1.046875 -5.117188 1.109375 -5.078125 C 1.328125 -4.941406 1.71875 -4.40625 2.28125 -3.46875 C 2.851562 -2.539062 3.335938 -1.691406 3.734375 -0.921875 Z M 3.734375 -0.921875 "/></g></g></g><g fill="#000000" fill-opacity="1"><g transform="translate(273.926072, 185.66012)"><g/></g></g><g fill="#000000" fill-opacity="1"><g transform="translate(277.302418, 185.66012)"><g><path d="M 2.984375 -2.0625 C 2.816406 -2.519531 2.554688 -3.289062 2.203125 -4.375 C 2.148438 -4.257812 2.03125 -3.929688 1.84375 -3.390625 C 1.65625 -2.859375 1.488281 -2.414062 1.34375 -2.0625 C 1.738281 -2.050781 2.070312 -2.046875 2.34375 -2.046875 C 2.613281 -2.046875 2.828125 -2.050781 2.984375 -2.0625 Z M 3.15625 -1.609375 C 2.570312 -1.597656 2.222656 -1.59375 2.109375 -1.59375 C 1.984375 -1.59375 1.660156 -1.597656 1.140625 -1.609375 C 0.796875 -0.742188 0.582031 -0.15625 0.5 0.15625 C 0.332031 0.125 0.210938 0.0820312 0.140625 0.03125 C 0.0664062 -0.0078125 0.03125 -0.0664062 0.03125 -0.140625 C 0.03125 -0.203125 0.144531 -0.492188 0.375 -1.015625 C 1.113281 -2.753906 1.625 -4.109375 1.90625 -5.078125 C 2 -5.097656 2.109375 -5.109375 2.234375 -5.109375 C 2.359375 -5.109375 2.445312 -5.082031 2.5 -5.03125 C 2.550781 -4.988281 2.601562 -4.878906 2.65625 -4.703125 C 2.976562 -3.660156 3.300781 -2.710938 3.625 -1.859375 C 3.957031 -1.015625 4.207031 -0.421875 4.375 -0.078125 C 4.238281 0.0234375 4.117188 0.078125 4.015625 0.078125 C 3.847656 0.078125 3.738281 0.0078125 3.6875 -0.125 C 3.582031 -0.375 3.40625 -0.867188 3.15625 -1.609375 Z M 3.15625 -1.609375 "/></g></g></g><g fill="#000000" fill-opacity="1"><g transform="translate(283.012157, 185.66012)"><g><path d="M 0.59375 -0.421875 L 0.609375 -1.78125 L 0.609375 -3.328125 C 0.609375 -4.023438 0.570312 -4.613281 0.5 -5.09375 C 0.882812 -5.15625 1.269531 -5.1875 1.65625 -5.1875 C 3.03125 -5.1875 3.71875 -4.675781 3.71875 -3.65625 C 3.71875 -3.226562 3.601562 -2.882812 3.375 -2.625 C 3.144531 -2.363281 2.835938 -2.195312 2.453125 -2.125 C 2.453125 -2.125 2.492188 -2.03125 2.578125 -1.84375 C 2.671875 -1.664062 2.734375 -1.546875 2.765625 -1.484375 C 2.804688 -1.421875 2.859375 -1.316406 2.921875 -1.171875 C 3.054688 -0.921875 3.171875 -0.742188 3.265625 -0.640625 C 3.398438 -0.492188 3.566406 -0.421875 3.765625 -0.421875 C 3.828125 -0.421875 3.894531 -0.429688 3.96875 -0.453125 C 4.019531 -0.359375 4.046875 -0.28125 4.046875 -0.21875 C 4.046875 -0.0195312 3.851562 0.078125 3.46875 0.078125 C 3.257812 0.078125 3.0625 -0.0234375 2.875 -0.234375 C 2.78125 -0.347656 2.695312 -0.445312 2.625 -0.53125 C 2.5625 -0.613281 2.476562 -0.75 2.375 -0.9375 C 2.28125 -1.125 2.210938 -1.253906 2.171875 -1.328125 C 2.128906 -1.410156 2.054688 -1.554688 1.953125 -1.765625 C 1.859375 -1.984375 1.800781 -2.109375 1.78125 -2.140625 C 1.644531 -2.160156 1.578125 -2.21875 1.578125 -2.3125 C 1.578125 -2.351562 1.585938 -2.421875 1.609375 -2.515625 C 1.753906 -2.492188 1.875 -2.484375 1.96875 -2.484375 C 2.3125 -2.484375 2.582031 -2.582031 2.78125 -2.78125 C 2.976562 -2.988281 3.078125 -3.28125 3.078125 -3.65625 C 3.078125 -4.039062 2.96875 -4.3125 2.75 -4.46875 C 2.53125 -4.632812 2.195312 -4.71875 1.75 -4.71875 C 1.59375 -4.71875 1.394531 -4.707031 1.15625 -4.6875 C 1.175781 -4.382812 1.1875 -3.859375 1.1875 -3.109375 L 1.1875 -1.5625 C 1.1875 -0.863281 1.234375 -0.351562 1.328125 -0.03125 C 1.234375 0 1.113281 0.015625 0.96875 0.015625 C 0.820312 0.015625 0.722656 -0.015625 0.671875 -0.078125 C 0.617188 -0.140625 0.59375 -0.253906 0.59375 -0.421875 Z M 0.59375 -0.421875 "/></g></g></g><g fill="#000000" fill-opacity="1"><g transform="translate(288.560063, 185.66012)"><g><path d="M 1.5 -0.421875 L 1.515625 -1.78125 L 1.515625 -3.328125 C 1.515625 -3.796875 1.503906 -4.234375 1.484375 -4.640625 C 0.753906 -4.640625 0.265625 -4.628906 0.015625 -4.609375 C 0.00390625 -4.648438 0 -4.722656 0 -4.828125 C 0 -4.921875 0.0234375 -4.984375 0.078125 -5.015625 C 0.128906 -5.054688 0.21875 -5.078125 0.34375 -5.078125 C 0.46875 -5.085938 0.738281 -5.09375 1.15625 -5.09375 L 2.078125 -5.09375 C 2.878906 -5.09375 3.375 -5.097656 3.5625 -5.109375 C 3.570312 -5.066406 3.578125 -5 3.578125 -4.90625 C 3.578125 -4.8125 3.550781 -4.742188 3.5 -4.703125 C 3.445312 -4.671875 3.347656 -4.648438 3.203125 -4.640625 C 3.066406 -4.640625 2.710938 -4.640625 2.140625 -4.640625 C 2.109375 -3.898438 2.09375 -3.390625 2.09375 -3.109375 L 2.09375 -1.5625 C 2.09375 -0.863281 2.140625 -0.351562 2.234375 -0.03125 C 2.140625 0 2.019531 0.015625 1.875 0.015625 C 1.71875 0.015625 1.613281 -0.015625 1.5625 -0.078125 C 1.519531 -0.140625 1.5 -0.253906 1.5 -0.421875 Z M 1.5 -0.421875 "/></g></g></g><g fill="#000000" fill-opacity="1"><g transform="translate(293.607419, 185.66012)"><g><path d="M 0.609375 -0.4375 L 0.609375 -3.265625 C 0.609375 -3.992188 0.570312 -4.59375 0.5 -5.0625 C 1.050781 -5.101562 1.65625 -5.125 2.3125 -5.125 C 2.96875 -5.125 3.34375 -5.085938 3.4375 -5.015625 C 3.476562 -4.972656 3.5 -4.898438 3.5 -4.796875 C 3.5 -4.679688 3.476562 -4.570312 3.4375 -4.46875 C 3.144531 -4.582031 2.671875 -4.640625 2.015625 -4.640625 C 1.742188 -4.640625 1.457031 -4.628906 1.15625 -4.609375 C 1.175781 -4.390625 1.1875 -3.847656 1.1875 -2.984375 L 1.796875 -2.984375 C 2.234375 -2.984375 2.546875 -2.992188 2.734375 -3.015625 C 2.742188 -2.972656 2.75 -2.898438 2.75 -2.796875 C 2.75 -2.691406 2.722656 -2.617188 2.671875 -2.578125 C 2.617188 -2.535156 2.53125 -2.507812 2.40625 -2.5 C 2.28125 -2.5 2.101562 -2.5 1.875 -2.5 L 1.1875 -2.5 C 1.1875 -1.375 1.207031 -0.703125 1.25 -0.484375 C 1.476562 -0.472656 1.660156 -0.46875 1.796875 -0.46875 C 2.660156 -0.46875 3.210938 -0.523438 3.453125 -0.640625 C 3.492188 -0.535156 3.515625 -0.429688 3.515625 -0.328125 C 3.515625 -0.210938 3.488281 -0.132812 3.4375 -0.09375 C 3.351562 -0.0195312 2.960938 0.015625 2.265625 0.015625 C 1.566406 0.015625 1.140625 0.0078125 0.984375 0 C 0.828125 0 0.722656 -0.03125 0.671875 -0.09375 C 0.628906 -0.164062 0.609375 -0.28125 0.609375 -0.4375 Z M 0.609375 -0.4375 "/></g></g></g><path stroke-linecap="butt" transform="matrix(0.75, 0, 0, 0.75, 54.933872, 182.490926)" fill="none" stroke-linejoin="miter" d="M 9.786088 13.767307 C 8.562129 15.689182 7.765254 16.730849 5.484004 16.730849 L 3.197546 16.730849 L 3.197546 6.35064 C 3.197546 5.75689 3.775671 5.574598 4.619421 5.491265 L 4.619421 5.407932 L 0.244421 5.407932 L 0.244421 5.491265 C 0.926712 5.574598 1.510046 5.75689 1.510046 6.35064 L 1.510046 15.725641 C 1.510046 16.319391 0.926712 16.668349 0.244421 16.918349 L 0.244421 17.001683 L 8.379838 17.001683 L 8.942338 17.366266 L 9.041296 17.001683 L 9.853796 13.803766 Z M 24.582964 14.913141 L 21.09338 6.090224 C 20.739214 5.22564 20.723589 5.095432 20.723589 4.960015 L 19.181922 5.970432 L 18.921505 6.152724 L 18.952755 6.517307 L 15.28088 14.996474 C 14.666297 16.423558 14.265255 16.730849 13.572546 16.933974 L 13.572546 17.001683 L 16.619422 17.001683 L 16.619422 16.933974 C 15.692338 16.730849 15.025672 16.439183 15.640255 15.012099 L 16.004838 14.183974 L 22.484005 14.183974 L 22.81213 15.012099 C 23.390255 16.470433 22.728797 16.835016 21.567339 16.933974 L 21.567339 17.001683 L 26.223589 17.001683 L 26.223589 16.933974 C 25.478797 16.835016 25.181922 16.439183 24.582964 14.913141 Z M 16.12463 13.887099 L 19.369422 6.402724 L 22.364214 13.887099 Z M 35.369423 10.392307 C 33.635048 9.991265 32.030881 9.433974 32.030881 7.543349 C 32.030881 6.418349 32.588173 5.454807 34.161089 5.454807 C 36.020465 5.454807 37.72359 6.782932 37.457965 9.017307 L 38.931923 6.683974 C 38.051715 5.835015 36.796506 5.173557 34.905881 5.173557 C 32.306923 5.173557 30.687131 6.433974 30.687131 8.355849 C 30.687131 9.699599 31.463173 11.256891 34.593381 11.996474 C 36.562131 12.465224 37.822548 12.907932 37.822548 14.579807 C 37.822548 15.657932 37.306923 16.933974 35.405881 16.933974 C 33.437131 16.933974 31.546506 15.611057 31.791298 13.371474 L 30.353798 15.673557 C 31.249631 16.532933 32.739214 17.230849 34.676714 17.230849 C 37.593381 17.230849 39.12984 15.642307 39.12984 13.767307 C 39.12984 12.611057 38.551715 11.121474 35.369423 10.392307 Z M 49.635049 17.001683 L 53.843382 17.001683 L 53.843382 16.918349 C 53.166299 16.835016 52.588174 16.652724 52.588174 16.058974 L 52.588174 6.35064 C 52.588174 5.75689 53.166299 5.574598 53.843382 5.491265 L 53.843382 5.407932 L 49.635049 5.407932 L 49.635049 5.491265 C 50.312132 5.574598 50.895466 5.75689 50.895466 6.35064 L 50.895466 16.058974 C 50.895466 16.652724 50.312132 16.835016 49.635049 16.918349 Z M 62.63505 5.407932 L 57.484008 5.407932 L 57.484008 5.491265 C 58.161091 5.574598 58.744424 5.75689 58.744424 6.35064 L 58.744424 15.725641 C 58.744424 16.319391 58.161091 16.668349 57.484008 16.918349 L 57.484008 17.001683 L 62.301716 17.001683 C 65.9788 17.001683 68.911092 14.829807 68.911092 10.907932 C 68.911092 7.428765 66.645467 5.407932 62.63505 5.407932 Z M 62.718383 16.730849 C 61.754841 16.730849 61.0413 16.517308 60.431925 16.220433 L 60.431925 5.673557 L 61.968383 5.673557 C 65.614217 5.673557 67.088175 8.25689 67.088175 11.782932 C 67.088175 15.611057 65.364217 16.730849 62.718383 16.730849 Z M 82.911093 13.767307 C 81.619426 15.689182 80.853801 16.730849 79.020467 16.730849 L 75.905884 16.730849 L 75.905884 11.335016 L 78.223592 11.335016 C 79.978801 11.335016 80.473592 11.782932 80.874634 13.012099 L 80.874634 9.397515 C 80.473592 10.626682 79.978801 11.074599 78.223592 11.074599 L 75.905884 11.074599 L 75.905884 5.673557 L 78.687134 5.673557 C 80.525676 5.673557 81.202759 6.501682 82.317343 8.074599 L 82.379843 8.043349 L 81.832968 5.407932 L 72.957967 5.407932 L 72.957967 5.491265 C 73.63505 5.574598 74.218384 5.75689 74.218384 6.35064 L 74.218384 15.725641 C 74.218384 16.319391 73.63505 16.668349 72.957967 16.918349 L 72.957967 17.001683 L 81.504843 17.001683 L 82.067343 17.366266 L 82.166301 17.001683 L 82.978801 13.803766 Z M 97.707969 14.913141 L 94.213177 6.090224 C 93.864218 5.22564 93.848593 5.095432 93.848593 4.960015 L 92.306927 5.970432 L 92.04651 6.152724 L 92.07776 6.517307 L 88.400676 14.996474 C 87.786093 16.423558 87.39026 16.730849 86.697551 16.933974 L 86.697551 17.001683 L 89.744426 17.001683 L 89.744426 16.933974 C 88.812135 16.730849 88.150676 16.439183 88.76526 15.012099 L 89.129843 14.183974 L 95.603802 14.183974 L 95.931927 15.012099 C 96.51526 16.470433 95.853802 16.835016 94.692343 16.933974 L 94.692343 17.001683 L 99.348594 17.001683 L 99.348594 16.933974 C 98.603802 16.835016 98.301719 16.439183 97.707969 14.913141 Z M 89.244426 13.887099 L 92.494427 6.402724 L 95.489218 13.887099 Z M 108.494428 10.392307 C 106.754844 9.991265 105.150677 9.433974 105.150677 7.543349 C 105.150677 6.418349 105.713177 5.454807 107.286094 5.454807 C 109.140261 5.454807 110.848594 6.782932 110.582969 9.017307 L 112.056928 6.683974 C 111.17672 5.835015 109.916303 5.173557 108.030886 5.173557 C 105.431927 5.173557 103.806927 6.433974 103.806927 8.355849 C 103.806927 9.699599 104.588177 11.256891 107.713178 11.996474 C 109.687136 12.465224 110.947553 12.907932 110.947553 14.579807 C 110.947553 15.657932 110.431928 16.933974 108.525678 16.933974 C 106.556928 16.933974 104.671511 15.611057 104.916302 13.371474 L 103.478802 15.673557 C 104.369427 16.532933 105.864219 17.230849 107.801719 17.230849 C 110.713178 17.230849 112.254845 15.642307 112.254845 13.767307 C 112.254845 12.611057 111.671511 11.121474 108.494428 10.392307 Z M 108.494428 10.392307 " stroke="#000000" stroke-width="0.621131" stroke-opacity="1" stroke-miterlimit="4"/><g clip-path="url(#00f768077a)"><g clip-path="url(#06b17fc434)"><path fill="#000000" d="M 167.425781 115.367188 L 243.0625 115.367188 L 243.0625 238.210938 L 167.425781 238.210938 Z M 167.425781 115.367188 " fill-opacity="1" fill-rule="nonzero"/></g></g><path fill="#ff5757" d="M 169.460938 133.601562 C 154.898438 142.484375 147.546875 141.476562 144.371094 149.242188 C 138.054688 164.695312 154.058594 175.378906 166.867188 169.640625 C 185.117188 161.464844 185.296875 123.945312 169.460938 133.601562 Z M 169.460938 133.601562 " fill-opacity="1" fill-rule="nonzero"/><path fill="#adab00" d="M 210.929688 171.597656 C 206.015625 162.8125 193.253906 153.886719 191.5 168.867188 C 190.34375 178.734375 177.53125 197.320312 174.460938 203.242188 C 170.59375 210.699219 175.1875 215.671875 188.21875 218.898438 C 201.914062 222.289062 211.332031 193.3125 212.199219 188.359375 C 213.222656 182.558594 214.855469 178.613281 210.929688 171.597656 Z M 210.929688 171.597656 " fill-opacity="1" fill-rule="nonzero"/><path fill="#000000" d="M 173.1875 135.207031 L 173.183594 135.203125 Z M 173.1875 135.207031 " fill-opacity="1" fill-rule="nonzero"/><path fill="#000000" d="M 212.207031 152.113281 C 212.207031 150.839844 211.984375 149.449219 211.488281 148.183594 L 211.386719 147.917969 L 211.375 147.894531 L 211.375 147.890625 C 211.363281 147.867188 211.335938 147.78125 211.308594 147.695312 C 211.289062 147.65625 211.269531 147.609375 211.246094 147.566406 C 211.222656 147.523438 211.1875 147.480469 211.132812 147.445312 C 211.109375 147.433594 211.082031 147.425781 211.054688 147.425781 C 210.640625 147.445312 210.4375 147.488281 210.242188 147.570312 C 210.242188 147.570312 210.238281 147.570312 210.238281 147.574219 C 209.851562 147.726562 209.53125 147.9375 209.238281 148.140625 C 208.65625 148.566406 208.164062 149.007812 207.722656 149.402344 C 207.554688 149.558594 207.40625 149.699219 207.277344 149.824219 C 207.71875 148.203125 208.054688 146.578125 208.078125 144.949219 L 208.078125 144.945312 C 208.078125 144.445312 208.042969 143.9375 207.921875 143.4375 L 207.921875 143.433594 C 207.816406 142.9375 207.613281 142.425781 207.234375 142.015625 C 206.851562 141.59375 206.3125 141.371094 205.800781 141.3125 L 205.796875 141.3125 C 205.6875 141.300781 205.574219 141.292969 205.464844 141.292969 C 205.074219 141.292969 204.707031 141.375 204.363281 141.453125 L 204.359375 141.453125 C 203.472656 141.6875 202.714844 142.085938 202.019531 142.472656 L 202.015625 142.472656 C 201.671875 142.671875 201.332031 142.867188 201.019531 143.082031 C 200.863281 143.183594 200.707031 143.285156 200.554688 143.382812 L 200.546875 143.386719 L 200.515625 143.410156 C 200.605469 142.972656 200.644531 142.519531 200.707031 142.085938 L 200.707031 142.074219 C 200.726562 141.792969 200.738281 141.507812 200.738281 141.222656 C 200.738281 140.46875 200.660156 139.707031 200.433594 138.96875 C 200.132812 137.953125 199.441406 136.96875 198.417969 136.570312 C 198.023438 136.410156 197.621094 136.347656 197.238281 136.347656 C 196.640625 136.347656 196.078125 136.496094 195.609375 136.671875 L 195.605469 136.671875 C 194.972656 136.929688 194.535156 137.191406 194.226562 137.421875 C 194.199219 137.441406 194.179688 137.460938 194.152344 137.480469 C 194.046875 137.222656 193.921875 136.96875 193.785156 136.710938 C 193.324219 135.871094 192.554688 135.105469 191.558594 134.773438 C 191.136719 134.644531 190.703125 134.585938 190.273438 134.585938 C 189.691406 134.585938 189.113281 134.6875 188.566406 134.851562 C 187.613281 135.136719 186.730469 135.578125 185.878906 136.070312 L 185.714844 136.167969 L 185.597656 136.011719 C 185.523438 135.902344 185.433594 135.804688 185.339844 135.710938 C 184.980469 135.328125 184.574219 134.996094 184.140625 134.710938 C 182.921875 133.933594 181.464844 133.484375 179.980469 133.484375 C 179.347656 133.484375 178.710938 133.566406 178.089844 133.738281 C 177.050781 134.035156 176.078125 134.648438 175.402344 135.53125 L 175.394531 135.535156 L 175.21875 135.796875 L 175.144531 135.746094 C 175.039062 135.679688 174.9375 135.621094 174.847656 135.550781 L 174.839844 135.542969 C 174.445312 135.265625 174.070312 134.949219 173.71875 134.605469 C 173.371094 134.257812 173.054688 133.871094 172.6875 133.480469 C 172.5 133.28125 172.28125 133.078125 172.015625 132.917969 L 172.007812 132.914062 C 171.75 132.777344 171.445312 132.679688 171.140625 132.675781 L 171.078125 132.679688 C 169.867188 132.738281 168.949219 133.332031 168.039062 133.851562 L 168.027344 133.859375 C 166.207031 135.054688 165 137.027344 164.546875 139.097656 C 164.332031 140.09375 164.246094 141.09375 164.246094 142.085938 C 164.246094 142.589844 164.273438 143.089844 164.3125 143.589844 C 163.644531 143.242188 162.546875 142.789062 161.304688 142.78125 L 161.292969 142.78125 C 160.289062 142.78125 159.1875 143.101562 158.238281 144.027344 C 157.390625 144.847656 156.5 146.441406 156.496094 148.660156 L 156.496094 148.664062 C 156.496094 149.125 156.539062 149.613281 156.625 150.125 C 156.324219 149.957031 155.90625 149.726562 155.28125 149.382812 C 154.855469 149.152344 154.320312 148.851562 153.691406 148.566406 C 153.378906 148.421875 153.039062 148.277344 152.644531 148.191406 C 152.640625 148.191406 152.636719 148.191406 152.636719 148.1875 C 152.507812 148.152344 152.371094 148.132812 152.222656 148.132812 C 151.902344 148.132812 151.550781 148.222656 151.28125 148.457031 L 151.273438 148.464844 C 150.613281 149.148438 150.523438 149.949219 150.339844 150.570312 L 150.339844 150.582031 C 150.1875 151.238281 150.078125 151.832031 149.984375 152.304688 C 149.941406 152.542969 149.925781 152.726562 149.925781 152.871094 C 149.925781 152.914062 149.925781 152.949219 149.929688 152.980469 C 149.894531 153.105469 149.867188 153.273438 149.835938 153.519531 C 149.789062 153.886719 149.753906 154.421875 149.738281 155.195312 L 149.738281 155.207031 C 149.769531 156.0625 149.777344 157.207031 149.984375 158.769531 L 149.984375 158.773438 C 150.214844 160.320312 150.539062 162.339844 151.535156 164.785156 C 152.460938 167.078125 154.082031 169.796875 156.53125 172.179688 C 158.980469 174.550781 162.203125 176.539062 165.695312 177.753906 C 169.171875 179.019531 172.859375 179.570312 176.21875 179.648438 C 176.449219 179.65625 176.679688 179.65625 176.910156 179.65625 C 176.957031 179.65625 176.996094 179.652344 177.039062 179.652344 C 176.660156 179.8125 176.285156 180.015625 175.9375 180.269531 C 175.9375 180.269531 175.9375 180.269531 175.933594 180.269531 C 175.933594 180.269531 175.933594 180.269531 175.933594 180.273438 C 175.101562 180.835938 174.511719 181.671875 173.96875 182.507812 L 173.960938 182.519531 C 173.738281 182.957031 173.46875 183.386719 173.269531 183.867188 L 173.269531 183.871094 C 173.078125 184.351562 172.917969 184.84375 172.800781 185.34375 C 172.574219 186.296875 172.476562 187.265625 172.476562 188.210938 C 172.476562 189.265625 172.597656 190.296875 172.796875 191.25 C 173.175781 193.074219 173.84375 194.636719 174.5 195.804688 C 175.121094 196.859375 175.601562 197.332031 175.875 197.5625 C 176 197.667969 176.089844 197.726562 176.148438 197.757812 C 176.210938 197.792969 176.253906 197.804688 176.292969 197.808594 L 176.3125 197.808594 C 176.339844 197.804688 176.363281 197.792969 176.382812 197.777344 C 176.417969 197.75 176.445312 197.6875 176.445312 197.632812 C 176.441406 197.550781 176.414062 197.453125 176.324219 197.28125 C 176.292969 197.21875 176.253906 197.148438 176.203125 197.070312 C 176.324219 196.960938 176.472656 196.792969 176.65625 196.519531 C 177.039062 195.960938 177.617188 195.035156 178.625 193.28125 C 179.570312 191.621094 180.851562 189.070312 182.152344 186.554688 C 183.445312 184.042969 184.851562 181.570312 186.097656 180.277344 C 186.375 179.996094 186.605469 179.796875 186.777344 179.605469 C 186.847656 179.546875 186.910156 179.496094 186.964844 179.449219 C 186.886719 179.652344 186.800781 179.867188 186.722656 180.109375 C 186.144531 181.800781 185.789062 184.03125 185.769531 186.472656 C 185.765625 186.726562 185.765625 186.980469 185.765625 187.238281 C 185.765625 189.457031 185.898438 191.820312 185.9375 194.179688 C 185.949219 194.652344 185.949219 195.128906 185.949219 195.601562 C 185.949219 200.375 185.453125 205.015625 184.824219 208.132812 C 184.410156 210.378906 183.769531 213.140625 183.210938 215.039062 L 183.210938 215.042969 C 183.015625 215.773438 182.957031 216.191406 182.957031 216.441406 C 182.957031 216.585938 182.972656 216.675781 183 216.742188 C 183.027344 216.800781 183.0625 216.835938 183.09375 216.851562 L 183.09375 216.855469 C 183.097656 216.855469 183.101562 216.859375 183.101562 216.859375 L 183.105469 216.859375 C 183.121094 216.867188 183.144531 216.875 183.171875 216.875 C 183.230469 216.875 183.289062 216.847656 183.34375 216.796875 C 183.421875 216.722656 183.503906 216.597656 183.617188 216.347656 C 183.722656 216.09375 183.859375 215.714844 184.015625 215.128906 C 184.175781 214.527344 184.390625 213.742188 184.683594 212.648438 L 184.6875 212.640625 C 184.914062 211.539062 185.277344 210.136719 185.609375 208.28125 C 186.246094 205.132812 186.742188 200.46875 186.742188 195.667969 C 186.742188 195.164062 186.738281 194.65625 186.726562 194.148438 C 186.683594 191.761719 186.546875 189.390625 186.546875 187.195312 C 186.546875 186.953125 186.546875 186.707031 186.550781 186.464844 C 186.570312 184.078125 186.914062 181.941406 187.464844 180.339844 C 187.574219 180.011719 187.683594 179.722656 187.785156 179.464844 C 187.816406 179.753906 187.855469 180.054688 187.894531 180.371094 C 187.929688 180.65625 187.96875 180.953125 188.011719 181.261719 L 188.015625 181.273438 C 188.082031 181.585938 188.171875 181.898438 188.25 182.21875 C 188.375 182.890625 188.695312 183.535156 188.976562 184.183594 L 188.988281 184.203125 C 189.191406 184.503906 189.394531 184.808594 189.601562 185.113281 L 189.613281 185.132812 C 189.867188 185.40625 190.136719 185.664062 190.402344 185.925781 L 190.414062 185.933594 C 191.609375 186.886719 193.003906 187.339844 194.105469 187.9375 C 194.382812 188.101562 194.660156 188.234375 194.898438 188.394531 C 195.140625 188.5625 195.371094 188.730469 195.597656 188.886719 C 196.011719 189.253906 196.398438 189.585938 196.671875 189.925781 C 196.855469 190.160156 197.050781 190.410156 197.25 190.664062 L 197.25 190.667969 C 197.441406 190.894531 197.570312 191.199219 197.75 191.488281 C 198.089844 192.027344 198.324219 192.613281 198.515625 193.097656 L 198.515625 193.101562 C 198.632812 193.375 198.738281 193.554688 198.835938 193.675781 C 198.808594 193.804688 198.800781 193.910156 198.796875 194 C 198.796875 194.132812 198.824219 194.226562 198.859375 194.289062 C 198.890625 194.347656 198.933594 194.378906 198.953125 194.390625 C 198.953125 194.390625 198.957031 194.394531 198.960938 194.394531 L 198.960938 194.398438 C 198.980469 194.40625 199.011719 194.421875 199.050781 194.421875 C 199.097656 194.421875 199.152344 194.40625 199.203125 194.371094 C 199.28125 194.324219 199.359375 194.238281 199.449219 194.089844 C 199.539062 193.9375 199.640625 193.722656 199.75 193.40625 C 199.988281 192.703125 200.460938 191.523438 200.695312 189.234375 L 200.695312 189.230469 C 200.722656 188.964844 200.742188 188.675781 200.769531 188.375 L 200.769531 188.371094 C 200.773438 188.324219 200.773438 188.285156 200.773438 188.238281 C 200.773438 187.964844 200.742188 187.6875 200.730469 187.410156 L 200.730469 187.402344 C 200.703125 187.085938 200.714844 186.734375 200.644531 186.367188 L 200.644531 186.363281 C 200.570312 186.019531 200.492188 185.664062 200.414062 185.296875 L 200.410156 185.289062 C 200.007812 183.832031 199.214844 182.328125 198.03125 181.152344 C 196.855469 179.976562 195.378906 179.183594 193.976562 178.691406 C 192.570312 178.191406 191.214844 178.011719 190.144531 178 C 190.140625 178 190.140625 178 190.136719 178 C 190.039062 177.996094 189.945312 177.996094 189.851562 177.996094 C 189.8125 177.996094 189.78125 178 189.742188 178 C 190.230469 177.886719 190.804688 177.714844 191.484375 177.441406 C 195.386719 175.878906 200.558594 172.128906 204.769531 167.445312 C 206.875 165.105469 208.742188 162.53125 210.054688 159.933594 C 211.402344 157.351562 212.097656 154.726562 212.195312 152.582031 C 212.199219 152.441406 212.207031 152.277344 212.207031 152.113281 Z M 194.632812 138.015625 C 194.96875 137.828125 195.425781 137.59375 196.070312 137.351562 C 196.261719 137.277344 196.503906 137.246094 196.769531 137.179688 C 196.941406 137.171875 197.113281 137.148438 197.285156 137.148438 C 197.382812 137.148438 197.480469 137.152344 197.574219 137.171875 L 197.585938 137.175781 C 198.148438 137.230469 198.777344 137.546875 199.214844 138.214844 C 199.660156 138.871094 199.910156 139.832031 199.929688 140.945312 C 199.929688 140.976562 199.929688 141.011719 199.929688 141.039062 C 199.929688 141.574219 199.902344 142.144531 199.804688 142.738281 C 199.777344 142.90625 199.773438 143.070312 199.734375 143.210938 L 199.730469 143.21875 C 199.683594 143.429688 199.636719 143.644531 199.589844 143.859375 C 199.511719 144.199219 199.4375 144.542969 199.359375 144.894531 C 199.347656 144.949219 199.367188 145.003906 199.414062 145.035156 C 199.457031 145.070312 199.511719 145.074219 199.5625 145.046875 C 199.824219 144.910156 200.15625 144.640625 200.441406 144.449219 L 200.441406 144.445312 C 200.625 144.316406 200.8125 144.183594 201 144.050781 C 201.148438 143.953125 201.300781 143.855469 201.453125 143.757812 L 201.457031 143.757812 C 201.757812 143.554688 202.078125 143.363281 202.410156 143.171875 C 203.078125 142.800781 203.792969 142.433594 204.566406 142.230469 C 204.855469 142.152344 205.160156 142.105469 205.453125 142.105469 C 205.925781 142.105469 206.351562 142.230469 206.644531 142.570312 C 206.894531 142.84375 207.050781 143.210938 207.148438 143.625 C 207.242188 144.039062 207.273438 144.503906 207.273438 144.953125 L 207.273438 144.960938 C 207.253906 146.828125 206.773438 148.785156 206.1875 150.738281 C 205.589844 152.691406 204.839844 154.648438 204.003906 156.566406 C 202.328125 160.402344 200.335938 164.097656 198.25 167.300781 C 196.167969 170.492188 193.988281 173.222656 191.90625 174.953125 C 191.152344 175.589844 190.492188 176.015625 189.929688 176.304688 C 189.9375 176.269531 189.945312 176.230469 189.953125 176.191406 C 189.964844 176.183594 189.972656 176.179688 189.984375 176.171875 C 190.011719 176.148438 190.039062 176.117188 190.078125 176.066406 C 190.117188 176.011719 190.171875 175.9375 190.242188 175.824219 C 190.476562 175.445312 190.929688 174.652344 191.730469 172.9375 C 192.65625 170.957031 193.816406 168.121094 194.660156 165.644531 C 195.515625 163.167969 196.074219 161.070312 196.183594 160.675781 C 196.203125 160.613281 196.175781 160.550781 196.125 160.519531 L 196.117188 160.515625 L 196.058594 160.5 L 196.054688 160.5 C 195.992188 160.492188 195.929688 160.53125 195.910156 160.59375 C 195.789062 160.972656 195.160156 163.042969 194.234375 165.480469 C 193.324219 167.917969 192.105469 170.714844 191.183594 172.679688 C 190.796875 173.515625 190.507812 174.136719 190.292969 174.605469 C 190.417969 174.03125 190.558594 173.363281 190.726562 172.574219 C 191.125 170.6875 191.652344 168.210938 192.378906 164.78125 L 192.378906 164.777344 C 193.0625 161.339844 193.980469 156.9375 194.6875 151.121094 C 194.917969 149.042969 195.148438 146.75 195.148438 144.28125 C 195.148438 143.503906 195.125 142.703125 195.070312 141.890625 C 194.964844 140.683594 194.820312 139.402344 194.40625 138.152344 C 194.46875 138.109375 194.546875 138.0625 194.632812 138.015625 Z M 157.277344 148.660156 C 157.277344 146.664062 158.089844 145.257812 158.777344 144.59375 C 159.582031 143.820312 160.449219 143.574219 161.296875 143.570312 L 161.300781 143.570312 C 162.144531 143.570312 162.957031 143.835938 163.558594 144.101562 C 163.859375 144.234375 164.101562 144.371094 164.269531 144.46875 L 164.402344 144.550781 C 164.433594 144.800781 164.46875 145.046875 164.507812 145.296875 C 164.816406 147.316406 165.386719 149.253906 166.046875 151.113281 C 166.703125 152.972656 167.472656 154.75 168.3125 156.445312 C 171.671875 163.222656 175.875 168.71875 179.644531 172.628906 C 180.625 173.628906 181.507812 174.457031 182.300781 175.148438 C 178.710938 172.871094 174.460938 169.515625 170.558594 166.078125 C 167.804688 163.652344 165.222656 161.183594 163.152344 159.019531 C 161.085938 156.859375 159.523438 154.984375 158.839844 153.804688 C 157.675781 151.804688 157.269531 150.078125 157.269531 148.65625 L 157.269531 148.660156 C 157.269531 148.660156 157.277344 148.660156 157.277344 148.660156 Z M 176.941406 178.878906 C 176.699219 178.878906 176.449219 178.875 176.203125 178.871094 C 172.921875 178.792969 169.316406 178.242188 165.9375 177.007812 C 162.546875 175.820312 159.425781 173.890625 157.070312 171.605469 C 154.714844 169.308594 153.160156 166.691406 152.269531 164.492188 C 151.125 161.710938 150.519531 158 150.519531 155.3125 C 150.519531 155.214844 150.519531 155.121094 150.523438 155.03125 C 150.53125 154.765625 150.535156 154.53125 150.535156 154.324219 C 150.535156 153.808594 150.511719 153.464844 150.476562 153.222656 C 150.574219 153.082031 150.667969 152.855469 150.746094 152.453125 C 150.835938 151.984375 150.945312 151.398438 151.097656 150.765625 C 151.175781 150.460938 151.257812 150.121094 151.367188 149.816406 C 151.476562 149.507812 151.617188 149.238281 151.796875 149.0625 C 151.894531 148.980469 152.019531 148.941406 152.179688 148.941406 C 152.519531 148.9375 152.976562 149.125 153.359375 149.300781 C 153.941406 149.566406 154.46875 149.863281 154.890625 150.09375 C 155.445312 150.398438 156.128906 150.773438 156.609375 151.039062 C 156.695312 151.085938 156.773438 151.117188 156.84375 151.132812 C 157.109375 152.089844 157.535156 153.117188 158.167969 154.207031 C 158.921875 155.503906 160.5 157.382812 162.589844 159.570312 C 165.726562 162.847656 170 166.792969 174.277344 170.257812 C 178.316406 173.527344 182.355469 176.367188 185.464844 177.824219 C 185.425781 177.832031 185.386719 177.84375 185.347656 177.851562 C 184.769531 177.625 183.8125 177.277344 182.21875 176.773438 C 181.003906 176.375 179.53125 175.949219 178.046875 175.40625 L 178.042969 175.40625 C 177.308594 175.152344 176.609375 174.769531 175.875 174.414062 C 175.148438 174.0625 174.433594 173.714844 173.746094 173.382812 C 172.382812 172.707031 171.191406 171.984375 170.355469 171.332031 L 170.351562 171.332031 C 169.929688 171.007812 169.59375 170.707031 169.339844 170.464844 C 169.085938 170.222656 168.921875 170.046875 168.832031 169.957031 C 168.789062 169.917969 168.730469 169.90625 168.675781 169.929688 L 168.671875 169.933594 L 168.613281 169.980469 L 168.609375 169.988281 C 168.574219 170.042969 168.578125 170.117188 168.625 170.164062 C 168.699219 170.242188 168.867188 170.433594 169.113281 170.6875 C 169.363281 170.9375 169.699219 171.257812 170.125 171.601562 C 170.96875 172.296875 172.15625 173.066406 173.523438 173.785156 C 174.203125 174.136719 174.914062 174.5 175.632812 174.867188 C 176.339844 175.226562 177.0625 175.640625 177.835938 175.921875 C 179.339844 176.503906 180.8125 176.949219 182.027344 177.34375 C 183.039062 177.667969 183.796875 177.90625 184.371094 178.082031 C 182.316406 178.539062 179.757812 178.878906 176.941406 178.878906 Z M 185.519531 179.753906 C 184.15625 181.179688 182.75 183.679688 181.4375 186.207031 C 180.128906 188.730469 178.847656 191.265625 177.917969 192.894531 C 177.308594 193.960938 176.542969 195.273438 175.941406 196.144531 C 175.875 196.242188 175.820312 196.335938 175.777344 196.417969 C 175.609375 196.15625 175.410156 195.832031 175.167969 195.417969 C 174.550781 194.316406 173.910156 192.824219 173.554688 191.09375 C 173.371094 190.191406 173.257812 189.226562 173.257812 188.242188 C 173.257812 187.339844 173.351562 186.421875 173.570312 185.53125 L 173.570312 185.527344 C 173.675781 185.066406 173.824219 184.617188 174 184.175781 C 174.175781 183.753906 174.429688 183.347656 174.648438 182.921875 C 175.160156 182.136719 175.703125 181.386719 176.394531 180.929688 L 176.398438 180.921875 C 177.492188 180.101562 178.804688 180 179.953125 180 C 180.230469 180 180.5 180.003906 180.753906 180.007812 C 181.109375 180.015625 181.496094 180.023438 181.890625 180.023438 C 182.25 180.023438 182.617188 180.015625 182.988281 179.992188 C 182.671875 180.160156 182.316406 180.363281 181.914062 180.59375 L 181.90625 180.597656 C 180.96875 181.195312 179.90625 182.039062 179.03125 183.132812 C 178.140625 184.214844 177.433594 185.496094 177.003906 186.757812 C 176.5625 188.023438 176.355469 189.210938 176.253906 190.136719 C 176.203125 190.597656 176.175781 190.996094 176.164062 191.300781 C 176.148438 191.605469 176.144531 191.824219 176.140625 191.914062 C 176.136719 191.976562 176.175781 192.039062 176.238281 192.058594 L 176.242188 192.058594 L 176.308594 192.066406 L 176.3125 192.066406 C 176.375 192.054688 176.421875 192.007812 176.429688 191.945312 C 176.441406 191.835938 176.453125 191.628906 176.476562 191.332031 C 176.550781 190.433594 176.738281 188.742188 177.433594 186.933594 C 177.878906 185.730469 178.589844 184.511719 179.457031 183.503906 C 180.308594 182.480469 181.332031 181.6875 182.230469 181.117188 C 183.035156 180.648438 183.644531 180.296875 184.09375 180.0625 C 184.347656 179.925781 184.546875 179.835938 184.703125 179.773438 C 184.816406 179.75 184.925781 179.722656 185.039062 179.695312 C 185.078125 179.695312 185.09375 179.703125 185.101562 179.707031 C 185.113281 179.714844 185.117188 179.71875 185.148438 179.753906 L 185.175781 179.773438 L 185.214844 179.792969 C 185.253906 179.8125 185.300781 179.8125 185.339844 179.792969 C 185.378906 179.773438 185.40625 179.738281 185.414062 179.695312 L 185.425781 179.652344 L 185.425781 179.621094 C 185.425781 179.609375 185.425781 179.597656 185.421875 179.585938 C 185.570312 179.539062 185.714844 179.492188 185.859375 179.445312 C 185.75 179.53125 185.636719 179.632812 185.519531 179.753906 Z M 185.804688 178.605469 C 185.59375 178.679688 185.347656 178.757812 185.0625 178.855469 C 184.777344 178.9375 184.429688 178.996094 184.03125 179.085938 C 183.632812 179.144531 183.175781 179.183594 182.648438 179.207031 C 183.480469 179.074219 184.265625 178.917969 184.980469 178.746094 C 185.308594 178.667969 185.613281 178.589844 185.898438 178.511719 C 185.933594 178.519531 185.96875 178.523438 185.996094 178.53125 C 185.929688 178.554688 185.871094 178.578125 185.804688 178.605469 Z M 187.257812 178.78125 C 187.226562 178.765625 187.1875 178.757812 187.148438 178.757812 C 187.136719 178.757812 187.128906 178.761719 187.117188 178.761719 C 187.167969 178.714844 187.203125 178.667969 187.230469 178.628906 C 187.257812 178.640625 187.285156 178.65625 187.3125 178.667969 C 187.292969 178.707031 187.277344 178.742188 187.257812 178.78125 Z M 187.53125 178.265625 C 187.449219 178.210938 187.359375 178.148438 187.257812 178.078125 C 187.308594 178.0625 187.359375 178.042969 187.40625 178.027344 C 187.441406 178.050781 187.484375 178.070312 187.550781 178.089844 C 187.574219 178.097656 187.597656 178.105469 187.625 178.109375 C 187.59375 178.164062 187.5625 178.210938 187.53125 178.265625 Z M 188.152344 176.851562 C 188.148438 176.851562 188.144531 176.847656 188.144531 176.847656 L 188.101562 176.835938 L 188.082031 176.835938 C 188.0625 176.835938 188.039062 176.839844 188.011719 176.851562 C 187.980469 176.832031 187.945312 176.808594 187.902344 176.777344 C 187.574219 176.570312 186.898438 176.179688 185.648438 175.109375 C 184.214844 173.875 182.484375 171.800781 181.25 169.871094 C 179.996094 167.949219 179.214844 166.191406 179.066406 165.867188 C 179.039062 165.808594 178.976562 165.773438 178.914062 165.785156 L 178.90625 165.785156 L 178.859375 165.800781 L 178.855469 165.804688 C 178.796875 165.839844 178.773438 165.914062 178.796875 165.972656 C 178.933594 166.304688 179.644531 168.101562 180.859375 170.101562 C 182.050781 172.109375 183.757812 174.269531 185.25 175.5625 C 186.117188 176.304688 186.75 176.707031 187.191406 176.9375 L 187.1875 176.945312 C 187.183594 176.960938 187.175781 176.976562 187.175781 176.992188 C 187.175781 177.003906 187.179688 177.011719 187.179688 177.019531 L 187.179688 177.023438 L 187.183594 177.03125 C 187.1875 177.039062 187.1875 177.042969 187.1875 177.050781 L 187.191406 177.0625 C 187.222656 177.121094 187.273438 177.164062 187.375 177.214844 C 187.410156 177.230469 187.449219 177.246094 187.496094 177.265625 C 187.214844 177.347656 186.882812 177.445312 186.5 177.550781 C 186.464844 177.527344 186.433594 177.507812 186.402344 177.480469 C 186.402344 177.460938 186.398438 177.445312 186.390625 177.429688 C 186.375 177.394531 186.351562 177.367188 186.316406 177.351562 C 186.230469 177.316406 186.148438 177.28125 186.0625 177.242188 C 185.660156 176.949219 185.183594 176.597656 184.632812 176.152344 C 183.488281 175.234375 182.011719 173.941406 180.167969 172.058594 C 176.457031 168.199219 172.296875 162.753906 168.992188 156.058594 C 168.164062 154.390625 167.40625 152.636719 166.769531 150.8125 C 166.128906 148.984375 165.570312 147.089844 165.277344 145.136719 C 165.125 144.136719 165.027344 143.121094 165.027344 142.105469 C 165.027344 141.140625 165.117188 140.179688 165.324219 139.242188 C 165.765625 137.332031 166.859375 135.574219 168.492188 134.507812 C 168.898438 134.257812 169.351562 134.046875 169.792969 133.820312 C 170.234375 133.640625 170.6875 133.488281 171.082031 133.492188 L 171.128906 133.492188 C 171.316406 133.492188 171.480469 133.546875 171.644531 133.648438 C 171.808594 133.746094 171.96875 133.898438 172.128906 134.074219 C 172.460938 134.433594 172.796875 134.839844 173.175781 135.214844 C 173.554688 135.59375 173.96875 135.925781 174.398438 136.230469 L 174.402344 136.234375 C 174.515625 136.324219 174.632812 136.386719 174.734375 136.453125 L 174.734375 136.457031 L 175.238281 136.773438 L 175.246094 136.78125 L 175.324219 136.820312 C 175.390625 136.855469 175.464844 136.835938 175.507812 136.777344 L 175.558594 136.699219 L 175.664062 136.542969 L 175.835938 136.292969 L 176.035156 136 C 176.605469 135.273438 177.425781 134.761719 178.324219 134.507812 C 178.855469 134.363281 179.402344 134.296875 179.949219 134.296875 C 181.285156 134.296875 182.621094 134.707031 183.710938 135.417969 C 184.097656 135.671875 184.449219 135.964844 184.753906 136.296875 L 184.761719 136.304688 C 184.835938 136.367188 184.894531 136.453125 184.964844 136.546875 L 184.964844 136.550781 L 185.234375 136.910156 L 185.34375 137.054688 L 185.40625 137.097656 L 185.53125 137.148438 C 185.570312 137.164062 185.613281 137.160156 185.652344 137.140625 L 185.964844 136.957031 L 186.289062 136.761719 C 187.105469 136.292969 187.941406 135.882812 188.800781 135.628906 C 189.285156 135.488281 189.78125 135.402344 190.257812 135.402344 C 190.621094 135.402344 190.976562 135.449219 191.308594 135.554688 C 192.070312 135.824219 192.683594 136.414062 193.074219 137.140625 C 193.242188 137.449219 193.382812 137.769531 193.503906 138.09375 C 193.503906 138.097656 193.5 138.101562 193.496094 138.109375 C 193.515625 138.148438 193.539062 138.1875 193.554688 138.230469 C 193.601562 138.320312 193.621094 138.421875 193.628906 138.523438 C 193.628906 138.523438 193.628906 138.523438 193.632812 138.527344 C 193.640625 138.523438 193.648438 138.527344 193.65625 138.523438 C 194.007812 139.644531 194.15625 140.835938 194.253906 141.976562 C 194.304688 142.757812 194.328125 143.527344 194.328125 144.28125 C 194.328125 146.703125 194.101562 148.976562 193.871094 151.042969 C 193.0625 158.121094 191.136719 166.75 189.84375 172.816406 C 189.449219 174.679688 189.261719 175.863281 189.195312 176.628906 C 188.757812 176.777344 188.40625 176.839844 188.152344 176.851562 Z M 189.175781 177.40625 C 188.957031 177.460938 188.761719 177.503906 188.59375 177.535156 C 188.652344 177.507812 188.707031 177.484375 188.761719 177.460938 C 188.832031 177.425781 188.890625 177.398438 188.941406 177.371094 C 189.015625 177.355469 189.097656 177.34375 189.179688 177.324219 C 189.171875 177.351562 189.175781 177.378906 189.175781 177.40625 Z M 190.128906 178.804688 L 190.195312 178.804688 C 192.167969 178.800781 195.3125 179.597656 197.472656 181.734375 C 198.546875 182.808594 199.265625 184.183594 199.632812 185.515625 C 199.707031 185.859375 199.78125 186.191406 199.851562 186.515625 C 199.910156 186.824219 199.898438 187.144531 199.929688 187.464844 C 199.9375 187.746094 199.96875 188.003906 199.96875 188.242188 C 199.96875 188.28125 199.96875 188.316406 199.96875 188.355469 C 199.941406 188.644531 199.917969 188.914062 199.894531 189.171875 C 199.855469 189.515625 199.855469 189.871094 199.785156 190.207031 C 199.707031 190.5625 199.625 190.929688 199.546875 191.285156 L 199.546875 191.292969 C 199.46875 191.761719 199.320312 192.203125 199.179688 192.613281 C 199.0625 192.332031 198.941406 191.925781 198.652344 191.457031 C 198.496094 191.1875 198.324219 190.882812 198.125 190.53125 C 197.90625 190.164062 197.59375 189.824219 197.289062 189.417969 L 197.289062 189.410156 C 196.96875 189.023438 196.542969 188.65625 196.101562 188.265625 L 196.089844 188.257812 C 195.847656 188.089844 195.59375 187.910156 195.335938 187.726562 L 195.332031 187.726562 C 195.058594 187.542969 194.761719 187.402344 194.480469 187.242188 L 194.480469 187.238281 C 193.300781 186.609375 191.949219 186.15625 190.917969 185.324219 C 190.679688 185.089844 190.4375 184.863281 190.222656 184.628906 C 190.039062 184.355469 189.855469 184.085938 189.671875 183.816406 C 189.410156 183.203125 189.121094 182.628906 189.007812 182.027344 L 189.003906 182.019531 C 188.929688 181.710938 188.84375 181.417969 188.78125 181.128906 C 188.746094 180.832031 188.707031 180.546875 188.671875 180.265625 C 188.632812 179.984375 188.597656 179.710938 188.570312 179.453125 C 188.910156 179.65625 189.359375 179.90625 189.949219 180.234375 C 191.445312 181.054688 193.519531 182.265625 195.0625 183.59375 L 195.0625 183.597656 C 195.847656 184.25 196.496094 184.917969 196.976562 185.453125 C 197.21875 185.722656 197.414062 185.957031 197.566406 186.140625 C 197.714844 186.324219 197.820312 186.453125 197.878906 186.519531 C 197.917969 186.566406 197.984375 186.582031 198.042969 186.554688 L 198.046875 186.550781 L 198.089844 186.519531 L 198.089844 186.515625 C 198.140625 186.46875 198.140625 186.390625 198.101562 186.335938 C 198.054688 186.28125 197.957031 186.144531 197.8125 185.953125 C 197.382812 185.378906 196.542969 184.308594 195.371094 183.257812 C 193.832031 181.832031 191.753906 180.535156 190.242188 179.707031 C 189.457031 179.277344 188.910156 179 188.527344 178.8125 C 188.527344 178.800781 188.527344 178.785156 188.527344 178.777344 C 188.621094 178.785156 188.726562 178.785156 188.859375 178.785156 C 188.988281 178.785156 189.144531 178.785156 189.324219 178.785156 C 189.539062 178.785156 189.808594 178.789062 190.128906 178.804688 Z M 211.390625 152.566406 C 211.296875 154.578125 210.640625 157.09375 209.335938 159.59375 L 209.335938 159.597656 C 208.066406 162.117188 206.238281 164.648438 204.167969 166.941406 C 200.039062 171.550781 194.914062 175.253906 191.171875 176.738281 C 190.613281 176.964844 190.132812 177.128906 189.722656 177.253906 C 189.730469 177.222656 189.738281 177.191406 189.742188 177.160156 C 190.375 176.9375 191.117188 176.550781 191.945312 175.917969 C 192.46875 175.609375 193.15625 175.152344 194.046875 174.46875 C 196.050781 172.929688 198.507812 170.402344 200.316406 168.007812 C 202.152344 165.625 203.347656 163.4375 203.578125 163.03125 C 203.605469 162.976562 203.597656 162.90625 203.550781 162.863281 L 203.546875 162.859375 L 203.492188 162.824219 L 203.488281 162.820312 C 203.425781 162.800781 203.359375 162.828125 203.324219 162.882812 C 203.089844 163.273438 201.835938 165.402344 199.964844 167.714844 C 198.585938 169.449219 196.851562 171.253906 195.25 172.679688 C 196.488281 171.226562 197.722656 169.539062 198.921875 167.699219 C 201.03125 164.460938 203.042969 160.734375 204.738281 156.859375 C 205.570312 154.949219 206.316406 153 206.925781 151.042969 C 206.980469 151.011719 207.039062 150.976562 207.113281 150.929688 C 207.378906 150.753906 207.777344 150.441406 208.375 149.894531 C 208.644531 149.652344 208.957031 149.378906 209.332031 149.078125 C 209.707031 148.785156 210.152344 148.4375 210.664062 148.277344 C 210.707031 148.394531 210.75 148.507812 210.796875 148.625 L 210.796875 148.632812 C 210.941406 148.960938 211.042969 149.332031 211.128906 149.742188 L 211.132812 149.75 C 211.328125 150.484375 211.394531 151.34375 211.394531 152.316406 C 211.394531 152.398438 211.390625 152.484375 211.390625 152.566406 Z M 211.390625 152.566406 " fill-opacity="1" fill-rule="nonzero"/><path fill="#000000" d="M 186.304688 178.390625 C 186.40625 178.359375 186.507812 178.332031 186.601562 178.300781 C 186.605469 178.300781 186.605469 178.300781 186.609375 178.304688 C 186.519531 178.332031 186.417969 178.363281 186.296875 178.40625 C 186.300781 178.398438 186.304688 178.394531 186.304688 178.390625 Z M 186.304688 178.390625 " fill-opacity="1" fill-rule="nonzero"/><path fill="#000000" d="M 188.488281 178.195312 C 188.488281 178.191406 188.488281 178.1875 188.488281 178.1875 C 188.496094 178.1875 188.503906 178.1875 188.515625 178.1875 C 188.503906 178.191406 188.496094 178.195312 188.488281 178.195312 Z M 188.488281 178.195312 " fill-opacity="1" fill-rule="nonzero"/><path fill="#000000" d="M 183.808594 163.394531 C 184.386719 166.476562 185.292969 170.03125 186.132812 172.519531 C 186.859375 174.683594 187.320312 175.679688 187.554688 176.148438 C 187.644531 176.335938 187.707031 176.441406 187.746094 176.503906 C 187.769531 176.539062 187.785156 176.558594 187.804688 176.578125 L 187.84375 176.609375 C 187.863281 176.621094 187.886719 176.632812 187.921875 176.632812 C 187.949219 176.632812 187.976562 176.621094 188 176.609375 L 188.007812 176.605469 C 188.015625 176.597656 188.019531 176.597656 188.023438 176.589844 C 188.023438 176.589844 188.027344 176.589844 188.027344 176.589844 L 188.03125 176.582031 C 188.050781 176.558594 188.066406 176.539062 188.066406 176.519531 L 188.078125 176.464844 C 188.078125 176.425781 188.066406 176.378906 188.050781 176.304688 C 188.035156 176.230469 188.003906 176.125 187.957031 175.976562 L 187.957031 175.972656 C 187.75 175.371094 187.410156 174.382812 186.703125 172.328125 C 185.875 169.875 184.90625 166.363281 184.257812 163.316406 C 183.597656 160.273438 183.210938 157.710938 183.132812 157.226562 C 183.121094 157.167969 183.074219 157.121094 183.015625 157.113281 L 183.007812 157.113281 C 182.984375 157.109375 182.957031 157.113281 182.929688 157.121094 L 182.925781 157.125 C 182.871094 157.148438 182.835938 157.207031 182.84375 157.269531 C 182.90625 157.738281 183.21875 160.320312 183.808594 163.394531 Z M 183.808594 163.394531 " fill-opacity="1" fill-rule="nonzero"/><path fill="#000000" d="M 188.40625 167.007812 C 188.40625 167.089844 188.40625 167.175781 188.40625 167.261719 C 188.40625 169.351562 188.265625 171.746094 188.210938 173.484375 C 188.195312 174.03125 188.1875 174.480469 188.1875 174.847656 C 188.1875 175.535156 188.210938 175.941406 188.238281 176.179688 C 188.253906 176.335938 188.269531 176.421875 188.289062 176.480469 C 188.300781 176.511719 188.308594 176.53125 188.328125 176.558594 L 188.371094 176.601562 C 188.390625 176.617188 188.421875 176.628906 188.453125 176.628906 C 188.453125 176.628906 188.453125 176.628906 188.457031 176.628906 C 188.464844 176.628906 188.464844 176.625 188.46875 176.625 C 188.492188 176.621094 188.507812 176.617188 188.523438 176.609375 C 188.527344 176.609375 188.53125 176.609375 188.539062 176.605469 C 188.574219 176.578125 188.589844 176.558594 188.597656 176.535156 C 188.632812 176.46875 188.652344 176.386719 188.675781 176.175781 C 188.722656 175.808594 188.765625 175.058594 188.8125 173.5 C 188.851562 172.273438 188.898438 170.699219 188.898438 169.136719 C 188.898438 168.414062 188.890625 167.691406 188.859375 167.003906 C 188.792969 164.828125 188.488281 163.050781 188.417969 162.714844 C 188.40625 162.648438 188.351562 162.605469 188.289062 162.601562 L 188.28125 162.601562 L 188.230469 162.609375 L 188.222656 162.613281 C 188.160156 162.636719 188.121094 162.699219 188.132812 162.765625 C 188.179688 163.078125 188.402344 164.796875 188.402344 166.894531 C 188.40625 166.933594 188.40625 166.972656 188.40625 167.007812 Z M 188.40625 167.007812 " fill-opacity="1" fill-rule="nonzero"/></svg>