<svg xmlns="http://www.w3.org/2000/svg" xmlns:xlink="http://www.w3.org/1999/xlink" width="500" zoomAndPan="magnify" viewBox="0 0 375 374.999991" height="500" preserveAspectRatio="xMidYMid meet" version="1.0"><defs><clipPath id="c2cf340867"><path d="M 83.300781 70.457031 L 300.417969 70.457031 L 300.417969 289 L 83.300781 289 Z M 83.300781 70.457031 " clip-rule="nonzero"/></clipPath><clipPath id="911004c500"><path d="M 80.53125 67.703125 L 300.875 67.703125 L 300.875 288.046875 L 80.53125 288.046875 Z M 80.53125 67.703125 " clip-rule="nonzero"/></clipPath><clipPath id="0ec285d0fd"><path d="M 190.703125 288.046875 C 161.289062 288.046875 133.589844 276.597656 112.808594 255.769531 C 91.980469 234.988281 80.53125 207.289062 80.53125 177.875 C 80.53125 148.460938 91.980469 120.761719 112.808594 99.980469 C 133.589844 79.152344 161.289062 67.703125 190.703125 67.703125 C 220.117188 67.703125 247.816406 79.152344 268.597656 99.980469 C 289.425781 120.808594 300.875 148.460938 300.875 177.875 C 300.875 207.289062 289.425781 234.988281 268.597656 255.769531 C 247.816406 276.597656 220.117188 288.046875 190.703125 288.046875 Z M 190.703125 74.308594 C 163.050781 74.308594 137.023438 85.097656 117.472656 104.648438 C 97.925781 124.195312 87.136719 150.222656 87.136719 177.875 C 87.136719 205.527344 97.925781 231.554688 117.472656 251.105469 C 137.023438 270.65625 163.050781 281.441406 190.703125 281.441406 C 218.355469 281.441406 244.382812 270.65625 263.933594 251.105469 C 283.484375 231.554688 294.269531 205.527344 294.269531 177.875 C 294.269531 150.222656 283.484375 124.195312 263.933594 104.648438 C 244.382812 85.097656 218.355469 74.308594 190.703125 74.308594 Z M 190.703125 74.308594 " clip-rule="nonzero"/></clipPath><clipPath id="7297487bcf"><path d="M 292.605469 150.550781 L 294.949219 150.550781 L 294.949219 152.832031 L 292.605469 152.832031 Z M 292.605469 150.550781 " clip-rule="nonzero"/></clipPath><clipPath id="519a556a13"><path d="M 294.929688 151.359375 C 293.867188 153.011719 292.960938 152.691406 292.746094 152.371094 C 292.535156 151.996094 292.695312 151.039062 293.015625 150.773438 C 293.332031 150.5625 294.613281 150.878906 294.613281 150.878906 " clip-rule="nonzero"/></clipPath></defs><g clip-path="url(#c2cf340867)"><path fill="#717163" d="M 83.519531 186.042969 C 84.097656 168.695312 84.4375 151.289062 91.742188 135.035156 C 97.269531 122.734375 105.207031 112.011719 114.277344 102.191406 C 130.285156 84.863281 150.957031 76.410156 173.664062 72.34375 C 199.574219 67.707031 223.976562 72.5625 246.71875 85.386719 C 263.085938 94.617188 275.761719 107.808594 285 124.214844 C 291.03125 134.933594 296.355469 145.9375 298.324219 158.257812 C 300.199219 170.007812 300.738281 181.714844 299.140625 193.613281 C 297.5625 205.328125 294.816406 216.605469 289.121094 226.945312 C 281.507812 240.75 273.511719 254.222656 260.679688 264.230469 C 244.488281 276.851562 226.320312 284.023438 206.144531 287.183594 C 171.140625 292.660156 141.683594 280.617188 114.925781 259.414062 C 109.492188 255.109375 104.269531 250.542969 100.632812 244.53125 C 91.457031 229.378906 84.285156 213.53125 84.007812 195.355469 C 83.980469 193.75 83.628906 192.152344 83.535156 190.542969 C 83.453125 189.046875 83.519531 187.546875 83.519531 186.042969 Z M 138.398438 224.253906 C 146.191406 228.214844 152.882812 233.464844 158.984375 239.621094 C 165.070312 245.761719 171.367188 251.699219 177.742188 257.546875 C 182.84375 262.222656 188.421875 266.292969 194.832031 269.039062 C 205.960938 273.8125 217.78125 275.144531 229.703125 276.035156 C 233.796875 276.339844 237.246094 275.085938 240.757812 273.152344 C 246.820312 269.816406 252.640625 266.148438 258.058594 261.863281 C 263.398438 257.640625 268.378906 253 272.539062 247.574219 C 274.738281 244.703125 274.601562 244.308594 271.207031 243.441406 C 263.996094 241.605469 256.796875 239.691406 249.53125 238.09375 C 245.054688 237.105469 240.476562 236.570312 235.839844 236.664062 C 218.214844 237.023438 200.976562 235.257812 184.691406 227.71875 C 181.195312 226.101562 177.351562 225.179688 173.4375 224.726562 C 161.816406 223.382812 150.164062 224.195312 138.394531 224.253906 Z M 89.042969 211.429688 C 95.609375 229.738281 102.917969 246.246094 118.335938 258.015625 C 144.601562 278.070312 173.210938 289.4375 206.855469 283.589844 C 212.707031 282.570312 218.609375 281.652344 224.210938 279.375 C 221.734375 278.753906 219.28125 278.378906 216.824219 278.09375 C 202.394531 276.40625 189.023438 272.0625 177.996094 262.15625 C 171.390625 256.21875 164.515625 250.492188 158.574219 243.9375 C 144.296875 228.195312 126.15625 221.671875 105.621094 220.125 C 101.53125 219.816406 97.664062 218.464844 94.824219 215.46875 C 93.34375 213.910156 91.808594 212.734375 89.042969 211.429688 Z M 215.871094 206.800781 C 216.679688 206.800781 217.535156 206.625 218.289062 206.828125 C 221.945312 207.828125 222.9375 205.699219 223.183594 202.734375 C 223.539062 198.390625 224.039062 194.101562 223.386719 189.675781 C 221.914062 179.59375 210.183594 165.761719 199.589844 164.074219 C 195.628906 163.441406 191.660156 163.449219 187.609375 163.574219 C 172.257812 164.042969 161.15625 175.269531 158.542969 188.867188 C 156.582031 199.082031 158.148438 208.503906 165.347656 216.511719 C 166.882812 218.21875 168.277344 218.648438 170.667969 217.621094 C 185.097656 211.4375 200.085938 207.402344 215.871094 206.800781 Z M 171.21875 221.054688 C 175.324219 221.488281 178.65625 222.160156 181.886719 223.308594 C 188.453125 225.632812 194.960938 228.160156 201.617188 230.207031 C 212.09375 233.4375 223.042969 233.421875 233.800781 233.355469 C 247.984375 233.265625 261.074219 237.898438 274.527344 241.035156 C 276.25 241.4375 276.90625 241.289062 277.71875 239.871094 C 280.460938 235.089844 283.402344 230.421875 286.089844 225.609375 C 287.664062 222.785156 289.214844 219.894531 289.875 216.445312 C 286.613281 216.625 283.628906 216.902344 280.644531 216.933594 C 267.457031 217.085938 254.539062 214.558594 241.582031 212.675781 C 225.078125 210.28125 208.71875 208.675781 192.371094 213.648438 C 185.417969 215.761719 178.414062 217.675781 171.21875 221.054688 Z M 214.808594 168.726562 C 221.800781 160.246094 228.515625 151.90625 235.4375 143.746094 C 245.488281 131.886719 255.695312 120.160156 265.808594 108.355469 C 266.660156 107.363281 268.414062 106.515625 266.394531 104.832031 C 261.976562 101.144531 257.628906 97.371094 253.335938 93.535156 C 251.597656 91.984375 250.484375 91.597656 249.507812 94.253906 C 248.921875 95.839844 247.804688 97.230469 246.898438 98.695312 C 234.660156 118.492188 222.550781 138.367188 212.835938 159.578125 C 211.246094 163.058594 211.902344 166.105469 214.808594 168.726562 Z M 178.378906 161.382812 C 177.84375 160.140625 177.507812 159.414062 177.214844 158.671875 C 171.191406 143.488281 165.101562 128.328125 159.1875 113.097656 C 155.636719 103.957031 152.449219 94.664062 148.480469 85.6875 C 148.148438 84.9375 148.402344 83.125 146.414062 84.015625 C 140.871094 86.503906 135.308594 88.90625 130.484375 92.714844 C 129.402344 93.574219 129.5 94.183594 130.109375 95.261719 C 132.917969 100.253906 135.53125 105.355469 138.394531 110.316406 C 148.316406 127.527344 159.875 143.695312 170.347656 160.558594 C 172.21875 163.566406 174.816406 164.042969 177.625 161.886719 C 178.003906 161.59375 178.394531 161.421875 178.378906 161.382812 Z M 186.101562 159.582031 C 184.914062 152.300781 183.960938 145.597656 182.707031 138.953125 C 180.058594 124.859375 177.378906 110.78125 176.09375 96.476562 C 175.570312 90.652344 174.839844 84.839844 174.019531 79.046875 C 173.824219 77.65625 174.242188 75.183594 171.320312 75.902344 C 164.988281 77.453125 158.667969 79.019531 152.554688 81.335938 C 151.144531 81.871094 150.621094 82.320312 151.320312 83.9375 C 158.382812 100.320312 164.085938 117.238281 170.773438 133.773438 C 174.203125 142.253906 177.703125 150.703125 180.996094 159.238281 C 181.617188 160.84375 182.375 161.296875 183.75 160.742188 C 184.601562 160.398438 186.378906 160.980469 186.105469 159.582031 Z M 196.335938 151.898438 C 196.335938 154.496094 196.582031 156.160156 196.289062 157.714844 C 195.738281 160.613281 197.9375 160.398438 199.523438 160.828125 C 201.9375 161.488281 201.417969 159.195312 201.664062 158.234375 C 203.378906 151.597656 204.742188 144.867188 206.484375 138.242188 C 211.480469 119.230469 217.78125 100.617188 223.804688 81.917969 C 224.398438 80.074219 224.542969 79.058594 222.054688 78.40625 C 216.289062 76.910156 210.535156 75.488281 204.628906 74.625 C 202.378906 74.292969 201.789062 74.859375 201.664062 77.152344 C 201.128906 86.796875 200.507812 96.4375 199.617188 106.054688 C 198.171875 121.640625 197.300781 137.265625 196.339844 151.898438 Z M 126.339844 94.96875 C 121.105469 100.386719 115.894531 104.933594 111.550781 110.359375 C 110.242188 111.992188 110.640625 112.84375 111.828125 114.035156 C 114.425781 116.652344 117.023438 119.269531 119.523438 121.976562 C 134.4375 138.132812 148.996094 154.632812 165.535156 169.230469 C 166.128906 168.703125 166.585938 168.140625 167.171875 167.804688 C 169.542969 166.453125 169.394531 165.164062 167.972656 162.847656 C 161.246094 151.871094 153.59375 141.5 146.851562 130.539062 C 139.78125 119.03125 132.457031 107.671875 126.339844 94.96875 Z M 186.507812 74.347656 C 185.253906 74.347656 184.566406 74.3125 183.875 74.351562 C 177.140625 74.722656 177.015625 74.742188 177.683594 81.15625 C 178.648438 90.410156 179.578125 99.675781 180.949219 108.871094 C 182.617188 120.097656 184.726562 131.253906 186.652344 142.441406 C 187.546875 147.648438 188.511719 152.839844 189.308594 158.0625 C 189.527344 159.5 190 160.003906 191.472656 159.996094 C 193.179688 159.988281 192.851562 158.914062 192.894531 157.917969 C 193.074219 153.890625 193.207031 149.863281 193.464844 145.839844 C 194.210938 133.996094 194.871094 122.140625 195.828125 110.3125 C 196.738281 99.066406 197.894531 87.84375 198.414062 76.570312 C 198.5 74.648438 197.960938 73.949219 195.960938 73.925781 C 192.609375 73.882812 189.300781 74.769531 186.507812 74.347656 Z M 204.527344 160.558594 C 204.160156 161.664062 205.113281 162.261719 206.441406 162.769531 C 208.460938 163.539062 208.191406 161.628906 208.523438 160.875 C 214.324219 147.738281 221.230469 135.171875 228.417969 122.769531 C 234.402344 112.445312 240.714844 102.308594 246.957031 92.128906 C 248 90.429688 248.027344 89.53125 246.011719 88.570312 C 240.851562 86.113281 235.792969 83.472656 230.453125 81.375 C 228.046875 80.429688 227.441406 81.070312 226.765625 83.261719 C 222.015625 98.660156 217.09375 114.003906 212.328125 129.398438 C 209.210938 139.464844 207.148438 149.804688 204.527344 160.558594 Z M 224.546875 180.78125 C 225.191406 180.4375 225.785156 180.085938 226.402344 179.785156 C 237.957031 174.234375 249.5 168.65625 261.074219 163.144531 C 270.691406 158.570312 280.621094 154.644531 289.761719 149.078125 C 291.480469 148.035156 292.128906 147.226562 291.273438 145.105469 C 289.261719 140.109375 286.957031 135.261719 284.628906 130.414062 C 283.710938 128.507812 283.070312 128.5625 281.480469 129.703125 C 266.058594 140.757812 250.621094 151.785156 236.433594 164.445312 C 232.140625 168.277344 227.714844 171.957031 223.378906 175.742188 C 222.660156 176.371094 221.570312 176.972656 222.554688 178.242188 C 223.214844 179.089844 223.28125 180.410156 224.546875 180.78125 Z M 160.144531 175.039062 C 161.371094 174.472656 161.78125 173.171875 162.597656 172.285156 C 163.78125 171.007812 162.214844 170.769531 161.679688 170.304688 C 155.554688 165.035156 149.882812 159.285156 144.316406 153.457031 C 132.777344 141.378906 121.40625 129.140625 110.09375 116.851562 C 108.394531 115.003906 107.78125 115.300781 106.421875 117.078125 C 103.351562 121.109375 100.796875 125.457031 98.105469 129.726562 C 97.082031 131.34375 97.160156 132.230469 98.839844 133.289062 C 101.355469 134.875 103.734375 136.695312 106.097656 138.503906 C 122.996094 151.441406 141.496094 162.019531 158.859375 174.269531 C 159.226562 174.53125 159.636719 174.734375 160.144531 175.039062 Z M 220.1875 174.054688 C 220.761719 173.515625 221.324219 172.933594 221.941406 172.417969 C 232.890625 163.257812 243.675781 153.894531 254.855469 145.019531 C 262.761719 138.746094 271.1875 133.128906 279.398438 127.234375 C 280.832031 126.207031 282.175781 125.429688 280.652344 123.25 C 277.691406 119.019531 275.0625 114.566406 271.71875 110.582031 C 270.347656 108.949219 269.675781 108.808594 268.207031 110.546875 C 256.699219 124.179688 245.035156 137.6875 233.511719 151.308594 C 228.386719 157.367188 223.472656 163.605469 218.464844 169.765625 C 217.925781 170.425781 216.9375 171.039062 217.949219 172 C 218.664062 172.675781 218.925781 173.863281 220.1875 174.050781 Z M 95.496094 134.53125 C 92.917969 141.011719 90.921875 146.9375 89.492188 153.082031 C 89.042969 155.023438 89.78125 155.480469 91.109375 156.027344 C 95.019531 157.640625 98.933594 159.242188 102.832031 160.875 C 120.015625 168.0625 137.121094 175.449219 155.085938 180.5625 C 156.429688 180.945312 157.320312 181.425781 158.097656 179.789062 C 158.882812 178.140625 157.875 177.640625 156.773438 176.875 C 136.480469 162.800781 115.023438 150.433594 95.496094 134.53125 Z M 296.054688 166.925781 C 296.1875 161.785156 294.527344 157.421875 293.859375 152.894531 C 293.597656 151.125 292.625 151.074219 291.246094 151.988281 C 289.625 153.0625 287.964844 154.117188 286.210938 154.953125 C 272.277344 161.632812 258.3125 168.246094 244.363281 174.894531 C 238.585938 177.652344 232.796875 180.386719 227.066406 183.242188 C 223.75 184.894531 226.582031 187.175781 226.796875 189.078125 C 227.042969 191.238281 228.542969 189.628906 229.363281 189.394531 C 240.460938 186.203125 251.5625 183.042969 262.605469 179.671875 C 272.433594 176.671875 282.585938 174.925781 292.378906 171.765625 C 295.230469 170.847656 297.191406 169.855469 296.054688 166.925781 Z M 225.734375 207.195312 C 234.144531 208.34375 242.554688 209.484375 250.957031 210.648438 C 262 212.171875 273.003906 214.027344 284.230469 213.601562 C 291.597656 213.316406 291.597656 213.402344 293.410156 206.339844 C 293.695312 205.230469 294.023438 204.136719 294.296875 203.027344 C 295.1875 199.398438 293.773438 197.679688 290.054688 197.863281 C 271.207031 198.835938 252.292969 198.085938 233.484375 200.398438 C 227.035156 201.191406 226.96875 200.636719 225.734375 207.195312 Z M 296.640625 173.949219 C 293.105469 174.988281 289.761719 176.128906 286.335938 176.949219 C 267.191406 181.535156 248.410156 187.390625 229.511719 192.847656 C 227.4375 193.449219 226.640625 194.496094 226.960938 196.460938 C 227.351562 198.847656 229.199219 197.542969 230.269531 197.460938 C 236.566406 196.972656 242.851562 196.246094 249.144531 195.671875 C 263.976562 194.324219 278.871094 195.464844 293.722656 194.523438 C 295.386719 194.417969 295.839844 194.105469 296.015625 192.519531 C 296.679688 186.558594 297.015625 180.59375 296.640625 173.949219 Z M 86.964844 180.082031 C 86.964844 184.441406 86.839844 188.355469 86.996094 192.257812 C 87.257812 198.867188 87.332031 198.863281 93.941406 198.425781 C 94.289062 198.40625 94.632812 198.429688 94.980469 198.417969 C 109.589844 197.9375 124.203125 197.503906 138.808594 196.933594 C 143.511719 196.75 148.191406 196.164062 152.890625 195.824219 C 155.4375 195.640625 154.28125 193.640625 154.59375 192.417969 C 155.015625 190.796875 153.742188 190.925781 152.699219 190.839844 C 142.171875 189.984375 131.828125 187.835938 121.417969 186.179688 C 109.996094 184.363281 98.636719 182.167969 86.964844 180.082031 Z M 88.488281 158.648438 C 88.164062 162.496094 87.828125 165.917969 87.609375 169.34375 C 87.457031 171.722656 86.5625 174.71875 87.648438 176.332031 C 88.792969 178.03125 92.097656 177.328125 94.421875 177.808594 C 113.9375 181.867188 133.585938 185.078125 153.359375 187.609375 C 155.214844 187.847656 155.417969 187.175781 155.871094 185.929688 C 156.527344 184.140625 155.339844 184.121094 154.164062 183.804688 C 144.992188 181.34375 136.125 177.976562 127.328125 174.457031 C 114.515625 169.324219 101.761719 164.058594 88.488281 158.648438 Z M 108.621094 217.019531 C 110.632812 217.363281 112.449219 216.890625 114.328125 216.203125 C 118.285156 214.753906 122.300781 213.46875 126.332031 212.25 C 135.074219 209.613281 143.953125 207.46875 152.691406 204.785156 C 155.683594 203.863281 154.851562 202.160156 154.726562 200.429688 C 154.546875 197.929688 152.566406 199.246094 151.546875 199.324219 C 144.433594 199.875 137.324219 200.324219 130.191406 200.539062 C 116.839844 200.941406 103.496094 201.53125 90.148438 201.976562 C 88.621094 202.023438 88.175781 202.542969 88.257812 204.011719 C 88.382812 206.199219 88.308594 208.167969 91.238281 208.867188 C 93.042969 209.296875 95.089844 210.375 96.191406 211.808594 C 99.4375 216.035156 103.882812 216.761719 108.621094 217.019531 Z M 119.425781 218.3125 C 125.941406 220.707031 132.382812 219.703125 138.605469 220.511719 C 139.273438 220.601562 140.0625 219.972656 140.757812 219.605469 C 145.777344 216.917969 150.726562 214.09375 155.839844 211.589844 C 157.566406 210.746094 157.058594 209.824219 156.726562 208.695312 C 156.3125 207.273438 155.410156 207.15625 154.117188 207.644531 C 142.914062 211.867188 130.949219 213.589844 119.425781 218.3125 Z M 163.886719 220.214844 C 162.210938 218.082031 160.851562 216.417969 159.566406 214.695312 C 158.941406 213.863281 158.28125 213.972656 157.527344 214.378906 C 154.0625 216.257812 150.601562 218.136719 147.140625 220.015625 C 152.671875 220.457031 158.066406 220.851562 163.886719 220.214844 Z M 163.886719 220.214844 " fill-opacity="1" fill-rule="nonzero"/></g><g clip-path="url(#911004c500)"><g clip-path="url(#0ec285d0fd)"><path fill="#717163" d="M 80.53125 67.703125 L 300.875 67.703125 L 300.875 288.046875 L 80.53125 288.046875 Z M 80.53125 67.703125 " fill-opacity="1" fill-rule="nonzero"/></g></g><g clip-path="url(#7297487bcf)"><g clip-path="url(#519a556a13)"><path fill="#717163" d="M 290.617188 148.644531 L 297.0625 148.644531 L 297.0625 154.980469 L 290.617188 154.980469 Z M 290.617188 148.644531 " fill-opacity="1" fill-rule="nonzero"/></g></g></svg>