<svg xmlns="http://www.w3.org/2000/svg" xmlns:xlink="http://www.w3.org/1999/xlink" width="500" zoomAndPan="magnify" viewBox="0 0 375 374.999991" height="500" preserveAspectRatio="xMidYMid meet" version="1.0"><defs><g/><clipPath id="5df4be3c2b"><path d="M 170.597656 92.867188 L 276.234375 92.867188 L 276.234375 262.824219 L 170.597656 262.824219 Z M 170.597656 92.867188 " clip-rule="nonzero"/></clipPath><clipPath id="04969e37aa"><path d="M 207.375 92.898438 C 199.90625 92.898438 192.921875 94.398438 187.503906 96.042969 C 177.628906 99.042969 170.667969 103.179688 170.597656 103.222656 L 171.445312 104.636719 C 171.515625 104.597656 178.300781 100.566406 187.980469 97.625 C 193.277344 96.015625 200.097656 94.550781 207.371094 94.550781 C 212.335938 94.550781 217.507812 95.230469 222.554688 97.015625 C 235.570312 101.621094 245.339844 112.601562 251.589844 129.652344 C 251.761719 130.257812 254.992188 141.90625 252.984375 155.734375 C 252.65625 156.742188 249.792969 166.15625 254.539062 175.621094 C 257.96875 182.460938 264.496094 187.550781 273.9375 190.746094 C 272.6875 193.902344 267.363281 205.640625 256.863281 207.101562 L 254.636719 207.410156 L 263.894531 213.300781 C 263.65625 214.539062 262.601562 217.914062 258.042969 219.664062 L 256.855469 220.121094 L 257.757812 221.019531 C 257.769531 221.035156 259.335938 222.597656 260.855469 224.375 C 263.714844 227.71875 263.664062 228.585938 263.660156 228.617188 C 263.453125 229.71875 260.671875 230.160156 258.480469 230.160156 C 258.226562 230.160156 257.984375 230.15625 257.75 230.144531 L 256.636719 230.089844 L 260.050781 243.589844 L 260.0625 243.628906 C 260.070312 243.652344 260.851562 246.351562 259.140625 248.894531 C 257.453125 251.402344 253.984375 252.921875 248.828125 253.417969 L 247.988281 253.496094 C 245.386719 253.289062 237.902344 252.105469 230.867188 248.777344 C 230.542969 248.625 222.800781 245.003906 212.023438 244.730469 C 211.59375 244.71875 211.171875 244.710938 210.746094 244.710938 C 204.867188 244.710938 199.238281 245.757812 193.996094 247.828125 C 186.976562 250.597656 180.644531 255.21875 175.179688 261.558594 L 176.429688 262.636719 C 181.710938 256.511719 187.8125 252.050781 194.566406 249.375 C 199.621094 247.375 205.0625 246.363281 210.742188 246.363281 C 211.132812 246.363281 211.523438 246.367188 211.914062 246.375 C 222.359375 246.632812 230.082031 250.230469 230.160156 250.269531 C 234.859375 252.496094 239.621094 253.726562 242.789062 254.367188 C 244.332031 254.683594 245.890625 254.929688 247.171875 255.070312 C 247.894531 255.148438 248.378906 255.179688 248.714844 255.179688 C 249.238281 255.179688 249.386719 255.101562 249.515625 255.003906 C 254.898438 254.402344 258.597656 252.660156 260.507812 249.816406 C 262.585938 246.726562 261.742188 243.492188 261.648438 243.175781 L 258.773438 231.8125 C 260.875 231.789062 264.8125 231.40625 265.277344 228.921875 C 265.414062 228.195312 265.183594 226.910156 262.160156 223.367188 C 261.273438 222.324219 260.382812 221.367188 259.757812 220.714844 C 265.230469 218.035156 265.589844 213.160156 265.605469 212.941406 L 265.632812 212.457031 L 259.136719 208.320312 C 263.769531 207.078125 267.992188 203.851562 271.441406 198.882812 C 274.390625 194.632812 275.734375 190.660156 275.789062 190.492188 L 276.054688 189.699219 L 275.261719 189.445312 C 265.820312 186.410156 259.34375 181.515625 256.019531 174.898438 C 251.40625 165.722656 254.535156 156.28125 254.566406 156.191406 L 254.589844 156.117188 L 254.601562 156.039062 C 256.726562 141.527344 253.308594 129.65625 253.164062 129.160156 L 253.148438 129.109375 C 246.722656 111.5625 236.613281 100.238281 223.101562 95.457031 C 217.863281 93.605469 212.507812 92.898438 207.375 92.898438 Z M 207.375 92.898438 " clip-rule="nonzero"/></clipPath></defs><g fill="#000000" fill-opacity="1"><g transform="translate(119.108565, 297.678614)"><g><path d="M 18.765625 -9.414062 L 12.136719 -14.664062 L 12.054688 -14.558594 C 12.84375 -13.757812 13.402344 -12.933594 12.796875 -12.167969 L 3.238281 -0.105469 C 2.632812 0.664062 1.53125 0.519531 0.402344 0.148438 L 0.320312 0.253906 L 6.519531 5.167969 C 11.253906 8.914062 17.234375 9.113281 21.238281 4.0625 C 24.78125 -0.414062 23.921875 -5.328125 18.765625 -9.414062 Z M 7.324219 5.246094 C 6.089844 4.269531 5.390625 3.265625 4.90625 2.257812 L 15.660156 -11.316406 L 17.644531 -9.746094 C 22.332031 -6.035156 21.59375 -1.207031 18 3.332031 C 14.097656 8.253906 10.734375 7.949219 7.324219 5.246094 Z M 7.324219 5.246094 "/></g></g></g><g fill="#000000" fill-opacity="1"><g transform="translate(149.315326, 318.343668)"><g><path d="M 17.515625 1.347656 C 14.367188 3.480469 12.566406 4.601562 9.769531 3.472656 L 5.027344 1.558594 L 8.34375 -6.660156 L 11.875 -5.234375 C 14.546875 -4.15625 15.03125 -3.171875 14.882812 -1.0625 L 17.097656 -6.558594 C 15.742188 -4.9375 14.710938 -4.5625 12.039062 -5.640625 L 8.507812 -7.0625 L 11.824219 -15.285156 L 16.058594 -13.574219 C 18.859375 -12.445312 19.382812 -10.769531 20.105469 -7.691406 L 20.226562 -7.699219 L 21.011719 -12.046875 L 7.5 -17.496094 L 7.449219 -17.371094 C 8.429688 -16.828125 9.199219 -16.195312 8.835938 -15.285156 L 3.078125 -1.015625 C 2.710938 -0.109375 1.617188 0.0664062 0.429688 0.0273438 L 0.378906 0.152344 L 13.390625 5.402344 L 14.023438 6.300781 L 14.398438 5.808594 L 17.597656 1.441406 Z M 17.515625 1.347656 "/></g></g></g><g fill="#000000" fill-opacity="1"><g transform="translate(181.122366, 328.759951)"><g><path d="M 10.488281 -9.726562 C 7.726562 -10.699219 5.210938 -11.914062 5.558594 -14.992188 C 5.769531 -16.828125 6.867188 -18.292969 9.433594 -18 C 12.457031 -17.65625 14.996094 -15.179688 14.148438 -11.582031 L 16.984375 -15.117188 C 15.710938 -16.660156 13.78125 -17.972656 10.699219 -18.324219 C 6.457031 -18.804688 3.578125 -17.050781 3.222656 -13.917969 C 2.972656 -11.730469 3.953125 -9.046875 8.921875 -7.25 C 12.050781 -6.128906 14.023438 -5.167969 13.710938 -2.4375 C 13.511719 -0.683594 12.4375 1.304688 9.332031 0.949219 C 6.117188 0.585938 3.285156 -1.925781 4.101562 -5.527344 L 1.324219 -2.039062 C 2.625 -0.46875 4.929688 0.941406 8.089844 1.300781 C 12.84375 1.839844 15.648438 -0.46875 15.996094 -3.519531 C 16.210938 -5.410156 15.542969 -7.949219 10.488281 -9.726562 Z M 10.488281 -9.726562 "/></g></g></g><g fill="#000000" fill-opacity="1"><g transform="translate(213.456104, 330.109293)"><g><path d="M 0.40625 -0.046875 L 7.265625 -0.839844 L 7.25 -0.976562 C 6.125 -0.984375 5.148438 -1.171875 5.035156 -2.144531 L 3.203125 -17.96875 C 3.089844 -18.941406 4 -19.347656 5.09375 -19.613281 L 5.078125 -19.746094 L -1.78125 -18.953125 L -1.765625 -18.816406 C -0.644531 -18.8125 0.335938 -18.621094 0.449219 -17.652344 L 2.28125 -1.824219 C 2.390625 -0.851562 1.480469 -0.445312 0.390625 -0.183594 Z M 0.40625 -0.046875 "/></g></g></g><g fill="#000000" fill-opacity="1"><g transform="translate(236.959103, 326.238124)"><g><path d="M 17.089844 -15.347656 L 17.042969 -15.472656 L 7.800781 -11.929688 L 7.410156 -11.429688 C 11.800781 -12.96875 12.738281 -13.183594 13.085938 -12.269531 L 14.722656 -8.003906 C 14.382812 -6.914062 13.542969 -6.066406 11.996094 -5.472656 C 7.246094 -3.652344 2.039062 -6.605469 0.015625 -11.886719 C -1.804688 -16.632812 0.0585938 -20.203125 3.460938 -21.503906 C 7.394531 -23.015625 10.738281 -20.597656 10.660156 -16.695312 L 10.746094 -16.699219 L 12.25 -22.429688 C 10.535156 -23.402344 7.75 -23.761719 4.472656 -22.507812 C -0.757812 -20.5 -4.511719 -15.1875 -2.265625 -9.324219 C -0.171875 -3.863281 5.746094 -1.796875 10.59375 -3.65625 C 12.777344 -4.492188 14.238281 -5.925781 14.898438 -7.546875 L 15.257812 -5.851562 L 20.03125 -7.679688 L 19.980469 -7.808594 C 18.890625 -7.535156 17.894531 -7.472656 17.546875 -8.386719 L 15.675781 -13.261719 C 15.324219 -14.175781 16.097656 -14.820312 17.089844 -15.347656 Z M 17.089844 -15.347656 "/></g></g></g><g fill="#000000" fill-opacity="1"><g transform="translate(271.636956, 310.089518)"><g><path d="M -0.191406 -24.152344 L -0.105469 -24.046875 C 0.851562 -24.632812 2.121094 -24.566406 4.421875 -21.667969 L 10.558594 -13.941406 L -6.347656 -17.390625 C -7.199219 -17.546875 -7.695312 -17.777344 -8.046875 -17.914062 L -11.625 -15.074219 C -10.671875 -15.273438 -9.75 -15.207031 -8.351562 -14.929688 L -0.503906 -5.050781 C 1.796875 -2.15625 1.234375 -1.328125 0.449219 -0.527344 L 0.53125 -0.421875 L 4.195312 -3.332031 L 4.109375 -3.4375 C 3.152344 -2.851562 1.882812 -2.917969 -0.417969 -5.8125 L -7.519531 -14.757812 L 14.25 -10.34375 L 14.257812 -10.421875 C 13.605469 -11.152344 12.664062 -12.210938 10.902344 -14.425781 L 4.527344 -22.449219 C 2.230469 -25.347656 2.789062 -26.171875 3.578125 -26.972656 L 3.492188 -27.078125 Z M -0.191406 -24.152344 "/></g></g></g><g fill="#000000" fill-opacity="1"><g transform="translate(99.685508, 95.995964)"><g><path d="M 10.027344 -20.355469 L 9.269531 -19.808594 C 10.152344 -18.988281 10.707031 -16.71875 9.242188 -15.566406 C 7.804688 -14.4375 4.335938 -15.410156 1.4375 -13.128906 C -0.585938 -11.539062 -2.226562 -8.679688 -1.605469 -5.234375 C -4.261719 -10.542969 1.351562 -12.871094 -1.320312 -16.269531 L -8.53125 -25.441406 L -14.949219 -20.394531 L 0.675781 -0.53125 L 1.40625 -1.105469 C 0.300781 -2.511719 -0.546875 -4.3125 1.503906 -5.925781 C 3.527344 -7.515625 6.667969 -4.910156 11.03125 -8.34375 C 16.628906 -12.746094 12.65625 -18.15625 10.027344 -20.355469 Z M 10.027344 -20.355469 "/></g></g></g><g fill="#000000" fill-opacity="1"><g transform="translate(133.644752, 72.431375)"><g><path d="M 2.855469 -28.617188 C -3.617188 -26.023438 -6.734375 -18.585938 -4.082031 -11.976562 C -1.433594 -5.371094 5.976562 -2.117188 12.449219 -4.714844 C 18.949219 -7.324219 22.023438 -14.78125 19.371094 -21.390625 C 16.71875 -28 9.359375 -31.230469 2.855469 -28.617188 Z M 17.265625 -9.621094 C 15.78125 -7.617188 10.25 -9.09375 4.949219 -12.992188 C -0.351562 -16.890625 -3.4375 -21.675781 -1.964844 -23.710938 C -0.457031 -25.761719 5.054688 -24.238281 10.351562 -20.34375 C 15.671875 -16.492188 18.738281 -11.65625 17.265625 -9.621094 Z M 17.265625 -9.621094 "/></g></g></g><g fill="#000000" fill-opacity="1"><g transform="translate(177.839948, 58.096108)"><g><path d="M 16.410156 -3.476562 C 10.101562 -2.886719 8.398438 -7.109375 7.765625 -13.902344 L 6.636719 -26 L -1.457031 -25.246094 L -0.0117188 -9.769531 C 0.515625 -4.089844 6.035156 -0.300781 12.976562 -0.949219 C 16.652344 -1.289062 21.539062 -3.46875 20.945312 -9.851562 L 19.328125 -27.183594 L 11.238281 -26.429688 L 12.546875 -12.402344 C 12.992188 -7.613281 17.460938 -8.292969 18.558594 -6.148438 C 19.015625 -5.253906 18.898438 -3.707031 16.410156 -3.476562 Z M 16.410156 -3.476562 "/></g></g></g><g fill="#000000" fill-opacity="1"><g transform="translate(220.705136, 57.266989)"><g><path d="M 8.925781 1.296875 L 12.558594 -23.714844 L 4.476562 -24.886719 L 0.847656 0.125 Z M 8.925781 1.296875 "/></g></g></g><g fill="#000000" fill-opacity="1"><g transform="translate(250.323318, 63.299235)"><g><path d="M 7.183594 -16.359375 C 5.375 -11.785156 8.171875 -8.714844 12.375 -5.453125 C 17.546875 -1.40625 19.746094 2.667969 17.542969 3.480469 C 13.617188 4.898438 15.03125 -3.960938 9.867188 -6.003906 C 4.734375 -8.03125 1.769531 -3.667969 0.785156 0.347656 L 1.546875 0.652344 C 2.148438 -0.875 2.878906 -1.707031 4.613281 -1.023438 C 6.347656 -0.339844 7.53125 3.253906 10.964844 4.609375 C 15.4375 6.378906 20.191406 4.285156 21.722656 0.402344 C 23.625 -4.414062 18.382812 -8.890625 15.796875 -10.875 C 10.582031 -14.816406 8.929688 -18.554688 11.144531 -19.285156 C 15.195312 -20.609375 13.183594 -12.066406 18.347656 -10.027344 C 23.515625 -7.988281 26.445312 -12.359375 27.464844 -16.367188 L 26.667969 -16.679688 C 26.066406 -15.15625 25.335938 -14.320312 23.601562 -15.007812 C 21.902344 -15.675781 21.152344 -19.058594 17.722656 -20.414062 C 13.316406 -22.152344 8.6875 -20.175781 7.183594 -16.359375 Z M 7.183594 -16.359375 "/></g></g></g><g fill="#000000" fill-opacity="1"><g transform="translate(287.459877, 80.659679)"><g><path d="M 9.28125 7.128906 C 9.097656 4.921875 9.496094 2.078125 10.480469 -0.550781 L 14.886719 2.832031 C 13.636719 6.480469 13.910156 11.015625 17.164062 13.515625 C 18.671875 14.671875 20.996094 15.5625 23.449219 14.816406 L 23.355469 13.898438 C 21.636719 14.175781 20.21875 12.902344 20.777344 10.648438 C 21.707031 6.992188 23.785156 2.996094 25.421875 -1.765625 C 26.871094 -5.914062 26.507812 -11.742188 20.535156 -16.328125 L 19.945312 -15.5625 C 21.273438 -14.539062 20.832031 -12.859375 19.691406 -9.785156 C 18.195312 -9.429688 16.550781 -9 15.128906 -8.496094 C 10.832031 -7.003906 3.800781 -3.847656 0.53125 0.410156 Z M 15.195312 1.941406 L 10.847656 -1.394531 C 12.128906 -4.40625 14.226562 -7.074219 17.101562 -8.0625 C 17.863281 -8.324219 18.582031 -8.523438 19.320312 -8.753906 C 18.042969 -5.316406 16.398438 -1.457031 15.195312 1.941406 Z M 15.195312 1.941406 "/></g></g></g><g fill="#000000" fill-opacity="1"><g transform="translate(53.100935, 177.235945)"><g><path d="M 1.34375 -0.375 L 1.359375 -1.59375 L 1.359375 -2.984375 C 1.359375 -3.410156 1.347656 -3.804688 1.328125 -4.171875 C 0.671875 -4.171875 0.234375 -4.160156 0.015625 -4.140625 C 0.00390625 -4.179688 0 -4.242188 0 -4.328125 C 0 -4.421875 0.0195312 -4.484375 0.0625 -4.515625 C 0.113281 -4.546875 0.191406 -4.5625 0.296875 -4.5625 C 0.410156 -4.570312 0.660156 -4.578125 1.046875 -4.578125 L 1.859375 -4.578125 C 2.585938 -4.578125 3.035156 -4.582031 3.203125 -4.59375 C 3.210938 -4.550781 3.21875 -4.488281 3.21875 -4.40625 C 3.21875 -4.320312 3.191406 -4.265625 3.140625 -4.234375 C 3.097656 -4.203125 3.015625 -4.179688 2.890625 -4.171875 C 2.765625 -4.171875 2.441406 -4.171875 1.921875 -4.171875 C 1.890625 -3.503906 1.875 -3.046875 1.875 -2.796875 L 1.875 -1.40625 C 1.875 -0.78125 1.914062 -0.320312 2 -0.03125 C 1.914062 0 1.8125 0.015625 1.6875 0.015625 C 1.550781 0.015625 1.457031 -0.0078125 1.40625 -0.0625 C 1.363281 -0.125 1.34375 -0.226562 1.34375 -0.375 Z M 1.34375 -0.375 "/></g></g></g><g fill="#000000" fill-opacity="1"><g transform="translate(57.630222, 177.235945)"><g><path d="M 0.53125 -0.375 L 0.546875 -1.59375 L 0.546875 -2.984375 C 0.546875 -3.617188 0.515625 -4.148438 0.453125 -4.578125 C 0.796875 -4.628906 1.140625 -4.65625 1.484375 -4.65625 C 2.722656 -4.65625 3.34375 -4.195312 3.34375 -3.28125 C 3.34375 -2.90625 3.238281 -2.597656 3.03125 -2.359375 C 2.820312 -2.128906 2.546875 -1.984375 2.203125 -1.921875 C 2.203125 -1.910156 2.238281 -1.820312 2.3125 -1.65625 C 2.394531 -1.488281 2.453125 -1.378906 2.484375 -1.328125 C 2.515625 -1.273438 2.5625 -1.1875 2.625 -1.0625 C 2.75 -0.832031 2.851562 -0.671875 2.9375 -0.578125 C 3.0625 -0.441406 3.210938 -0.375 3.390625 -0.375 C 3.441406 -0.375 3.503906 -0.382812 3.578125 -0.40625 C 3.617188 -0.320312 3.640625 -0.25 3.640625 -0.1875 C 3.640625 -0.0195312 3.460938 0.0625 3.109375 0.0625 C 2.921875 0.0625 2.75 -0.0234375 2.59375 -0.203125 C 2.5 -0.304688 2.421875 -0.394531 2.359375 -0.46875 C 2.296875 -0.550781 2.21875 -0.675781 2.125 -0.84375 C 2.039062 -1.007812 1.976562 -1.128906 1.9375 -1.203125 C 1.90625 -1.273438 1.84375 -1.40625 1.75 -1.59375 C 1.664062 -1.78125 1.617188 -1.890625 1.609375 -1.921875 C 1.472656 -1.941406 1.40625 -1.992188 1.40625 -2.078125 C 1.40625 -2.117188 1.421875 -2.179688 1.453125 -2.265625 C 1.578125 -2.242188 1.679688 -2.234375 1.765625 -2.234375 C 2.078125 -2.234375 2.320312 -2.320312 2.5 -2.5 C 2.675781 -2.6875 2.765625 -2.945312 2.765625 -3.28125 C 2.765625 -3.625 2.664062 -3.867188 2.46875 -4.015625 C 2.28125 -4.160156 1.984375 -4.234375 1.578125 -4.234375 C 1.429688 -4.234375 1.25 -4.222656 1.03125 -4.203125 C 1.050781 -3.941406 1.0625 -3.472656 1.0625 -2.796875 L 1.0625 -1.40625 C 1.0625 -0.78125 1.109375 -0.320312 1.203125 -0.03125 C 1.117188 0 1.007812 0.015625 0.875 0.015625 C 0.738281 0.015625 0.644531 -0.0078125 0.59375 -0.0625 C 0.550781 -0.125 0.53125 -0.226562 0.53125 -0.375 Z M 0.53125 -0.375 "/></g></g></g><g fill="#000000" fill-opacity="1"><g transform="translate(62.608683, 177.235945)"><g><path d="M 2.6875 -1.859375 C 2.53125 -2.265625 2.289062 -2.957031 1.96875 -3.9375 C 1.925781 -3.832031 1.820312 -3.535156 1.65625 -3.046875 C 1.488281 -2.566406 1.335938 -2.171875 1.203125 -1.859375 C 1.566406 -1.847656 1.867188 -1.84375 2.109375 -1.84375 C 2.359375 -1.84375 2.550781 -1.847656 2.6875 -1.859375 Z M 2.828125 -1.453125 C 2.316406 -1.441406 2.003906 -1.4375 1.890625 -1.4375 C 1.773438 -1.4375 1.488281 -1.441406 1.03125 -1.453125 C 0.71875 -0.671875 0.523438 -0.140625 0.453125 0.140625 C 0.296875 0.109375 0.1875 0.0703125 0.125 0.03125 C 0.0625 -0.0078125 0.03125 -0.0625 0.03125 -0.125 C 0.03125 -0.1875 0.128906 -0.445312 0.328125 -0.90625 C 0.992188 -2.46875 1.453125 -3.6875 1.703125 -4.5625 C 1.796875 -4.582031 1.894531 -4.59375 2 -4.59375 C 2.113281 -4.59375 2.191406 -4.570312 2.234375 -4.53125 C 2.285156 -4.488281 2.335938 -4.382812 2.390625 -4.21875 C 2.679688 -3.28125 2.972656 -2.429688 3.265625 -1.671875 C 3.554688 -0.910156 3.78125 -0.375 3.9375 -0.0625 C 3.8125 0.0195312 3.703125 0.0625 3.609375 0.0625 C 3.460938 0.0625 3.363281 0 3.3125 -0.125 C 3.21875 -0.34375 3.054688 -0.785156 2.828125 -1.453125 Z M 2.828125 -1.453125 "/></g></g></g><g fill="#000000" fill-opacity="1"><g transform="translate(67.732365, 177.235945)"><g><path d="M 3.359375 -0.828125 C 3.328125 -1.160156 3.3125 -1.738281 3.3125 -2.5625 L 3.3125 -2.984375 C 3.3125 -3.628906 3.296875 -4.164062 3.265625 -4.59375 C 3.347656 -4.601562 3.421875 -4.609375 3.484375 -4.609375 C 3.703125 -4.609375 3.8125 -4.519531 3.8125 -4.34375 C 3.8125 -4.320312 3.8125 -4.226562 3.8125 -4.0625 C 3.78125 -3.582031 3.765625 -3.160156 3.765625 -2.796875 L 3.765625 -1.609375 C 3.765625 -0.960938 3.78125 -0.425781 3.8125 0 C 3.738281 0.0078125 3.664062 0.015625 3.59375 0.015625 C 3.425781 0.015625 3.300781 -0.046875 3.21875 -0.171875 C 3.03125 -0.460938 2.703125 -1.019531 2.234375 -1.84375 C 1.773438 -2.664062 1.378906 -3.320312 1.046875 -3.8125 C 1.035156 -3.644531 1.03125 -2.84375 1.03125 -1.40625 C 1.03125 -0.78125 1.078125 -0.320312 1.171875 -0.03125 C 1.085938 0 0.988281 0.015625 0.875 0.015625 C 0.769531 0.015625 0.691406 -0.0078125 0.640625 -0.0625 C 0.597656 -0.125 0.578125 -0.226562 0.578125 -0.375 L 0.59375 -1.59375 L 0.59375 -2.984375 C 0.59375 -3.753906 0.546875 -4.28125 0.453125 -4.5625 C 0.546875 -4.59375 0.644531 -4.609375 0.75 -4.609375 C 0.863281 -4.609375 0.945312 -4.59375 1 -4.5625 C 1.195312 -4.445312 1.546875 -3.96875 2.046875 -3.125 C 2.554688 -2.28125 2.992188 -1.515625 3.359375 -0.828125 Z M 3.359375 -0.828125 "/></g></g></g><g fill="#000000" fill-opacity="1"><g transform="translate(73.396406, 177.235945)"><g><path d="M 2.78125 -3.6875 C 2.695312 -3.84375 2.550781 -3.96875 2.34375 -4.0625 C 2.144531 -4.164062 1.929688 -4.21875 1.703125 -4.21875 C 1.484375 -4.21875 1.289062 -4.148438 1.125 -4.015625 C 0.96875 -3.890625 0.890625 -3.71875 0.890625 -3.5 C 0.890625 -3.28125 0.945312 -3.109375 1.0625 -2.984375 C 1.1875 -2.859375 1.332031 -2.769531 1.5 -2.71875 C 1.675781 -2.675781 1.867188 -2.617188 2.078125 -2.546875 C 2.285156 -2.484375 2.476562 -2.414062 2.65625 -2.34375 C 2.832031 -2.269531 2.976562 -2.140625 3.09375 -1.953125 C 3.21875 -1.773438 3.28125 -1.5625 3.28125 -1.3125 C 3.28125 -1.050781 3.234375 -0.828125 3.140625 -0.640625 C 3.046875 -0.460938 2.921875 -0.328125 2.765625 -0.234375 C 2.460938 -0.0351562 2.113281 0.0625 1.71875 0.0625 C 1.332031 0.0625 1 0 0.71875 -0.125 C 0.445312 -0.25 0.3125 -0.398438 0.3125 -0.578125 C 0.3125 -0.679688 0.367188 -0.773438 0.484375 -0.859375 C 0.523438 -0.878906 0.585938 -0.910156 0.671875 -0.953125 C 0.753906 -0.773438 0.910156 -0.632812 1.140625 -0.53125 C 1.367188 -0.425781 1.609375 -0.375 1.859375 -0.375 C 2.097656 -0.375 2.3125 -0.441406 2.5 -0.578125 C 2.6875 -0.710938 2.78125 -0.90625 2.78125 -1.15625 C 2.78125 -1.382812 2.695312 -1.5625 2.53125 -1.6875 C 2.363281 -1.820312 2.160156 -1.921875 1.921875 -1.984375 C 1.691406 -2.046875 1.460938 -2.113281 1.234375 -2.1875 C 1.003906 -2.269531 0.804688 -2.40625 0.640625 -2.59375 C 0.472656 -2.78125 0.390625 -3.03125 0.390625 -3.34375 C 0.390625 -3.769531 0.53125 -4.09375 0.8125 -4.3125 C 1.09375 -4.539062 1.445312 -4.65625 1.875 -4.65625 C 2.195312 -4.65625 2.492188 -4.597656 2.765625 -4.484375 C 3.035156 -4.378906 3.171875 -4.226562 3.171875 -4.03125 C 3.171875 -3.851562 3.039062 -3.738281 2.78125 -3.6875 Z M 2.78125 -3.6875 "/></g></g></g><g fill="#000000" fill-opacity="1"><g transform="translate(78.293812, 177.235945)"><g><path d="M 0.546875 -0.375 L 0.546875 -2.9375 C 0.546875 -3.59375 0.515625 -4.128906 0.453125 -4.546875 C 0.953125 -4.585938 1.492188 -4.609375 2.078125 -4.609375 C 2.671875 -4.609375 3.003906 -4.570312 3.078125 -4.5 C 3.128906 -4.46875 3.15625 -4.40625 3.15625 -4.3125 C 3.15625 -4.207031 3.132812 -4.109375 3.09375 -4.015625 C 2.832031 -4.117188 2.40625 -4.171875 1.8125 -4.171875 C 1.5625 -4.171875 1.304688 -4.160156 1.046875 -4.140625 C 1.066406 -3.941406 1.078125 -3.671875 1.078125 -3.328125 L 1.078125 -2.609375 L 1.625 -2.609375 C 2 -2.609375 2.273438 -2.617188 2.453125 -2.640625 C 2.472656 -2.597656 2.484375 -2.523438 2.484375 -2.421875 C 2.484375 -2.304688 2.441406 -2.234375 2.359375 -2.203125 C 2.285156 -2.179688 2.117188 -2.171875 1.859375 -2.171875 L 1.078125 -2.171875 L 1.078125 -1.40625 C 1.078125 -0.78125 1.117188 -0.320312 1.203125 -0.03125 C 1.117188 0 1.007812 0.015625 0.875 0.015625 C 0.738281 0.015625 0.648438 -0.0078125 0.609375 -0.0625 C 0.566406 -0.125 0.546875 -0.226562 0.546875 -0.375 Z M 0.546875 -0.375 "/></g></g></g><g fill="#000000" fill-opacity="1"><g transform="translate(82.755554, 177.235945)"><g><path d="M 4.59375 -2.296875 C 4.59375 -1.578125 4.398438 -1.003906 4.015625 -0.578125 C 3.628906 -0.148438 3.109375 0.0625 2.453125 0.0625 C 1.804688 0.0625 1.289062 -0.148438 0.90625 -0.578125 C 0.53125 -1.003906 0.34375 -1.578125 0.34375 -2.296875 C 0.34375 -3.015625 0.53125 -3.585938 0.90625 -4.015625 C 1.289062 -4.441406 1.804688 -4.65625 2.453125 -4.65625 C 3.109375 -4.65625 3.628906 -4.441406 4.015625 -4.015625 C 4.398438 -3.585938 4.59375 -3.015625 4.59375 -2.296875 Z M 3.65625 -3.5625 C 3.539062 -3.769531 3.378906 -3.929688 3.171875 -4.046875 C 2.960938 -4.171875 2.726562 -4.234375 2.46875 -4.234375 C 1.988281 -4.234375 1.609375 -4.070312 1.328125 -3.75 C 1.046875 -3.425781 0.90625 -3.007812 0.90625 -2.5 C 0.90625 -1.957031 1.019531 -1.472656 1.25 -1.046875 C 1.363281 -0.835938 1.523438 -0.664062 1.734375 -0.53125 C 1.941406 -0.40625 2.179688 -0.34375 2.453125 -0.34375 C 2.953125 -0.34375 3.335938 -0.507812 3.609375 -0.84375 C 3.878906 -1.1875 4.015625 -1.625 4.015625 -2.15625 C 4.015625 -2.6875 3.894531 -3.15625 3.65625 -3.5625 Z M 3.65625 -3.5625 "/></g></g></g><g fill="#000000" fill-opacity="1"><g transform="translate(88.993726, 177.235945)"><g><path d="M 0.53125 -0.375 L 0.546875 -1.59375 L 0.546875 -2.984375 C 0.546875 -3.617188 0.515625 -4.148438 0.453125 -4.578125 C 0.796875 -4.628906 1.140625 -4.65625 1.484375 -4.65625 C 2.722656 -4.65625 3.34375 -4.195312 3.34375 -3.28125 C 3.34375 -2.90625 3.238281 -2.597656 3.03125 -2.359375 C 2.820312 -2.128906 2.546875 -1.984375 2.203125 -1.921875 C 2.203125 -1.910156 2.238281 -1.820312 2.3125 -1.65625 C 2.394531 -1.488281 2.453125 -1.378906 2.484375 -1.328125 C 2.515625 -1.273438 2.5625 -1.1875 2.625 -1.0625 C 2.75 -0.832031 2.851562 -0.671875 2.9375 -0.578125 C 3.0625 -0.441406 3.210938 -0.375 3.390625 -0.375 C 3.441406 -0.375 3.503906 -0.382812 3.578125 -0.40625 C 3.617188 -0.320312 3.640625 -0.25 3.640625 -0.1875 C 3.640625 -0.0195312 3.460938 0.0625 3.109375 0.0625 C 2.921875 0.0625 2.75 -0.0234375 2.59375 -0.203125 C 2.5 -0.304688 2.421875 -0.394531 2.359375 -0.46875 C 2.296875 -0.550781 2.21875 -0.675781 2.125 -0.84375 C 2.039062 -1.007812 1.976562 -1.128906 1.9375 -1.203125 C 1.90625 -1.273438 1.84375 -1.40625 1.75 -1.59375 C 1.664062 -1.78125 1.617188 -1.890625 1.609375 -1.921875 C 1.472656 -1.941406 1.40625 -1.992188 1.40625 -2.078125 C 1.40625 -2.117188 1.421875 -2.179688 1.453125 -2.265625 C 1.578125 -2.242188 1.679688 -2.234375 1.765625 -2.234375 C 2.078125 -2.234375 2.320312 -2.320312 2.5 -2.5 C 2.675781 -2.6875 2.765625 -2.945312 2.765625 -3.28125 C 2.765625 -3.625 2.664062 -3.867188 2.46875 -4.015625 C 2.28125 -4.160156 1.984375 -4.234375 1.578125 -4.234375 C 1.429688 -4.234375 1.25 -4.222656 1.03125 -4.203125 C 1.050781 -3.941406 1.0625 -3.472656 1.0625 -2.796875 L 1.0625 -1.40625 C 1.0625 -0.78125 1.109375 -0.320312 1.203125 -0.03125 C 1.117188 0 1.007812 0.015625 0.875 0.015625 C 0.738281 0.015625 0.644531 -0.0078125 0.59375 -0.0625 C 0.550781 -0.125 0.53125 -0.226562 0.53125 -0.375 Z M 0.53125 -0.375 "/></g></g></g><g fill="#000000" fill-opacity="1"><g transform="translate(93.972188, 177.235945)"><g><path d="M 0.578125 -0.375 L 0.59375 -1.59375 L 0.59375 -3.34375 C 0.59375 -3.863281 0.546875 -4.269531 0.453125 -4.5625 C 0.597656 -4.59375 0.734375 -4.609375 0.859375 -4.609375 C 1.054688 -4.609375 1.21875 -4.5 1.34375 -4.28125 C 1.53125 -3.96875 1.710938 -3.582031 1.890625 -3.125 C 2.078125 -2.675781 2.222656 -2.296875 2.328125 -1.984375 C 2.429688 -1.679688 2.578125 -1.234375 2.765625 -0.640625 C 2.910156 -1.210938 3.101562 -1.828125 3.34375 -2.484375 C 3.59375 -3.148438 3.863281 -3.75 4.15625 -4.28125 C 4.28125 -4.5 4.453125 -4.609375 4.671875 -4.609375 C 4.828125 -4.609375 4.953125 -4.59375 5.046875 -4.5625 C 4.960938 -4.28125 4.921875 -3.765625 4.921875 -3.015625 L 4.921875 -1.40625 C 4.921875 -0.78125 4.96875 -0.320312 5.0625 -0.03125 C 4.976562 0 4.867188 0.015625 4.734375 0.015625 C 4.597656 0.015625 4.503906 -0.0078125 4.453125 -0.0625 C 4.410156 -0.125 4.390625 -0.203125 4.390625 -0.296875 C 4.390625 -0.378906 4.394531 -0.566406 4.40625 -0.859375 C 4.40625 -1.734375 4.40625 -2.734375 4.40625 -3.859375 C 3.976562 -3.003906 3.515625 -1.722656 3.015625 -0.015625 C 2.960938 0.00390625 2.898438 0.015625 2.828125 0.015625 C 2.648438 0.015625 2.535156 -0.046875 2.484375 -0.171875 C 2.367188 -0.421875 2.160156 -0.972656 1.859375 -1.828125 C 1.554688 -2.691406 1.28125 -3.363281 1.03125 -3.84375 L 1.03125 -1.40625 C 1.03125 -0.78125 1.078125 -0.320312 1.171875 -0.03125 C 1.085938 0 0.988281 0.015625 0.875 0.015625 C 0.769531 0.015625 0.691406 -0.0078125 0.640625 -0.0625 C 0.597656 -0.125 0.578125 -0.226562 0.578125 -0.375 Z M 0.578125 -0.375 "/></g></g></g><g fill="#000000" fill-opacity="1"><g transform="translate(100.798, 177.235945)"><g><path d="M 2.6875 -1.859375 C 2.53125 -2.265625 2.289062 -2.957031 1.96875 -3.9375 C 1.925781 -3.832031 1.820312 -3.535156 1.65625 -3.046875 C 1.488281 -2.566406 1.335938 -2.171875 1.203125 -1.859375 C 1.566406 -1.847656 1.867188 -1.84375 2.109375 -1.84375 C 2.359375 -1.84375 2.550781 -1.847656 2.6875 -1.859375 Z M 2.828125 -1.453125 C 2.316406 -1.441406 2.003906 -1.4375 1.890625 -1.4375 C 1.773438 -1.4375 1.488281 -1.441406 1.03125 -1.453125 C 0.71875 -0.671875 0.523438 -0.140625 0.453125 0.140625 C 0.296875 0.109375 0.1875 0.0703125 0.125 0.03125 C 0.0625 -0.0078125 0.03125 -0.0625 0.03125 -0.125 C 0.03125 -0.1875 0.128906 -0.445312 0.328125 -0.90625 C 0.992188 -2.46875 1.453125 -3.6875 1.703125 -4.5625 C 1.796875 -4.582031 1.894531 -4.59375 2 -4.59375 C 2.113281 -4.59375 2.191406 -4.570312 2.234375 -4.53125 C 2.285156 -4.488281 2.335938 -4.382812 2.390625 -4.21875 C 2.679688 -3.28125 2.972656 -2.429688 3.265625 -1.671875 C 3.554688 -0.910156 3.78125 -0.375 3.9375 -0.0625 C 3.8125 0.0195312 3.703125 0.0625 3.609375 0.0625 C 3.460938 0.0625 3.363281 0 3.3125 -0.125 C 3.21875 -0.34375 3.054688 -0.785156 2.828125 -1.453125 Z M 2.828125 -1.453125 "/></g></g></g><g fill="#000000" fill-opacity="1"><g transform="translate(105.930015, 177.235945)"><g/></g></g><g fill="#000000" fill-opacity="1"><g transform="translate(300.229732, 193.677657)"><g><path d="M 0.84375 -0.609375 L 0.859375 -2.40625 L 0.859375 -4.5625 C 0.859375 -5.582031 0.804688 -6.414062 0.703125 -7.0625 C 1.472656 -7.125 2.316406 -7.15625 3.234375 -7.15625 C 4.148438 -7.15625 4.671875 -7.101562 4.796875 -7 C 4.859375 -6.9375 4.890625 -6.832031 4.890625 -6.6875 C 4.890625 -6.539062 4.859375 -6.394531 4.796875 -6.25 C 4.390625 -6.394531 3.726562 -6.46875 2.8125 -6.46875 C 2.425781 -6.46875 2.03125 -6.457031 1.625 -6.4375 C 1.644531 -6.125 1.65625 -5.363281 1.65625 -4.15625 L 2.515625 -4.15625 C 3.117188 -4.15625 3.550781 -4.171875 3.8125 -4.203125 C 3.832031 -4.140625 3.84375 -4.035156 3.84375 -3.890625 C 3.84375 -3.742188 3.804688 -3.640625 3.734375 -3.578125 C 3.660156 -3.523438 3.535156 -3.492188 3.359375 -3.484375 C 3.179688 -3.484375 2.929688 -3.484375 2.609375 -3.484375 L 1.65625 -3.484375 C 1.65625 -1.921875 1.6875 -0.984375 1.75 -0.671875 C 2.0625 -0.648438 2.3125 -0.640625 2.5 -0.640625 C 3.707031 -0.640625 4.476562 -0.722656 4.8125 -0.890625 C 4.875 -0.742188 4.90625 -0.597656 4.90625 -0.453125 C 4.90625 -0.296875 4.867188 -0.191406 4.796875 -0.140625 C 4.671875 -0.0351562 4.125 0.015625 3.15625 0.015625 C 2.175781 0.015625 1.582031 0.0078125 1.375 0 C 1.164062 -0.0078125 1.023438 -0.0546875 0.953125 -0.140625 C 0.878906 -0.234375 0.84375 -0.390625 0.84375 -0.609375 Z M 0.84375 -0.609375 "/></g></g></g><g fill="#000000" fill-opacity="1"><g transform="translate(307.492274, 193.677657)"><g><path d="M 5.21875 -1.28125 C 5.175781 -1.789062 5.15625 -2.691406 5.15625 -3.984375 L 5.15625 -4.640625 C 5.15625 -5.640625 5.128906 -6.46875 5.078125 -7.125 C 5.191406 -7.144531 5.300781 -7.15625 5.40625 -7.15625 C 5.757812 -7.15625 5.9375 -7.019531 5.9375 -6.75 C 5.9375 -6.707031 5.925781 -6.5625 5.90625 -6.3125 C 5.863281 -5.570312 5.84375 -4.914062 5.84375 -4.34375 L 5.84375 -2.5 C 5.84375 -1.488281 5.867188 -0.660156 5.921875 -0.015625 C 5.804688 0.015625 5.6875 0.03125 5.5625 0.03125 C 5.320312 0.03125 5.132812 -0.0625 5 -0.25 C 4.707031 -0.707031 4.203125 -1.570312 3.484375 -2.84375 C 2.765625 -4.125 2.144531 -5.15625 1.625 -5.9375 C 1.613281 -5.664062 1.609375 -4.414062 1.609375 -2.1875 C 1.609375 -1.21875 1.675781 -0.503906 1.8125 -0.046875 C 1.6875 0.00390625 1.535156 0.03125 1.359375 0.03125 C 1.191406 0.03125 1.070312 -0.015625 1 -0.109375 C 0.925781 -0.203125 0.890625 -0.359375 0.890625 -0.578125 L 0.90625 -2.484375 L 0.90625 -4.640625 C 0.90625 -5.835938 0.835938 -6.65625 0.703125 -7.09375 C 0.835938 -7.144531 0.992188 -7.171875 1.171875 -7.171875 C 1.335938 -7.171875 1.460938 -7.144531 1.546875 -7.09375 C 1.859375 -6.90625 2.40625 -6.15625 3.1875 -4.84375 C 3.976562 -3.539062 4.65625 -2.351562 5.21875 -1.28125 Z M 5.21875 -1.28125 "/></g></g></g><g fill="#000000" fill-opacity="1"><g transform="translate(316.292201, 193.677657)"><g/></g></g><g fill="#000000" fill-opacity="1"><g transform="translate(320.999433, 193.677657)"><g><path d="M 4.171875 -2.875 C 3.929688 -3.519531 3.5625 -4.597656 3.0625 -6.109375 C 3 -5.953125 2.832031 -5.492188 2.5625 -4.734375 C 2.300781 -3.984375 2.070312 -3.363281 1.875 -2.875 C 2.425781 -2.863281 2.894531 -2.859375 3.28125 -2.859375 C 3.65625 -2.859375 3.953125 -2.863281 4.171875 -2.875 Z M 4.40625 -2.25 C 3.59375 -2.226562 3.101562 -2.21875 2.9375 -2.21875 C 2.757812 -2.21875 2.3125 -2.226562 1.59375 -2.25 C 1.113281 -1.039062 0.816406 -0.21875 0.703125 0.21875 C 0.460938 0.175781 0.289062 0.117188 0.1875 0.046875 C 0.09375 -0.015625 0.046875 -0.09375 0.046875 -0.1875 C 0.046875 -0.28125 0.203125 -0.6875 0.515625 -1.40625 C 1.546875 -3.84375 2.257812 -5.738281 2.65625 -7.09375 C 2.789062 -7.113281 2.945312 -7.125 3.125 -7.125 C 3.289062 -7.125 3.410156 -7.09375 3.484375 -7.03125 C 3.554688 -6.96875 3.632812 -6.8125 3.71875 -6.5625 C 4.164062 -5.101562 4.613281 -3.78125 5.0625 -2.59375 C 5.519531 -1.40625 5.867188 -0.578125 6.109375 -0.109375 C 5.910156 0.0351562 5.738281 0.109375 5.59375 0.109375 C 5.363281 0.109375 5.210938 0.0078125 5.140625 -0.1875 C 5.003906 -0.53125 4.757812 -1.21875 4.40625 -2.25 Z M 4.40625 -2.25 "/></g></g></g><g fill="#000000" fill-opacity="1"><g transform="translate(328.959831, 193.677657)"><g><path d="M 0.828125 -0.578125 L 0.84375 -2.484375 L 0.84375 -4.640625 C 0.84375 -5.617188 0.796875 -6.441406 0.703125 -7.109375 C 1.234375 -7.191406 1.769531 -7.234375 2.3125 -7.234375 C 4.226562 -7.234375 5.1875 -6.519531 5.1875 -5.09375 C 5.1875 -4.507812 5.023438 -4.035156 4.703125 -3.671875 C 4.378906 -3.304688 3.953125 -3.070312 3.421875 -2.96875 C 3.421875 -2.96875 3.484375 -2.835938 3.609375 -2.578125 C 3.734375 -2.316406 3.816406 -2.144531 3.859375 -2.0625 C 3.910156 -1.976562 3.984375 -1.835938 4.078125 -1.640625 C 4.265625 -1.285156 4.425781 -1.039062 4.5625 -0.90625 C 4.75 -0.695312 4.976562 -0.59375 5.25 -0.59375 C 5.34375 -0.59375 5.441406 -0.601562 5.546875 -0.625 C 5.609375 -0.5 5.640625 -0.390625 5.640625 -0.296875 C 5.640625 -0.0234375 5.375 0.109375 4.84375 0.109375 C 4.550781 0.109375 4.273438 -0.03125 4.015625 -0.3125 C 3.878906 -0.476562 3.765625 -0.617188 3.671875 -0.734375 C 3.578125 -0.859375 3.457031 -1.050781 3.3125 -1.3125 C 3.175781 -1.570312 3.078125 -1.753906 3.015625 -1.859375 C 2.960938 -1.972656 2.867188 -2.175781 2.734375 -2.46875 C 2.597656 -2.769531 2.519531 -2.941406 2.5 -2.984375 C 2.289062 -3.015625 2.1875 -3.09375 2.1875 -3.21875 C 2.1875 -3.289062 2.207031 -3.390625 2.25 -3.515625 C 2.445312 -3.472656 2.613281 -3.453125 2.75 -3.453125 C 3.226562 -3.453125 3.601562 -3.59375 3.875 -3.875 C 4.144531 -4.164062 4.28125 -4.578125 4.28125 -5.109375 C 4.28125 -5.640625 4.128906 -6.015625 3.828125 -6.234375 C 3.535156 -6.460938 3.078125 -6.578125 2.453125 -6.578125 C 2.222656 -6.578125 1.941406 -6.5625 1.609375 -6.53125 C 1.640625 -6.113281 1.65625 -5.382812 1.65625 -4.34375 L 1.65625 -2.1875 C 1.65625 -1.21875 1.722656 -0.503906 1.859375 -0.046875 C 1.722656 0.00390625 1.554688 0.03125 1.359375 0.03125 C 1.148438 0.03125 1.007812 -0.015625 0.9375 -0.109375 C 0.863281 -0.203125 0.828125 -0.359375 0.828125 -0.578125 Z M 0.828125 -0.578125 "/></g></g></g><g fill="#000000" fill-opacity="1"><g transform="translate(336.694607, 193.677657)"><g><path d="M 2.078125 -0.578125 L 2.109375 -2.484375 L 2.109375 -4.640625 C 2.109375 -5.296875 2.097656 -5.90625 2.078125 -6.46875 C 1.054688 -6.46875 0.375 -6.457031 0.03125 -6.4375 C 0.0078125 -6.5 0 -6.597656 0 -6.734375 C 0 -6.867188 0.0351562 -6.960938 0.109375 -7.015625 C 0.179688 -7.066406 0.300781 -7.09375 0.46875 -7.09375 C 0.644531 -7.101562 1.03125 -7.109375 1.625 -7.109375 L 2.890625 -7.109375 C 4.023438 -7.109375 4.71875 -7.117188 4.96875 -7.140625 C 4.988281 -7.066406 5 -6.96875 5 -6.84375 C 5 -6.707031 4.957031 -6.613281 4.875 -6.5625 C 4.800781 -6.519531 4.664062 -6.492188 4.46875 -6.484375 C 4.28125 -6.472656 3.785156 -6.46875 2.984375 -6.46875 C 2.929688 -5.445312 2.90625 -4.738281 2.90625 -4.34375 L 2.90625 -2.1875 C 2.90625 -1.21875 2.976562 -0.503906 3.125 -0.046875 C 2.988281 0.00390625 2.816406 0.03125 2.609375 0.03125 C 2.398438 0.03125 2.257812 -0.015625 2.1875 -0.109375 C 2.113281 -0.203125 2.078125 -0.359375 2.078125 -0.578125 Z M 2.078125 -0.578125 "/></g></g></g><g fill="#000000" fill-opacity="1"><g transform="translate(343.731526, 193.677657)"><g><path d="M 0.84375 -0.609375 L 0.859375 -2.40625 L 0.859375 -4.5625 C 0.859375 -5.582031 0.804688 -6.414062 0.703125 -7.0625 C 1.472656 -7.125 2.316406 -7.15625 3.234375 -7.15625 C 4.148438 -7.15625 4.671875 -7.101562 4.796875 -7 C 4.859375 -6.9375 4.890625 -6.832031 4.890625 -6.6875 C 4.890625 -6.539062 4.859375 -6.394531 4.796875 -6.25 C 4.390625 -6.394531 3.726562 -6.46875 2.8125 -6.46875 C 2.425781 -6.46875 2.03125 -6.457031 1.625 -6.4375 C 1.644531 -6.125 1.65625 -5.363281 1.65625 -4.15625 L 2.515625 -4.15625 C 3.117188 -4.15625 3.550781 -4.171875 3.8125 -4.203125 C 3.832031 -4.140625 3.84375 -4.035156 3.84375 -3.890625 C 3.84375 -3.742188 3.804688 -3.640625 3.734375 -3.578125 C 3.660156 -3.523438 3.535156 -3.492188 3.359375 -3.484375 C 3.179688 -3.484375 2.929688 -3.484375 2.609375 -3.484375 L 1.65625 -3.484375 C 1.65625 -1.921875 1.6875 -0.984375 1.75 -0.671875 C 2.0625 -0.648438 2.3125 -0.640625 2.5 -0.640625 C 3.707031 -0.640625 4.476562 -0.722656 4.8125 -0.890625 C 4.875 -0.742188 4.90625 -0.597656 4.90625 -0.453125 C 4.90625 -0.296875 4.867188 -0.191406 4.796875 -0.140625 C 4.671875 -0.0351562 4.125 0.015625 3.15625 0.015625 C 2.175781 0.015625 1.582031 0.0078125 1.375 0 C 1.164062 -0.0078125 1.023438 -0.0546875 0.953125 -0.140625 C 0.878906 -0.234375 0.84375 -0.390625 0.84375 -0.609375 Z M 0.84375 -0.609375 "/></g></g></g><path stroke-linecap="butt" transform="matrix(0.94024, 0, 0, 0.94024, 26.681582, 183.344431)" fill="none" stroke-linejoin="miter" d="M 9.786047 13.771528 C 8.564617 15.690919 7.766948 16.733705 5.481959 16.733705 L 3.19697 16.733705 L 3.19697 6.351545 C 3.19697 5.757448 3.774449 5.574649 4.621972 5.491558 L 4.621972 5.408468 L 0.247256 5.408468 L 0.247256 5.491558 C 0.924444 5.574649 1.506078 5.757448 1.506078 6.351545 L 1.506078 15.72831 C 1.506078 16.322407 0.924444 16.667233 0.247256 16.920659 L 0.247256 16.999595 L 8.381818 16.999595 L 8.942679 17.365193 L 9.038233 16.999595 L 9.85252 13.80061 Z M 24.584468 14.914023 L 21.090512 6.08981 C 20.741531 5.225669 20.724913 5.092724 20.724913 4.959779 L 19.183584 5.969329 L 18.921849 6.152128 L 18.955085 6.517726 L 15.27833 14.992959 C 14.66346 16.422116 14.26878 16.733705 13.57082 16.937277 L 13.57082 16.999595 L 16.620242 16.999595 L 16.620242 16.937277 C 15.689628 16.733705 15.029059 16.438734 15.643928 15.009577 L 16.005372 14.186981 L 22.482278 14.186981 L 22.810485 15.009577 C 23.392119 16.47197 22.731549 16.833414 21.568282 16.937277 L 21.568282 16.999595 L 26.221351 16.999595 L 26.221351 16.937277 C 25.477691 16.833414 25.178565 16.438734 24.584468 14.914023 Z M 16.121699 13.887855 L 19.370538 6.4014 L 22.365951 13.887855 Z M 35.373771 10.393899 C 33.633025 9.995064 32.029378 9.430049 32.029378 7.543894 C 32.029378 6.418018 32.590239 5.458322 34.164804 5.458322 C 36.017722 5.458322 37.725232 6.783616 37.459343 9.018751 L 38.934199 6.683907 C 38.05344 5.836384 36.794619 5.175815 34.908464 5.175815 C 32.307731 5.175815 30.687466 6.434636 30.687466 8.358181 C 30.687466 9.700093 31.464362 11.253886 34.59272 11.997546 C 36.56612 12.462853 37.820787 12.907387 37.820787 14.581661 C 37.820787 15.657683 37.30978 16.937277 35.402853 16.937277 C 33.433607 16.937277 31.547453 15.607829 31.79257 13.372694 L 30.355104 15.674301 C 31.248327 16.534288 32.739802 17.232248 34.675811 17.232248 C 37.592288 17.232248 39.133617 15.641065 39.133617 13.771528 C 39.133617 12.612415 38.547829 11.120941 35.373771 10.393899 Z M 49.636258 16.999595 L 53.844792 16.999595 L 53.844792 16.920659 C 53.16345 16.833414 52.585971 16.650614 52.585971 16.056517 L 52.585971 6.351545 C 52.585971 5.757448 53.16345 5.574649 53.844792 5.491558 L 53.844792 5.408468 L 49.636258 5.408468 L 49.636258 5.491558 C 50.313445 5.574649 50.895079 5.757448 50.895079 6.351545 L 50.895079 16.056517 C 50.895079 16.650614 50.313445 16.833414 49.636258 16.920659 Z M 62.631614 5.408468 L 57.480002 5.408468 L 57.480002 5.491558 C 58.161344 5.574649 58.742978 5.757448 58.742978 6.351545 L 58.742978 15.72831 C 58.742978 16.322407 58.161344 16.667233 57.480002 16.920659 L 57.480002 16.999595 L 62.299252 16.999595 C 65.980162 16.999595 68.913257 14.830932 68.913257 10.90906 C 68.913257 7.431722 66.644886 5.408468 62.631614 5.408468 Z M 62.718859 16.733705 C 61.755009 16.733705 61.044585 16.51767 60.43387 16.218544 L 60.43387 5.670203 L 61.971044 5.670203 C 65.614563 5.670203 67.08942 8.254318 67.08942 11.785665 C 67.08942 15.607829 65.365292 16.733705 62.718859 16.733705 Z M 82.909854 13.771528 C 81.621951 15.690919 80.857518 16.733705 79.021218 16.733705 L 75.909478 16.733705 L 75.909478 11.336976 L 78.223549 11.336976 C 79.980913 11.336976 80.475302 11.785665 80.874136 13.01125 L 80.874136 9.400967 C 80.475302 10.622398 79.980913 11.071086 78.223549 11.071086 L 75.909478 11.071086 L 75.909478 5.670203 L 78.688856 5.670203 C 80.525156 5.670203 81.202344 6.501108 82.315757 8.071519 L 82.382229 8.042437 L 81.833832 5.408468 L 72.95561 5.408468 L 72.95561 5.491558 C 73.636952 5.574649 74.218586 5.757448 74.218586 6.351545 L 74.218586 15.72831 C 74.218586 16.322407 73.636952 16.667233 72.95561 16.920659 L 72.95561 16.999595 L 81.501469 16.999595 L 82.066485 17.365193 L 82.166194 16.999595 L 82.980481 13.80061 Z M 97.708274 14.914023 L 94.214318 6.08981 C 93.865338 5.225669 93.84872 5.092724 93.84872 4.959779 L 92.307391 5.969329 L 92.045656 6.152128 L 92.074737 6.517726 L 88.402137 14.992959 C 87.787267 16.422116 87.392587 16.733705 86.694627 16.937277 L 86.694627 16.999595 L 89.744048 16.999595 L 89.744048 16.937277 C 88.813435 16.733705 88.152865 16.438734 88.76358 15.009577 L 89.129179 14.186981 L 95.606084 14.186981 L 95.934292 15.009577 C 96.515925 16.47197 95.851201 16.833414 94.692089 16.937277 L 94.692089 16.999595 L 99.345157 16.999595 L 99.345157 16.937277 C 98.601497 16.833414 98.302371 16.438734 97.708274 14.914023 Z M 89.245505 13.887855 L 92.494344 6.4014 L 95.489757 13.887855 Z M 108.493423 10.393899 C 106.756831 9.995064 105.153184 9.430049 105.153184 7.543894 C 105.153184 6.418018 105.714045 5.458322 107.284456 5.458322 C 109.141529 5.458322 110.849039 6.783616 110.583149 9.018751 L 112.058006 6.683907 C 111.177246 5.836384 109.918425 5.175815 108.03227 5.175815 C 105.431537 5.175815 103.811272 6.434636 103.811272 8.358181 C 103.811272 9.700093 104.584014 11.253886 107.716526 11.997546 C 109.689926 12.462853 110.944593 12.907387 110.944593 14.581661 C 110.944593 15.657683 110.433586 16.937277 108.526659 16.937277 C 106.557414 16.937277 104.671259 15.607829 104.916376 13.372694 L 103.47891 15.674301 C 104.372133 16.534288 105.863608 17.232248 107.799617 17.232248 C 110.716094 17.232248 112.253269 15.641065 112.253269 13.771528 C 112.253269 12.612415 111.671635 11.120941 108.493423 10.393899 Z M 108.493423 10.393899 " stroke="#000000" stroke-width="0.621131" stroke-opacity="1" stroke-miterlimit="4"/><g clip-path="url(#5df4be3c2b)"><g clip-path="url(#04969e37aa)"><path fill="#000000" d="M 170.597656 91.371094 L 276.050781 91.371094 L 276.050781 262.636719 L 170.597656 262.636719 Z M 170.597656 91.371094 " fill-opacity="1" fill-rule="nonzero"/></g></g><path fill="#ff5757" d="M 173.4375 116.796875 C 153.132812 129.179688 142.878906 127.773438 138.457031 138.597656 C 129.648438 160.144531 151.960938 175.042969 169.816406 167.042969 C 195.257812 155.644531 195.511719 103.332031 173.4375 116.796875 Z M 173.4375 116.796875 " fill-opacity="1" fill-rule="nonzero"/><path fill="#adab00" d="M 231.246094 169.765625 C 224.398438 157.519531 206.605469 145.074219 204.160156 165.964844 C 202.550781 179.714844 184.683594 205.628906 180.402344 213.886719 C 175.015625 224.28125 181.421875 231.214844 199.585938 235.710938 C 218.679688 240.441406 231.808594 200.042969 233.019531 193.136719 C 234.445312 185.050781 236.722656 179.550781 231.246094 169.765625 Z M 231.246094 169.765625 " fill-opacity="1" fill-rule="nonzero"/><path fill="#000000" d="M 178.628906 119.03125 L 178.625 119.027344 Z M 178.628906 119.03125 " fill-opacity="1" fill-rule="nonzero"/><path fill="#000000" d="M 233.027344 142.601562 C 233.027344 140.828125 232.71875 138.886719 232.027344 137.125 L 231.886719 136.757812 L 231.871094 136.722656 L 231.867188 136.71875 C 231.851562 136.683594 231.816406 136.5625 231.777344 136.445312 C 231.753906 136.386719 231.726562 136.324219 231.691406 136.265625 C 231.65625 136.207031 231.609375 136.144531 231.535156 136.097656 C 231.5 136.078125 231.460938 136.066406 231.421875 136.066406 C 230.847656 136.097656 230.5625 136.15625 230.289062 136.273438 C 230.289062 136.273438 230.285156 136.273438 230.285156 136.273438 C 229.746094 136.484375 229.300781 136.78125 228.894531 137.0625 L 228.890625 137.066406 C 228.078125 137.65625 227.390625 138.273438 226.777344 138.824219 C 226.542969 139.042969 226.335938 139.234375 226.15625 139.410156 C 226.773438 137.152344 227.238281 134.886719 227.269531 132.613281 L 227.269531 132.609375 C 227.269531 131.910156 227.226562 131.203125 227.058594 130.507812 L 227.058594 130.503906 C 226.90625 129.8125 226.628906 129.09375 226.09375 128.523438 C 225.5625 127.9375 224.8125 127.625 224.097656 127.546875 L 224.09375 127.546875 C 223.9375 127.527344 223.785156 127.519531 223.632812 127.519531 C 223.085938 127.519531 222.574219 127.632812 222.09375 127.738281 L 222.089844 127.738281 C 220.855469 128.070312 219.796875 128.621094 218.824219 129.160156 L 218.820312 129.160156 C 218.339844 129.4375 217.871094 129.710938 217.433594 130.007812 C 217.214844 130.152344 216.996094 130.292969 216.785156 130.433594 L 216.777344 130.4375 L 216.730469 130.472656 C 216.859375 129.859375 216.910156 129.230469 216.996094 128.621094 L 216.996094 128.605469 C 217.023438 128.214844 217.039062 127.816406 217.039062 127.417969 C 217.039062 126.371094 216.933594 125.308594 216.613281 124.277344 C 216.195312 122.859375 215.234375 121.484375 213.808594 120.929688 C 213.253906 120.710938 212.695312 120.621094 212.160156 120.621094 C 211.324219 120.621094 210.546875 120.832031 209.890625 121.074219 L 209.886719 121.074219 C 209 121.429688 208.390625 121.800781 207.960938 122.121094 C 207.921875 122.148438 207.894531 122.175781 207.859375 122.203125 C 207.710938 121.84375 207.539062 121.484375 207.34375 121.128906 C 206.703125 119.957031 205.628906 118.890625 204.246094 118.429688 L 204.242188 118.429688 C 203.65625 118.246094 203.050781 118.164062 202.453125 118.164062 C 201.636719 118.164062 200.832031 118.308594 200.070312 118.539062 C 198.742188 118.933594 197.511719 119.550781 196.328125 120.238281 L 196.09375 120.371094 L 195.929688 120.15625 C 195.824219 120.003906 195.707031 119.863281 195.570312 119.734375 C 195.074219 119.199219 194.507812 118.738281 193.902344 118.34375 C 192.203125 117.257812 190.167969 116.628906 188.101562 116.628906 C 187.222656 116.628906 186.332031 116.746094 185.464844 116.984375 C 184.015625 117.402344 182.660156 118.253906 181.714844 119.484375 L 181.707031 119.492188 L 181.460938 119.851562 L 181.359375 119.785156 C 181.210938 119.695312 181.066406 119.609375 180.945312 119.511719 L 180.9375 119.503906 C 180.382812 119.113281 179.859375 118.671875 179.371094 118.191406 C 178.886719 117.710938 178.445312 117.171875 177.933594 116.625 C 177.671875 116.34375 177.367188 116.066406 176.992188 115.839844 L 176.984375 115.835938 C 176.625 115.644531 176.203125 115.507812 175.777344 115.503906 L 175.6875 115.507812 C 174.003906 115.589844 172.71875 116.417969 171.449219 117.144531 L 171.4375 117.152344 C 168.898438 118.820312 167.214844 121.570312 166.585938 124.457031 C 166.285156 125.84375 166.164062 127.238281 166.164062 128.625 C 166.164062 129.328125 166.199219 130.023438 166.253906 130.71875 C 165.324219 130.234375 163.796875 129.601562 162.0625 129.59375 L 162.046875 129.59375 C 160.648438 129.59375 159.113281 130.039062 157.789062 131.328125 C 156.605469 132.472656 155.363281 134.695312 155.359375 137.789062 L 155.359375 137.792969 C 155.359375 138.4375 155.417969 139.117188 155.539062 139.828125 C 155.121094 139.597656 154.535156 139.273438 153.664062 138.796875 C 153.070312 138.476562 152.328125 138.054688 151.449219 137.65625 C 151.015625 137.453125 150.539062 137.257812 149.988281 137.132812 C 149.984375 137.132812 149.980469 137.132812 149.980469 137.128906 C 149.800781 137.078125 149.605469 137.050781 149.402344 137.050781 C 148.957031 137.050781 148.464844 137.179688 148.089844 137.503906 L 148.078125 137.515625 C 147.160156 138.46875 147.03125 139.585938 146.777344 140.453125 L 146.773438 140.464844 C 146.5625 141.386719 146.410156 142.210938 146.28125 142.867188 C 146.21875 143.199219 146.195312 143.457031 146.195312 143.660156 C 146.195312 143.714844 146.199219 143.765625 146.203125 143.8125 C 146.15625 143.988281 146.117188 144.222656 146.074219 144.5625 C 146.011719 145.074219 145.960938 145.820312 145.9375 146.902344 L 145.9375 146.914062 C 145.984375 148.109375 145.992188 149.703125 146.28125 151.882812 L 146.28125 151.886719 C 146.605469 154.042969 147.054688 156.859375 148.441406 160.269531 C 149.734375 163.464844 151.992188 167.257812 155.40625 170.578125 C 158.820312 173.886719 163.316406 176.65625 168.1875 178.351562 C 173.03125 180.117188 178.171875 180.882812 182.855469 180.992188 C 183.179688 181 183.5 181 183.820312 181 C 183.882812 181 183.941406 180.996094 184 180.996094 C 183.46875 181.21875 182.949219 181.5 182.464844 181.859375 C 182.464844 181.859375 182.464844 181.859375 182.460938 181.859375 C 182.460938 181.859375 182.457031 181.859375 182.457031 181.863281 C 181.300781 182.648438 180.476562 183.8125 179.722656 184.976562 L 179.710938 184.992188 C 179.398438 185.601562 179.023438 186.203125 178.742188 186.875 L 178.742188 186.878906 C 178.476562 187.550781 178.253906 188.238281 178.09375 188.933594 C 177.773438 190.261719 177.636719 191.613281 177.636719 192.929688 C 177.636719 194.402344 177.808594 195.835938 178.085938 197.167969 C 178.617188 199.707031 179.542969 201.890625 180.460938 203.515625 L 180.460938 203.519531 C 181.324219 204.984375 181.996094 205.648438 182.378906 205.96875 C 182.554688 206.113281 182.675781 206.195312 182.757812 206.242188 C 182.84375 206.289062 182.902344 206.304688 182.960938 206.308594 L 182.988281 206.308594 C 183.023438 206.304688 183.058594 206.289062 183.085938 206.265625 C 183.136719 206.226562 183.171875 206.140625 183.171875 206.0625 C 183.167969 205.953125 183.128906 205.816406 183.003906 205.574219 C 182.960938 205.488281 182.902344 205.390625 182.832031 205.28125 C 183.003906 205.128906 183.210938 204.894531 183.464844 204.515625 C 184 203.734375 184.808594 202.445312 186.207031 199.996094 C 187.527344 197.683594 189.316406 194.128906 191.128906 190.617188 C 192.933594 187.121094 194.890625 183.675781 196.628906 181.871094 C 197.011719 181.472656 197.335938 181.199219 197.574219 180.929688 C 197.675781 180.847656 197.761719 180.78125 197.839844 180.714844 C 197.726562 180.996094 197.609375 181.300781 197.5 181.632812 C 196.695312 183.992188 196.199219 187.101562 196.171875 190.507812 C 196.167969 190.859375 196.164062 191.214844 196.164062 191.574219 C 196.164062 194.667969 196.355469 197.964844 196.402344 201.253906 C 196.417969 201.914062 196.421875 202.570312 196.421875 203.230469 C 196.421875 209.890625 195.734375 216.355469 194.851562 220.703125 L 194.851562 220.707031 C 194.273438 223.835938 193.382812 227.683594 192.605469 230.335938 L 192.605469 230.339844 C 192.332031 231.355469 192.253906 231.9375 192.25 232.285156 C 192.25 232.488281 192.273438 232.613281 192.3125 232.707031 C 192.347656 232.789062 192.394531 232.835938 192.441406 232.859375 L 192.441406 232.863281 C 192.445312 232.863281 192.449219 232.867188 192.453125 232.867188 L 192.457031 232.871094 C 192.480469 232.882812 192.511719 232.890625 192.550781 232.890625 C 192.632812 232.890625 192.714844 232.851562 192.789062 232.785156 C 192.898438 232.679688 193.011719 232.503906 193.167969 232.15625 C 193.320312 231.800781 193.507812 231.273438 193.726562 230.460938 C 193.953125 229.621094 194.246094 228.523438 194.660156 227.003906 L 194.664062 226.992188 C 194.976562 225.453125 195.484375 223.5 195.949219 220.910156 C 196.839844 216.519531 197.53125 210.015625 197.53125 203.328125 C 197.53125 202.621094 197.523438 201.917969 197.507812 201.210938 C 197.449219 197.882812 197.253906 194.570312 197.253906 191.515625 C 197.253906 191.171875 197.257812 190.832031 197.261719 190.496094 C 197.289062 187.164062 197.769531 184.1875 198.535156 181.957031 C 198.6875 181.496094 198.839844 181.09375 198.980469 180.738281 C 199.023438 181.140625 199.078125 181.558594 199.136719 181.996094 C 199.1875 182.398438 199.242188 182.8125 199.296875 183.242188 L 199.300781 183.257812 C 199.394531 183.691406 199.519531 184.128906 199.628906 184.574219 C 199.808594 185.511719 200.25 186.410156 200.644531 187.3125 L 200.660156 187.34375 C 200.945312 187.761719 201.226562 188.1875 201.515625 188.613281 L 201.53125 188.636719 C 201.886719 189.019531 202.261719 189.382812 202.632812 189.742188 L 202.648438 189.753906 C 204.3125 191.085938 206.257812 191.714844 207.792969 192.550781 C 208.179688 192.777344 208.566406 192.960938 208.898438 193.183594 C 209.234375 193.417969 209.558594 193.652344 209.875 193.875 C 210.449219 194.386719 210.992188 194.847656 211.371094 195.320312 C 211.628906 195.648438 211.898438 195.996094 212.175781 196.347656 L 212.179688 196.351562 C 212.441406 196.671875 212.625 197.097656 212.875 197.5 C 213.351562 198.25 213.675781 199.066406 213.945312 199.742188 L 213.945312 199.746094 C 214.101562 200.132812 214.25 200.378906 214.390625 200.546875 C 214.351562 200.730469 214.339844 200.875 214.335938 201 C 214.335938 201.1875 214.371094 201.316406 214.421875 201.402344 C 214.464844 201.484375 214.523438 201.527344 214.554688 201.546875 C 214.554688 201.546875 214.558594 201.550781 214.5625 201.550781 L 214.566406 201.554688 C 214.59375 201.566406 214.632812 201.585938 214.6875 201.585938 C 214.75 201.585938 214.828125 201.566406 214.898438 201.519531 C 215.007812 201.449219 215.121094 201.335938 215.242188 201.125 C 215.367188 200.914062 215.507812 200.617188 215.664062 200.171875 C 215.996094 199.191406 216.65625 197.546875 216.980469 194.355469 L 216.980469 194.351562 C 217.015625 193.976562 217.046875 193.578125 217.085938 193.160156 L 217.085938 193.152344 C 217.089844 193.089844 217.089844 193.03125 217.089844 192.96875 C 217.089844 192.585938 217.046875 192.203125 217.03125 191.8125 L 217.03125 191.800781 C 216.988281 191.363281 217.007812 190.871094 216.914062 190.359375 L 216.914062 190.355469 C 216.808594 189.875 216.695312 189.378906 216.585938 188.863281 L 216.582031 188.851562 C 216.019531 186.824219 214.914062 184.726562 213.265625 183.089844 C 211.628906 181.445312 209.566406 180.339844 207.613281 179.660156 C 205.652344 178.960938 203.765625 178.710938 202.269531 178.695312 C 202.265625 178.695312 202.265625 178.695312 202.261719 178.695312 C 202.121094 178.6875 201.992188 178.6875 201.863281 178.6875 C 201.808594 178.6875 201.761719 178.691406 201.710938 178.691406 C 202.390625 178.539062 203.191406 178.296875 204.136719 177.914062 C 209.578125 175.734375 216.792969 170.511719 222.664062 163.976562 C 225.59375 160.71875 228.203125 157.128906 230.03125 153.503906 C 231.90625 149.910156 232.878906 146.246094 233.011719 143.257812 C 233.019531 143.0625 233.027344 142.832031 233.027344 142.601562 Z M 208.527344 122.949219 C 208.996094 122.683594 209.632812 122.359375 210.53125 122.019531 C 210.800781 121.921875 211.136719 121.875 211.507812 121.78125 C 211.746094 121.769531 211.988281 121.738281 212.226562 121.738281 C 212.363281 121.738281 212.496094 121.746094 212.628906 121.773438 L 212.648438 121.777344 C 213.433594 121.855469 214.308594 122.296875 214.914062 123.222656 L 214.914062 123.226562 C 215.535156 124.144531 215.882812 125.480469 215.914062 127.035156 C 215.914062 127.078125 215.914062 127.125 215.914062 127.164062 C 215.914062 127.910156 215.875 128.703125 215.742188 129.53125 C 215.703125 129.769531 215.695312 129.992188 215.640625 130.191406 L 215.636719 130.199219 C 215.570312 130.496094 215.503906 130.792969 215.4375 131.097656 C 215.332031 131.570312 215.230469 132.050781 215.121094 132.539062 C 215.105469 132.613281 215.132812 132.691406 215.195312 132.738281 C 215.25 132.785156 215.332031 132.789062 215.402344 132.753906 C 215.765625 132.558594 216.230469 132.183594 216.625 131.917969 L 216.628906 131.914062 C 216.886719 131.730469 217.144531 131.550781 217.40625 131.363281 C 217.609375 131.226562 217.824219 131.09375 218.039062 130.953125 L 218.042969 130.953125 C 218.460938 130.667969 218.90625 130.40625 219.371094 130.136719 C 220.304688 129.621094 221.300781 129.109375 222.378906 128.828125 C 222.777344 128.71875 223.207031 128.648438 223.613281 128.648438 C 224.273438 128.648438 224.867188 128.828125 225.277344 129.296875 L 225.277344 129.300781 C 225.621094 129.679688 225.84375 130.191406 225.976562 130.769531 C 226.105469 131.347656 226.152344 131.992188 226.152344 132.621094 L 226.152344 132.632812 C 226.121094 135.230469 225.457031 137.964844 224.640625 140.6875 C 223.804688 143.410156 222.757812 146.136719 221.589844 148.8125 C 219.253906 154.160156 216.476562 159.3125 213.570312 163.773438 C 210.667969 168.230469 207.632812 172.035156 204.730469 174.445312 C 203.675781 175.332031 202.753906 175.925781 201.972656 176.328125 C 201.984375 176.277344 201.996094 176.226562 202.007812 176.171875 C 202.023438 176.164062 202.035156 176.15625 202.046875 176.148438 C 202.089844 176.113281 202.125 176.070312 202.179688 175.996094 C 202.234375 175.921875 202.308594 175.816406 202.40625 175.664062 C 202.730469 175.132812 203.363281 174.027344 204.480469 171.636719 C 205.773438 168.875 207.390625 164.921875 208.566406 161.464844 C 209.761719 158.015625 210.539062 155.089844 210.691406 154.542969 C 210.714844 154.457031 210.679688 154.367188 210.609375 154.324219 L 210.601562 154.320312 L 210.519531 154.292969 L 210.511719 154.292969 C 210.421875 154.285156 210.335938 154.339844 210.308594 154.425781 C 210.136719 154.957031 209.261719 157.84375 207.972656 161.238281 C 206.703125 164.636719 205.003906 168.535156 203.722656 171.277344 C 203.179688 172.441406 202.777344 173.308594 202.480469 173.960938 C 202.652344 173.160156 202.847656 172.230469 203.085938 171.128906 C 203.640625 168.5 204.375 165.046875 205.386719 160.265625 L 205.386719 160.261719 C 206.339844 155.464844 207.617188 149.328125 208.605469 141.222656 L 208.605469 141.21875 C 208.929688 138.324219 209.246094 135.128906 209.246094 131.6875 C 209.246094 130.597656 209.214844 129.484375 209.140625 128.351562 L 209.140625 128.347656 C 208.992188 126.664062 208.792969 124.878906 208.210938 123.136719 C 208.300781 123.078125 208.40625 123.015625 208.527344 122.949219 Z M 156.445312 137.789062 C 156.445312 135.007812 157.582031 133.042969 158.542969 132.121094 C 159.664062 131.042969 160.871094 130.699219 162.054688 130.691406 L 162.058594 130.691406 C 163.234375 130.691406 164.371094 131.0625 165.203125 131.433594 C 165.621094 131.621094 165.964844 131.808594 166.195312 131.945312 L 166.382812 132.058594 C 166.425781 132.40625 166.476562 132.753906 166.527344 133.097656 C 166.960938 135.914062 167.757812 138.617188 168.671875 141.207031 C 169.585938 143.800781 170.664062 146.28125 171.832031 148.640625 C 176.515625 158.089844 182.378906 165.753906 187.632812 171.203125 C 188.996094 172.601562 190.230469 173.753906 191.335938 174.71875 C 186.328125 171.542969 180.402344 166.867188 174.964844 162.070312 C 171.128906 158.691406 167.527344 155.25 164.640625 152.234375 C 161.757812 149.21875 159.578125 146.601562 158.628906 144.960938 C 157 142.171875 156.4375 139.761719 156.4375 137.785156 L 156.4375 137.789062 C 156.4375 137.789062 156.445312 137.789062 156.445312 137.789062 Z M 183.859375 179.917969 C 183.523438 179.917969 183.179688 179.914062 182.835938 179.90625 C 178.257812 179.796875 173.234375 179.035156 168.523438 177.3125 L 168.519531 177.3125 C 163.796875 175.65625 159.445312 172.960938 156.160156 169.777344 C 152.878906 166.574219 150.707031 162.929688 149.46875 159.859375 C 147.867188 155.984375 147.027344 150.808594 147.027344 147.0625 C 147.027344 146.929688 147.027344 146.796875 147.03125 146.667969 C 147.042969 146.300781 147.046875 145.976562 147.046875 145.683594 C 147.046875 144.964844 147.015625 144.484375 146.96875 144.152344 C 147.105469 143.953125 147.234375 143.636719 147.339844 143.078125 C 147.46875 142.425781 147.621094 141.605469 147.828125 140.726562 C 147.941406 140.296875 148.054688 139.824219 148.210938 139.398438 C 148.363281 138.972656 148.554688 138.59375 148.808594 138.351562 C 148.945312 138.234375 149.117188 138.179688 149.34375 138.179688 C 149.816406 138.175781 150.453125 138.4375 150.984375 138.679688 C 151.800781 139.054688 152.53125 139.464844 153.121094 139.785156 C 153.894531 140.210938 154.84375 140.738281 155.515625 141.105469 C 155.636719 141.171875 155.746094 141.214844 155.84375 141.238281 C 156.214844 142.570312 156.808594 144.003906 157.691406 145.523438 C 158.742188 147.328125 160.945312 149.949219 163.855469 153 C 168.230469 157.570312 174.183594 163.070312 180.152344 167.898438 C 185.78125 172.457031 191.410156 176.417969 195.746094 178.449219 C 195.691406 178.460938 195.636719 178.476562 195.585938 178.488281 C 194.777344 178.167969 193.445312 177.6875 191.222656 176.980469 C 189.527344 176.429688 187.476562 175.832031 185.40625 175.078125 L 185.402344 175.078125 C 184.378906 174.722656 183.402344 174.191406 182.375 173.695312 C 181.367188 173.207031 180.367188 172.722656 179.40625 172.257812 C 177.511719 171.316406 175.847656 170.308594 174.679688 169.398438 C 174.089844 168.945312 173.617188 168.527344 173.265625 168.191406 C 172.914062 167.851562 172.683594 167.605469 172.554688 167.480469 C 172.496094 167.425781 172.414062 167.410156 172.34375 167.441406 L 172.335938 167.445312 L 172.253906 167.515625 L 172.25 167.523438 C 172.199219 167.601562 172.207031 167.699219 172.269531 167.765625 C 172.375 167.875 172.605469 168.144531 172.953125 168.496094 C 173.300781 168.847656 173.765625 169.296875 174.359375 169.773438 C 175.535156 170.742188 177.191406 171.816406 179.097656 172.820312 C 180.046875 173.308594 181.035156 173.816406 182.039062 174.328125 C 183.023438 174.828125 184.03125 175.40625 185.109375 175.796875 C 187.210938 176.609375 189.261719 177.230469 190.953125 177.78125 C 192.367188 178.230469 193.421875 178.5625 194.21875 178.808594 C 191.355469 179.445312 187.792969 179.917969 183.859375 179.917969 Z M 195.820312 181.140625 C 193.925781 183.125 191.960938 186.613281 190.128906 190.132812 C 188.308594 193.652344 186.519531 197.1875 185.222656 199.460938 C 184.375 200.945312 183.304688 202.777344 182.472656 203.988281 C 182.378906 204.128906 182.300781 204.257812 182.238281 204.371094 C 182.007812 204.007812 181.726562 203.554688 181.394531 202.980469 C 180.527344 201.441406 179.640625 199.363281 179.144531 196.945312 C 178.882812 195.691406 178.726562 194.34375 178.726562 192.972656 C 178.726562 191.714844 178.859375 190.4375 179.164062 189.195312 L 179.164062 189.191406 C 179.308594 188.542969 179.519531 187.917969 179.761719 187.304688 C 180.007812 186.714844 180.363281 186.148438 180.667969 185.554688 C 181.382812 184.460938 182.132812 183.417969 183.101562 182.777344 L 183.109375 182.769531 C 184.632812 181.621094 186.460938 181.480469 188.0625 181.480469 C 188.449219 181.480469 188.824219 181.488281 189.175781 181.492188 C 189.675781 181.503906 190.210938 181.515625 190.761719 181.515625 C 191.261719 181.515625 191.777344 181.503906 192.292969 181.46875 C 191.851562 181.707031 191.355469 181.984375 190.792969 182.3125 L 190.785156 182.316406 C 189.480469 183.148438 187.996094 184.324219 186.773438 185.851562 C 185.535156 187.355469 184.546875 189.144531 183.949219 190.90625 C 183.332031 192.667969 183.046875 194.324219 182.902344 195.617188 C 182.832031 196.257812 182.796875 196.816406 182.777344 197.238281 C 182.757812 197.660156 182.753906 197.96875 182.746094 198.089844 C 182.738281 198.179688 182.796875 198.265625 182.882812 198.292969 L 182.890625 198.296875 L 182.980469 198.304688 L 182.988281 198.304688 C 183.074219 198.289062 183.140625 198.222656 183.152344 198.132812 C 183.167969 197.984375 183.183594 197.695312 183.21875 197.28125 C 183.316406 196.03125 183.582031 193.671875 184.546875 191.144531 C 185.167969 189.46875 186.160156 187.773438 187.367188 186.367188 C 188.558594 184.941406 189.988281 183.835938 191.238281 183.039062 C 192.363281 182.386719 193.210938 181.898438 193.835938 181.566406 C 194.1875 181.382812 194.46875 181.253906 194.683594 181.167969 C 194.84375 181.132812 194.996094 181.09375 195.152344 181.054688 C 195.210938 181.058594 195.230469 181.066406 195.242188 181.074219 C 195.253906 181.085938 195.257812 181.089844 195.304688 181.136719 L 195.34375 181.164062 L 195.398438 181.191406 C 195.453125 181.222656 195.519531 181.222656 195.574219 181.195312 C 195.628906 181.167969 195.667969 181.117188 195.679688 181.054688 L 195.691406 180.996094 L 195.691406 180.992188 L 195.695312 180.953125 C 195.695312 180.933594 195.691406 180.917969 195.6875 180.902344 C 195.894531 180.839844 196.097656 180.777344 196.296875 180.710938 C 196.144531 180.832031 195.988281 180.96875 195.820312 181.140625 Z M 196.222656 179.539062 C 195.925781 179.640625 195.585938 179.75 195.1875 179.886719 C 194.789062 180 194.304688 180.082031 193.746094 180.210938 C 193.191406 180.289062 192.554688 180.34375 191.820312 180.375 C 192.976562 180.191406 194.074219 179.972656 195.070312 179.734375 C 195.53125 179.625 195.953125 179.515625 196.351562 179.40625 C 196.398438 179.417969 196.445312 179.425781 196.484375 179.433594 C 196.394531 179.464844 196.3125 179.5 196.222656 179.539062 Z M 198.246094 179.78125 C 198.199219 179.761719 198.148438 179.75 198.09375 179.75 C 198.082031 179.75 198.066406 179.753906 198.050781 179.753906 C 198.117188 179.691406 198.167969 179.628906 198.207031 179.570312 C 198.246094 179.589844 198.285156 179.609375 198.320312 179.628906 C 198.296875 179.679688 198.273438 179.726562 198.246094 179.78125 Z M 198.628906 179.066406 C 198.515625 178.988281 198.386719 178.902344 198.246094 178.804688 C 198.316406 178.78125 198.386719 178.753906 198.453125 178.730469 C 198.503906 178.765625 198.5625 178.792969 198.65625 178.820312 C 198.683594 178.828125 198.71875 178.839844 198.757812 178.847656 C 198.710938 178.921875 198.671875 178.988281 198.628906 179.066406 Z M 199.492188 177.09375 C 199.488281 177.089844 199.484375 177.085938 199.480469 177.085938 L 199.421875 177.070312 L 199.394531 177.070312 C 199.367188 177.070312 199.332031 177.078125 199.296875 177.09375 C 199.253906 177.0625 199.207031 177.03125 199.148438 176.988281 L 199.144531 176.988281 C 198.6875 176.703125 197.746094 176.15625 196 174.664062 C 194.007812 172.941406 191.589844 170.050781 189.871094 167.359375 C 188.121094 164.679688 187.03125 162.230469 186.824219 161.777344 C 186.785156 161.695312 186.699219 161.648438 186.613281 161.664062 L 186.605469 161.664062 L 186.539062 161.6875 L 186.53125 161.691406 C 186.449219 161.742188 186.417969 161.84375 186.453125 161.929688 C 186.640625 162.386719 187.632812 164.894531 189.324219 167.683594 C 190.988281 170.480469 193.367188 173.492188 195.449219 175.296875 C 196.65625 176.328125 197.539062 176.890625 198.152344 177.214844 L 198.148438 177.222656 C 198.140625 177.246094 198.132812 177.269531 198.132812 177.289062 C 198.132812 177.304688 198.136719 177.316406 198.136719 177.328125 L 198.136719 177.335938 L 198.140625 177.34375 C 198.144531 177.355469 198.144531 177.363281 198.148438 177.371094 L 198.152344 177.386719 C 198.195312 177.46875 198.269531 177.527344 198.410156 177.597656 C 198.457031 177.621094 198.515625 177.640625 198.582031 177.667969 C 198.183594 177.785156 197.722656 177.921875 197.1875 178.066406 C 197.140625 178.035156 197.097656 178.003906 197.050781 177.972656 C 197.050781 177.945312 197.046875 177.921875 197.035156 177.898438 C 197.015625 177.851562 196.980469 177.8125 196.933594 177.792969 C 196.816406 177.742188 196.699219 177.691406 196.582031 177.636719 C 196.019531 177.230469 195.355469 176.738281 194.585938 176.117188 C 192.988281 174.839844 190.929688 173.035156 188.363281 170.410156 C 183.191406 165.027344 177.386719 157.4375 172.78125 148.105469 C 171.628906 145.777344 170.570312 143.332031 169.679688 140.789062 C 168.789062 138.242188 168.011719 135.601562 167.601562 132.875 C 167.386719 131.484375 167.253906 130.0625 167.253906 128.648438 C 167.253906 127.304688 167.375 125.964844 167.667969 124.65625 C 168.28125 121.992188 169.804688 119.546875 172.085938 118.058594 C 172.652344 117.707031 173.28125 117.417969 173.898438 117.097656 C 174.515625 116.851562 175.144531 116.636719 175.695312 116.640625 L 175.761719 116.640625 C 176.019531 116.640625 176.25 116.71875 176.476562 116.855469 C 176.707031 116.996094 176.933594 117.207031 177.152344 117.449219 C 177.613281 117.953125 178.089844 118.519531 178.617188 119.042969 C 179.144531 119.570312 179.722656 120.035156 180.320312 120.460938 L 180.324219 120.464844 C 180.480469 120.589844 180.644531 120.679688 180.785156 120.773438 L 180.789062 120.777344 L 181.492188 121.21875 L 181.503906 121.226562 L 181.609375 121.285156 C 181.699219 121.332031 181.804688 121.304688 181.863281 121.222656 L 182.085938 120.894531 L 182.324219 120.546875 L 182.601562 120.140625 C 183.394531 119.125 184.539062 118.410156 185.792969 118.058594 C 186.53125 117.859375 187.292969 117.761719 188.054688 117.761719 C 189.917969 117.761719 191.785156 118.335938 193.304688 119.324219 C 193.839844 119.683594 194.328125 120.089844 194.753906 120.550781 L 194.765625 120.5625 C 194.867188 120.652344 194.953125 120.769531 195.050781 120.898438 L 195.050781 120.902344 L 195.425781 121.40625 L 195.578125 121.605469 L 195.664062 121.667969 L 195.835938 121.738281 C 195.890625 121.761719 195.953125 121.757812 196.007812 121.726562 L 196.441406 121.46875 L 196.898438 121.203125 C 198.035156 120.546875 199.199219 119.972656 200.394531 119.621094 C 201.070312 119.421875 201.761719 119.304688 202.429688 119.304688 C 202.9375 119.304688 203.429688 119.371094 203.894531 119.519531 C 204.957031 119.890625 205.808594 120.71875 206.355469 121.726562 C 206.59375 122.15625 206.785156 122.601562 206.957031 123.058594 C 206.953125 123.066406 206.949219 123.070312 206.941406 123.078125 C 206.972656 123.132812 207.003906 123.1875 207.023438 123.246094 C 207.089844 123.375 207.121094 123.515625 207.132812 123.65625 C 207.132812 123.660156 207.132812 123.660156 207.136719 123.664062 C 207.148438 123.660156 207.15625 123.664062 207.167969 123.660156 C 207.660156 125.21875 207.863281 126.878906 208 128.46875 C 208.070312 129.558594 208.101562 130.628906 208.101562 131.683594 C 208.101562 135.0625 207.789062 138.230469 207.46875 141.109375 C 206.339844 150.980469 203.65625 163.011719 201.851562 171.464844 C 201.300781 174.0625 201.039062 175.714844 200.949219 176.785156 C 200.339844 176.988281 199.847656 177.074219 199.492188 177.09375 Z M 200.921875 177.867188 C 200.613281 177.945312 200.347656 178 200.109375 178.046875 C 200.191406 178.007812 200.269531 177.976562 200.34375 177.941406 L 200.347656 177.941406 C 200.4375 177.894531 200.519531 177.855469 200.59375 177.816406 C 200.699219 177.796875 200.8125 177.777344 200.925781 177.75 C 200.917969 177.789062 200.921875 177.828125 200.921875 177.867188 Z M 202.246094 179.8125 L 202.339844 179.8125 C 205.09375 179.808594 209.480469 180.921875 212.488281 183.902344 C 213.984375 185.398438 214.988281 187.3125 215.5 189.171875 C 215.605469 189.648438 215.707031 190.113281 215.808594 190.566406 C 215.886719 190.996094 215.871094 191.445312 215.910156 191.890625 C 215.925781 192.277344 215.96875 192.640625 215.96875 192.972656 C 215.96875 193.027344 215.96875 193.078125 215.964844 193.132812 C 215.929688 193.53125 215.894531 193.914062 215.863281 194.269531 C 215.808594 194.75 215.808594 195.242188 215.710938 195.710938 C 215.601562 196.210938 215.488281 196.71875 215.378906 197.21875 L 215.378906 197.226562 C 215.269531 197.878906 215.066406 198.496094 214.867188 199.070312 C 214.703125 198.675781 214.539062 198.109375 214.128906 197.453125 C 213.917969 197.082031 213.671875 196.65625 213.398438 196.167969 L 213.398438 196.164062 C 213.09375 195.652344 212.65625 195.175781 212.234375 194.609375 L 212.230469 194.601562 C 211.789062 194.058594 211.191406 193.550781 210.578125 193.007812 L 210.5625 192.996094 C 210.222656 192.761719 209.871094 192.511719 209.511719 192.257812 L 209.507812 192.253906 C 209.121094 192 208.710938 191.800781 208.320312 191.578125 L 208.316406 191.574219 C 206.671875 190.695312 204.789062 190.066406 203.347656 188.90625 C 203.019531 188.578125 202.679688 188.261719 202.378906 187.933594 C 202.121094 187.554688 201.867188 187.175781 201.613281 186.804688 C 201.246094 185.949219 200.84375 185.148438 200.6875 184.308594 L 200.683594 184.296875 C 200.578125 183.867188 200.457031 183.457031 200.375 183.058594 C 200.320312 182.640625 200.269531 182.242188 200.21875 181.855469 C 200.164062 181.457031 200.113281 181.078125 200.074219 180.722656 C 200.550781 181 201.175781 181.355469 202 181.808594 C 204.085938 182.953125 206.976562 184.640625 209.125 186.496094 L 209.128906 186.5 C 210.222656 187.40625 211.128906 188.339844 211.800781 189.085938 C 212.132812 189.457031 212.40625 189.789062 212.617188 190.042969 C 212.828125 190.300781 212.96875 190.480469 213.050781 190.570312 C 213.109375 190.636719 213.203125 190.65625 213.28125 190.617188 L 213.289062 190.613281 L 213.347656 190.570312 L 213.351562 190.566406 C 213.417969 190.5 213.421875 190.390625 213.363281 190.316406 C 213.300781 190.238281 213.164062 190.046875 212.960938 189.78125 C 212.363281 188.980469 211.191406 187.488281 209.558594 186.023438 C 209.558594 186.023438 209.558594 186.023438 209.554688 186.023438 C 207.414062 184.035156 204.515625 182.230469 202.40625 181.074219 C 201.3125 180.476562 200.550781 180.085938 200.015625 179.824219 C 200.015625 179.808594 200.015625 179.789062 200.015625 179.773438 C 200.148438 179.785156 200.296875 179.789062 200.476562 179.789062 C 200.660156 179.789062 200.878906 179.785156 201.128906 179.785156 C 201.429688 179.789062 201.800781 179.792969 202.246094 179.8125 Z M 231.890625 143.234375 C 231.765625 146.035156 230.847656 149.546875 229.027344 153.03125 L 229.027344 153.035156 C 227.257812 156.550781 224.707031 160.078125 221.824219 163.277344 C 216.066406 169.703125 208.921875 174.867188 203.707031 176.933594 C 202.921875 177.25 202.253906 177.476562 201.683594 177.652344 C 201.691406 177.609375 201.703125 177.566406 201.710938 177.519531 C 202.59375 177.214844 203.628906 176.675781 204.785156 175.789062 C 205.511719 175.359375 206.46875 174.722656 207.714844 173.769531 C 210.503906 171.628906 213.929688 168.101562 216.453125 164.761719 C 219.011719 161.441406 220.679688 158.390625 220.996094 157.824219 C 221.039062 157.746094 221.023438 157.648438 220.960938 157.589844 L 220.953125 157.582031 L 220.882812 157.535156 L 220.875 157.53125 C 220.789062 157.503906 220.695312 157.539062 220.648438 157.617188 C 220.320312 158.160156 218.570312 161.132812 215.960938 164.351562 C 214.042969 166.769531 211.625 169.289062 209.390625 171.277344 C 211.117188 169.253906 212.835938 166.898438 214.507812 164.332031 C 217.449219 159.816406 220.253906 154.621094 222.617188 149.21875 C 223.777344 146.558594 224.820312 143.839844 225.664062 141.109375 C 225.742188 141.066406 225.828125 141.015625 225.929688 140.949219 C 226.300781 140.707031 226.851562 140.273438 227.6875 139.511719 C 228.0625 139.171875 228.496094 138.789062 229.019531 138.371094 C 229.542969 137.964844 230.164062 137.476562 230.878906 137.257812 C 230.9375 137.417969 231 137.574219 231.0625 137.742188 L 231.066406 137.75 C 231.261719 138.207031 231.40625 138.726562 231.527344 139.296875 L 231.53125 139.308594 C 231.804688 140.328125 231.898438 141.53125 231.898438 142.886719 C 231.894531 143 231.890625 143.121094 231.890625 143.234375 Z M 231.890625 143.234375 " fill-opacity="1" fill-rule="nonzero"/><path fill="#000000" d="M 196.917969 179.238281 C 197.058594 179.195312 197.199219 179.152344 197.332031 179.113281 C 197.335938 179.117188 197.339844 179.117188 197.34375 179.121094 C 197.21875 179.152344 197.074219 179.199219 196.910156 179.257812 C 196.914062 179.25 196.917969 179.242188 196.917969 179.238281 Z M 196.917969 179.238281 " fill-opacity="1" fill-rule="nonzero"/><path fill="#000000" d="M 199.960938 178.964844 C 199.960938 178.960938 199.960938 178.957031 199.960938 178.957031 C 199.972656 178.957031 199.984375 178.957031 200 178.957031 C 199.984375 178.960938 199.972656 178.964844 199.960938 178.964844 Z M 199.960938 178.964844 " fill-opacity="1" fill-rule="nonzero"/><path fill="#000000" d="M 193.4375 158.332031 C 194.242188 162.625 195.507812 167.585938 196.679688 171.054688 C 197.6875 174.066406 198.335938 175.457031 198.660156 176.113281 C 198.785156 176.371094 198.871094 176.519531 198.929688 176.609375 C 198.960938 176.65625 198.984375 176.6875 199.011719 176.714844 L 199.066406 176.757812 C 199.089844 176.773438 199.125 176.789062 199.175781 176.789062 C 199.210938 176.789062 199.246094 176.773438 199.277344 176.753906 L 199.292969 176.75 C 199.300781 176.742188 199.304688 176.738281 199.3125 176.730469 C 199.3125 176.730469 199.316406 176.726562 199.320312 176.726562 L 199.324219 176.71875 C 199.351562 176.6875 199.371094 176.65625 199.375 176.632812 L 199.386719 176.554688 C 199.386719 176.496094 199.375 176.433594 199.351562 176.328125 C 199.328125 176.226562 199.285156 176.082031 199.222656 175.871094 L 199.222656 175.867188 C 198.933594 175.03125 198.460938 173.648438 197.476562 170.785156 C 196.320312 167.363281 194.96875 162.46875 194.066406 158.222656 C 193.144531 153.980469 192.605469 150.410156 192.492188 149.730469 C 192.480469 149.648438 192.414062 149.582031 192.332031 149.570312 L 192.324219 149.570312 C 192.289062 149.566406 192.25 149.570312 192.214844 149.585938 L 192.207031 149.589844 C 192.128906 149.625 192.082031 149.707031 192.09375 149.792969 C 192.179688 150.445312 192.613281 154.042969 193.4375 158.332031 Z M 193.4375 158.332031 " fill-opacity="1" fill-rule="nonzero"/><path fill="#000000" d="M 199.847656 163.367188 C 199.847656 163.484375 199.847656 163.605469 199.847656 163.71875 C 199.847656 166.636719 199.652344 169.976562 199.578125 172.394531 C 199.554688 173.160156 199.542969 173.789062 199.542969 174.300781 C 199.542969 175.257812 199.578125 175.820312 199.613281 176.15625 C 199.636719 176.371094 199.660156 176.492188 199.683594 176.574219 C 199.699219 176.617188 199.710938 176.648438 199.738281 176.6875 L 199.800781 176.746094 C 199.824219 176.765625 199.867188 176.78125 199.910156 176.78125 L 199.914062 176.78125 C 199.914062 176.78125 199.914062 176.78125 199.917969 176.78125 C 199.925781 176.78125 199.929688 176.777344 199.933594 176.777344 C 199.964844 176.773438 199.988281 176.765625 200.007812 176.757812 C 200.015625 176.753906 200.023438 176.753906 200.03125 176.75 C 200.082031 176.714844 200.101562 176.683594 200.117188 176.652344 C 200.164062 176.558594 200.191406 176.441406 200.226562 176.152344 C 200.289062 175.640625 200.351562 174.59375 200.414062 172.417969 C 200.464844 170.707031 200.535156 168.515625 200.535156 166.335938 C 200.535156 165.328125 200.519531 164.320312 200.480469 163.363281 C 200.386719 160.328125 199.960938 157.851562 199.863281 157.382812 C 199.84375 157.292969 199.773438 157.230469 199.683594 157.226562 L 199.675781 157.226562 L 199.601562 157.238281 L 199.59375 157.242188 C 199.503906 157.273438 199.449219 157.363281 199.464844 157.453125 C 199.53125 157.890625 199.839844 160.285156 199.839844 163.207031 C 199.847656 163.261719 199.847656 163.316406 199.847656 163.367188 Z M 199.847656 163.367188 " fill-opacity="1" fill-rule="nonzero"/></svg>