<svg xmlns="http://www.w3.org/2000/svg" xmlns:xlink="http://www.w3.org/1999/xlink" width="500" zoomAndPan="magnify" viewBox="0 0 375 74.999997" height="100" preserveAspectRatio="xMidYMid meet" version="1.0"><defs><g/></defs><g fill="#524944" fill-opacity="1"><g transform="translate(17.561102, 47.353424)"><g><path d="M 0.875 -15.421875 C 0.875 -16.316406 1.117188 -16.878906 1.609375 -17.109375 L 3.21875 -17.1875 L 3.21875 -20.34375 C 3.96875 -21.207031 5.019531 -21.703125 6.375 -21.828125 L 6.375 -17.390625 L 11.46875 -17.734375 C 11.695312 -17.472656 11.8125 -17.140625 11.8125 -16.734375 C 11.8125 -16.328125 11.566406 -15.929688 11.078125 -15.546875 C 10.597656 -15.160156 9.859375 -14.96875 8.859375 -14.96875 L 6.375 -15.078125 L 6.375 -5.828125 C 6.375 -4.265625 6.546875 -3.25 6.890625 -2.78125 C 7.234375 -2.3125 7.765625 -2.078125 8.484375 -2.078125 C 9.679688 -2.078125 10.945312 -2.546875 12.28125 -3.484375 L 12.8125 -2.453125 C 12.300781 -1.710938 11.546875 -1.039062 10.546875 -0.4375 C 9.554688 0.15625 8.648438 0.453125 7.828125 0.453125 C 7.003906 0.453125 6.359375 0.390625 5.890625 0.265625 C 5.421875 0.140625 4.96875 -0.113281 4.53125 -0.5 C 3.65625 -1.269531 3.21875 -2.90625 3.21875 -5.40625 L 3.21875 -15.234375 Z M 0.875 -15.421875 "/></g></g></g><g fill="#524944" fill-opacity="1"><g transform="translate(32.063, 47.353424)"><g><path d="M 1.53125 -8.78125 C 1.53125 -11.269531 2.316406 -13.382812 3.890625 -15.125 C 5.460938 -16.863281 7.441406 -17.734375 9.828125 -17.734375 C 11.535156 -17.734375 13.019531 -17.195312 14.28125 -16.125 C 15.738281 -14.894531 16.515625 -12.664062 16.609375 -9.4375 L 5.0625 -9.4375 C 5.0625 -7.007812 5.578125 -5.179688 6.609375 -3.953125 C 7.648438 -2.722656 9.019531 -2.109375 10.71875 -2.109375 C 12.425781 -2.109375 14.132812 -2.835938 15.84375 -4.296875 L 16.5 -3.375 C 14.21875 -0.820312 11.976562 0.453125 9.78125 0.453125 C 8.25 0.453125 6.925781 0.191406 5.8125 -0.328125 C 4.695312 -0.847656 3.832031 -1.554688 3.21875 -2.453125 C 2.09375 -4.191406 1.53125 -6.300781 1.53125 -8.78125 Z M 5.109375 -11.046875 L 12.96875 -11.171875 C 12.945312 -12.859375 12.609375 -14.097656 11.953125 -14.890625 C 11.296875 -15.679688 10.484375 -16.078125 9.515625 -16.078125 C 6.910156 -16.078125 5.441406 -14.398438 5.109375 -11.046875 Z M 5.109375 -11.046875 "/></g></g></g><g fill="#524944" fill-opacity="1"><g transform="translate(51.628606, 47.353424)"><g><path d="M 7.0625 -15.078125 L 7.015625 -14.625 L 7.015625 -13.703125 C 7.679688 -15.003906 8.46875 -16 9.375 -16.6875 C 10.289062 -17.382812 11.160156 -17.734375 11.984375 -17.734375 C 12.816406 -17.734375 13.546875 -17.488281 14.171875 -17 C 14.804688 -16.507812 15.125 -15.960938 15.125 -15.359375 C 15.125 -14.765625 14.882812 -14.304688 14.40625 -13.984375 C 13.9375 -13.671875 13.445312 -13.515625 12.9375 -13.515625 C 12.0625 -14.398438 11.203125 -14.84375 10.359375 -14.84375 C 9.109375 -14.84375 7.992188 -13.898438 7.015625 -12.015625 L 7.015625 -2.578125 L 10.546875 -1.765625 C 10.546875 -1.253906 10.492188 -0.882812 10.390625 -0.65625 C 10.296875 -0.425781 10.109375 -0.207031 9.828125 0 L 1.109375 0 C 1.109375 -0.84375 1.316406 -1.34375 1.734375 -1.5 L 3.875 -2.375 L 3.875 -14.625 L 1.734375 -15.5 C 1.316406 -15.65625 1.109375 -16.15625 1.109375 -17 C 2.847656 -17.207031 4.140625 -17.3125 4.984375 -17.3125 C 6.367188 -17.3125 7.0625 -16.566406 7.0625 -15.078125 Z M 7.0625 -15.078125 "/></g></g></g><g fill="#524944" fill-opacity="1"><g transform="translate(68.547278, 47.353424)"><g><path d="M 7.0625 -15.078125 L 7.015625 -14.625 L 7.015625 -13.703125 C 7.679688 -15.003906 8.46875 -16 9.375 -16.6875 C 10.289062 -17.382812 11.160156 -17.734375 11.984375 -17.734375 C 12.816406 -17.734375 13.546875 -17.488281 14.171875 -17 C 14.804688 -16.507812 15.125 -15.960938 15.125 -15.359375 C 15.125 -14.765625 14.882812 -14.304688 14.40625 -13.984375 C 13.9375 -13.671875 13.445312 -13.515625 12.9375 -13.515625 C 12.0625 -14.398438 11.203125 -14.84375 10.359375 -14.84375 C 9.109375 -14.84375 7.992188 -13.898438 7.015625 -12.015625 L 7.015625 -2.578125 L 10.546875 -1.765625 C 10.546875 -1.253906 10.492188 -0.882812 10.390625 -0.65625 C 10.296875 -0.425781 10.109375 -0.207031 9.828125 0 L 1.109375 0 C 1.109375 -0.84375 1.316406 -1.34375 1.734375 -1.5 L 3.875 -2.375 L 3.875 -14.625 L 1.734375 -15.5 C 1.316406 -15.65625 1.109375 -16.15625 1.109375 -17 C 2.847656 -17.207031 4.140625 -17.3125 4.984375 -17.3125 C 6.367188 -17.3125 7.0625 -16.566406 7.0625 -15.078125 Z M 7.0625 -15.078125 "/></g></g></g><g fill="#524944" fill-opacity="1"><g transform="translate(85.465947, 47.353424)"><g><path d="M 1.3125 -3.421875 C 1.3125 -6.378906 3.148438 -8.285156 6.828125 -9.140625 L 11.359375 -10.171875 L 11.359375 -12.125 C 11.359375 -14.757812 10.4375 -16.078125 8.59375 -16.078125 C 7.46875 -16.078125 6.660156 -15.796875 6.171875 -15.234375 C 5.691406 -14.671875 5.453125 -13.773438 5.453125 -12.546875 C 5.015625 -12.242188 4.539062 -12.09375 4.03125 -12.09375 C 3.519531 -12.09375 3.097656 -12.265625 2.765625 -12.609375 C 2.429688 -12.953125 2.265625 -13.367188 2.265625 -13.859375 C 2.265625 -14.828125 2.941406 -15.710938 4.296875 -16.515625 C 5.648438 -17.328125 7.25 -17.734375 9.09375 -17.734375 C 10.9375 -17.734375 12.296875 -17.285156 13.171875 -16.390625 C 14.054688 -15.492188 14.5 -13.984375 14.5 -11.859375 L 14.5 -3.453125 C 14.5 -2.453125 14.847656 -1.953125 15.546875 -1.953125 C 16.109375 -1.953125 16.679688 -2.171875 17.265625 -2.609375 L 17.921875 -1.6875 C 16.671875 -0.257812 15.390625 0.453125 14.078125 0.453125 C 12.265625 0.453125 11.359375 -0.8125 11.359375 -3.34375 C 10.898438 -2.675781 10.085938 -1.875 8.921875 -0.9375 C 7.753906 -0.0078125 6.550781 0.453125 5.3125 0.453125 C 4.070312 0.453125 3.09375 0.0820312 2.375 -0.65625 C 1.664062 -1.394531 1.3125 -2.316406 1.3125 -3.421875 Z M 7.015625 -7.671875 C 6.097656 -7.441406 5.398438 -7.03125 4.921875 -6.4375 C 4.453125 -5.851562 4.21875 -5.222656 4.21875 -4.546875 C 4.21875 -3.867188 4.425781 -3.289062 4.84375 -2.8125 C 5.269531 -2.34375 5.859375 -2.109375 6.609375 -2.109375 C 7.367188 -2.109375 8.203125 -2.382812 9.109375 -2.9375 C 10.015625 -3.488281 10.765625 -4.082031 11.359375 -4.71875 L 11.359375 -8.71875 Z M 7.015625 -7.671875 "/></g></g></g><g fill="#524944" fill-opacity="1"><g transform="translate(104.839753, 47.353424)"><g><path d="M 9.703125 0.453125 C 6.992188 0.453125 4.945312 -0.394531 3.5625 -2.09375 C 2.1875 -3.789062 1.5 -5.9375 1.5 -8.53125 C 1.5 -11.132812 2.289062 -13.316406 3.875 -15.078125 C 5.457031 -16.847656 7.476562 -17.734375 9.9375 -17.734375 C 11.550781 -17.734375 13.007812 -17.316406 14.3125 -16.484375 C 15.613281 -15.648438 16.265625 -14.53125 16.265625 -13.125 C 16.265625 -12.5625 16.109375 -12.125 15.796875 -11.8125 C 15.492188 -11.507812 15.0625 -11.359375 14.5 -11.359375 C 13.9375 -11.359375 13.398438 -11.613281 12.890625 -12.125 C 12.785156 -14.757812 11.722656 -16.078125 9.703125 -16.078125 C 6.609375 -16.078125 5.0625 -13.765625 5.0625 -9.140625 C 5.0625 -6.960938 5.546875 -5.242188 6.515625 -3.984375 C 7.492188 -2.734375 8.851562 -2.109375 10.59375 -2.109375 C 11.4375 -2.109375 12.289062 -2.300781 13.15625 -2.6875 C 14.332031 -3.175781 15.21875 -3.710938 15.8125 -4.296875 L 16.46875 -3.375 L 16 -2.875 C 13.957031 -0.65625 11.859375 0.453125 9.703125 0.453125 Z M 9.703125 0.453125 "/></g></g></g><g fill="#524944" fill-opacity="1"><g transform="translate(123.945038, 47.353424)"><g><path d="M 9.8125 0.453125 C 6.976562 0.453125 4.890625 -0.375 3.546875 -2.03125 C 2.203125 -3.695312 1.53125 -5.832031 1.53125 -8.4375 C 1.53125 -11.050781 2.40625 -13.253906 4.15625 -15.046875 C 5.914062 -16.835938 8.097656 -17.734375 10.703125 -17.734375 C 13.316406 -17.734375 15.359375 -16.921875 16.828125 -15.296875 C 18.296875 -13.671875 19.03125 -11.628906 19.03125 -9.171875 C 19.03125 -6.710938 18.203125 -4.492188 16.546875 -2.515625 C 14.898438 -0.535156 12.65625 0.453125 9.8125 0.453125 Z M 10 -16.078125 C 8.25 -16.078125 6.972656 -15.351562 6.171875 -13.90625 C 5.378906 -12.46875 4.984375 -10.675781 4.984375 -8.53125 C 4.984375 -6.394531 5.46875 -4.632812 6.4375 -3.25 C 7.414062 -1.875 8.742188 -1.1875 10.421875 -1.1875 C 12.097656 -1.1875 13.363281 -1.84375 14.21875 -3.15625 C 15.070312 -4.476562 15.5 -6.21875 15.5 -8.375 C 15.5 -10.539062 15.019531 -12.363281 14.0625 -13.84375 C 13.101562 -15.332031 11.75 -16.078125 10 -16.078125 Z M 10 -16.078125 "/></g></g></g><g fill="#524944" fill-opacity="1"><g transform="translate(145.927422, 47.353424)"><g><path d="M 0.875 -15.421875 C 0.875 -16.316406 1.117188 -16.878906 1.609375 -17.109375 L 3.21875 -17.1875 L 3.21875 -20.34375 C 3.96875 -21.207031 5.019531 -21.703125 6.375 -21.828125 L 6.375 -17.390625 L 11.46875 -17.734375 C 11.695312 -17.472656 11.8125 -17.140625 11.8125 -16.734375 C 11.8125 -16.328125 11.566406 -15.929688 11.078125 -15.546875 C 10.597656 -15.160156 9.859375 -14.96875 8.859375 -14.96875 L 6.375 -15.078125 L 6.375 -5.828125 C 6.375 -4.265625 6.546875 -3.25 6.890625 -2.78125 C 7.234375 -2.3125 7.765625 -2.078125 8.484375 -2.078125 C 9.679688 -2.078125 10.945312 -2.546875 12.28125 -3.484375 L 12.8125 -2.453125 C 12.300781 -1.710938 11.546875 -1.039062 10.546875 -0.4375 C 9.554688 0.15625 8.648438 0.453125 7.828125 0.453125 C 7.003906 0.453125 6.359375 0.390625 5.890625 0.265625 C 5.421875 0.140625 4.96875 -0.113281 4.53125 -0.5 C 3.65625 -1.269531 3.21875 -2.90625 3.21875 -5.40625 L 3.21875 -15.234375 Z M 0.875 -15.421875 "/></g></g></g><g fill="#524944" fill-opacity="1"><g transform="translate(160.429324, 47.353424)"><g><path d="M 0.875 -15.421875 C 0.875 -16.316406 1.117188 -16.878906 1.609375 -17.109375 L 3.21875 -17.1875 L 3.21875 -20.34375 C 3.96875 -21.207031 5.019531 -21.703125 6.375 -21.828125 L 6.375 -17.390625 L 11.46875 -17.734375 C 11.695312 -17.472656 11.8125 -17.140625 11.8125 -16.734375 C 11.8125 -16.328125 11.566406 -15.929688 11.078125 -15.546875 C 10.597656 -15.160156 9.859375 -14.96875 8.859375 -14.96875 L 6.375 -15.078125 L 6.375 -5.828125 C 6.375 -4.265625 6.546875 -3.25 6.890625 -2.78125 C 7.234375 -2.3125 7.765625 -2.078125 8.484375 -2.078125 C 9.679688 -2.078125 10.945312 -2.546875 12.28125 -3.484375 L 12.8125 -2.453125 C 12.300781 -1.710938 11.546875 -1.039062 10.546875 -0.4375 C 9.554688 0.15625 8.648438 0.453125 7.828125 0.453125 C 7.003906 0.453125 6.359375 0.390625 5.890625 0.265625 C 5.421875 0.140625 4.96875 -0.113281 4.53125 -0.5 C 3.65625 -1.269531 3.21875 -2.90625 3.21875 -5.40625 L 3.21875 -15.234375 Z M 0.875 -15.421875 "/></g></g></g><g fill="#524944" fill-opacity="1"><g transform="translate(174.931227, 47.353424)"><g><path d="M 1.3125 -3.421875 C 1.3125 -6.378906 3.148438 -8.285156 6.828125 -9.140625 L 11.359375 -10.171875 L 11.359375 -12.125 C 11.359375 -14.757812 10.4375 -16.078125 8.59375 -16.078125 C 7.46875 -16.078125 6.660156 -15.796875 6.171875 -15.234375 C 5.691406 -14.671875 5.453125 -13.773438 5.453125 -12.546875 C 5.015625 -12.242188 4.539062 -12.09375 4.03125 -12.09375 C 3.519531 -12.09375 3.097656 -12.265625 2.765625 -12.609375 C 2.429688 -12.953125 2.265625 -13.367188 2.265625 -13.859375 C 2.265625 -14.828125 2.941406 -15.710938 4.296875 -16.515625 C 5.648438 -17.328125 7.25 -17.734375 9.09375 -17.734375 C 10.9375 -17.734375 12.296875 -17.285156 13.171875 -16.390625 C 14.054688 -15.492188 14.5 -13.984375 14.5 -11.859375 L 14.5 -3.453125 C 14.5 -2.453125 14.847656 -1.953125 15.546875 -1.953125 C 16.109375 -1.953125 16.679688 -2.171875 17.265625 -2.609375 L 17.921875 -1.6875 C 16.671875 -0.257812 15.390625 0.453125 14.078125 0.453125 C 12.265625 0.453125 11.359375 -0.8125 11.359375 -3.34375 C 10.898438 -2.675781 10.085938 -1.875 8.921875 -0.9375 C 7.753906 -0.0078125 6.550781 0.453125 5.3125 0.453125 C 4.070312 0.453125 3.09375 0.0820312 2.375 -0.65625 C 1.664062 -1.394531 1.3125 -2.316406 1.3125 -3.421875 Z M 7.015625 -7.671875 C 6.097656 -7.441406 5.398438 -7.03125 4.921875 -6.4375 C 4.453125 -5.851562 4.21875 -5.222656 4.21875 -4.546875 C 4.21875 -3.867188 4.425781 -3.289062 4.84375 -2.8125 C 5.269531 -2.34375 5.859375 -2.109375 6.609375 -2.109375 C 7.367188 -2.109375 8.203125 -2.382812 9.109375 -2.9375 C 10.015625 -3.488281 10.765625 -4.082031 11.359375 -4.71875 L 11.359375 -8.71875 Z M 7.015625 -7.671875 "/></g></g></g><g fill="#524944" fill-opacity="1"><g transform="translate(194.306944, 47.353424)"><g/></g></g><g fill="#524944" fill-opacity="1"><g transform="translate(206.206044, 47.294382)"><g><path d="M 25.390625 -9.890625 C 25.214844 -10.066406 25.007812 -10.136719 24.761719 -10.136719 C 24.519531 -10.136719 24.277344 -10.066406 24.101562 -9.890625 C 19.921875 -5.710938 14 -3.796875 8.183594 -4.773438 C 7.730469 -4.875 7.417969 -5.292969 7.488281 -5.746094 C 7.765625 -7.417969 7.628906 -9.125 6.652344 -9.683594 C 6.023438 -10.03125 5.085938 -10.066406 3.96875 -8.183594 C 3.550781 -7.558594 3.414062 -6.792969 3.550781 -6.058594 C 3.726562 -5.328125 4.179688 -4.667969 4.804688 -4.285156 C 5.191406 -3.96875 4.738281 -3.449219 4.492188 -3.203125 C 3.832031 -2.402344 2.683594 -2.265625 1.878906 -2.890625 C 0.871094 -3.34375 0.417969 -4.457031 0.800781 -5.46875 C 1.253906 -7.3125 3.066406 -8.917969 3.726562 -8.917969 C 4.214844 -8.917969 4.632812 -9.335938 4.632812 -9.820312 C 4.667969 -10.308594 4.25 -10.726562 3.761719 -10.761719 L 3.726562 -10.761719 C 1.984375 -10.761719 -0.347656 -8.394531 -0.976562 -5.921875 C -1.566406 -4.109375 -0.730469 -2.125 1.011719 -1.289062 C 1.671875 -0.90625 2.402344 -0.730469 3.167969 -0.695312 C 4.667969 -0.765625 5.992188 -1.671875 6.617188 -3.066406 C 6.6875 -3.167969 6.859375 -3.238281 7 -3.203125 C 11.425781 -1.878906 19.503906 -2.714844 25.390625 -8.566406 C 25.5625 -8.742188 25.667969 -8.984375 25.667969 -9.230469 C 25.667969 -9.472656 25.5625 -9.71875 25.390625 -9.890625 Z M 5.675781 -5.921875 C 5.292969 -6.269531 5.222656 -6.828125 5.539062 -7.246094 C 5.640625 -7.417969 5.710938 -7.523438 5.78125 -7.628906 C 5.816406 -7.070312 5.78125 -6.476562 5.675781 -5.921875 Z M 5.675781 -5.921875 "/></g></g></g><g fill="#524944" fill-opacity="1"><g transform="translate(229.521629, 47.294382)"><g><path d="M 30.023438 -9.160156 C 29.847656 -9.335938 29.640625 -9.4375 29.394531 -9.4375 C 29.152344 -9.4375 28.90625 -9.335938 28.734375 -9.160156 C 22.707031 -3.273438 12.015625 -2.019531 9.71875 -3.378906 C 8.148438 -4.285156 8.324219 -5.363281 9.4375 -7.523438 C 9.960938 -8.566406 10.554688 -9.785156 9.542969 -10.519531 C 8.601562 -11.214844 7.695312 -10.761719 6.894531 -10.34375 C 5.746094 -9.683594 4.457031 -9.335938 3.101562 -9.335938 C 2.785156 -9.335938 2.507812 -9.890625 2.578125 -10.101562 C 4.527344 -14.382812 3.65625 -15.183594 3.34375 -15.5 C 2.820312 -16.019531 2.019531 -15.988281 1.042969 -15.394531 C -0.558594 -14.246094 -1.253906 -12.191406 -0.695312 -10.273438 C -0.558594 -9.753906 -0.3125 -9.265625 0.0351562 -8.847656 C 0 -8.464844 0.175781 -8.113281 0.523438 -7.941406 C 0.730469 -7.835938 0.976562 -7.835938 1.21875 -7.90625 C 1.8125 -7.628906 2.472656 -7.488281 3.132812 -7.488281 C 4.5625 -7.453125 5.957031 -7.765625 7.210938 -8.464844 C 7.695312 -8.707031 7.871094 -8.5 7.800781 -8.359375 C 6.964844 -6.722656 5.46875 -3.726562 8.8125 -1.777344 C 9.996094 -1.21875 11.320312 -0.976562 12.644531 -1.078125 C 17.519531 -1.078125 25.179688 -3.167969 29.988281 -7.871094 C 30.160156 -8.011719 30.265625 -8.253906 30.265625 -8.5 C 30.300781 -8.742188 30.195312 -8.984375 30.023438 -9.160156 Z M 1.011719 -11.074219 C 0.800781 -12.085938 1.148438 -13.128906 1.949219 -13.792969 C 1.707031 -12.851562 1.394531 -11.945312 1.011719 -11.039062 Z M 1.011719 -11.074219 "/></g></g></g><g fill="#524944" fill-opacity="1"><g transform="translate(257.326497, 47.294382)"><g><path d="M 22.570312 -9.402344 C 22.1875 -9.753906 21.628906 -9.753906 21.28125 -9.367188 C 21.140625 -9.265625 9.855469 2.230469 2.367188 -3.238281 C 0.0703125 -4.910156 2.296875 -9.265625 2.332031 -9.300781 C 2.542969 -9.753906 2.367188 -10.273438 1.914062 -10.519531 C 1.460938 -10.726562 0.941406 -10.589844 0.695312 -10.136719 C 0.558594 -9.925781 -2.265625 -4.386719 1.289062 -1.777344 C 2.925781 -0.558594 4.945312 0.105469 7 0.0703125 C 14.523438 0.0703125 22.152344 -7.695312 22.570312 -8.113281 C 22.742188 -8.289062 22.847656 -8.5 22.847656 -8.742188 C 22.8125 -8.984375 22.742188 -9.230469 22.570312 -9.402344 Z M 0.3125 -12.15625 C 0.453125 -12.15625 0.59375 -12.191406 0.730469 -12.257812 C 1.566406 -12.675781 2.296875 -13.234375 2.960938 -13.898438 C 3.308594 -14.28125 3.273438 -14.835938 2.925781 -15.183594 C 2.542969 -15.535156 1.984375 -15.535156 1.636719 -15.152344 C 1.113281 -14.628906 0.523438 -14.210938 -0.140625 -13.863281 C -0.488281 -13.6875 -0.695312 -13.234375 -0.59375 -12.851562 C -0.488281 -12.433594 -0.105469 -12.15625 0.3125 -12.15625 Z M 0.3125 -12.15625 "/></g></g></g><g fill="#524944" fill-opacity="1"><g transform="translate(277.962462, 47.294382)"><g><path d="M 24.242188 -9.160156 C 23.859375 -9.507812 23.265625 -9.472656 22.953125 -9.089844 C 20.199219 -6.234375 15.742188 -5.957031 12.675781 -8.429688 C 11.945312 -8.949219 10.9375 -8.917969 10.273438 -8.289062 C 9.890625 -7.941406 9.472656 -7.558594 9.054688 -7.105469 C 7.730469 -5.609375 7.488281 -6.859375 7.488281 -7.695312 C 7.488281 -8.429688 7.347656 -9.195312 7.105469 -9.890625 C 6.964844 -10.238281 6.617188 -10.484375 6.234375 -10.484375 C 5.851562 -10.449219 5.539062 -10.238281 5.398438 -9.855469 C 4.421875 -7.140625 2.332031 -3.167969 0.871094 -2.890625 C 0.765625 -2.855469 0.488281 -2.820312 0.0703125 -3.273438 C -0.140625 -4.179688 0 -5.15625 0.453125 -5.992188 C 1.496094 -8.8125 4.074219 -10.796875 7.070312 -11.074219 C 7.59375 -11.109375 7.976562 -11.5625 7.941406 -12.050781 C 7.90625 -12.574219 7.453125 -12.957031 6.964844 -12.921875 C 3.238281 -12.574219 0.0351562 -10.136719 -1.289062 -6.617188 C -1.878906 -5.085938 -2.230469 -3.066406 -1.289062 -2.054688 C -0.660156 -1.289062 0.277344 -0.941406 1.21875 -1.113281 C 2.960938 -1.460938 4.527344 -3.761719 5.640625 -5.851562 C 5.574219 -5.015625 5.46875 -4.074219 5.328125 -3.101562 C 5.292969 -2.890625 5.222656 -2.714844 5.121094 -2.578125 C 1.042969 2.578125 -2.648438 8.8125 -2.714844 12.746094 C -2.820312 13.792969 -2.4375 14.835938 -1.742188 15.601562 C -1.394531 15.953125 -0.976562 16.125 -0.523438 16.125 C -0.140625 16.125 0.242188 16.019531 0.558594 15.8125 C 2.855469 14.28125 5.78125 5.328125 6.929688 -1.777344 C 6.964844 -1.914062 7.035156 -2.054688 7.140625 -2.195312 C 8.359375 -3.691406 9.648438 -5.121094 11.007812 -6.476562 C 11.320312 -6.792969 11.808594 -6.828125 12.15625 -6.582031 C 15.988281 -4.003906 21.070312 -4.5625 24.277344 -7.871094 C 24.589844 -8.253906 24.589844 -8.8125 24.242188 -9.160156 Z M 1.042969 12.121094 C 0.242188 13.722656 -0.0351562 14.417969 -0.453125 14.28125 C -0.871094 14.175781 -0.90625 13.480469 -0.871094 12.78125 C -0.800781 10.101562 3.867188 1.011719 4.527344 1.289062 C 5.191406 1.566406 2.367188 9.367188 1.042969 12.121094 Z M 1.042969 12.121094 "/></g></g></g><g fill="#524944" fill-opacity="1"><g transform="translate(300.164436, 47.294382)"><g><path d="M 29.222656 -8.949219 C 29.046875 -9.125 28.839844 -9.265625 28.59375 -9.265625 C 28.351562 -9.300781 28.105469 -9.230469 27.933594 -9.089844 C 27.792969 -8.984375 14.382812 1.671875 3.203125 -2.925781 C 0.941406 -3.867188 0.835938 -5.085938 0.90625 -5.746094 C 0.90625 -5.851562 0.941406 -5.957031 1.042969 -6.023438 C 1.113281 -6.09375 1.253906 -6.09375 1.359375 -6.058594 C 3.621094 -5.921875 5.886719 -6.511719 7.835938 -7.730469 C 9.507812 -8.8125 9.785156 -9.996094 9.683594 -10.761719 C 9.613281 -12.015625 8.601562 -13.027344 7.3125 -13.0625 C 4.5625 -13.199219 -0.0351562 -9.925781 -0.800781 -6.441406 C -1.113281 -5.15625 -1.078125 -2.714844 2.507812 -1.253906 C 4.703125 -0.347656 7 0.0703125 9.335938 0.0703125 C 19.328125 0.0703125 28.59375 -7.277344 29.082031 -7.664062 C 29.257812 -7.800781 29.394531 -8.046875 29.394531 -8.253906 C 29.429688 -8.5 29.359375 -8.742188 29.222656 -8.949219 Z M 2.160156 -8.183594 C 3.519531 -10.066406 5.78125 -11.320312 7.210938 -11.214844 C 7.59375 -11.214844 7.800781 -11.074219 7.871094 -10.554688 C 7.90625 -10.203125 7.523438 -9.71875 6.828125 -9.265625 C 5.398438 -8.324219 1.113281 -6.792969 2.160156 -8.183594 Z M 2.160156 -8.183594 "/></g></g></g><g fill="#524944" fill-opacity="1"><g transform="translate(327.308079, 47.294382)"><g><path d="M 30.441406 -8.671875 C 30.230469 -8.8125 30.023438 -8.917969 29.777344 -8.917969 C 29.535156 -8.882812 29.292969 -8.777344 29.152344 -8.601562 C 29.046875 -8.53125 21.386719 -0.347656 14.734375 -3.03125 C 13.304688 -3.796875 12.15625 -4.945312 11.355469 -6.375 C 11.074219 -6.828125 10.726562 -7.277344 10.308594 -7.695312 C 9.855469 -8.253906 9.160156 -8.566406 8.429688 -8.601562 C 6.652344 -8.742188 4.492188 -7.558594 1.914062 -5.121094 C 1.847656 -5.050781 1.742188 -5.015625 1.636719 -5.085938 C 1.53125 -5.121094 1.460938 -5.257812 1.496094 -5.363281 L 2.265625 -8.777344 C 2.402344 -9.265625 2.089844 -9.785156 1.601562 -9.890625 C 1.113281 -9.996094 0.625 -9.683594 0.488281 -9.195312 L -1.253906 -1.566406 C -1.359375 -1.148438 -1.148438 -0.730469 -0.765625 -0.558594 C -0.382812 -0.347656 0.0703125 -0.453125 0.347656 -0.765625 C 5.015625 -6.234375 7.382812 -6.757812 8.21875 -6.792969 C 9.054688 -6.828125 9.578125 -5.746094 9.855469 -5.328125 C 10.832031 -3.621094 12.292969 -2.230469 14.035156 -1.359375 C 21.835938 1.8125 30.125 -7 30.476562 -7.382812 C 30.824219 -7.730469 30.789062 -8.324219 30.441406 -8.671875 Z M 30.441406 -8.671875 "/></g></g></g></svg>