<svg xmlns="http://www.w3.org/2000/svg" xmlns:xlink="http://www.w3.org/1999/xlink" width="500" zoomAndPan="magnify" viewBox="0 0 375 149.999998" height="200" preserveAspectRatio="xMidYMid meet" version="1.0"><defs><g/></defs><g fill="#524944" fill-opacity="1"><g transform="translate(5.996811, 76.335383)"><g><path d="M 0.921875 -16 C 0.921875 -16.925781 1.171875 -17.507812 1.671875 -17.75 L 3.34375 -17.84375 L 3.34375 -21.09375 C 4.113281 -22 5.203125 -22.519531 6.609375 -22.65625 L 6.609375 -18.03125 L 11.90625 -18.390625 C 12.144531 -18.128906 12.265625 -17.785156 12.265625 -17.359375 C 12.265625 -16.929688 12.007812 -16.519531 11.5 -16.125 C 11 -15.726562 10.234375 -15.53125 9.203125 -15.53125 L 6.609375 -15.640625 L 6.609375 -6.046875 C 6.609375 -4.429688 6.785156 -3.378906 7.140625 -2.890625 C 7.503906 -2.398438 8.054688 -2.15625 8.796875 -2.15625 C 10.046875 -2.15625 11.359375 -2.644531 12.734375 -3.625 L 13.296875 -2.546875 C 12.765625 -1.773438 11.976562 -1.078125 10.9375 -0.453125 C 9.90625 0.171875 8.960938 0.484375 8.109375 0.484375 C 7.265625 0.484375 6.597656 0.414062 6.109375 0.28125 C 5.617188 0.144531 5.148438 -0.117188 4.703125 -0.515625 C 3.796875 -1.316406 3.34375 -3.015625 3.34375 -5.609375 L 3.34375 -15.8125 Z M 0.921875 -16 "/></g></g></g><g fill="#524944" fill-opacity="1"><g transform="translate(21.040242, 76.335383)"><g><path d="M 1.59375 -9.109375 C 1.59375 -11.691406 2.40625 -13.882812 4.03125 -15.6875 C 5.664062 -17.488281 7.71875 -18.390625 10.1875 -18.390625 C 11.96875 -18.390625 13.507812 -17.832031 14.8125 -16.71875 C 16.320312 -15.445312 17.128906 -13.140625 17.234375 -9.796875 L 5.25 -9.796875 C 5.25 -7.273438 5.785156 -5.375 6.859375 -4.09375 C 7.941406 -2.820312 9.363281 -2.1875 11.125 -2.1875 C 12.894531 -2.1875 14.664062 -2.941406 16.4375 -4.453125 L 17.125 -3.5 C 14.757812 -0.84375 12.4375 0.484375 10.15625 0.484375 C 8.5625 0.484375 7.1875 0.210938 6.03125 -0.328125 C 4.875 -0.878906 3.976562 -1.617188 3.34375 -2.546875 C 2.175781 -4.347656 1.59375 -6.535156 1.59375 -9.109375 Z M 5.296875 -11.46875 L 13.453125 -11.578125 C 13.429688 -13.335938 13.082031 -14.628906 12.40625 -15.453125 C 11.726562 -16.273438 10.882812 -16.6875 9.875 -16.6875 C 7.164062 -16.6875 5.640625 -14.945312 5.296875 -11.46875 Z M 5.296875 -11.46875 "/></g></g></g><g fill="#524944" fill-opacity="1"><g transform="translate(41.336471, 76.335383)"><g><path d="M 7.328125 -15.640625 L 7.28125 -15.171875 L 7.28125 -14.21875 C 7.976562 -15.570312 8.796875 -16.601562 9.734375 -17.3125 C 10.671875 -18.03125 11.570312 -18.390625 12.4375 -18.390625 C 13.300781 -18.390625 14.054688 -18.132812 14.703125 -17.625 C 15.359375 -17.125 15.6875 -16.5625 15.6875 -15.9375 C 15.6875 -15.320312 15.441406 -14.847656 14.953125 -14.515625 C 14.460938 -14.179688 13.953125 -14.015625 13.421875 -14.015625 C 12.515625 -14.941406 11.625 -15.40625 10.75 -15.40625 C 9.445312 -15.40625 8.289062 -14.425781 7.28125 -12.46875 L 7.28125 -2.671875 L 10.953125 -1.828125 C 10.953125 -1.296875 10.894531 -0.910156 10.78125 -0.671875 C 10.675781 -0.429688 10.476562 -0.207031 10.1875 0 L 1.15625 0 C 1.15625 -0.875 1.367188 -1.390625 1.796875 -1.546875 L 4.015625 -2.46875 L 4.015625 -15.171875 L 1.796875 -16.078125 C 1.367188 -16.242188 1.15625 -16.765625 1.15625 -17.640625 C 2.957031 -17.847656 4.296875 -17.953125 5.171875 -17.953125 C 6.609375 -17.953125 7.328125 -17.179688 7.328125 -15.640625 Z M 7.328125 -15.640625 "/></g></g></g><g fill="#524944" fill-opacity="1"><g transform="translate(58.886924, 76.335383)"><g><path d="M 7.328125 -15.640625 L 7.28125 -15.171875 L 7.28125 -14.21875 C 7.976562 -15.570312 8.796875 -16.601562 9.734375 -17.3125 C 10.671875 -18.03125 11.570312 -18.390625 12.4375 -18.390625 C 13.300781 -18.390625 14.054688 -18.132812 14.703125 -17.625 C 15.359375 -17.125 15.6875 -16.5625 15.6875 -15.9375 C 15.6875 -15.320312 15.441406 -14.847656 14.953125 -14.515625 C 14.460938 -14.179688 13.953125 -14.015625 13.421875 -14.015625 C 12.515625 -14.941406 11.625 -15.40625 10.75 -15.40625 C 9.445312 -15.40625 8.289062 -14.425781 7.28125 -12.46875 L 7.28125 -2.671875 L 10.953125 -1.828125 C 10.953125 -1.296875 10.894531 -0.910156 10.78125 -0.671875 C 10.675781 -0.429688 10.476562 -0.207031 10.1875 0 L 1.15625 0 C 1.15625 -0.875 1.367188 -1.390625 1.796875 -1.546875 L 4.015625 -2.46875 L 4.015625 -15.171875 L 1.796875 -16.078125 C 1.367188 -16.242188 1.15625 -16.765625 1.15625 -17.640625 C 2.957031 -17.847656 4.296875 -17.953125 5.171875 -17.953125 C 6.609375 -17.953125 7.328125 -17.179688 7.328125 -15.640625 Z M 7.328125 -15.640625 "/></g></g></g><g fill="#524944" fill-opacity="1"><g transform="translate(76.437373, 76.335383)"><g><path d="M 1.359375 -3.546875 C 1.359375 -6.617188 3.269531 -8.59375 7.09375 -9.46875 L 11.78125 -10.546875 L 11.78125 -12.578125 C 11.78125 -15.316406 10.828125 -16.6875 8.921875 -16.6875 C 7.753906 -16.6875 6.914062 -16.394531 6.40625 -15.8125 C 5.90625 -15.226562 5.65625 -14.296875 5.65625 -13.015625 C 5.207031 -12.703125 4.71875 -12.546875 4.1875 -12.546875 C 3.65625 -12.546875 3.210938 -12.722656 2.859375 -13.078125 C 2.515625 -13.429688 2.34375 -13.863281 2.34375 -14.375 C 2.34375 -15.382812 3.046875 -16.304688 4.453125 -17.140625 C 5.859375 -17.972656 7.515625 -18.390625 9.421875 -18.390625 C 11.335938 -18.390625 12.753906 -17.925781 13.671875 -17 C 14.585938 -16.070312 15.046875 -14.503906 15.046875 -12.296875 L 15.046875 -3.578125 C 15.046875 -2.546875 15.40625 -2.03125 16.125 -2.03125 C 16.707031 -2.03125 17.304688 -2.253906 17.921875 -2.703125 L 18.59375 -1.75 C 17.289062 -0.257812 15.960938 0.484375 14.609375 0.484375 C 12.722656 0.484375 11.78125 -0.832031 11.78125 -3.46875 C 11.300781 -2.769531 10.457031 -1.9375 9.25 -0.96875 C 8.039062 0 6.789062 0.484375 5.5 0.484375 C 4.21875 0.484375 3.207031 0.0976562 2.46875 -0.671875 C 1.726562 -1.441406 1.359375 -2.398438 1.359375 -3.546875 Z M 7.28125 -7.96875 C 6.332031 -7.726562 5.609375 -7.300781 5.109375 -6.6875 C 4.617188 -6.070312 4.375 -5.410156 4.375 -4.703125 C 4.375 -4.003906 4.59375 -3.410156 5.03125 -2.921875 C 5.46875 -2.429688 6.078125 -2.1875 6.859375 -2.1875 C 7.648438 -2.1875 8.515625 -2.472656 9.453125 -3.046875 C 10.398438 -3.617188 11.175781 -4.234375 11.78125 -4.890625 L 11.78125 -9.03125 Z M 7.28125 -7.96875 "/></g></g></g><g fill="#524944" fill-opacity="1"><g transform="translate(96.534641, 76.335383)"><g><path d="M 10.078125 0.484375 C 7.265625 0.484375 5.140625 -0.394531 3.703125 -2.15625 C 2.265625 -3.925781 1.546875 -6.160156 1.546875 -8.859375 C 1.546875 -11.554688 2.367188 -13.816406 4.015625 -15.640625 C 5.660156 -17.472656 7.757812 -18.390625 10.3125 -18.390625 C 11.976562 -18.390625 13.488281 -17.957031 14.84375 -17.09375 C 16.195312 -16.238281 16.875 -15.078125 16.875 -13.609375 C 16.875 -13.023438 16.710938 -12.570312 16.390625 -12.25 C 16.078125 -11.9375 15.628906 -11.78125 15.046875 -11.78125 C 14.460938 -11.78125 13.90625 -12.046875 13.375 -12.578125 C 13.269531 -15.316406 12.171875 -16.6875 10.078125 -16.6875 C 6.859375 -16.6875 5.25 -14.28125 5.25 -9.46875 C 5.25 -7.21875 5.753906 -5.441406 6.765625 -4.140625 C 7.773438 -2.835938 9.179688 -2.1875 10.984375 -2.1875 C 11.859375 -2.1875 12.75 -2.382812 13.65625 -2.78125 C 14.875 -3.289062 15.789062 -3.847656 16.40625 -4.453125 L 17.078125 -3.5 L 16.609375 -2.984375 C 14.484375 -0.671875 12.304688 0.484375 10.078125 0.484375 Z M 10.078125 0.484375 "/></g></g></g><g fill="#524944" fill-opacity="1"><g transform="translate(116.35336, 76.335383)"><g><path d="M 10.1875 0.484375 C 7.238281 0.484375 5.066406 -0.378906 3.671875 -2.109375 C 2.285156 -3.835938 1.59375 -6.050781 1.59375 -8.75 C 1.59375 -11.457031 2.5 -13.738281 4.3125 -15.59375 C 6.132812 -17.457031 8.398438 -18.390625 11.109375 -18.390625 C 13.816406 -18.390625 15.929688 -17.546875 17.453125 -15.859375 C 18.984375 -14.179688 19.75 -12.066406 19.75 -9.515625 C 19.75 -6.960938 18.890625 -4.65625 17.171875 -2.59375 C 15.460938 -0.539062 13.132812 0.484375 10.1875 0.484375 Z M 10.359375 -16.6875 C 8.546875 -16.6875 7.226562 -15.9375 6.40625 -14.4375 C 5.582031 -12.9375 5.171875 -11.078125 5.171875 -8.859375 C 5.171875 -6.640625 5.675781 -4.8125 6.6875 -3.375 C 7.695312 -1.945312 9.070312 -1.234375 10.8125 -1.234375 C 12.550781 -1.234375 13.863281 -1.914062 14.75 -3.28125 C 15.632812 -4.644531 16.078125 -6.445312 16.078125 -8.6875 C 16.078125 -10.9375 15.578125 -12.832031 14.578125 -14.375 C 13.585938 -15.914062 12.179688 -16.6875 10.359375 -16.6875 Z M 10.359375 -16.6875 "/></g></g></g><g fill="#524944" fill-opacity="1"><g transform="translate(139.156614, 76.335383)"><g><path d="M 0.921875 -16 C 0.921875 -16.925781 1.171875 -17.507812 1.671875 -17.75 L 3.34375 -17.84375 L 3.34375 -21.09375 C 4.113281 -22 5.203125 -22.519531 6.609375 -22.65625 L 6.609375 -18.03125 L 11.90625 -18.390625 C 12.144531 -18.128906 12.265625 -17.785156 12.265625 -17.359375 C 12.265625 -16.929688 12.007812 -16.519531 11.5 -16.125 C 11 -15.726562 10.234375 -15.53125 9.203125 -15.53125 L 6.609375 -15.640625 L 6.609375 -6.046875 C 6.609375 -4.429688 6.785156 -3.378906 7.140625 -2.890625 C 7.503906 -2.398438 8.054688 -2.15625 8.796875 -2.15625 C 10.046875 -2.15625 11.359375 -2.644531 12.734375 -3.625 L 13.296875 -2.546875 C 12.765625 -1.773438 11.976562 -1.078125 10.9375 -0.453125 C 9.90625 0.171875 8.960938 0.484375 8.109375 0.484375 C 7.265625 0.484375 6.597656 0.414062 6.109375 0.28125 C 5.617188 0.144531 5.148438 -0.117188 4.703125 -0.515625 C 3.796875 -1.316406 3.34375 -3.015625 3.34375 -5.609375 L 3.34375 -15.8125 Z M 0.921875 -16 "/></g></g></g><g fill="#524944" fill-opacity="1"><g transform="translate(154.20005, 76.335383)"><g><path d="M 0.921875 -16 C 0.921875 -16.925781 1.171875 -17.507812 1.671875 -17.75 L 3.34375 -17.84375 L 3.34375 -21.09375 C 4.113281 -22 5.203125 -22.519531 6.609375 -22.65625 L 6.609375 -18.03125 L 11.90625 -18.390625 C 12.144531 -18.128906 12.265625 -17.785156 12.265625 -17.359375 C 12.265625 -16.929688 12.007812 -16.519531 11.5 -16.125 C 11 -15.726562 10.234375 -15.53125 9.203125 -15.53125 L 6.609375 -15.640625 L 6.609375 -6.046875 C 6.609375 -4.429688 6.785156 -3.378906 7.140625 -2.890625 C 7.503906 -2.398438 8.054688 -2.15625 8.796875 -2.15625 C 10.046875 -2.15625 11.359375 -2.644531 12.734375 -3.625 L 13.296875 -2.546875 C 12.765625 -1.773438 11.976562 -1.078125 10.9375 -0.453125 C 9.90625 0.171875 8.960938 0.484375 8.109375 0.484375 C 7.265625 0.484375 6.597656 0.414062 6.109375 0.28125 C 5.617188 0.144531 5.148438 -0.117188 4.703125 -0.515625 C 3.796875 -1.316406 3.34375 -3.015625 3.34375 -5.609375 L 3.34375 -15.8125 Z M 0.921875 -16 "/></g></g></g><g fill="#524944" fill-opacity="1"><g transform="translate(169.243485, 76.335383)"><g><path d="M 1.359375 -3.546875 C 1.359375 -6.617188 3.269531 -8.59375 7.09375 -9.46875 L 11.78125 -10.546875 L 11.78125 -12.578125 C 11.78125 -15.316406 10.828125 -16.6875 8.921875 -16.6875 C 7.753906 -16.6875 6.914062 -16.394531 6.40625 -15.8125 C 5.90625 -15.226562 5.65625 -14.296875 5.65625 -13.015625 C 5.207031 -12.703125 4.71875 -12.546875 4.1875 -12.546875 C 3.65625 -12.546875 3.210938 -12.722656 2.859375 -13.078125 C 2.515625 -13.429688 2.34375 -13.863281 2.34375 -14.375 C 2.34375 -15.382812 3.046875 -16.304688 4.453125 -17.140625 C 5.859375 -17.972656 7.515625 -18.390625 9.421875 -18.390625 C 11.335938 -18.390625 12.753906 -17.925781 13.671875 -17 C 14.585938 -16.070312 15.046875 -14.503906 15.046875 -12.296875 L 15.046875 -3.578125 C 15.046875 -2.546875 15.40625 -2.03125 16.125 -2.03125 C 16.707031 -2.03125 17.304688 -2.253906 17.921875 -2.703125 L 18.59375 -1.75 C 17.289062 -0.257812 15.960938 0.484375 14.609375 0.484375 C 12.722656 0.484375 11.78125 -0.832031 11.78125 -3.46875 C 11.300781 -2.769531 10.457031 -1.9375 9.25 -0.96875 C 8.039062 0 6.789062 0.484375 5.5 0.484375 C 4.21875 0.484375 3.207031 0.0976562 2.46875 -0.671875 C 1.726562 -1.441406 1.359375 -2.398438 1.359375 -3.546875 Z M 7.28125 -7.96875 C 6.332031 -7.726562 5.609375 -7.300781 5.109375 -6.6875 C 4.617188 -6.070312 4.375 -5.410156 4.375 -4.703125 C 4.375 -4.003906 4.59375 -3.410156 5.03125 -2.921875 C 5.46875 -2.429688 6.078125 -2.1875 6.859375 -2.1875 C 7.648438 -2.1875 8.515625 -2.472656 9.453125 -3.046875 C 10.398438 -3.617188 11.175781 -4.234375 11.78125 -4.890625 L 11.78125 -9.03125 Z M 7.28125 -7.96875 "/></g></g></g><g fill="#524944" fill-opacity="1"><g transform="translate(189.342735, 76.335383)"><g/></g></g><g fill="#524944" fill-opacity="1"><g transform="translate(201.686176, 76.274136)"><g><path d="M 26.339844 -10.261719 C 26.15625 -10.441406 25.941406 -10.511719 25.6875 -10.511719 C 25.433594 -10.511719 25.183594 -10.441406 25 -10.261719 C 20.667969 -5.925781 14.523438 -3.9375 8.492188 -4.949219 C 8.019531 -5.058594 7.695312 -5.492188 7.769531 -5.960938 C 8.058594 -7.695312 7.914062 -9.464844 6.902344 -10.042969 C 6.25 -10.40625 5.273438 -10.441406 4.117188 -8.492188 C 3.683594 -7.839844 3.539062 -7.046875 3.683594 -6.285156 C 3.867188 -5.527344 4.335938 -4.839844 4.984375 -4.445312 C 5.382812 -4.117188 4.914062 -3.578125 4.660156 -3.324219 C 3.972656 -2.492188 2.78125 -2.347656 1.949219 -3 C 0.902344 -3.46875 0.433594 -4.625 0.832031 -5.671875 C 1.300781 -7.585938 3.179688 -9.25 3.867188 -9.25 C 4.371094 -9.25 4.804688 -9.683594 4.804688 -10.1875 C 4.839844 -10.695312 4.40625 -11.128906 3.902344 -11.164062 L 3.867188 -11.164062 C 2.058594 -11.164062 -0.359375 -8.707031 -1.011719 -6.140625 C -1.625 -4.261719 -0.757812 -2.203125 1.046875 -1.335938 C 1.734375 -0.9375 2.492188 -0.757812 3.289062 -0.722656 C 4.839844 -0.792969 6.214844 -1.734375 6.863281 -3.179688 C 6.9375 -3.289062 7.117188 -3.359375 7.261719 -3.324219 C 11.851562 -1.949219 20.234375 -2.816406 26.339844 -8.886719 C 26.519531 -9.070312 26.628906 -9.320312 26.628906 -9.574219 C 26.628906 -9.828125 26.519531 -10.082031 26.339844 -10.261719 Z M 5.890625 -6.140625 C 5.492188 -6.503906 5.417969 -7.082031 5.746094 -7.515625 C 5.851562 -7.695312 5.925781 -7.804688 5.996094 -7.914062 C 6.035156 -7.335938 5.996094 -6.71875 5.890625 -6.140625 Z M 5.890625 -6.140625 "/></g></g></g><g fill="#524944" fill-opacity="1"><g transform="translate(225.872417, 76.274136)"><g><path d="M 31.144531 -9.503906 C 30.964844 -9.683594 30.746094 -9.792969 30.492188 -9.792969 C 30.242188 -9.792969 29.988281 -9.683594 29.808594 -9.503906 C 23.554688 -3.394531 12.464844 -2.09375 10.082031 -3.503906 C 8.453125 -4.445312 8.636719 -5.5625 9.792969 -7.804688 C 10.332031 -8.886719 10.945312 -10.152344 9.898438 -10.910156 C 8.925781 -11.632812 7.984375 -11.164062 7.152344 -10.730469 C 5.960938 -10.042969 4.625 -9.683594 3.214844 -9.683594 C 2.890625 -9.683594 2.601562 -10.261719 2.671875 -10.476562 C 4.695312 -14.921875 3.792969 -15.753906 3.46875 -16.078125 C 2.925781 -16.621094 2.09375 -16.582031 1.082031 -15.96875 C -0.578125 -14.777344 -1.300781 -12.644531 -0.722656 -10.65625 C -0.578125 -10.117188 -0.324219 -9.609375 0.0351562 -9.175781 C 0 -8.78125 0.179688 -8.417969 0.542969 -8.238281 C 0.757812 -8.128906 1.011719 -8.128906 1.265625 -8.203125 C 1.878906 -7.914062 2.566406 -7.769531 3.25 -7.769531 C 4.734375 -7.730469 6.179688 -8.058594 7.480469 -8.78125 C 7.984375 -9.03125 8.164062 -8.816406 8.09375 -8.671875 C 7.226562 -6.972656 5.671875 -3.867188 9.140625 -1.84375 C 10.371094 -1.265625 11.742188 -1.011719 13.113281 -1.121094 C 18.171875 -1.121094 26.121094 -3.289062 31.109375 -8.164062 C 31.289062 -8.308594 31.394531 -8.5625 31.394531 -8.816406 C 31.433594 -9.070312 31.324219 -9.320312 31.144531 -9.503906 Z M 1.046875 -11.488281 C 0.832031 -12.535156 1.191406 -13.621094 2.023438 -14.308594 C 1.769531 -13.332031 1.445312 -12.390625 1.046875 -11.453125 Z M 1.046875 -11.488281 "/></g></g></g><g fill="#524944" fill-opacity="1"><g transform="translate(254.715581, 76.274136)"><g><path d="M 23.410156 -9.753906 C 23.015625 -10.117188 22.4375 -10.117188 22.074219 -9.71875 C 21.929688 -9.609375 10.226562 2.3125 2.457031 -3.359375 C 0.0703125 -5.09375 2.382812 -9.609375 2.421875 -9.648438 C 2.636719 -10.117188 2.457031 -10.65625 1.988281 -10.910156 C 1.515625 -11.128906 0.976562 -10.984375 0.722656 -10.511719 C 0.578125 -10.296875 -2.347656 -4.550781 1.335938 -1.84375 C 3.035156 -0.578125 5.128906 0.109375 7.261719 0.0703125 C 15.066406 0.0703125 22.976562 -7.984375 23.410156 -8.417969 C 23.59375 -8.597656 23.699219 -8.816406 23.699219 -9.070312 C 23.664062 -9.320312 23.59375 -9.574219 23.410156 -9.753906 Z M 0.324219 -12.609375 C 0.46875 -12.609375 0.613281 -12.644531 0.757812 -12.71875 C 1.625 -13.152344 2.382812 -13.730469 3.070312 -14.414062 C 3.433594 -14.8125 3.394531 -15.390625 3.035156 -15.753906 C 2.636719 -16.113281 2.058594 -16.113281 1.699219 -15.714844 C 1.15625 -15.175781 0.542969 -14.742188 -0.144531 -14.378906 C -0.503906 -14.199219 -0.722656 -13.730469 -0.613281 -13.332031 C -0.503906 -12.898438 -0.109375 -12.609375 0.324219 -12.609375 Z M 0.324219 -12.609375 "/></g></g></g><g fill="#524944" fill-opacity="1"><g transform="translate(276.122139, 76.274136)"><g><path d="M 25.144531 -9.503906 C 24.75 -9.863281 24.132812 -9.828125 23.808594 -9.429688 C 20.953125 -6.46875 16.332031 -6.179688 13.152344 -8.742188 C 12.390625 -9.285156 11.34375 -9.25 10.65625 -8.597656 C 10.261719 -8.238281 9.828125 -7.839844 9.394531 -7.371094 C 8.019531 -5.816406 7.769531 -7.117188 7.769531 -7.984375 C 7.769531 -8.742188 7.625 -9.539062 7.371094 -10.261719 C 7.226562 -10.621094 6.863281 -10.875 6.46875 -10.875 C 6.070312 -10.839844 5.746094 -10.621094 5.601562 -10.226562 C 4.589844 -7.40625 2.421875 -3.289062 0.902344 -3 C 0.792969 -2.960938 0.503906 -2.925781 0.0703125 -3.394531 C -0.144531 -4.335938 0 -5.347656 0.46875 -6.214844 C 1.554688 -9.140625 4.226562 -11.199219 7.335938 -11.488281 C 7.875 -11.523438 8.273438 -11.996094 8.238281 -12.5 C 8.203125 -13.042969 7.730469 -13.441406 7.226562 -13.402344 C 3.359375 -13.042969 0.0351562 -10.511719 -1.335938 -6.863281 C -1.949219 -5.273438 -2.3125 -3.179688 -1.335938 -2.132812 C -0.6875 -1.335938 0.289062 -0.976562 1.265625 -1.15625 C 3.070312 -1.515625 4.695312 -3.902344 5.851562 -6.070312 C 5.78125 -5.203125 5.671875 -4.226562 5.527344 -3.214844 C 5.492188 -3 5.417969 -2.816406 5.3125 -2.671875 C 1.082031 2.671875 -2.746094 9.140625 -2.816406 13.222656 C -2.925781 14.308594 -2.527344 15.390625 -1.804688 16.1875 C -1.445312 16.546875 -1.011719 16.726562 -0.542969 16.726562 C -0.144531 16.726562 0.253906 16.621094 0.578125 16.402344 C 2.960938 14.8125 5.996094 5.527344 7.191406 -1.84375 C 7.226562 -1.988281 7.296875 -2.132812 7.40625 -2.277344 C 8.671875 -3.828125 10.007812 -5.3125 11.417969 -6.71875 C 11.742188 -7.046875 12.246094 -7.082031 12.609375 -6.828125 C 16.582031 -4.15625 21.859375 -4.734375 25.183594 -8.164062 C 25.507812 -8.5625 25.507812 -9.140625 25.144531 -9.503906 Z M 1.082031 12.574219 C 0.253906 14.234375 -0.0351562 14.957031 -0.46875 14.8125 C -0.902344 14.703125 -0.9375 13.980469 -0.902344 13.257812 C -0.832031 10.476562 4.011719 1.046875 4.695312 1.335938 C 5.382812 1.625 2.457031 9.71875 1.082031 12.574219 Z M 1.082031 12.574219 "/></g></g></g><g fill="#524944" fill-opacity="1"><g transform="translate(299.153184, 76.274136)"><g><path d="M 30.3125 -9.285156 C 30.132812 -9.464844 29.914062 -9.609375 29.664062 -9.609375 C 29.410156 -9.648438 29.15625 -9.574219 28.976562 -9.429688 C 28.832031 -9.320312 14.921875 1.734375 3.324219 -3.035156 C 0.976562 -4.011719 0.867188 -5.273438 0.9375 -5.960938 C 0.9375 -6.070312 0.976562 -6.179688 1.082031 -6.25 C 1.15625 -6.324219 1.300781 -6.324219 1.410156 -6.285156 C 3.757812 -6.140625 6.105469 -6.757812 8.128906 -8.019531 C 9.863281 -9.140625 10.152344 -10.371094 10.042969 -11.164062 C 9.972656 -12.464844 8.925781 -13.511719 7.585938 -13.546875 C 4.734375 -13.691406 -0.0351562 -10.296875 -0.832031 -6.683594 C -1.15625 -5.347656 -1.121094 -2.816406 2.601562 -1.300781 C 4.878906 -0.359375 7.261719 0.0703125 9.683594 0.0703125 C 20.050781 0.0703125 29.664062 -7.550781 30.167969 -7.949219 C 30.347656 -8.09375 30.492188 -8.347656 30.492188 -8.5625 C 30.53125 -8.816406 30.457031 -9.070312 30.3125 -9.285156 Z M 2.238281 -8.492188 C 3.648438 -10.441406 5.996094 -11.742188 7.480469 -11.632812 C 7.875 -11.632812 8.09375 -11.488281 8.164062 -10.945312 C 8.203125 -10.585938 7.804688 -10.082031 7.082031 -9.609375 C 5.601562 -8.636719 1.15625 -7.046875 2.238281 -8.492188 Z M 2.238281 -8.492188 "/></g></g></g><g fill="#524944" fill-opacity="1"><g transform="translate(327.310432, 76.274136)"><g><path d="M 31.578125 -8.996094 C 31.359375 -9.140625 31.144531 -9.25 30.890625 -9.25 C 30.636719 -9.214844 30.386719 -9.105469 30.242188 -8.925781 C 30.132812 -8.851562 22.183594 -0.359375 15.28125 -3.144531 C 13.800781 -3.9375 12.609375 -5.128906 11.777344 -6.613281 C 11.488281 -7.082031 11.128906 -7.550781 10.695312 -7.984375 C 10.226562 -8.5625 9.503906 -8.886719 8.742188 -8.925781 C 6.902344 -9.070312 4.660156 -7.839844 1.988281 -5.3125 C 1.914062 -5.238281 1.804688 -5.203125 1.699219 -5.273438 C 1.589844 -5.3125 1.515625 -5.457031 1.554688 -5.5625 L 2.347656 -9.105469 C 2.492188 -9.609375 2.167969 -10.152344 1.660156 -10.261719 C 1.15625 -10.371094 0.648438 -10.042969 0.503906 -9.539062 L -1.300781 -1.625 C -1.410156 -1.191406 -1.191406 -0.757812 -0.792969 -0.578125 C -0.398438 -0.359375 0.0703125 -0.46875 0.359375 -0.792969 C 5.203125 -6.46875 7.660156 -7.007812 8.527344 -7.046875 C 9.394531 -7.082031 9.9375 -5.960938 10.226562 -5.527344 C 11.234375 -3.757812 12.753906 -2.3125 14.558594 -1.410156 C 22.652344 1.878906 31.253906 -7.261719 31.613281 -7.660156 C 31.972656 -8.019531 31.9375 -8.636719 31.578125 -8.996094 Z M 31.578125 -8.996094 "/></g></g></g></svg>