<svg xmlns="http://www.w3.org/2000/svg" xmlns:xlink="http://www.w3.org/1999/xlink" width="500" zoomAndPan="magnify" viewBox="0 0 375 374.999991" height="500" preserveAspectRatio="xMidYMid meet" version="1.0"><defs><clipPath id="a2d8a55844"><path d="M 36.253906 33 L 342 33 L 342 341 L 36.253906 341 Z M 36.253906 33 " clip-rule="nonzero"/></clipPath><clipPath id="95e4a25f34"><path d="M 32.355469 29.121094 L 342.644531 29.121094 L 342.644531 339.410156 L 32.355469 339.410156 Z M 32.355469 29.121094 " clip-rule="nonzero"/></clipPath><clipPath id="c1716344f9"><path d="M 187.5 339.410156 C 146.078125 339.410156 107.074219 323.289062 77.808594 293.957031 C 48.476562 264.691406 32.355469 225.6875 32.355469 184.265625 C 32.355469 142.84375 48.476562 103.839844 77.808594 74.574219 C 107.074219 45.242188 146.078125 29.121094 187.5 29.121094 C 228.921875 29.121094 267.925781 45.242188 297.191406 74.574219 C 326.523438 103.902344 342.644531 142.84375 342.644531 184.265625 C 342.644531 225.6875 326.523438 264.691406 297.191406 293.957031 C 267.925781 323.289062 228.921875 339.410156 187.5 339.410156 Z M 187.5 38.421875 C 148.558594 38.421875 111.910156 53.613281 84.378906 81.144531 C 56.847656 108.675781 41.65625 145.324219 41.65625 184.265625 C 41.65625 223.207031 56.847656 259.855469 84.378906 287.386719 C 111.910156 314.917969 148.558594 330.109375 187.5 330.109375 C 226.441406 330.109375 263.089844 314.917969 290.621094 287.386719 C 318.152344 259.855469 333.34375 223.207031 333.34375 184.265625 C 333.34375 145.324219 318.152344 108.675781 290.621094 81.144531 C 263.089844 53.613281 226.441406 38.421875 187.5 38.421875 Z M 187.5 38.421875 " clip-rule="nonzero"/></clipPath><clipPath id="4fa3fbfc20"><path d="M 331 145.785156 L 334.296875 145.785156 L 334.296875 149 L 331 149 Z M 331 145.785156 " clip-rule="nonzero"/></clipPath><clipPath id="1b0cfbc3bc"><path d="M 334.273438 146.925781 C 332.773438 149.25 331.5 148.800781 331.199219 148.351562 C 330.898438 147.824219 331.125 146.476562 331.574219 146.101562 C 332.023438 145.800781 333.824219 146.25 333.824219 146.25 " clip-rule="nonzero"/></clipPath></defs><g clip-path="url(#a2d8a55844)"><path fill="#db7f50" d="M 36.5625 195.769531 C 37.375 171.339844 37.855469 146.828125 48.140625 123.9375 C 55.925781 106.617188 67.101562 91.515625 79.875 77.6875 C 102.417969 53.285156 131.527344 41.382812 163.503906 35.65625 C 199.992188 29.125 234.355469 35.964844 266.378906 54.023438 C 289.429688 67.019531 307.28125 85.597656 320.289062 108.703125 C 328.78125 123.792969 336.28125 139.289062 339.050781 156.640625 C 341.691406 173.1875 342.453125 189.671875 340.199219 206.425781 C 337.980469 222.921875 334.113281 238.804688 326.089844 253.363281 C 315.371094 272.804688 304.109375 291.777344 286.039062 305.871094 C 263.242188 323.644531 237.65625 333.746094 209.242188 338.191406 C 159.949219 345.90625 118.472656 328.945312 80.789062 299.085938 C 73.140625 293.027344 65.78125 286.597656 60.660156 278.132812 C 47.742188 256.792969 37.640625 234.476562 37.25 208.878906 C 37.214844 206.621094 36.714844 204.371094 36.585938 202.105469 C 36.46875 200 36.5625 197.882812 36.5625 195.769531 Z M 113.84375 249.578125 C 124.820312 255.152344 134.242188 262.546875 142.832031 271.214844 C 151.402344 279.863281 160.273438 288.226562 169.25 296.460938 C 176.429688 303.042969 184.289062 308.773438 193.316406 312.644531 C 208.988281 319.363281 225.632812 321.242188 242.421875 322.496094 C 248.183594 322.925781 253.042969 321.160156 257.988281 318.4375 C 266.523438 313.738281 274.722656 308.570312 282.347656 302.539062 C 289.871094 296.589844 296.882812 290.058594 302.742188 282.414062 C 305.835938 278.375 305.644531 277.816406 300.863281 276.597656 C 290.710938 274.011719 280.574219 271.316406 270.34375 269.066406 C 264.035156 267.675781 257.589844 266.921875 251.0625 267.050781 C 226.242188 267.558594 201.964844 265.070312 179.03125 254.457031 C 174.109375 252.179688 168.699219 250.878906 163.1875 250.242188 C 146.820312 248.351562 130.410156 249.492188 113.839844 249.578125 Z M 44.34375 231.519531 C 53.589844 257.296875 63.882812 280.542969 85.589844 297.117188 C 122.578125 325.359375 162.867188 341.367188 210.246094 333.132812 C 218.484375 331.699219 226.796875 330.40625 234.683594 327.199219 C 231.195312 326.324219 227.746094 325.796875 224.285156 325.394531 C 203.960938 323.015625 185.132812 316.898438 169.605469 302.949219 C 160.304688 294.589844 150.625 286.523438 142.253906 277.292969 C 122.152344 255.128906 96.605469 245.9375 67.6875 243.761719 C 61.929688 243.328125 56.480469 241.425781 52.480469 237.207031 C 50.398438 235.011719 48.234375 233.351562 44.34375 231.519531 Z M 222.941406 224.996094 C 224.078125 224.996094 225.285156 224.75 226.34375 225.039062 C 231.496094 226.445312 232.894531 223.445312 233.238281 219.269531 C 233.738281 213.15625 234.441406 207.113281 233.527344 200.882812 C 231.453125 186.683594 214.929688 167.207031 200.011719 164.828125 C 194.4375 163.9375 188.847656 163.953125 183.140625 164.128906 C 161.523438 164.789062 145.890625 180.597656 142.210938 199.746094 C 139.449219 214.128906 141.65625 227.398438 151.792969 238.675781 C 153.953125 241.078125 155.917969 241.679688 159.285156 240.234375 C 179.605469 231.527344 200.714844 225.847656 222.941406 224.996094 Z M 160.0625 245.070312 C 165.84375 245.679688 170.535156 246.628906 175.082031 248.242188 C 184.332031 251.515625 193.496094 255.074219 202.867188 257.960938 C 217.621094 262.507812 233.042969 262.488281 248.1875 262.390625 C 268.164062 262.265625 286.597656 268.789062 305.542969 273.207031 C 307.964844 273.773438 308.890625 273.5625 310.035156 271.566406 C 313.898438 264.835938 318.039062 258.261719 321.824219 251.484375 C 324.042969 247.507812 326.222656 243.4375 327.15625 238.578125 C 322.5625 238.832031 318.359375 239.222656 314.15625 239.269531 C 295.585938 239.484375 277.394531 235.921875 259.148438 233.273438 C 235.90625 229.902344 212.867188 227.640625 189.847656 234.640625 C 180.054688 237.617188 170.195312 240.3125 160.0625 245.070312 Z M 221.445312 171.382812 C 231.292969 159.4375 240.746094 147.695312 250.492188 136.203125 C 264.648438 119.503906 279.023438 102.992188 293.265625 86.367188 C 294.460938 84.972656 296.933594 83.777344 294.089844 81.40625 C 287.867188 76.214844 281.746094 70.898438 275.699219 65.5 C 273.253906 63.3125 271.683594 62.769531 270.308594 66.507812 C 269.484375 68.742188 267.910156 70.703125 266.636719 72.765625 C 249.398438 100.644531 232.347656 128.628906 218.667969 158.5 C 216.425781 163.398438 217.351562 167.691406 221.445312 171.382812 Z M 170.144531 161.039062 C 169.390625 159.292969 168.917969 158.269531 168.503906 157.222656 C 160.023438 135.839844 151.445312 114.492188 143.117188 93.046875 C 138.117188 80.171875 133.632812 67.089844 128.042969 54.445312 C 127.574219 53.390625 127.929688 50.835938 125.128906 52.09375 C 117.328125 55.59375 109.492188 58.980469 102.699219 64.34375 C 101.175781 65.550781 101.3125 66.410156 102.171875 67.929688 C 106.128906 74.957031 109.808594 82.144531 113.835938 89.128906 C 127.808594 113.363281 144.089844 136.132812 158.835938 159.878906 C 161.46875 164.117188 165.128906 164.789062 169.082031 161.75 C 169.617188 161.339844 170.164062 161.097656 170.144531 161.039062 Z M 181.019531 158.503906 C 179.347656 148.25 178.007812 138.8125 176.242188 129.453125 C 172.507812 109.609375 168.738281 89.785156 166.925781 69.640625 C 166.1875 61.4375 165.160156 53.253906 164.007812 45.09375 C 163.730469 43.136719 164.320312 39.65625 160.203125 40.667969 C 151.289062 42.851562 142.386719 45.058594 133.777344 48.320312 C 131.792969 49.070312 131.058594 49.703125 132.039062 51.980469 C 141.984375 75.050781 150.019531 98.875 159.433594 122.160156 C 164.261719 134.101562 169.195312 146.003906 173.832031 158.019531 C 174.707031 160.28125 175.773438 160.921875 177.707031 160.136719 C 178.90625 159.652344 181.410156 160.472656 181.023438 158.503906 Z M 195.433594 147.6875 C 195.433594 151.34375 195.777344 153.683594 195.363281 155.875 C 194.589844 159.957031 197.6875 159.652344 199.917969 160.261719 C 203.320312 161.191406 202.585938 157.960938 202.933594 156.609375 C 205.351562 147.261719 207.269531 137.785156 209.722656 128.453125 C 216.757812 101.683594 225.628906 75.46875 234.113281 49.140625 C 234.949219 46.542969 235.152344 45.109375 231.648438 44.195312 C 223.53125 42.085938 215.425781 40.082031 207.109375 38.867188 C 203.941406 38.402344 203.113281 39.199219 202.933594 42.429688 C 202.179688 56.007812 201.304688 69.585938 200.050781 83.125 C 198.015625 105.074219 196.789062 127.078125 195.4375 147.6875 Z M 96.863281 67.515625 C 89.492188 75.148438 82.152344 81.550781 76.035156 89.191406 C 74.195312 91.488281 74.757812 92.6875 76.425781 94.367188 C 80.085938 98.050781 83.746094 101.738281 87.265625 105.550781 C 108.265625 128.300781 128.769531 151.535156 152.058594 172.09375 C 152.894531 171.351562 153.539062 170.558594 154.363281 170.085938 C 157.699219 168.179688 157.492188 166.363281 155.492188 163.101562 C 146.015625 147.644531 135.242188 133.039062 125.75 117.605469 C 115.792969 101.402344 105.476562 85.402344 96.863281 67.515625 Z M 181.59375 38.476562 C 179.828125 38.476562 178.855469 38.429688 177.886719 38.484375 C 168.398438 39.007812 168.226562 39.03125 169.167969 48.066406 C 170.523438 61.097656 171.835938 74.144531 173.761719 87.09375 C 176.113281 102.902344 179.085938 118.613281 181.792969 134.367188 C 183.054688 141.699219 184.414062 149.011719 185.535156 156.363281 C 185.84375 158.386719 186.507812 159.097656 188.582031 159.089844 C 190.988281 159.078125 190.523438 157.5625 190.585938 156.164062 C 190.835938 150.492188 191.027344 144.816406 191.386719 139.152344 C 192.441406 122.472656 193.371094 105.777344 194.71875 89.121094 C 195.996094 73.289062 197.628906 57.484375 198.355469 41.609375 C 198.480469 38.902344 197.722656 37.917969 194.90625 37.882812 C 190.183594 37.820312 185.527344 39.070312 181.59375 38.476562 Z M 206.964844 159.878906 C 206.449219 161.4375 207.792969 162.277344 209.664062 162.992188 C 212.507812 164.078125 212.125 161.386719 212.59375 160.324219 C 220.761719 141.824219 230.488281 124.132812 240.609375 106.667969 C 249.035156 92.125 257.925781 77.851562 266.714844 63.519531 C 268.183594 61.125 268.222656 59.859375 265.386719 58.507812 C 258.121094 55.046875 250.996094 51.328125 243.476562 48.375 C 240.085938 47.042969 239.234375 47.945312 238.285156 51.03125 C 231.59375 72.714844 224.664062 94.324219 217.953125 116 C 213.5625 130.175781 210.65625 144.738281 206.964844 159.878906 Z M 235.15625 188.359375 C 236.066406 187.871094 236.902344 187.378906 237.773438 186.957031 C 254.042969 179.136719 270.296875 171.285156 286.597656 163.523438 C 300.136719 157.078125 314.121094 151.550781 326.992188 143.714844 C 329.414062 142.242188 330.328125 141.105469 329.125 138.121094 C 326.289062 131.085938 323.046875 124.257812 319.765625 117.429688 C 318.472656 114.746094 317.570312 114.824219 315.332031 116.429688 C 293.613281 131.996094 271.875 147.527344 251.898438 165.355469 C 245.851562 170.75 239.621094 175.933594 233.511719 181.261719 C 232.5 182.144531 230.96875 182.992188 232.355469 184.78125 C 233.28125 185.976562 233.378906 187.835938 235.15625 188.359375 Z M 144.46875 180.269531 C 146.195312 179.472656 146.769531 177.644531 147.921875 176.394531 C 149.585938 174.59375 147.382812 174.257812 146.628906 173.605469 C 138.003906 166.183594 130.015625 158.085938 122.175781 149.878906 C 105.925781 132.871094 89.914062 115.636719 73.984375 98.332031 C 71.59375 95.730469 70.726562 96.148438 68.816406 98.652344 C 64.488281 104.328125 60.894531 110.449219 57.101562 116.460938 C 55.664062 118.738281 55.769531 119.988281 58.136719 121.480469 C 61.679688 123.714844 65.03125 126.273438 68.359375 128.824219 C 92.15625 147.042969 118.207031 161.9375 142.65625 179.1875 C 143.175781 179.554688 143.75 179.84375 144.46875 180.269531 Z M 229.019531 178.882812 C 229.828125 178.125 230.621094 177.308594 231.488281 176.582031 C 246.90625 163.683594 262.097656 150.496094 277.839844 138 C 288.972656 129.164062 300.839844 121.253906 312.398438 112.953125 C 314.417969 111.503906 316.3125 110.410156 314.167969 107.34375 C 309.996094 101.382812 306.292969 95.113281 301.585938 89.503906 C 299.65625 87.203125 298.707031 87.007812 296.640625 89.453125 C 280.433594 108.652344 264.011719 127.671875 247.785156 146.855469 C 240.566406 155.386719 233.648438 164.171875 226.59375 172.84375 C 225.835938 173.777344 224.445312 174.640625 225.867188 175.992188 C 226.875 176.945312 227.242188 178.617188 229.019531 178.878906 Z M 53.429688 123.226562 C 49.800781 132.355469 46.988281 140.699219 44.976562 149.351562 C 44.339844 152.085938 45.382812 152.726562 47.253906 153.5 C 52.757812 155.773438 58.269531 158.027344 63.761719 160.324219 C 87.957031 170.445312 112.042969 180.851562 137.34375 188.046875 C 139.238281 188.585938 140.492188 189.265625 141.585938 186.960938 C 142.6875 184.636719 141.273438 183.9375 139.71875 182.859375 C 111.144531 163.039062 80.929688 145.621094 53.429688 123.226562 Z M 335.855469 168.84375 C 336.042969 161.609375 333.707031 155.460938 332.765625 149.089844 C 332.398438 146.59375 331.027344 146.523438 329.085938 147.8125 C 326.800781 149.324219 324.464844 150.808594 321.996094 151.988281 C 302.371094 161.390625 282.707031 170.707031 263.0625 180.070312 C 254.925781 183.949219 246.777344 187.804688 238.707031 191.824219 C 234.035156 194.148438 238.023438 197.363281 238.324219 200.042969 C 238.671875 203.085938 240.785156 200.816406 241.941406 200.484375 C 257.566406 195.992188 273.203125 191.542969 288.753906 186.792969 C 302.59375 182.570312 316.890625 180.113281 330.679688 175.664062 C 334.695312 174.367188 337.457031 172.972656 335.855469 168.84375 Z M 236.832031 225.554688 C 248.671875 227.171875 260.515625 228.777344 272.351562 230.414062 C 287.902344 232.5625 303.398438 235.175781 319.203125 234.574219 C 329.578125 234.175781 329.582031 234.292969 332.132812 224.351562 C 332.535156 222.789062 332.996094 221.246094 333.378906 219.683594 C 334.632812 214.574219 332.644531 212.152344 327.40625 212.410156 C 300.867188 213.78125 274.230469 212.726562 247.746094 215.984375 C 238.664062 217.101562 238.566406 216.320312 236.832031 225.554688 Z M 336.683594 178.738281 C 331.703125 180.199219 326.992188 181.808594 322.171875 182.960938 C 295.210938 189.417969 268.761719 197.664062 242.148438 205.351562 C 239.226562 206.195312 238.109375 207.671875 238.558594 210.4375 C 239.105469 213.800781 241.710938 211.960938 243.214844 211.847656 C 252.085938 211.160156 260.933594 210.136719 269.796875 209.328125 C 290.683594 207.429688 311.660156 209.035156 332.570312 207.710938 C 334.917969 207.5625 335.554688 207.121094 335.800781 204.886719 C 336.738281 196.492188 337.210938 188.09375 336.683594 178.738281 Z M 41.414062 187.375 C 41.414062 193.511719 41.238281 199.023438 41.457031 204.519531 C 41.828125 213.828125 41.933594 213.820312 51.242188 213.207031 C 51.726562 213.175781 52.214844 213.210938 52.703125 213.195312 C 73.277344 212.515625 93.851562 211.90625 114.421875 211.101562 C 121.042969 210.84375 127.636719 210.019531 134.253906 209.542969 C 137.839844 209.28125 136.210938 206.464844 136.652344 204.742188 C 137.246094 202.460938 135.449219 202.640625 133.984375 202.523438 C 119.15625 201.316406 104.589844 198.292969 89.929688 195.960938 C 73.847656 193.402344 57.851562 190.308594 41.414062 187.375 Z M 43.558594 157.1875 C 43.105469 162.609375 42.632812 167.425781 42.324219 172.25 C 42.109375 175.601562 40.847656 179.820312 42.375 182.089844 C 43.988281 184.484375 48.640625 183.492188 51.914062 184.171875 C 79.398438 189.886719 107.066406 194.40625 134.910156 197.972656 C 137.523438 198.308594 137.808594 197.363281 138.449219 195.605469 C 139.371094 193.089844 137.703125 193.0625 136.042969 192.617188 C 123.128906 189.148438 110.644531 184.410156 98.253906 179.449219 C 80.214844 172.222656 62.253906 164.808594 43.5625 157.1875 Z M 71.914062 239.386719 C 74.746094 239.875 77.300781 239.207031 79.949219 238.238281 C 85.519531 236.199219 91.175781 234.386719 96.851562 232.671875 C 109.160156 228.957031 121.667969 225.941406 133.96875 222.160156 C 138.183594 220.863281 137.015625 218.460938 136.839844 216.027344 C 136.585938 212.503906 133.792969 214.359375 132.359375 214.46875 C 122.34375 215.246094 112.332031 215.878906 102.285156 216.179688 C 83.484375 216.746094 64.695312 217.578125 45.898438 218.203125 C 43.746094 218.273438 43.121094 219 43.238281 221.070312 C 43.414062 224.152344 43.304688 226.921875 47.433594 227.90625 C 49.976562 228.511719 52.855469 230.03125 54.40625 232.050781 C 58.976562 238 65.238281 239.027344 71.914062 239.386719 Z M 87.128906 241.210938 C 96.304688 244.582031 105.375 243.167969 114.136719 244.308594 C 115.078125 244.433594 116.1875 243.546875 117.164062 243.027344 C 124.234375 239.246094 131.203125 235.265625 138.402344 231.742188 C 140.835938 230.554688 140.121094 229.253906 139.65625 227.667969 C 139.070312 225.664062 137.800781 225.5 135.976562 226.1875 C 120.203125 232.132812 103.355469 234.558594 87.128906 241.210938 Z M 149.738281 243.890625 C 147.375 240.886719 145.460938 238.539062 143.652344 236.117188 C 142.773438 234.941406 141.84375 235.097656 140.78125 235.671875 C 135.902344 238.316406 131.027344 240.960938 126.152344 243.609375 C 133.941406 244.226562 141.542969 244.785156 149.738281 243.890625 Z M 149.738281 243.890625 " fill-opacity="1" fill-rule="nonzero"/></g><g clip-path="url(#95e4a25f34)"><g clip-path="url(#c1716344f9)"><path fill="#db7f50" d="M 32.355469 29.121094 L 342.644531 29.121094 L 342.644531 339.410156 L 32.355469 339.410156 Z M 32.355469 29.121094 " fill-opacity="1" fill-rule="nonzero"/></g></g><g clip-path="url(#4fa3fbfc20)"><g clip-path="url(#1b0cfbc3bc)"><path fill="#db7f50" d="M 328.199219 143.101562 L 337.273438 143.101562 L 337.273438 152.023438 L 328.199219 152.023438 Z M 328.199219 143.101562 " fill-opacity="1" fill-rule="nonzero"/></g></g></svg>