<svg xmlns="http://www.w3.org/2000/svg" xmlns:xlink="http://www.w3.org/1999/xlink" width="500" zoomAndPan="magnify" viewBox="0 0 375 374.999991" height="500" preserveAspectRatio="xMidYMid meet" version="1.0"><defs><filter x="0%" y="0%" width="100%" height="100%" id="1ceebd97b1"><feColorMatrix values="0 0 0 0 1 0 0 0 0 1 0 0 0 0 1 0 0 0 1 0" color-interpolation-filters="sRGB"/></filter><mask id="7d7a3669c9"><g filter="url(#1ceebd97b1)"><rect x="-37.5" width="450" fill="#000000" y="-37.499999" height="449.999989" fill-opacity="0.95"/></g></mask><clipPath id="1422f20336"><path d="M 103 0.503906 L 130 0.503906 L 130 58 L 103 58 Z M 103 0.503906 " clip-rule="nonzero"/></clipPath><clipPath id="066dd045ef"><path d="M 0.503906 109 L 58 109 L 58 136 L 0.503906 136 Z M 0.503906 109 " clip-rule="nonzero"/></clipPath><clipPath id="4e6004e0ed"><path d="M 109 181 L 136 181 L 136 238.253906 L 109 238.253906 Z M 109 181 " clip-rule="nonzero"/></clipPath><clipPath id="1e46eb7949"><path d="M 181 103 L 238.253906 103 L 238.253906 130 L 181 130 Z M 181 103 " clip-rule="nonzero"/></clipPath><clipPath id="f99e6e14c4"><rect x="0" width="239" y="0" height="239"/></clipPath></defs><g mask="url(#7d7a3669c9)"><g transform="matrix(1, 0, 0, 1, 68, 68)"><g clip-path="url(#f99e6e14c4)"><g clip-path="url(#1422f20336)"><path fill="#e10000" d="M 129.171875 56.46875 C 127.320312 54.515625 125.671875 52.621094 124.273438 50.683594 L 123.75 49.9375 L 123.5 49.574219 C 123.417969 49.453125 123.339844 49.328125 123.261719 49.207031 C 122.941406 48.714844 122.640625 48.210938 122.355469 47.703125 C 121.789062 46.679688 121.292969 45.625 120.882812 44.554688 C 120.476562 43.480469 120.160156 42.394531 119.941406 41.304688 C 119.726562 40.210938 119.609375 39.117188 119.617188 38.027344 C 119.621094 37.480469 119.65625 36.9375 119.726562 36.394531 C 119.726562 36.375 119.730469 36.359375 119.730469 36.34375 L 119.738281 36.289062 L 119.757812 36.183594 L 119.792969 35.976562 C 119.816406 35.832031 119.832031 35.691406 119.871094 35.542969 L 119.96875 35.097656 C 119.976562 35.0625 119.980469 35.023438 119.992188 34.988281 L 120.023438 34.871094 L 120.085938 34.640625 L 120.179688 34.289062 L 120.21875 34.167969 L 120.371094 33.683594 L 120.410156 33.5625 C 120.421875 33.519531 120.4375 33.480469 120.453125 33.4375 L 120.539062 33.1875 L 120.628906 32.933594 C 120.65625 32.851562 120.683594 32.765625 120.71875 32.679688 L 120.914062 32.160156 L 120.964844 32.03125 L 120.988281 31.964844 L 121.015625 31.898438 L 121.121094 31.628906 L 121.335938 31.09375 L 121.5625 30.539062 L 121.792969 29.976562 L 122.03125 29.410156 L 122.269531 28.820312 L 122.390625 28.527344 L 122.515625 28.226562 L 122.757812 27.625 L 122.785156 27.546875 L 122.878906 27.3125 L 122.996094 27.003906 C 123.15625 26.59375 123.3125 26.15625 123.464844 25.734375 C 123.484375 25.679688 123.503906 25.625 123.523438 25.570312 L 123.578125 25.40625 L 123.6875 25.074219 L 123.792969 24.746094 L 123.847656 24.582031 L 123.898438 24.410156 L 124.097656 23.730469 L 124.144531 23.5625 C 124.160156 23.507812 124.175781 23.445312 124.191406 23.390625 L 124.277344 23.039062 L 124.363281 22.691406 C 124.390625 22.578125 124.421875 22.460938 124.445312 22.34375 C 124.492188 22.109375 124.542969 21.875 124.585938 21.640625 L 124.707031 20.941406 C 124.738281 20.707031 124.769531 20.472656 124.800781 20.242188 C 125.027344 18.378906 125.023438 16.558594 124.859375 14.8125 C 124.699219 13.066406 124.382812 11.386719 123.984375 9.765625 C 123.585938 8.148438 123.101562 6.582031 122.578125 5.046875 C 122.054688 3.511719 121.488281 2.003906 120.917969 0.503906 C 120.910156 2.109375 120.898438 3.714844 120.835938 5.304688 C 120.777344 6.890625 120.667969 8.464844 120.476562 9.996094 C 120.378906 10.761719 120.257812 11.515625 120.117188 12.253906 C 119.972656 12.992188 119.800781 13.714844 119.597656 14.414062 C 119.199219 15.816406 118.679688 17.128906 118.039062 18.304688 L 117.792969 18.738281 L 117.535156 19.160156 C 117.449219 19.296875 117.355469 19.433594 117.269531 19.570312 C 117.226562 19.636719 117.175781 19.703125 117.125 19.769531 L 116.984375 19.96875 L 116.84375 20.164062 C 116.816406 20.199219 116.796875 20.230469 116.769531 20.261719 L 116.691406 20.363281 L 116.386719 20.753906 L 116.3125 20.851562 L 116.230469 20.949219 L 116.066406 21.148438 L 115.820312 21.441406 C 115.792969 21.472656 115.765625 21.503906 115.734375 21.539062 C 115.503906 21.800781 115.28125 22.0625 115.035156 22.328125 L 114.855469 22.527344 L 114.765625 22.625 L 114.671875 22.726562 L 114.292969 23.128906 L 114.105469 23.332031 L 113.90625 23.539062 L 113.515625 23.953125 L 113.109375 24.378906 L 112.699219 24.8125 L 112.28125 25.253906 L 111.859375 25.710938 L 111.644531 25.945312 L 111.589844 26 L 111.539062 26.0625 L 111.429688 26.183594 L 110.996094 26.667969 C 110.925781 26.746094 110.851562 26.832031 110.777344 26.917969 L 110.558594 27.171875 L 110.339844 27.429688 C 110.304688 27.472656 110.269531 27.511719 110.230469 27.558594 L 110.121094 27.691406 L 109.683594 28.234375 L 109.574219 28.371094 L 109.464844 28.515625 L 109.25 28.800781 L 108.921875 29.234375 C 108.886719 29.285156 108.851562 29.335938 108.8125 29.386719 L 108.386719 30.003906 C 108.242188 30.207031 108.105469 30.429688 107.964844 30.648438 L 107.757812 30.976562 L 107.65625 31.144531 L 107.601562 31.226562 L 107.554688 31.3125 C 107.011719 32.226562 106.527344 33.171875 106.09375 34.144531 C 105.230469 36.089844 104.59375 38.128906 104.152344 40.1875 C 103.714844 42.246094 103.472656 44.328125 103.394531 46.398438 C 103.320312 48.464844 103.40625 50.523438 103.632812 52.558594 C 103.742188 53.574219 103.890625 54.585938 104.070312 55.59375 C 104.117188 55.84375 104.164062 56.097656 104.210938 56.347656 C 104.261719 56.597656 104.3125 56.851562 104.367188 57.097656 C 104.398438 57.238281 104.429688 57.378906 104.460938 57.519531 C 109.28125 56.355469 114.316406 55.738281 119.496094 55.738281 C 122.773438 55.738281 126.007812 55.984375 129.160156 56.46875 Z M 129.171875 56.46875 " fill-opacity="1" fill-rule="nonzero"/></g><path fill="#e10000" d="M 89.226562 57.515625 L 88.398438 57.128906 L 88 56.9375 C 87.871094 56.875 87.742188 56.808594 87.609375 56.742188 C 87.089844 56.476562 86.574219 56.191406 86.074219 55.890625 C 85.074219 55.289062 84.117188 54.625 83.226562 53.898438 C 82.335938 53.175781 81.515625 52.390625 80.785156 51.554688 C 80.050781 50.71875 79.40625 49.828125 78.867188 48.882812 C 78.597656 48.40625 78.351562 47.917969 78.140625 47.414062 C 78.132812 47.398438 78.128906 47.382812 78.121094 47.363281 L 78.101562 47.316406 L 78.066406 47.214844 L 77.988281 47.015625 C 77.9375 46.882812 77.882812 46.753906 77.839844 46.605469 L 77.703125 46.171875 C 77.691406 46.132812 77.679688 46.097656 77.667969 46.058594 L 77.640625 45.945312 L 77.578125 45.710938 L 77.515625 45.480469 L 77.484375 45.363281 L 77.457031 45.238281 L 77.347656 44.742188 L 77.316406 44.617188 C 77.308594 44.578125 77.300781 44.53125 77.292969 44.488281 L 77.242188 44.226562 L 77.195312 43.964844 C 77.175781 43.878906 77.160156 43.792969 77.144531 43.699219 L 77.054688 43.152344 L 77.03125 43.015625 L 77.019531 42.945312 L 77.011719 42.875 L 76.96875 42.589844 L 76.886719 42.015625 L 76.804688 41.425781 L 76.726562 40.824219 L 76.644531 40.210938 L 76.5625 39.582031 L 76.519531 39.269531 L 76.472656 38.945312 L 76.382812 38.300781 L 76.371094 38.222656 L 76.359375 38.140625 L 76.332031 37.972656 L 76.28125 37.644531 C 76.214844 37.210938 76.128906 36.753906 76.050781 36.308594 C 76.039062 36.253906 76.03125 36.199219 76.019531 36.140625 L 75.984375 35.972656 L 75.914062 35.628906 L 75.839844 35.289062 L 75.804688 35.121094 L 75.765625 34.949219 L 75.597656 34.261719 L 75.554688 34.089844 C 75.539062 34.035156 75.523438 33.976562 75.503906 33.917969 L 75.40625 33.570312 L 75.308594 33.226562 C 75.273438 33.113281 75.242188 33 75.203125 32.886719 C 75.128906 32.660156 75.054688 32.429688 74.976562 32.207031 L 74.730469 31.539062 C 74.640625 31.320312 74.550781 31.101562 74.460938 30.886719 C 73.726562 29.160156 72.8125 27.585938 71.796875 26.15625 C 70.785156 24.722656 69.671875 23.425781 68.515625 22.222656 C 67.359375 21.019531 66.160156 19.90625 64.9375 18.839844 C 63.714844 17.773438 62.476562 16.75 61.230469 15.734375 C 62.027344 17.128906 62.816406 18.527344 63.558594 19.933594 C 64.304688 21.335938 64.992188 22.753906 65.589844 24.175781 C 65.890625 24.886719 66.164062 25.601562 66.410156 26.3125 C 66.65625 27.023438 66.867188 27.734375 67.042969 28.441406 C 67.398438 29.855469 67.605469 31.25 67.636719 32.589844 L 67.640625 33.089844 L 67.628906 33.582031 C 67.621094 33.746094 67.609375 33.910156 67.601562 34.070312 C 67.597656 34.152344 67.585938 34.234375 67.578125 34.316406 L 67.53125 34.800781 C 67.527344 34.839844 67.523438 34.878906 67.519531 34.921875 L 67.5 35.046875 L 67.429688 35.539062 L 67.414062 35.660156 L 67.390625 35.789062 L 67.304688 36.289062 L 67.285156 36.414062 C 67.277344 36.457031 67.269531 36.5 67.257812 36.542969 C 67.191406 36.886719 67.128906 37.222656 67.046875 37.578125 L 66.988281 37.839844 L 66.960938 37.96875 L 66.929688 38.101562 L 66.804688 38.640625 L 66.742188 38.914062 L 66.542969 39.746094 L 66.40625 40.316406 L 66.265625 40.894531 L 66.125 41.488281 L 65.988281 42.097656 L 65.917969 42.402344 L 65.886719 42.558594 L 65.851562 42.71875 L 65.71875 43.355469 C 65.695312 43.457031 65.675781 43.570312 65.65625 43.679688 L 65.59375 44.007812 L 65.53125 44.339844 C 65.523438 44.394531 65.511719 44.449219 65.503906 44.507812 L 65.339844 45.539062 L 65.316406 45.71875 L 65.273438 46.078125 L 65.226562 46.4375 L 65.207031 46.617188 C 65.199219 46.675781 65.195312 46.742188 65.1875 46.800781 L 65.125 47.550781 C 65.101562 47.796875 65.09375 48.058594 65.085938 48.316406 L 65.058594 49 L 65.058594 49.097656 C 65.046875 50.160156 65.101562 51.222656 65.214844 52.28125 C 65.4375 54.398438 65.902344 56.484375 66.550781 58.484375 C 67.203125 60.488281 68.035156 62.410156 69 64.242188 C 69.96875 66.070312 71.074219 67.808594 72.285156 69.457031 C 72.890625 70.285156 73.523438 71.085938 74.183594 71.867188 C 74.351562 72.0625 74.515625 72.257812 74.683594 72.449219 C 74.851562 72.640625 75.023438 72.835938 75.191406 73.023438 C 75.292969 73.132812 75.394531 73.242188 75.496094 73.351562 C 81.460938 67.664062 88.53125 63.117188 96.347656 60.070312 C 93.777344 59.3125 91.40625 58.496094 89.230469 57.523438 Z M 89.226562 57.515625 " fill-opacity="1" fill-rule="nonzero"/><path fill="#e10000" d="M 62.289062 80.953125 L 61.378906 81.035156 L 60.941406 81.066406 C 60.792969 81.078125 60.648438 81.082031 60.503906 81.09375 C 59.917969 81.121094 59.332031 81.132812 58.746094 81.121094 C 57.578125 81.101562 56.417969 81.003906 55.285156 80.824219 C 54.152344 80.640625 53.050781 80.371094 52 80.015625 C 50.945312 79.65625 49.941406 79.207031 49 78.65625 C 48.527344 78.382812 48.074219 78.078125 47.636719 77.746094 C 47.625 77.738281 47.609375 77.726562 47.597656 77.714844 L 47.554688 77.683594 L 47.472656 77.617188 L 47.308594 77.480469 C 47.199219 77.390625 47.085938 77.304688 46.976562 77.199219 L 46.636719 76.890625 C 46.609375 76.863281 46.582031 76.839844 46.554688 76.8125 L 46.46875 76.726562 L 46.300781 76.554688 L 46.128906 76.386719 L 46.042969 76.300781 L 45.527344 75.738281 C 45.5 75.707031 45.46875 75.671875 45.441406 75.640625 L 45.269531 75.4375 L 45.09375 75.238281 C 45.035156 75.167969 44.976562 75.101562 44.917969 75.03125 L 44.566406 74.601562 L 44.480469 74.492188 L 44.433594 74.4375 L 44.390625 74.382812 L 43.851562 73.703125 L 43.488281 73.230469 L 43.117188 72.75 L 42.742188 72.257812 L 42.355469 71.757812 L 42.160156 71.503906 L 41.960938 71.25 L 41.558594 70.738281 L 41.507812 70.671875 L 41.457031 70.609375 L 41.351562 70.476562 L 41.140625 70.21875 C 40.867188 69.875 40.566406 69.523438 40.277344 69.179688 C 40.238281 69.132812 40.203125 69.089844 40.164062 69.046875 L 40.050781 68.917969 L 39.816406 68.65625 L 39.585938 68.398438 L 39.46875 68.269531 L 39.347656 68.140625 L 38.859375 67.628906 L 38.738281 67.503906 C 38.695312 67.460938 38.652344 67.421875 38.609375 67.378906 L 38.09375 66.878906 C 38.003906 66.796875 37.921875 66.714844 37.832031 66.636719 C 37.652344 66.476562 37.472656 66.316406 37.292969 66.160156 L 36.746094 65.707031 C 36.5625 65.5625 36.375 65.417969 36.1875 65.273438 C 34.691406 64.148438 33.109375 63.242188 31.515625 62.507812 C 29.921875 61.773438 28.3125 61.210938 26.710938 60.746094 C 25.105469 60.28125 23.507812 59.917969 21.917969 59.601562 C 20.324219 59.289062 18.738281 59.027344 17.15625 58.769531 C 18.542969 59.578125 19.925781 60.390625 21.269531 61.238281 C 22.617188 62.085938 23.921875 62.964844 25.152344 63.898438 C 25.765625 64.367188 26.359375 64.84375 26.929688 65.339844 C 27.496094 65.832031 28.035156 66.34375 28.542969 66.867188 C 29.554688 67.914062 30.433594 69.019531 31.128906 70.164062 L 31.382812 70.59375 L 31.621094 71.027344 C 31.695312 71.171875 31.765625 71.320312 31.839844 71.464844 C 31.878906 71.535156 31.910156 71.609375 31.941406 71.6875 L 32.042969 71.910156 L 32.144531 72.128906 C 32.160156 72.167969 32.175781 72.203125 32.191406 72.242188 L 32.238281 72.359375 L 32.425781 72.820312 L 32.472656 72.933594 L 32.515625 73.054688 L 32.605469 73.292969 L 32.691406 73.53125 L 32.738281 73.652344 C 32.75 73.691406 32.765625 73.734375 32.78125 73.773438 C 32.890625 74.109375 33.003906 74.429688 33.113281 74.777344 L 33.195312 75.03125 L 33.234375 75.160156 L 33.253906 75.222656 L 33.277344 75.289062 L 33.4375 75.820312 L 33.515625 76.085938 L 33.761719 76.90625 L 33.925781 77.46875 L 34.097656 78.042969 L 34.269531 78.621094 L 34.457031 79.21875 L 34.546875 79.519531 L 34.570312 79.59375 L 34.597656 79.671875 L 34.648438 79.824219 L 34.851562 80.441406 C 34.882812 80.542969 34.921875 80.652344 34.957031 80.757812 L 35.183594 81.390625 C 35.203125 81.445312 35.21875 81.496094 35.238281 81.550781 L 35.300781 81.710938 L 35.550781 82.363281 L 35.683594 82.691406 L 35.824219 83.023438 L 35.96875 83.359375 L 36.039062 83.523438 C 36.0625 83.582031 36.089844 83.636719 36.117188 83.695312 L 36.4375 84.375 C 36.539062 84.597656 36.664062 84.828125 36.785156 85.058594 L 36.964844 85.402344 L 37.058594 85.574219 L 37.101562 85.664062 L 37.152344 85.75 C 37.671875 86.671875 38.25 87.570312 38.878906 88.429688 C 40.128906 90.148438 41.574219 91.71875 43.136719 93.128906 C 44.703125 94.539062 46.382812 95.789062 48.136719 96.890625 C 49.890625 97.992188 51.714844 98.945312 53.589844 99.765625 C 54.527344 100.179688 55.476562 100.558594 56.441406 100.90625 C 56.679688 100.988281 56.921875 101.078125 57.164062 101.160156 C 57.40625 101.238281 57.648438 101.324219 57.890625 101.402344 C 58.027344 101.445312 58.164062 101.488281 58.300781 101.53125 C 60.675781 93.4375 64.609375 86.011719 69.757812 79.601562 C 67.160156 80.230469 64.6875 80.714844 62.308594 80.957031 Z M 62.289062 80.953125 " fill-opacity="1" fill-rule="nonzero"/><g clip-path="url(#066dd045ef)"><path fill="#e10000" d="M 56.46875 109.820312 C 54.515625 111.671875 52.621094 113.320312 50.683594 114.71875 L 49.9375 115.242188 L 49.574219 115.488281 C 49.453125 115.570312 49.328125 115.648438 49.207031 115.730469 C 48.714844 116.050781 48.210938 116.351562 47.703125 116.632812 C 46.679688 117.203125 45.625 117.699219 44.554688 118.105469 C 43.480469 118.515625 42.394531 118.832031 41.304688 119.050781 C 40.210938 119.265625 39.117188 119.378906 38.027344 119.375 C 37.480469 119.371094 36.9375 119.335938 36.394531 119.265625 C 36.375 119.265625 36.359375 119.261719 36.34375 119.261719 L 36.289062 119.25 L 36.183594 119.234375 L 35.976562 119.199219 C 35.832031 119.175781 35.691406 119.160156 35.542969 119.121094 L 35.097656 119.023438 C 35.0625 119.015625 35.023438 119.007812 34.988281 119 L 34.871094 118.96875 L 34.640625 118.90625 L 34.40625 118.839844 L 34.289062 118.808594 L 34.167969 118.773438 L 33.683594 118.621094 L 33.5625 118.582031 C 33.519531 118.570312 33.480469 118.554688 33.4375 118.539062 L 33.1875 118.453125 L 32.933594 118.363281 C 32.851562 118.335938 32.769531 118.308594 32.679688 118.273438 L 32.160156 118.078125 L 32.03125 118.027344 L 31.964844 118.003906 L 31.898438 117.976562 L 31.628906 117.871094 L 31.09375 117.65625 L 30.539062 117.429688 L 29.976562 117.199219 L 29.410156 116.960938 L 28.820312 116.71875 L 28.527344 116.597656 L 27.625 116.234375 L 27.546875 116.203125 L 27.46875 116.175781 L 27.3125 116.113281 L 27.003906 115.996094 C 26.59375 115.832031 26.15625 115.679688 25.734375 115.527344 C 25.679688 115.507812 25.625 115.488281 25.570312 115.46875 L 25.40625 115.414062 L 25.074219 115.304688 L 24.746094 115.199219 L 24.582031 115.144531 L 24.410156 115.09375 L 23.730469 114.894531 L 23.5625 114.847656 C 23.507812 114.832031 23.445312 114.816406 23.390625 114.800781 L 23.039062 114.714844 L 22.691406 114.628906 C 22.578125 114.601562 22.460938 114.570312 22.34375 114.546875 C 22.109375 114.5 21.875 114.449219 21.640625 114.40625 L 20.941406 114.285156 C 20.707031 114.25 20.472656 114.222656 20.242188 114.191406 C 18.378906 113.960938 16.558594 113.96875 14.8125 114.132812 C 13.066406 114.292969 11.386719 114.609375 9.769531 115.007812 C 8.148438 115.40625 6.582031 115.890625 5.046875 116.414062 C 3.511719 116.9375 2.003906 117.503906 0.503906 118.074219 C 2.109375 118.078125 3.714844 118.09375 5.304688 118.152344 C 6.890625 118.214844 8.464844 118.324219 9.996094 118.515625 C 10.761719 118.613281 11.515625 118.730469 12.253906 118.875 C 12.992188 119.019531 13.714844 119.191406 14.414062 119.390625 C 15.816406 119.792969 17.128906 120.3125 18.304688 120.953125 L 18.738281 121.199219 L 19.160156 121.457031 C 19.300781 121.542969 19.433594 121.636719 19.570312 121.722656 C 19.636719 121.765625 19.703125 121.816406 19.769531 121.863281 L 19.96875 122.007812 L 20.164062 122.148438 C 20.199219 122.171875 20.230469 122.195312 20.265625 122.222656 L 20.363281 122.296875 L 20.753906 122.605469 L 20.851562 122.679688 L 20.949219 122.761719 L 21.148438 122.925781 L 21.34375 123.089844 L 21.441406 123.167969 C 21.472656 123.195312 21.503906 123.226562 21.539062 123.253906 C 21.800781 123.488281 22.0625 123.707031 22.328125 123.957031 L 22.527344 124.136719 L 22.625 124.226562 L 22.726562 124.320312 L 23.128906 124.699219 L 23.332031 124.886719 L 23.539062 125.085938 L 23.953125 125.476562 L 24.378906 125.882812 L 24.8125 126.292969 L 25.253906 126.707031 L 25.714844 127.132812 L 25.945312 127.347656 L 26 127.398438 L 26.0625 127.453125 L 26.183594 127.5625 L 26.667969 127.996094 C 26.746094 128.066406 26.832031 128.140625 26.917969 128.210938 L 27.171875 128.429688 L 27.429688 128.648438 C 27.472656 128.6875 27.511719 128.722656 27.558594 128.757812 L 27.691406 128.867188 L 28.234375 129.308594 L 28.371094 129.417969 L 28.515625 129.527344 L 28.800781 129.742188 L 29.089844 129.960938 L 29.238281 130.070312 C 29.285156 130.105469 29.335938 130.140625 29.386719 130.179688 L 30.003906 130.605469 C 30.207031 130.75 30.429688 130.886719 30.648438 131.027344 L 30.976562 131.234375 L 31.144531 131.335938 L 31.226562 131.386719 L 31.3125 131.4375 C 32.226562 131.980469 33.171875 132.464844 34.144531 132.898438 C 36.089844 133.757812 38.128906 134.398438 40.1875 134.839844 C 42.246094 135.277344 44.328125 135.519531 46.398438 135.597656 C 48.464844 135.671875 50.523438 135.585938 52.558594 135.359375 C 53.574219 135.25 54.585938 135.101562 55.59375 134.921875 C 55.84375 134.875 56.097656 134.828125 56.347656 134.777344 C 56.597656 134.726562 56.851562 134.679688 57.097656 134.625 C 57.238281 134.59375 57.378906 134.5625 57.519531 134.53125 C 56.355469 129.710938 55.738281 124.675781 55.738281 119.496094 C 55.738281 116.210938 55.984375 112.976562 56.46875 109.824219 Z M 56.46875 109.820312 " fill-opacity="1" fill-rule="nonzero"/></g><path fill="#e10000" d="M 57.515625 149.765625 L 57.128906 150.59375 L 56.9375 150.988281 C 56.875 151.121094 56.808594 151.25 56.742188 151.382812 C 56.476562 151.902344 56.191406 152.414062 55.890625 152.917969 C 55.289062 153.917969 54.625 154.875 53.898438 155.765625 C 53.175781 156.65625 52.390625 157.476562 51.554688 158.207031 C 50.71875 158.941406 49.828125 159.585938 48.882812 160.125 C 48.40625 160.394531 47.917969 160.636719 47.414062 160.851562 C 47.398438 160.855469 47.382812 160.863281 47.363281 160.871094 L 47.316406 160.890625 L 47.214844 160.925781 L 47.015625 161.003906 C 46.882812 161.050781 46.753906 161.109375 46.605469 161.148438 L 46.171875 161.289062 C 46.132812 161.300781 46.097656 161.3125 46.058594 161.320312 L 45.945312 161.351562 L 45.710938 161.414062 L 45.480469 161.476562 L 45.363281 161.507812 L 45.238281 161.535156 L 44.742188 161.644531 L 44.617188 161.671875 C 44.578125 161.683594 44.53125 161.691406 44.488281 161.699219 L 44.226562 161.75 L 43.964844 161.796875 C 43.878906 161.816406 43.792969 161.832031 43.699219 161.847656 L 43.152344 161.9375 L 43.015625 161.960938 L 42.945312 161.972656 L 42.875 161.980469 L 42.589844 162.023438 L 42.015625 162.105469 L 41.425781 162.1875 L 40.824219 162.265625 L 40.210938 162.347656 L 39.582031 162.429688 L 39.269531 162.472656 L 38.945312 162.519531 L 38.300781 162.609375 L 38.222656 162.621094 L 38.140625 162.632812 L 37.972656 162.660156 L 37.644531 162.710938 C 37.210938 162.777344 36.753906 162.863281 36.308594 162.941406 C 36.253906 162.953125 36.199219 162.960938 36.140625 162.972656 L 35.972656 163.007812 L 35.628906 163.078125 L 35.289062 163.148438 L 35.121094 163.1875 L 34.949219 163.226562 L 34.261719 163.394531 L 34.089844 163.4375 C 34.035156 163.453125 33.976562 163.46875 33.917969 163.484375 L 33.570312 163.585938 L 33.226562 163.683594 C 33.113281 163.71875 33 163.75 32.886719 163.789062 C 32.660156 163.863281 32.429688 163.9375 32.207031 164.015625 L 31.539062 164.261719 C 31.320312 164.351562 31.101562 164.441406 30.886719 164.53125 C 29.160156 165.265625 27.585938 166.179688 26.15625 167.191406 C 24.722656 168.207031 23.425781 169.320312 22.222656 170.476562 C 21.019531 171.632812 19.90625 172.832031 18.839844 174.054688 C 17.773438 175.277344 16.75 176.515625 15.734375 177.761719 C 17.128906 176.964844 18.527344 176.171875 19.933594 175.433594 C 21.335938 174.6875 22.753906 173.996094 24.175781 173.398438 C 24.886719 173.101562 25.601562 172.828125 26.3125 172.582031 C 27.023438 172.335938 27.734375 172.125 28.441406 171.949219 C 29.855469 171.59375 31.25 171.386719 32.589844 171.355469 L 33.089844 171.351562 L 33.582031 171.363281 C 33.746094 171.371094 33.910156 171.382812 34.070312 171.390625 C 34.152344 171.394531 34.234375 171.40625 34.316406 171.414062 L 34.800781 171.460938 C 34.839844 171.464844 34.878906 171.46875 34.921875 171.472656 L 35.046875 171.492188 L 35.539062 171.5625 L 35.660156 171.578125 L 35.789062 171.597656 L 36.039062 171.644531 L 36.289062 171.6875 L 36.414062 171.707031 C 36.457031 171.714844 36.5 171.722656 36.542969 171.730469 C 36.886719 171.800781 37.222656 171.863281 37.578125 171.945312 L 37.839844 172.003906 L 37.96875 172.03125 L 38.101562 172.0625 L 38.640625 172.1875 L 38.914062 172.25 L 39.746094 172.449219 L 40.316406 172.585938 L 40.894531 172.726562 L 41.488281 172.867188 L 42.097656 173.003906 L 42.402344 173.074219 L 42.558594 173.105469 L 42.71875 173.140625 L 43.351562 173.273438 C 43.457031 173.296875 43.570312 173.316406 43.679688 173.335938 L 44.007812 173.398438 L 44.339844 173.460938 C 44.394531 173.46875 44.449219 173.480469 44.507812 173.488281 L 45.539062 173.652344 L 45.71875 173.675781 L 46.4375 173.761719 L 46.617188 173.785156 C 46.675781 173.792969 46.742188 173.796875 46.800781 173.800781 L 47.550781 173.867188 C 47.796875 173.890625 48.058594 173.894531 48.316406 173.90625 L 49 173.933594 L 49.097656 173.933594 C 50.160156 173.945312 51.222656 173.890625 52.28125 173.777344 C 54.398438 173.550781 56.484375 173.089844 58.484375 172.4375 C 60.488281 171.789062 62.410156 170.957031 64.242188 169.992188 C 66.070312 169.023438 67.808594 167.917969 69.457031 166.707031 C 70.285156 166.101562 71.085938 165.464844 71.867188 164.808594 C 72.0625 164.640625 72.257812 164.476562 72.449219 164.308594 C 72.640625 164.140625 72.835938 163.96875 73.023438 163.800781 C 73.132812 163.699219 73.242188 163.597656 73.351562 163.496094 C 67.664062 157.53125 63.117188 150.460938 60.070312 142.644531 C 59.3125 145.214844 58.496094 147.585938 57.523438 149.761719 Z M 57.515625 149.765625 " fill-opacity="1" fill-rule="nonzero"/><path fill="#e10000" d="M 80.953125 176.703125 L 81.035156 177.613281 L 81.066406 178.050781 C 81.078125 178.199219 81.082031 178.34375 81.09375 178.488281 C 81.121094 179.074219 81.132812 179.660156 81.121094 180.246094 C 81.101562 181.414062 81.003906 182.574219 80.824219 183.707031 C 80.640625 184.839844 80.371094 185.941406 80.015625 186.992188 C 79.65625 188.046875 79.207031 189.050781 78.65625 189.992188 C 78.382812 190.460938 78.078125 190.917969 77.746094 191.351562 C 77.738281 191.367188 77.726562 191.382812 77.714844 191.394531 L 77.683594 191.4375 L 77.617188 191.519531 L 77.480469 191.683594 C 77.390625 191.792969 77.304688 191.90625 77.199219 192.015625 L 76.890625 192.351562 C 76.863281 192.382812 76.839844 192.410156 76.8125 192.4375 L 76.726562 192.523438 L 76.554688 192.691406 L 76.386719 192.863281 L 76.300781 192.949219 L 75.738281 193.464844 C 75.707031 193.492188 75.671875 193.519531 75.640625 193.550781 L 75.4375 193.722656 L 75.238281 193.898438 C 75.167969 193.957031 75.101562 194.015625 75.03125 194.074219 L 74.601562 194.425781 L 74.492188 194.511719 L 74.4375 194.558594 L 74.382812 194.601562 L 73.703125 195.140625 L 73.230469 195.503906 L 72.75 195.875 L 72.257812 196.25 L 71.757812 196.636719 L 71.503906 196.832031 L 71.25 197.03125 L 70.738281 197.433594 L 70.671875 197.484375 L 70.609375 197.535156 L 70.476562 197.640625 L 70.21875 197.851562 C 69.875 198.125 69.523438 198.425781 69.179688 198.714844 C 69.132812 198.753906 69.089844 198.789062 69.046875 198.828125 L 68.917969 198.941406 L 68.65625 199.175781 L 68.398438 199.40625 L 68.269531 199.523438 L 68.140625 199.644531 L 67.628906 200.132812 L 67.503906 200.253906 C 67.460938 200.296875 67.421875 200.339844 67.378906 200.382812 L 66.878906 200.898438 C 66.796875 200.984375 66.714844 201.070312 66.636719 201.160156 C 66.476562 201.339844 66.316406 201.519531 66.160156 201.699219 L 65.707031 202.246094 C 65.5625 202.429688 65.417969 202.617188 65.273438 202.800781 C 64.148438 204.300781 63.242188 205.882812 62.511719 207.476562 C 61.773438 209.070312 61.210938 210.679688 60.746094 212.28125 C 60.28125 213.886719 59.917969 215.484375 59.601562 217.074219 C 59.289062 218.667969 59.027344 220.25 58.769531 221.835938 C 59.578125 220.449219 60.390625 219.066406 61.238281 217.722656 C 62.085938 216.375 62.964844 215.070312 63.898438 213.839844 C 64.367188 213.226562 64.84375 212.632812 65.339844 212.0625 C 65.832031 211.496094 66.34375 210.957031 66.867188 210.449219 C 67.914062 209.4375 69.019531 208.558594 70.164062 207.863281 L 70.59375 207.609375 L 71.027344 207.371094 C 71.171875 207.296875 71.320312 207.226562 71.464844 207.152344 C 71.535156 207.113281 71.613281 207.082031 71.6875 207.046875 L 71.910156 206.949219 L 72.128906 206.847656 C 72.167969 206.832031 72.203125 206.816406 72.242188 206.800781 L 72.359375 206.753906 L 72.820312 206.566406 L 72.933594 206.519531 L 73.054688 206.476562 L 73.53125 206.296875 L 73.652344 206.253906 C 73.691406 206.238281 73.734375 206.226562 73.773438 206.210938 C 74.109375 206.101562 74.429688 205.988281 74.777344 205.878906 L 75.03125 205.796875 L 75.160156 205.757812 L 75.222656 205.738281 L 75.289062 205.714844 L 75.820312 205.554688 L 76.085938 205.476562 L 76.90625 205.230469 L 77.46875 205.066406 L 78.042969 204.894531 L 78.621094 204.722656 L 79.21875 204.535156 L 79.519531 204.441406 L 79.59375 204.417969 L 79.671875 204.394531 L 79.824219 204.34375 L 80.441406 204.140625 C 80.542969 204.109375 80.652344 204.070312 80.757812 204.03125 L 81.074219 203.921875 L 81.390625 203.808594 C 81.445312 203.789062 81.496094 203.773438 81.550781 203.75 L 81.710938 203.691406 L 82.363281 203.4375 L 82.527344 203.375 L 82.691406 203.304688 L 83.023438 203.167969 L 83.359375 203.023438 L 83.523438 202.953125 C 83.582031 202.929688 83.636719 202.902344 83.695312 202.875 L 84.375 202.554688 C 84.597656 202.453125 84.828125 202.328125 85.058594 202.207031 L 85.402344 202.027344 L 85.574219 201.933594 L 85.660156 201.890625 L 85.75 201.839844 C 86.671875 201.320312 87.570312 200.742188 88.429688 200.113281 C 90.148438 198.863281 91.71875 197.417969 93.128906 195.855469 C 94.539062 194.289062 95.789062 192.609375 96.890625 190.855469 C 97.992188 189.101562 98.945312 187.277344 99.765625 185.402344 C 100.179688 184.464844 100.558594 183.515625 100.90625 182.550781 C 100.988281 182.3125 101.078125 182.070312 101.160156 181.828125 C 101.238281 181.585938 101.324219 181.34375 101.402344 181.101562 C 101.445312 180.964844 101.488281 180.828125 101.53125 180.691406 C 93.4375 178.316406 86.011719 174.382812 79.601562 169.234375 C 80.230469 171.832031 80.714844 174.304688 80.957031 176.683594 Z M 80.953125 176.703125 " fill-opacity="1" fill-rule="nonzero"/><g clip-path="url(#4e6004e0ed)"><path fill="#e10000" d="M 109.820312 182.523438 C 111.671875 184.476562 113.320312 186.371094 114.71875 188.308594 L 115.242188 189.054688 L 115.488281 189.417969 C 115.570312 189.539062 115.648438 189.664062 115.730469 189.785156 C 116.050781 190.277344 116.351562 190.777344 116.632812 191.289062 C 117.203125 192.3125 117.699219 193.367188 118.105469 194.4375 C 118.515625 195.511719 118.832031 196.597656 119.050781 197.6875 C 119.265625 198.777344 119.378906 199.871094 119.375 200.964844 C 119.371094 201.507812 119.335938 202.054688 119.265625 202.597656 C 119.265625 202.617188 119.261719 202.632812 119.261719 202.648438 L 119.25 202.703125 L 119.234375 202.804688 L 119.199219 203.015625 C 119.175781 203.15625 119.160156 203.296875 119.121094 203.449219 L 119.023438 203.890625 C 119.015625 203.929688 119.007812 203.964844 119 204.003906 L 118.96875 204.121094 L 118.90625 204.351562 L 118.839844 204.585938 L 118.808594 204.703125 L 118.773438 204.824219 L 118.621094 205.308594 L 118.582031 205.429688 C 118.570312 205.46875 118.554688 205.511719 118.539062 205.554688 L 118.453125 205.804688 L 118.363281 206.058594 C 118.335938 206.140625 118.308594 206.222656 118.273438 206.3125 L 118.078125 206.832031 L 118.027344 206.960938 L 118.003906 207.027344 L 117.976562 207.09375 L 117.871094 207.359375 L 117.65625 207.898438 L 117.429688 208.453125 L 117.199219 209.011719 L 116.960938 209.582031 L 116.597656 210.460938 L 116.476562 210.765625 L 116.234375 211.367188 L 116.203125 211.441406 L 116.175781 211.519531 L 116.113281 211.675781 L 115.996094 211.988281 C 115.832031 212.398438 115.679688 212.832031 115.527344 213.257812 C 115.507812 213.3125 115.488281 213.363281 115.46875 213.417969 L 115.414062 213.585938 L 115.304688 213.917969 L 115.199219 214.246094 L 115.144531 214.410156 L 115.09375 214.582031 L 114.894531 215.261719 L 114.847656 215.429688 C 114.828125 215.484375 114.816406 215.546875 114.800781 215.601562 L 114.714844 215.953125 L 114.628906 216.300781 C 114.601562 216.414062 114.570312 216.53125 114.546875 216.648438 C 114.5 216.882812 114.449219 217.117188 114.40625 217.351562 L 114.285156 218.050781 C 114.25 218.285156 114.21875 218.519531 114.191406 218.75 C 113.960938 220.609375 113.96875 222.433594 114.132812 224.179688 C 114.292969 225.925781 114.609375 227.605469 115.007812 229.222656 C 115.40625 230.84375 115.890625 232.410156 116.414062 233.945312 C 116.9375 235.480469 117.503906 236.984375 118.074219 238.488281 C 118.078125 236.882812 118.09375 235.277344 118.152344 233.6875 C 118.214844 232.097656 118.324219 230.527344 118.515625 228.996094 C 118.613281 228.230469 118.730469 227.476562 118.875 226.738281 C 119.019531 226 119.191406 225.277344 119.390625 224.574219 C 119.792969 223.175781 120.3125 221.863281 120.953125 220.6875 L 121.199219 220.253906 L 121.457031 219.832031 C 121.542969 219.691406 121.636719 219.558594 121.722656 219.421875 C 121.765625 219.355469 121.816406 219.289062 121.863281 219.222656 L 122.007812 219.023438 L 122.148438 218.824219 C 122.171875 218.792969 122.195312 218.761719 122.222656 218.726562 L 122.296875 218.628906 L 122.605469 218.238281 L 122.679688 218.140625 L 122.761719 218.039062 L 123.089844 217.648438 L 123.167969 217.550781 C 123.195312 217.519531 123.226562 217.484375 123.253906 217.453125 C 123.488281 217.1875 123.707031 216.929688 123.957031 216.664062 L 124.136719 216.464844 L 124.226562 216.367188 L 124.320312 216.265625 L 124.699219 215.863281 L 124.886719 215.660156 L 125.085938 215.453125 L 125.476562 215.039062 L 125.882812 214.613281 L 126.292969 214.179688 L 126.707031 213.738281 L 127.132812 213.277344 L 127.347656 213.046875 L 127.398438 212.988281 L 127.453125 212.929688 L 127.5625 212.808594 L 127.996094 212.324219 C 128.066406 212.246094 128.140625 212.160156 128.210938 212.074219 L 128.429688 211.820312 L 128.648438 211.5625 C 128.6875 211.519531 128.722656 211.480469 128.757812 211.433594 L 128.867188 211.300781 L 129.308594 210.757812 L 129.417969 210.621094 L 129.527344 210.476562 L 129.742188 210.191406 L 129.960938 209.898438 L 130.070312 209.753906 C 130.105469 209.707031 130.140625 209.652344 130.175781 209.601562 L 130.605469 208.988281 C 130.75 208.785156 130.886719 208.5625 131.027344 208.34375 L 131.234375 208.011719 L 131.386719 207.765625 L 131.4375 207.679688 C 131.980469 206.765625 132.464844 205.816406 132.898438 204.84375 C 133.757812 202.898438 134.398438 200.863281 134.839844 198.804688 C 135.277344 196.746094 135.519531 194.664062 135.597656 192.59375 C 135.671875 190.527344 135.585938 188.46875 135.359375 186.433594 C 135.246094 185.417969 135.101562 184.402344 134.921875 183.398438 C 134.875 183.148438 134.828125 182.894531 134.777344 182.644531 C 134.726562 182.394531 134.679688 182.140625 134.625 181.894531 C 134.59375 181.753906 134.5625 181.613281 134.53125 181.46875 C 129.710938 182.636719 124.675781 183.253906 119.496094 183.253906 C 116.214844 183.253906 112.980469 183.007812 109.828125 182.523438 Z M 109.820312 182.523438 " fill-opacity="1" fill-rule="nonzero"/></g><path fill="#e10000" d="M 149.765625 181.476562 L 150.59375 181.863281 L 150.988281 182.054688 C 151.121094 182.117188 151.25 182.183594 151.382812 182.25 C 151.902344 182.515625 152.414062 182.800781 152.917969 183.101562 C 153.917969 183.703125 154.875 184.367188 155.765625 185.09375 C 156.65625 185.816406 157.476562 186.597656 158.207031 187.433594 C 158.941406 188.273438 159.585938 189.160156 160.125 190.109375 C 160.394531 190.585938 160.636719 191.074219 160.851562 191.578125 C 160.855469 191.59375 160.863281 191.609375 160.871094 191.625 L 160.890625 191.675781 L 160.925781 191.773438 L 161.003906 191.976562 C 161.050781 192.109375 161.109375 192.238281 161.148438 192.386719 L 161.289062 192.820312 C 161.300781 192.859375 161.3125 192.890625 161.320312 192.929688 L 161.414062 193.28125 L 161.476562 193.511719 L 161.507812 193.628906 L 161.535156 193.753906 L 161.644531 194.25 L 161.671875 194.375 C 161.683594 194.414062 161.691406 194.460938 161.699219 194.503906 L 161.75 194.765625 L 161.796875 195.027344 C 161.816406 195.113281 161.832031 195.199219 161.847656 195.292969 L 161.9375 195.839844 L 161.960938 195.976562 L 161.972656 196.046875 L 161.980469 196.117188 L 162.023438 196.402344 L 162.105469 196.976562 L 162.1875 197.566406 L 162.265625 198.167969 L 162.347656 198.78125 L 162.429688 199.410156 L 162.472656 199.722656 L 162.519531 200.042969 L 162.609375 200.691406 L 162.621094 200.769531 L 162.632812 200.851562 L 162.660156 201.019531 L 162.710938 201.347656 C 162.777344 201.78125 162.863281 202.238281 162.941406 202.679688 C 162.953125 202.738281 162.960938 202.792969 162.972656 202.847656 L 163.007812 203.019531 L 163.148438 203.699219 L 163.226562 204.042969 L 163.394531 204.730469 L 163.4375 204.902344 C 163.453125 204.957031 163.46875 205.015625 163.484375 205.074219 L 163.585938 205.417969 L 163.683594 205.761719 C 163.71875 205.878906 163.75 205.992188 163.789062 206.105469 C 163.863281 206.332031 163.9375 206.558594 164.015625 206.785156 L 164.261719 207.453125 C 164.351562 207.671875 164.441406 207.886719 164.53125 208.105469 C 165.265625 209.832031 166.179688 211.402344 167.191406 212.835938 C 168.207031 214.269531 169.320312 215.5625 170.476562 216.765625 C 171.632812 217.96875 172.832031 219.085938 174.054688 220.152344 C 175.277344 221.21875 176.515625 222.242188 177.761719 223.257812 C 176.964844 221.863281 176.171875 220.464844 175.433594 219.058594 C 174.6875 217.652344 173.996094 216.238281 173.398438 214.816406 C 173.101562 214.101562 172.828125 213.390625 172.582031 212.679688 C 172.335938 211.96875 172.125 211.253906 171.949219 210.550781 C 171.59375 209.136719 171.386719 207.738281 171.355469 206.402344 L 171.351562 205.902344 L 171.363281 205.40625 C 171.371094 205.242188 171.382812 205.082031 171.390625 204.917969 C 171.394531 204.839844 171.40625 204.757812 171.414062 204.675781 L 171.460938 204.191406 C 171.464844 204.148438 171.46875 204.109375 171.472656 204.070312 L 171.492188 203.945312 L 171.5625 203.453125 L 171.578125 203.332031 L 171.597656 203.203125 L 171.644531 202.953125 L 171.6875 202.703125 L 171.707031 202.578125 C 171.714844 202.535156 171.722656 202.492188 171.730469 202.449219 C 171.800781 202.105469 171.863281 201.769531 171.945312 201.414062 L 172.003906 201.152344 L 172.03125 201.019531 L 172.046875 200.957031 L 172.0625 200.886719 L 172.25 200.078125 L 172.449219 199.246094 L 172.585938 198.675781 L 172.726562 198.09375 L 172.867188 197.503906 L 173.003906 196.894531 L 173.074219 196.589844 L 173.105469 196.433594 L 173.140625 196.273438 L 173.273438 195.636719 C 173.296875 195.535156 173.316406 195.421875 173.335938 195.3125 L 173.398438 194.980469 L 173.460938 194.652344 C 173.46875 194.59375 173.480469 194.542969 173.488281 194.484375 L 173.652344 193.453125 L 173.675781 193.273438 L 173.761719 192.554688 L 173.785156 192.375 C 173.792969 192.316406 173.796875 192.25 173.800781 192.191406 L 173.867188 191.441406 C 173.890625 191.195312 173.894531 190.933594 173.90625 190.675781 L 173.933594 189.992188 L 173.933594 189.894531 C 173.945312 188.832031 173.890625 187.765625 173.777344 186.710938 C 173.554688 184.59375 173.089844 182.507812 172.4375 180.507812 C 171.789062 178.503906 170.957031 176.582031 169.992188 174.75 C 169.023438 172.921875 167.917969 171.183594 166.707031 169.53125 C 166.101562 168.707031 165.464844 167.90625 164.808594 167.121094 C 164.640625 166.929688 164.476562 166.734375 164.308594 166.539062 C 164.140625 166.351562 163.96875 166.15625 163.800781 165.96875 C 163.699219 165.859375 163.597656 165.746094 163.496094 165.636719 C 157.53125 171.328125 150.460938 175.875 142.644531 178.921875 C 145.214844 179.679688 147.585938 180.496094 149.761719 181.46875 Z M 149.765625 181.476562 " fill-opacity="1" fill-rule="nonzero"/><path fill="#e10000" d="M 176.703125 158.039062 L 177.613281 157.957031 L 178.050781 157.925781 C 178.199219 157.914062 178.34375 157.910156 178.488281 157.898438 C 179.074219 157.871094 179.660156 157.859375 180.246094 157.871094 C 181.414062 157.890625 182.574219 157.988281 183.707031 158.167969 C 184.839844 158.351562 185.941406 158.621094 186.992188 158.976562 C 188.046875 159.335938 189.050781 159.78125 189.992188 160.335938 C 190.460938 160.609375 190.917969 160.914062 191.351562 161.246094 C 191.367188 161.253906 191.382812 161.265625 191.394531 161.273438 L 191.4375 161.308594 L 191.519531 161.375 L 191.683594 161.511719 C 191.792969 161.601562 191.90625 161.6875 192.015625 161.792969 L 192.351562 162.101562 C 192.382812 162.128906 192.410156 162.152344 192.4375 162.179688 L 192.949219 162.691406 L 193.464844 163.253906 C 193.492188 163.285156 193.523438 163.320312 193.550781 163.351562 L 193.722656 163.554688 L 193.898438 163.753906 C 193.957031 163.824219 194.015625 163.886719 194.074219 163.960938 L 194.425781 164.390625 L 194.511719 164.5 L 194.558594 164.550781 L 194.601562 164.609375 L 195.140625 165.289062 L 195.503906 165.761719 L 195.875 166.242188 L 196.25 166.734375 L 196.636719 167.234375 L 196.832031 167.488281 L 197.03125 167.742188 L 197.433594 168.253906 L 197.484375 168.320312 L 197.535156 168.382812 L 197.640625 168.515625 L 197.851562 168.773438 C 198.125 169.117188 198.425781 169.46875 198.714844 169.8125 C 198.753906 169.855469 198.789062 169.898438 198.828125 169.945312 L 198.941406 170.074219 L 199.175781 170.332031 L 199.40625 170.59375 L 199.523438 170.722656 L 199.644531 170.851562 L 200.132812 171.359375 L 200.253906 171.488281 C 200.296875 171.53125 200.339844 171.570312 200.382812 171.613281 L 200.898438 172.113281 C 200.988281 172.195312 201.070312 172.277344 201.160156 172.355469 C 201.339844 172.515625 201.519531 172.675781 201.699219 172.832031 L 202.246094 173.285156 C 202.429688 173.429688 202.617188 173.574219 202.800781 173.71875 C 204.300781 174.84375 205.882812 175.75 207.476562 176.480469 C 209.070312 177.21875 210.679688 177.78125 212.28125 178.246094 C 213.886719 178.710938 215.484375 179.074219 217.074219 179.386719 C 218.667969 179.703125 220.253906 179.964844 221.835938 180.222656 C 220.449219 179.414062 219.066406 178.597656 217.722656 177.753906 C 216.375 176.90625 215.070312 176.027344 213.839844 175.09375 C 213.226562 174.625 212.632812 174.144531 212.0625 173.652344 C 211.496094 173.160156 210.957031 172.648438 210.449219 172.125 C 209.4375 171.078125 208.558594 169.972656 207.863281 168.828125 L 207.609375 168.398438 L 207.371094 167.964844 C 207.296875 167.820312 207.226562 167.671875 207.152344 167.527344 C 207.113281 167.457031 207.082031 167.378906 207.046875 167.304688 L 206.949219 167.082031 L 206.847656 166.863281 C 206.832031 166.824219 206.816406 166.789062 206.800781 166.75 L 206.753906 166.632812 L 206.566406 166.171875 L 206.519531 166.058594 L 206.476562 165.9375 L 206.296875 165.460938 L 206.253906 165.339844 C 206.242188 165.300781 206.226562 165.257812 206.210938 165.21875 C 206.101562 164.882812 205.988281 164.5625 205.878906 164.214844 L 205.796875 163.960938 L 205.757812 163.832031 L 205.738281 163.769531 L 205.714844 163.703125 L 205.554688 163.171875 L 205.476562 162.90625 L 205.230469 162.085938 L 205.066406 161.523438 L 204.894531 160.949219 L 204.722656 160.371094 L 204.535156 159.773438 L 204.441406 159.472656 L 204.417969 159.398438 L 204.394531 159.320312 L 204.34375 159.164062 L 204.140625 158.550781 C 204.109375 158.449219 204.070312 158.339844 204.03125 158.234375 L 203.921875 157.917969 L 203.808594 157.601562 C 203.789062 157.546875 203.773438 157.496094 203.75 157.441406 L 203.691406 157.28125 L 203.4375 156.628906 L 203.375 156.464844 L 203.304688 156.300781 L 203.167969 155.96875 L 203.023438 155.632812 L 202.953125 155.464844 C 202.929688 155.410156 202.902344 155.355469 202.875 155.296875 L 202.554688 154.617188 C 202.453125 154.394531 202.328125 154.164062 202.207031 153.933594 L 202.027344 153.589844 L 201.933594 153.417969 L 201.890625 153.328125 L 201.839844 153.242188 C 201.320312 152.320312 200.742188 151.421875 200.113281 150.5625 C 198.863281 148.84375 197.417969 147.273438 195.855469 145.863281 C 194.289062 144.453125 192.609375 143.203125 190.855469 142.101562 C 189.101562 141 187.277344 140.046875 185.402344 139.226562 C 184.464844 138.8125 183.515625 138.433594 182.550781 138.085938 C 182.3125 138.003906 182.070312 137.914062 181.828125 137.832031 C 181.585938 137.753906 181.34375 137.667969 181.101562 137.589844 C 180.964844 137.546875 180.828125 137.503906 180.691406 137.460938 C 178.316406 145.554688 174.382812 152.980469 169.234375 159.390625 C 171.835938 158.761719 174.308594 158.277344 176.6875 158.035156 Z M 176.703125 158.039062 " fill-opacity="1" fill-rule="nonzero"/><g clip-path="url(#1e46eb7949)"><path fill="#e10000" d="M 233.6875 120.835938 C 232.101562 120.777344 230.527344 120.667969 228.996094 120.472656 C 228.230469 120.378906 227.476562 120.257812 226.738281 120.113281 C 226 119.972656 225.277344 119.800781 224.578125 119.597656 C 223.175781 119.199219 221.863281 118.679688 220.6875 118.039062 L 220.253906 117.792969 L 219.832031 117.535156 C 219.695312 117.449219 219.558594 117.355469 219.421875 117.265625 C 219.355469 117.222656 219.289062 117.175781 219.222656 117.125 L 219.023438 116.984375 L 218.828125 116.839844 C 218.792969 116.816406 218.761719 116.796875 218.730469 116.769531 L 218.628906 116.691406 L 218.238281 116.386719 L 218.140625 116.3125 L 218.042969 116.230469 L 217.84375 116.066406 L 217.550781 115.820312 C 217.519531 115.792969 217.488281 115.765625 217.453125 115.734375 C 217.191406 115.503906 216.933594 115.28125 216.664062 115.035156 L 216.464844 114.855469 L 216.367188 114.765625 L 216.265625 114.671875 L 215.863281 114.292969 L 215.660156 114.101562 L 215.039062 113.515625 L 214.613281 113.109375 L 214.179688 112.699219 L 213.738281 112.28125 L 213.28125 111.859375 L 213.046875 111.644531 L 212.992188 111.589844 L 212.929688 111.539062 L 212.808594 111.429688 L 212.324219 110.996094 C 212.246094 110.925781 212.160156 110.851562 212.074219 110.777344 L 211.820312 110.558594 L 211.5625 110.339844 C 211.519531 110.304688 211.480469 110.269531 211.433594 110.230469 L 211.300781 110.121094 L 210.757812 109.683594 L 210.621094 109.574219 L 210.476562 109.464844 L 210.191406 109.246094 L 209.902344 109.03125 L 209.753906 108.921875 C 209.707031 108.882812 209.65625 108.847656 209.605469 108.8125 L 208.988281 108.386719 C 208.785156 108.242188 208.5625 108.105469 208.34375 107.964844 L 208.015625 107.757812 L 207.847656 107.65625 L 207.765625 107.601562 L 207.679688 107.554688 C 206.765625 107.011719 205.820312 106.523438 204.847656 106.09375 C 202.902344 105.230469 200.863281 104.59375 198.804688 104.152344 C 196.746094 103.714844 194.664062 103.472656 192.59375 103.394531 C 190.527344 103.320312 188.46875 103.40625 186.433594 103.628906 C 185.417969 103.742188 184.40625 103.890625 183.398438 104.070312 C 183.148438 104.117188 182.894531 104.164062 182.644531 104.210938 C 182.394531 104.261719 182.140625 104.3125 181.894531 104.367188 C 181.753906 104.398438 181.613281 104.429688 181.472656 104.460938 C 182.636719 109.28125 183.253906 114.316406 183.253906 119.496094 C 183.253906 122.785156 183.003906 126.015625 182.527344 129.171875 C 184.476562 127.320312 186.371094 125.671875 188.308594 124.273438 L 189.054688 123.75 L 189.417969 123.5 C 189.539062 123.417969 189.664062 123.339844 189.785156 123.261719 C 190.277344 122.941406 190.78125 122.640625 191.289062 122.355469 C 192.3125 121.789062 193.367188 121.292969 194.441406 120.882812 C 195.511719 120.476562 196.597656 120.15625 197.691406 119.941406 C 198.78125 119.726562 199.875 119.609375 200.964844 119.617188 C 201.511719 119.621094 202.054688 119.65625 202.597656 119.726562 C 202.617188 119.726562 202.632812 119.726562 202.652344 119.730469 L 202.703125 119.738281 L 202.808594 119.757812 L 203.019531 119.789062 C 203.160156 119.816406 203.300781 119.832031 203.449219 119.867188 L 203.894531 119.964844 C 203.929688 119.976562 203.96875 119.980469 204.007812 119.992188 L 204.121094 120.023438 L 204.355469 120.085938 L 204.585938 120.148438 L 204.703125 120.179688 L 204.824219 120.21875 L 205.308594 120.371094 L 205.429688 120.410156 C 205.472656 120.421875 205.515625 120.4375 205.554688 120.453125 L 205.804688 120.539062 L 206.058594 120.625 C 206.140625 120.65625 206.226562 120.683594 206.3125 120.71875 L 206.832031 120.914062 L 206.960938 120.964844 L 207.027344 120.988281 L 207.09375 121.015625 L 207.363281 121.121094 L 207.898438 121.335938 L 208.453125 121.5625 L 209.015625 121.792969 L 209.585938 122.027344 L 210.464844 122.390625 L 210.765625 122.511719 L 211.367188 122.757812 L 211.445312 122.785156 L 211.523438 122.816406 L 211.679688 122.875 L 211.988281 122.996094 C 212.398438 123.15625 212.835938 123.3125 213.261719 123.464844 C 213.3125 123.484375 213.367188 123.503906 213.421875 123.519531 L 213.585938 123.578125 L 213.917969 123.6875 L 214.246094 123.792969 L 214.410156 123.847656 L 214.582031 123.898438 L 215.261719 124.097656 L 215.429688 124.144531 C 215.488281 124.160156 215.546875 124.175781 215.605469 124.191406 L 216.300781 124.363281 C 216.417969 124.390625 216.53125 124.421875 216.648438 124.445312 C 216.882812 124.492188 217.117188 124.542969 217.351562 124.585938 L 218.050781 124.707031 C 218.285156 124.738281 218.519531 124.769531 218.75 124.800781 C 220.613281 125.027344 222.433594 125.019531 224.179688 124.859375 C 225.929688 124.699219 227.605469 124.382812 229.226562 123.984375 C 230.847656 123.582031 232.414062 123.101562 233.945312 122.578125 C 235.480469 122.050781 236.988281 121.488281 238.488281 120.917969 C 236.878906 120.90625 235.277344 120.894531 233.6875 120.832031 Z M 233.6875 120.835938 " fill-opacity="1" fill-rule="nonzero"/></g><path fill="#e10000" d="M 181.476562 89.226562 L 181.863281 88.398438 L 182.054688 88 C 182.117188 87.871094 182.183594 87.742188 182.25 87.609375 C 182.515625 87.089844 182.800781 86.574219 183.101562 86.074219 C 183.703125 85.074219 184.367188 84.117188 185.09375 83.226562 C 185.816406 82.335938 186.597656 81.515625 187.433594 80.785156 C 188.273438 80.050781 189.160156 79.40625 190.109375 78.867188 C 190.585938 78.597656 191.074219 78.351562 191.578125 78.140625 C 191.59375 78.132812 191.609375 78.128906 191.625 78.121094 L 191.675781 78.101562 L 191.773438 78.066406 L 191.976562 77.988281 C 192.109375 77.9375 192.238281 77.882812 192.386719 77.839844 L 192.820312 77.703125 C 192.859375 77.691406 192.890625 77.679688 192.929688 77.667969 L 193.046875 77.640625 L 193.28125 77.578125 L 193.511719 77.515625 L 193.628906 77.484375 L 193.753906 77.457031 L 194.25 77.347656 L 194.375 77.316406 C 194.414062 77.308594 194.460938 77.300781 194.503906 77.292969 L 195.027344 77.191406 C 195.113281 77.175781 195.199219 77.160156 195.292969 77.144531 L 195.839844 77.054688 L 195.976562 77.03125 L 196.046875 77.019531 L 196.117188 77.011719 L 196.402344 76.96875 L 196.972656 76.886719 L 197.566406 76.804688 L 198.167969 76.726562 L 198.78125 76.644531 L 199.410156 76.5625 L 199.722656 76.519531 L 200.042969 76.472656 L 200.691406 76.382812 L 200.769531 76.371094 L 200.851562 76.359375 L 201.019531 76.332031 L 201.347656 76.28125 C 201.78125 76.214844 202.238281 76.128906 202.679688 76.050781 C 202.738281 76.039062 202.792969 76.03125 202.847656 76.019531 L 203.019531 75.984375 L 203.359375 75.914062 L 203.699219 75.839844 L 203.871094 75.804688 L 204.042969 75.765625 L 204.730469 75.597656 L 204.902344 75.554688 C 204.957031 75.539062 205.015625 75.523438 205.074219 75.503906 L 205.761719 75.308594 C 205.878906 75.273438 205.992188 75.242188 206.105469 75.203125 C 206.332031 75.128906 206.558594 75.054688 206.785156 74.976562 L 207.453125 74.730469 C 207.671875 74.640625 207.886719 74.550781 208.105469 74.460938 C 209.832031 73.726562 211.402344 72.8125 212.835938 71.796875 C 214.269531 70.785156 215.5625 69.671875 216.765625 68.515625 C 217.96875 67.359375 219.085938 66.160156 220.152344 64.9375 C 221.21875 63.714844 222.242188 62.476562 223.257812 61.230469 C 221.863281 62.027344 220.464844 62.816406 219.058594 63.558594 C 217.652344 64.304688 216.238281 64.992188 214.816406 65.589844 C 214.101562 65.890625 213.390625 66.164062 212.679688 66.410156 C 211.96875 66.65625 211.257812 66.867188 210.550781 67.042969 C 209.136719 67.398438 207.738281 67.605469 206.402344 67.636719 L 205.902344 67.640625 L 205.410156 67.628906 C 205.246094 67.621094 205.082031 67.609375 204.921875 67.601562 C 204.839844 67.597656 204.757812 67.585938 204.675781 67.578125 L 204.191406 67.53125 C 204.152344 67.527344 204.113281 67.523438 204.070312 67.519531 L 203.945312 67.5 L 203.453125 67.429688 L 203.332031 67.414062 L 203.203125 67.390625 L 202.703125 67.304688 L 202.578125 67.285156 C 202.535156 67.277344 202.492188 67.269531 202.449219 67.257812 C 202.105469 67.191406 201.769531 67.128906 201.414062 67.046875 L 201.152344 66.988281 L 201.023438 66.960938 L 200.957031 66.945312 L 200.886719 66.929688 L 200.078125 66.742188 L 199.246094 66.542969 L 198.675781 66.40625 L 198.09375 66.265625 L 197.503906 66.125 L 196.894531 65.988281 L 196.589844 65.917969 L 196.433594 65.886719 L 196.273438 65.851562 L 195.636719 65.71875 C 195.535156 65.695312 195.421875 65.675781 195.3125 65.65625 L 194.980469 65.59375 L 194.652344 65.53125 C 194.597656 65.523438 194.542969 65.511719 194.484375 65.503906 L 193.453125 65.339844 L 193.273438 65.316406 L 192.914062 65.273438 L 192.554688 65.226562 L 192.375 65.207031 C 192.316406 65.199219 192.25 65.195312 192.191406 65.1875 L 191.441406 65.125 C 191.195312 65.101562 190.933594 65.09375 190.675781 65.085938 L 189.992188 65.058594 L 189.894531 65.058594 C 188.832031 65.046875 187.765625 65.101562 186.710938 65.214844 C 184.59375 65.4375 182.507812 65.902344 180.507812 66.550781 C 178.503906 67.203125 176.582031 68.035156 174.75 69 C 172.921875 69.96875 171.183594 71.074219 169.53125 72.285156 C 168.707031 72.890625 167.90625 73.523438 167.125 74.183594 C 166.929688 74.351562 166.734375 74.515625 166.539062 74.683594 C 166.351562 74.851562 166.15625 75.023438 165.96875 75.191406 C 165.859375 75.292969 165.75 75.394531 165.636719 75.496094 C 171.328125 81.460938 175.875 88.53125 178.921875 96.347656 C 179.679688 93.777344 180.496094 91.40625 181.46875 89.230469 Z M 181.476562 89.226562 " fill-opacity="1" fill-rule="nonzero"/><path fill="#e10000" d="M 158.039062 62.289062 L 157.957031 61.378906 L 157.925781 60.941406 C 157.914062 60.792969 157.910156 60.648438 157.898438 60.503906 C 157.871094 59.917969 157.859375 59.332031 157.871094 58.746094 C 157.890625 57.578125 157.988281 56.417969 158.167969 55.285156 C 158.351562 54.152344 158.621094 53.050781 158.976562 52 C 159.335938 50.945312 159.78125 49.941406 160.335938 49 C 160.609375 48.527344 160.914062 48.074219 161.246094 47.636719 C 161.253906 47.625 161.265625 47.609375 161.277344 47.597656 L 161.308594 47.554688 L 161.375 47.472656 L 161.511719 47.308594 C 161.601562 47.199219 161.6875 47.085938 161.792969 46.976562 L 162.101562 46.636719 C 162.128906 46.609375 162.152344 46.582031 162.179688 46.554688 L 162.691406 46.042969 L 163.253906 45.527344 C 163.285156 45.5 163.320312 45.46875 163.351562 45.441406 L 163.554688 45.269531 L 163.753906 45.09375 C 163.824219 45.035156 163.886719 44.976562 163.960938 44.917969 L 164.390625 44.566406 L 164.5 44.480469 L 164.550781 44.433594 L 164.609375 44.390625 L 165.289062 43.851562 L 165.761719 43.488281 L 166.242188 43.117188 L 166.734375 42.742188 L 167.234375 42.355469 L 167.488281 42.160156 L 167.742188 41.960938 L 168.253906 41.558594 L 168.320312 41.507812 L 168.382812 41.457031 L 168.515625 41.351562 L 168.773438 41.140625 C 169.117188 40.867188 169.46875 40.566406 169.8125 40.277344 C 169.855469 40.238281 169.898438 40.203125 169.945312 40.164062 L 170.074219 40.046875 L 170.332031 39.816406 L 170.59375 39.585938 L 170.722656 39.46875 L 170.851562 39.347656 L 171.359375 38.859375 L 171.488281 38.738281 C 171.53125 38.695312 171.570312 38.652344 171.613281 38.609375 L 172.113281 38.09375 C 172.195312 38.003906 172.277344 37.921875 172.355469 37.832031 C 172.515625 37.652344 172.675781 37.472656 172.832031 37.292969 L 173.285156 36.746094 C 173.429688 36.5625 173.574219 36.375 173.71875 36.1875 C 174.84375 34.691406 175.75 33.109375 176.480469 31.515625 C 177.21875 29.921875 177.78125 28.3125 178.246094 26.710938 C 178.710938 25.105469 179.074219 23.507812 179.386719 21.917969 C 179.703125 20.324219 179.964844 18.738281 180.222656 17.15625 C 179.414062 18.542969 178.597656 19.925781 177.753906 21.269531 C 176.90625 22.617188 176.027344 23.921875 175.09375 25.152344 C 174.625 25.765625 174.144531 26.359375 173.652344 26.929688 C 173.160156 27.496094 172.648438 28.035156 172.125 28.542969 C 171.078125 29.554688 169.972656 30.433594 168.828125 31.128906 L 168.398438 31.382812 L 167.964844 31.621094 C 167.820312 31.695312 167.671875 31.765625 167.527344 31.839844 C 167.457031 31.878906 167.378906 31.910156 167.304688 31.941406 L 167.082031 32.042969 L 166.863281 32.144531 C 166.824219 32.160156 166.789062 32.175781 166.75 32.191406 L 166.632812 32.238281 L 166.171875 32.425781 L 166.058594 32.472656 L 165.9375 32.515625 L 165.699219 32.605469 L 165.460938 32.691406 L 165.339844 32.738281 C 165.300781 32.75 165.257812 32.765625 165.21875 32.78125 C 164.882812 32.890625 164.5625 33.003906 164.214844 33.113281 L 163.960938 33.195312 L 163.832031 33.234375 L 163.769531 33.253906 L 163.703125 33.273438 L 163.171875 33.4375 L 162.90625 33.515625 L 162.632812 33.597656 L 162.085938 33.757812 L 161.523438 33.925781 L 160.949219 34.097656 L 160.371094 34.269531 L 159.773438 34.457031 L 159.472656 34.546875 L 159.398438 34.570312 L 159.320312 34.597656 L 159.164062 34.648438 L 158.550781 34.851562 C 158.449219 34.882812 158.339844 34.921875 158.234375 34.957031 L 157.601562 35.183594 C 157.546875 35.203125 157.496094 35.21875 157.441406 35.238281 L 157.28125 35.300781 L 156.628906 35.550781 L 156.300781 35.683594 L 155.96875 35.824219 L 155.632812 35.96875 L 155.464844 36.039062 C 155.410156 36.0625 155.355469 36.089844 155.296875 36.117188 L 154.617188 36.4375 C 154.394531 36.539062 154.164062 36.664062 153.933594 36.78125 L 153.589844 36.964844 L 153.417969 37.058594 L 153.328125 37.101562 L 153.242188 37.152344 C 152.320312 37.671875 151.421875 38.25 150.5625 38.878906 C 148.84375 40.128906 147.273438 41.574219 145.863281 43.136719 C 144.453125 44.703125 143.203125 46.382812 142.101562 48.136719 C 141 49.890625 140.046875 51.714844 139.226562 53.589844 C 138.8125 54.527344 138.433594 55.476562 138.085938 56.441406 C 138.003906 56.679688 137.914062 56.921875 137.832031 57.164062 C 137.753906 57.40625 137.667969 57.648438 137.589844 57.890625 C 137.546875 58.027344 137.503906 58.164062 137.460938 58.300781 C 145.554688 60.675781 152.980469 64.609375 159.390625 69.757812 C 158.761719 67.160156 158.277344 64.6875 158.035156 62.308594 Z M 158.039062 62.289062 " fill-opacity="1" fill-rule="nonzero"/><path fill="#e10000" d="M 171.828125 106.800781 C 171.261719 104.453125 170.539062 102.167969 169.675781 99.949219 C 167.101562 93.351562 163.265625 87.382812 158.460938 82.34375 C 156.8125 80.617188 155.050781 78.996094 153.183594 77.5 C 147.773438 73.152344 141.503906 69.832031 134.667969 67.828125 C 132.394531 67.160156 130.054688 66.640625 127.667969 66.277344 C 125.003906 65.871094 122.273438 65.660156 119.496094 65.660156 C 115.125 65.660156 110.871094 66.179688 106.800781 67.164062 C 104.453125 67.734375 102.167969 68.453125 99.953125 69.316406 C 93.351562 71.890625 87.382812 75.726562 82.34375 80.535156 C 80.617188 82.183594 79 83.945312 77.5 85.808594 C 73.152344 91.21875 69.832031 97.492188 67.828125 104.324219 C 67.160156 106.601562 66.640625 108.9375 66.277344 111.328125 C 65.871094 113.992188 65.660156 116.71875 65.660156 119.496094 C 65.660156 123.871094 66.183594 128.121094 67.167969 132.191406 C 67.734375 134.539062 68.453125 136.824219 69.320312 139.042969 C 71.890625 145.640625 75.730469 151.609375 80.535156 156.648438 C 82.183594 158.375 83.945312 159.996094 85.808594 161.492188 C 91.222656 165.839844 97.492188 169.164062 104.324219 171.164062 C 106.601562 171.832031 108.9375 172.351562 111.328125 172.71875 C 113.992188 173.121094 116.71875 173.332031 119.496094 173.332031 C 123.871094 173.332031 128.121094 172.8125 132.191406 171.828125 C 134.539062 171.261719 136.828125 170.539062 139.042969 169.675781 C 145.644531 167.101562 151.609375 163.265625 156.648438 158.460938 C 158.378906 156.8125 159.996094 155.046875 161.492188 153.183594 C 165.839844 147.773438 169.164062 141.5 171.167969 134.667969 C 171.832031 132.394531 172.355469 130.054688 172.71875 127.667969 C 173.125 125.003906 173.332031 122.273438 173.332031 119.496094 C 173.328125 115.125 172.808594 110.871094 171.824219 106.800781 Z M 171.828125 106.800781 " fill-opacity="1" fill-rule="nonzero"/></g></g></g></svg>